<?xml version="1.0" encoding="utf-8"?>
<!-- Generator: Adobe Illustrator 16.0.0, SVG Export Plug-In . SVG Version: 6.00 Build 0)  -->
<!DOCTYPE svg PUBLIC "-//W3C//DTD SVG 1.1//EN" "http://www.w3.org/Graphics/SVG/1.1/DTD/svg11.dtd">
<svg version="1.1" id="Layer_1" xmlns="http://www.w3.org/2000/svg" xmlns:xlink="http://www.w3.org/1999/xlink" x="0px" y="0px"
	 width="128px" height="128px" viewBox="0 0 128 128" enable-background="new 0 0 128 128" xml:space="preserve">
<pattern  width="129" height="130" patternUnits="userSpaceOnUse" id="New_Pattern_Swatch_4" viewBox="0 -130 129 130" overflow="visible">
	<g>
		<polygon fill="none" points="0,0 129,0 129,-130 0,-130 		"/>
		<polygon fill="#a8c924" points="129,0 0,0 0,-130 129,-130 		"/>
	</g>
</pattern>
<g>
	<path fill="url(#New_Pattern_Swatch_4)" d="M120.714,21.001c-1.807-1.81-3.951-2.715-6.428-2.715h-9.142v-6.858
		c0-3.142-1.12-5.833-3.358-8.07C99.548,1.12,96.858,0,93.715,0h-4.57c-3.144,0-5.834,1.12-8.071,3.358
		c-2.239,2.238-3.358,4.929-3.358,8.07v6.858H50.288v-6.858c0-3.141-1.12-5.832-3.358-8.07C44.692,1.12,42.002,0,38.858,0h-4.571
		c-3.143,0-5.833,1.12-8.071,3.358c-2.238,2.238-3.358,4.929-3.358,8.07v6.858h-9.142c-2.477,0-4.619,0.905-6.429,2.715
		c-1.81,1.809-2.715,3.953-2.715,6.428v91.428c0,2.475,0.905,4.617,2.715,6.43c1.81,1.809,3.951,2.713,6.429,2.713h100.568
		c2.477,0,4.621-0.904,6.429-2.713c1.81-1.813,2.715-3.955,2.715-6.43V27.43C123.427,24.953,122.523,22.811,120.714,21.001z
		 M34.286,118.857h-20.57V98.283h20.57V118.857z M34.286,93.715h-20.57V70.857h20.57V93.715z M34.286,66.285h-20.57v-20.57h20.57
		V66.285z M32.681,33.607c-0.453-0.453-0.679-0.988-0.679-1.606V11.43c0-0.619,0.226-1.155,0.679-1.607
		c0.452-0.453,0.986-0.678,1.606-0.678h4.571c0.618,0,1.154,0.225,1.606,0.678c0.453,0.453,0.679,0.988,0.679,1.607v20.572
		c0,0.618-0.227,1.153-0.679,1.606c-0.452,0.453-0.987,0.679-1.606,0.679h-4.571C33.668,34.287,33.133,34.061,32.681,33.607z
		 M61.715,118.857H38.857V98.283h22.857V118.857z M61.715,93.715H38.857V70.857h22.857V93.715z M61.715,66.285H38.857v-20.57h22.857
		V66.285z M89.145,118.857H66.287V98.283h22.857V118.857z M89.145,93.715H66.287V70.857h22.857V93.715z M89.145,66.285H66.287
		v-20.57h22.857V66.285z M87.536,33.607c-0.451-0.453-0.677-0.988-0.677-1.606V11.43c0-0.619,0.226-1.155,0.677-1.607
		c0.453-0.453,0.988-0.678,1.608-0.678h4.57c0.62,0,1.155,0.225,1.608,0.678C95.774,10.275,96,10.811,96,11.43v20.572
		c0,0.618-0.226,1.153-0.677,1.606c-0.453,0.453-0.988,0.679-1.608,0.679h-4.57C88.524,34.287,87.987,34.061,87.536,33.607z
		 M114.284,118.857H93.713V98.283h20.571V118.857z M114.284,93.715H93.713V70.857h20.571V93.715z M114.284,66.285H93.713v-20.57
		h20.571V66.285z"/>
</g>
</svg>
