<?xml version="1.0" encoding="utf-8"?>
<!-- Generator: Adobe Illustrator 22.1.0, SVG Export Plug-In . SVG Version: 6.00 Build 0)  -->
<svg version="1.1" id="Layer_1" xmlns="http://www.w3.org/2000/svg" xmlns:xlink="http://www.w3.org/1999/xlink" x="0px" y="0px"
	 viewBox="0 0 1024 256" enable-background="new 0 0 1024 256" xml:space="preserve">
<pattern  width="129" height="130" patternUnits="userSpaceOnUse" id="New_Pattern_Swatch_1" viewBox="0 -130 129 130" overflow="visible">
	<g>
		<rect y="-130" fill="none" width="129" height="130"/>
		<rect y="-130" fill="#CC138A" width="129" height="130"/>
	</g>
</pattern>
<pattern  width="129" height="130" patternUnits="userSpaceOnUse" id="New_Pattern_Swatch_2" viewBox="0 -130 129 130" overflow="visible">
	<g>
		<rect y="-130" fill="none" width="129" height="130"/>
		<rect y="-130" fill="#F0A836" width="129" height="130"/>
	</g>
</pattern>
<pattern  width="129" height="130" patternUnits="userSpaceOnUse" id="New_Pattern_Swatch_3" viewBox="0 -130 129 130" overflow="visible">
	<g>
		<rect y="-130" fill="none" width="129" height="130"/>
		<rect y="-130" fill="#A4CDC6" width="129" height="130"/>
	</g>
</pattern>
<pattern  width="129" height="130" patternUnits="userSpaceOnUse" id="New_Pattern_Swatch_4" viewBox="0 -130 129 130" overflow="visible">
	<g>
		<rect y="-130" fill="none" width="129" height="130"/>
		<rect y="-130" fill="#a8c924" width="129" height="130"/>
	</g>
</pattern>
<pattern  width="129" height="130" patternUnits="userSpaceOnUse" id="New_Pattern_Swatch_5" viewBox="0 -130 129 130" overflow="visible">
	<g>
		<rect y="-130" fill="none" width="129" height="130"/>
		<rect y="-130" fill="#404041" width="129" height="130"/>
	</g>
</pattern>
<g>
	<g>
		<defs>
			<line id="SVGID_1_" x1="54" y1="128" x2="948" y2="128"/>
		</defs>
		<clipPath id="SVGID_2_">
			<use xlink:href="#SVGID_1_"  overflow="visible"/>
		</clipPath>
		<g clip-path="url(#SVGID_2_)">
			<rect x="861.967" y="6" fill="none" width="124.7" height="130"/>
			<rect x="861.967" y="6" fill="#CC138A" width="124.7" height="130"/>
		</g>
		<g clip-path="url(#SVGID_2_)">
			<rect x="737.267" y="6" fill="none" width="124.7" height="130"/>
			<rect x="737.267" y="6" fill="#CC138A" width="124.7" height="130"/>
		</g>
		<g clip-path="url(#SVGID_2_)">
			<rect x="612.567" y="6" fill="none" width="124.7" height="130"/>
			<rect x="612.567" y="6" fill="#CC138A" width="124.7" height="130"/>
		</g>
		<g clip-path="url(#SVGID_2_)">
			<rect x="487.867" y="6" fill="none" width="124.7" height="130"/>
			<rect x="487.867" y="6" fill="#CC138A" width="124.7" height="130"/>
		</g>
		<g clip-path="url(#SVGID_2_)">
			<rect x="363.167" y="6" fill="none" width="124.7" height="130"/>
			<rect x="363.167" y="6" fill="#CC138A" width="124.7" height="130"/>
		</g>
		<g clip-path="url(#SVGID_2_)">
			<rect x="238.467" y="6" fill="none" width="124.7" height="130"/>
			<rect x="238.467" y="6" fill="#CC138A" width="124.7" height="130"/>
		</g>
		<g clip-path="url(#SVGID_2_)">
			<rect x="113.767" y="6" fill="none" width="124.7" height="130"/>
			<rect x="113.767" y="6" fill="#CC138A" width="124.7" height="130"/>
		</g>
		<g clip-path="url(#SVGID_2_)">
			<rect x="-10.933" y="6" fill="none" width="124.7" height="130"/>
			<rect x="-10.933" y="6" fill="#CC138A" width="124.7" height="130"/>
		</g>
	</g>
	<pattern  id="SVGID_3_" xlink:href="#New_Pattern_Swatch_5" patternTransform="matrix(1.45 0 0 1.5 3293.9675 3854.0623)">
	</pattern>
	<path fill="url(#SVGID_3_)" d="M948,131H54c-1.657,0-3-1.343-3-3c0-1.657,1.343-3,3-3h894c1.657,0,3,1.343,3,3
		C951,129.657,949.657,131,948,131z"/>
</g>
<g>
	<g>
		<defs>
			<circle id="SVGID_4_" cx="54" cy="128" r="12"/>
		</defs>
		<clipPath id="SVGID_5_">
			<use xlink:href="#SVGID_4_"  overflow="visible"/>
		</clipPath>
		<g clip-path="url(#SVGID_5_)">
			<rect x="-116.142" y="-59.945" fill="none" width="193.5" height="195"/>
			<rect x="-116.142" y="-59.945" fill="#404041" width="193.5" height="195"/>
		</g>
		<g clip-path="url(#SVGID_5_)">
			<rect x="-116.142" y="135.055" fill="none" width="193.5" height="195"/>
			<rect x="-116.142" y="135.055" fill="#404041" width="193.5" height="195"/>
		</g>
	</g>
</g>
<g>
	<g>
		<defs>
			<circle id="SVGID_6_" cx="166" cy="128" r="12"/>
		</defs>
		<clipPath id="SVGID_7_">
			<use xlink:href="#SVGID_6_"  overflow="visible"/>
		</clipPath>
		<g clip-path="url(#SVGID_7_)">
			<rect x="60" y="50" fill="none" width="129" height="130"/>
			<rect x="60" y="50" fill="#CC138A" width="129" height="130"/>
		</g>
	</g>
	<pattern  id="SVGID_8_" xlink:href="#New_Pattern_Swatch_5" patternTransform="matrix(1.5 0 0 1.5 2898.3633 3768.0623)">
	</pattern>
	<path fill="url(#SVGID_8_)" d="M166,143c-8.271,0-15-6.729-15-15c0-8.271,6.729-15,15-15s15,6.729,15,15
		C181,136.271,174.271,143,166,143z M166,119c-4.962,0-9,4.038-9,9c0,4.963,4.038,9,9,9s9-4.037,9-9
		C175,123.038,170.962,119,166,119z"/>
</g>
<g>
	<g>
		<defs>
			<circle id="SVGID_9_" cx="278" cy="128" r="18"/>
		</defs>
		<clipPath id="SVGID_10_">
			<use xlink:href="#SVGID_9_"  overflow="visible"/>
		</clipPath>
		<g clip-path="url(#SVGID_10_)">
			<rect x="119" y="11" fill="none" width="193.5" height="195"/>
			<rect x="119" y="11" fill="#F0A836" width="193.5" height="195"/>
		</g>
	</g>
	<pattern  id="SVGID_11_" xlink:href="#New_Pattern_Swatch_5" patternTransform="matrix(2.25 0 0 2.25 8149.8027 9620.1016)">
	</pattern>
	<path fill="url(#SVGID_11_)" d="M278,149c-11.58,0-21-9.421-21-21c0-11.58,9.42-21,21-21s21,9.42,21,21
		C299,139.579,289.58,149,278,149z M278,113c-8.271,0-15,6.729-15,15c0,8.271,6.729,15,15,15s15-6.729,15-15
		C293,119.729,286.271,113,278,113z"/>
</g>
<g>
	<g>
		<defs>
			<circle id="SVGID_12_" cx="390" cy="128" r="18"/>
		</defs>
		<clipPath id="SVGID_13_">
			<use xlink:href="#SVGID_12_"  overflow="visible"/>
		</clipPath>
		<g clip-path="url(#SVGID_13_)">
			<rect x="231" y="11" fill="none" width="193.5" height="195"/>
			<rect x="231" y="11" fill="#F0A836" width="193.5" height="195"/>
		</g>
	</g>
	<pattern  id="SVGID_14_" xlink:href="#New_Pattern_Swatch_5" patternTransform="matrix(2.25 0 0 2.25 8261.8027 9620.1016)">
	</pattern>
	<path fill="url(#SVGID_14_)" d="M390,149c-11.58,0-21-9.421-21-21c0-11.58,9.42-21,21-21s21,9.42,21,21
		C411,139.579,401.58,149,390,149z M390,113c-8.271,0-15,6.729-15,15c0,8.271,6.729,15,15,15s15-6.729,15-15
		C405,119.729,398.271,113,390,113z"/>
</g>
<g>
	<g>
		<defs>
			<circle id="SVGID_15_" cx="502" cy="128" r="18"/>
		</defs>
		<clipPath id="SVGID_16_">
			<use xlink:href="#SVGID_15_"  overflow="visible"/>
		</clipPath>
		<g clip-path="url(#SVGID_16_)">
			<rect x="343" y="11" fill="none" width="193.5" height="195"/>
			<rect x="343" y="11" fill="#F0A836" width="193.5" height="195"/>
		</g>
	</g>
	<pattern  id="SVGID_17_" xlink:href="#New_Pattern_Swatch_5" patternTransform="matrix(2.25 0 0 2.25 8373.8027 9620.1016)">
	</pattern>
	<path fill="url(#SVGID_17_)" d="M502,149c-11.58,0-21-9.421-21-21c0-11.58,9.42-21,21-21c11.579,0,21,9.42,21,21
		C523,139.579,513.579,149,502,149z M502,113c-8.271,0-15,6.729-15,15c0,8.271,6.729,15,15,15s15-6.729,15-15
		C517,119.729,510.271,113,502,113z"/>
</g>
<g>
	<g>
		<defs>
			<circle id="SVGID_18_" cx="614" cy="128" r="18"/>
		</defs>
		<clipPath id="SVGID_19_">
			<use xlink:href="#SVGID_18_"  overflow="visible"/>
		</clipPath>
		<g clip-path="url(#SVGID_19_)">
			<rect x="455" y="11" fill="none" width="193.5" height="195"/>
			<rect x="455" y="11" fill="#F0A836" width="193.5" height="195"/>
		</g>
	</g>
	<pattern  id="SVGID_20_" xlink:href="#New_Pattern_Swatch_5" patternTransform="matrix(2.25 0 0 2.25 8485.8027 9620.1016)">
	</pattern>
	<path fill="url(#SVGID_20_)" d="M614,149c-11.579,0-21-9.421-21-21c0-11.58,9.421-21,21-21s21,9.42,21,21
		C635,139.579,625.579,149,614,149z M614,113c-8.271,0-15,6.729-15,15c0,8.271,6.729,15,15,15s15-6.729,15-15
		C629,119.729,622.271,113,614,113z"/>
</g>
<g>
	<g>
		<defs>
			<circle id="SVGID_21_" cx="726" cy="128" r="18"/>
		</defs>
		<clipPath id="SVGID_22_">
			<use xlink:href="#SVGID_21_"  overflow="visible"/>
		</clipPath>
		<g clip-path="url(#SVGID_22_)">
			<rect x="567" y="11" fill="none" width="193.5" height="195"/>
			<rect x="567" y="11" fill="#F0A836" width="193.5" height="195"/>
		</g>
	</g>
	<pattern  id="SVGID_23_" xlink:href="#New_Pattern_Swatch_5" patternTransform="matrix(2.25 0 0 2.25 8597.8027 9620.1016)">
	</pattern>
	<path fill="url(#SVGID_23_)" d="M726,149c-11.579,0-21-9.421-21-21c0-11.58,9.421-21,21-21s21,9.42,21,21
		C747,139.579,737.579,149,726,149z M726,113c-8.271,0-15,6.729-15,15c0,8.271,6.729,15,15,15s15-6.729,15-15
		C741,119.729,734.271,113,726,113z"/>
</g>
<g>
	<g>
		<defs>
			<circle id="SVGID_24_" cx="838" cy="128" r="24"/>
		</defs>
		<clipPath id="SVGID_25_">
			<use xlink:href="#SVGID_24_"  overflow="visible"/>
		</clipPath>
		<g clip-path="url(#SVGID_25_)">
			<rect x="626" y="-28" fill="none" width="258" height="260"/>
			<rect x="626" y="-28" fill="#A4CDC6" width="258" height="260"/>
		</g>
	</g>
	<pattern  id="SVGID_26_" xlink:href="#New_Pattern_Swatch_5" patternTransform="matrix(3 0 0 3 14042.7422 15472.1406)">
	</pattern>
	<path fill="url(#SVGID_26_)" d="M838,155c-14.888,0-27-12.112-27-27s12.112-27,27-27s27,12.112,27,27S852.888,155,838,155z
		 M838,107c-11.579,0-21,9.42-21,21c0,11.579,9.421,21,21,21s21-9.421,21-21C859,116.42,849.579,107,838,107z"/>
</g>
<g>
	<g>
		<defs>
			<circle id="SVGID_27_" cx="950" cy="128" r="32"/>
		</defs>
		<clipPath id="SVGID_28_">
			<use xlink:href="#SVGID_27_"  overflow="visible"/>
		</clipPath>
		<g clip-path="url(#SVGID_28_)">
			<rect x="667.333" y="-80" fill="none" width="344" height="346.667"/>
			<rect x="667.333" y="-80" fill="#a8c924" width="344" height="346.667"/>
		</g>
	</g>
	<pattern  id="SVGID_29_" xlink:href="#New_Pattern_Swatch_5" patternTransform="matrix(4 0 0 4 21136.3281 23144.8594)">
	</pattern>
	<path fill="url(#SVGID_29_)" d="M950,163c-19.299,0-35-15.701-35-35s15.701-35,35-35s35,15.701,35,35S969.299,163,950,163z M950,99
		c-15.99,0-29,13.009-29,29c0,15.99,13.01,29,29,29s29-13.01,29-29C979,112.009,965.99,99,950,99z"/>
</g>
<g>
	<pattern  id="SVGID_30_" xlink:href="#New_Pattern_Swatch_5" patternTransform="matrix(1 0 0 1 -61.5916 97.9407)">
	</pattern>
	<path fill="url(#SVGID_30_)" d="M16.32,197.712c0.16,1.601,0.769,2.721,1.824,3.36c1.056,0.641,2.319,0.96,3.792,0.96
		c0.512,0,1.096-0.04,1.752-0.12c0.655-0.08,1.272-0.231,1.848-0.456c0.576-0.224,1.048-0.552,1.416-0.984
		c0.368-0.432,0.536-0.999,0.504-1.704c-0.032-0.703-0.287-1.279-0.768-1.728c-0.479-0.448-1.097-0.808-1.848-1.08
		c-0.753-0.271-1.608-0.504-2.568-0.696c-0.96-0.191-1.937-0.399-2.928-0.624c-1.024-0.224-2.009-0.495-2.952-0.815
		c-0.944-0.319-1.793-0.752-2.544-1.296c-0.752-0.544-1.353-1.24-1.8-2.089c-0.449-0.847-0.672-1.896-0.672-3.144
		c0-1.344,0.327-2.472,0.983-3.384c0.655-0.912,1.488-1.647,2.496-2.208c1.008-0.56,2.128-0.952,3.36-1.176
		c1.231-0.224,2.407-0.336,3.527-0.336c1.28,0,2.504,0.136,3.672,0.407c1.168,0.272,2.225,0.713,3.169,1.32
		c0.943,0.608,1.728,1.4,2.352,2.376c0.624,0.977,1.016,2.152,1.176,3.528H26.4c-0.257-1.312-0.856-2.191-1.8-2.641
		c-0.944-0.447-2.024-0.672-3.24-0.672c-0.384,0-0.84,0.032-1.368,0.097c-0.527,0.064-1.024,0.184-1.487,0.359
		c-0.465,0.177-0.856,0.433-1.177,0.769s-0.479,0.775-0.479,1.319c0,0.672,0.231,1.217,0.696,1.632
		c0.463,0.417,1.071,0.761,1.823,1.032c0.752,0.272,1.608,0.504,2.568,0.696s1.951,0.4,2.976,0.624
		c0.992,0.225,1.969,0.496,2.929,0.815c0.96,0.32,1.815,0.753,2.567,1.297s1.36,1.231,1.824,2.063
		c0.464,0.833,0.696,1.856,0.696,3.072c0,1.472-0.336,2.72-1.008,3.744c-0.673,1.024-1.545,1.855-2.616,2.496
		c-1.072,0.64-2.265,1.104-3.576,1.392c-1.312,0.288-2.608,0.432-3.888,0.432c-1.568,0-3.017-0.176-4.345-0.527
		s-2.479-0.889-3.456-1.608c-0.976-0.72-1.744-1.615-2.304-2.688c-0.561-1.072-0.856-2.344-0.888-3.816H16.32z"/>
	<pattern  id="SVGID_31_" xlink:href="#New_Pattern_Swatch_5" patternTransform="matrix(1 0 0 1 -61.5916 97.9407)">
	</pattern>
	<path fill="url(#SVGID_31_)" d="M32.208,180.864h4.128v-7.44h5.473v7.44h4.943v4.08h-4.943v13.248c0,0.575,0.023,1.072,0.071,1.487
		c0.048,0.416,0.16,0.769,0.336,1.057s0.439,0.504,0.792,0.647c0.353,0.145,0.832,0.216,1.44,0.216c0.384,0,0.768-0.007,1.152-0.023
		c0.384-0.016,0.768-0.072,1.151-0.168v4.224c-0.608,0.063-1.2,0.128-1.775,0.192c-0.576,0.063-1.169,0.096-1.776,0.096
		c-1.44,0-2.601-0.137-3.479-0.408c-0.881-0.271-1.568-0.672-2.064-1.2c-0.496-0.527-0.833-1.191-1.008-1.991
		c-0.177-0.8-0.28-1.712-0.312-2.736v-14.64h-4.128V180.864z"/>
	<pattern  id="SVGID_32_" xlink:href="#New_Pattern_Swatch_5" patternTransform="matrix(1 0 0 1 -61.5916 97.9407)">
	</pattern>
	<path fill="url(#SVGID_32_)" d="M69.072,200.16c0,0.672,0.088,1.151,0.264,1.439s0.52,0.433,1.032,0.433c0.16,0,0.352,0,0.576,0
		c0.224,0,0.479-0.032,0.768-0.097v3.792c-0.191,0.064-0.44,0.136-0.744,0.217c-0.304,0.079-0.616,0.151-0.936,0.216
		c-0.32,0.063-0.641,0.111-0.96,0.144c-0.32,0.031-0.593,0.048-0.816,0.048c-1.12,0-2.048-0.224-2.783-0.672
		c-0.737-0.447-1.217-1.231-1.44-2.352c-1.088,1.056-2.424,1.824-4.008,2.304c-1.584,0.48-3.112,0.72-4.584,0.72
		c-1.121,0-2.192-0.152-3.216-0.456c-1.025-0.304-1.929-0.751-2.713-1.344c-0.784-0.592-1.408-1.344-1.871-2.256
		c-0.465-0.912-0.696-1.976-0.696-3.192c0-1.535,0.279-2.783,0.84-3.743c0.56-0.96,1.296-1.712,2.208-2.257
		c0.912-0.543,1.936-0.936,3.072-1.176c1.135-0.24,2.279-0.424,3.432-0.552c0.991-0.192,1.936-0.328,2.832-0.408
		c0.896-0.079,1.688-0.216,2.376-0.408c0.688-0.191,1.231-0.487,1.632-0.888c0.4-0.399,0.601-1,0.601-1.8
		c0-0.704-0.168-1.279-0.504-1.729c-0.336-0.447-0.753-0.792-1.248-1.031c-0.497-0.24-1.049-0.4-1.656-0.48
		c-0.608-0.079-1.185-0.12-1.729-0.12c-1.535,0-2.8,0.32-3.792,0.96c-0.992,0.641-1.552,1.632-1.68,2.977h-5.472
		c0.096-1.6,0.479-2.929,1.151-3.984c0.673-1.056,1.528-1.903,2.568-2.544c1.039-0.64,2.216-1.088,3.528-1.344
		c1.312-0.256,2.655-0.384,4.031-0.384c1.216,0,2.416,0.128,3.601,0.384c1.184,0.256,2.248,0.672,3.191,1.248
		c0.944,0.576,1.704,1.319,2.28,2.231s0.864,2.024,0.864,3.336V200.16z M63.601,193.248c-0.833,0.544-1.856,0.872-3.072,0.983
		c-1.217,0.113-2.433,0.281-3.648,0.505c-0.575,0.096-1.136,0.232-1.68,0.407c-0.545,0.177-1.024,0.417-1.44,0.721
		s-0.743,0.704-0.983,1.199c-0.24,0.497-0.36,1.097-0.36,1.801c0,0.608,0.176,1.12,0.528,1.536c0.352,0.416,0.775,0.743,1.271,0.983
		s1.04,0.408,1.633,0.504c0.592,0.097,1.128,0.145,1.607,0.145c0.607,0,1.264-0.08,1.968-0.24s1.368-0.432,1.992-0.816
		c0.624-0.384,1.144-0.871,1.561-1.464c0.415-0.592,0.624-1.319,0.624-2.184V193.248z"/>
	<pattern  id="SVGID_33_" xlink:href="#New_Pattern_Swatch_5" patternTransform="matrix(1 0 0 1 -61.5916 97.9407)">
	</pattern>
	<path fill="url(#SVGID_33_)" d="M72.576,180.864h5.136v4.8h0.097c0.159-0.672,0.472-1.327,0.936-1.968
		c0.464-0.64,1.023-1.225,1.68-1.752c0.656-0.528,1.384-0.952,2.185-1.272c0.8-0.319,1.615-0.479,2.448-0.479
		c0.64,0,1.08,0.016,1.319,0.048c0.24,0.032,0.488,0.064,0.744,0.096v5.28c-0.384-0.064-0.776-0.12-1.176-0.168
		c-0.4-0.048-0.792-0.072-1.176-0.072c-0.929,0-1.8,0.185-2.616,0.552c-0.816,0.368-1.528,0.912-2.136,1.632
		c-0.608,0.721-1.089,1.608-1.44,2.664c-0.353,1.057-0.528,2.272-0.528,3.648v11.808h-5.472V180.864z"/>
	<pattern  id="SVGID_34_" xlink:href="#New_Pattern_Swatch_5" patternTransform="matrix(1 0 0 1 -61.5916 97.9407)">
	</pattern>
	<path fill="url(#SVGID_34_)" d="M84.575,180.864h4.128v-7.44h5.473v7.44h4.943v4.08h-4.943v13.248c0,0.575,0.023,1.072,0.071,1.487
		c0.048,0.416,0.16,0.769,0.336,1.057s0.439,0.504,0.792,0.647c0.353,0.145,0.832,0.216,1.44,0.216c0.384,0,0.768-0.007,1.152-0.023
		c0.384-0.016,0.768-0.072,1.151-0.168v4.224c-0.608,0.063-1.2,0.128-1.775,0.192c-0.576,0.063-1.169,0.096-1.776,0.096
		c-1.44,0-2.601-0.137-3.479-0.408c-0.881-0.271-1.568-0.672-2.064-1.2c-0.496-0.527-0.833-1.191-1.008-1.991
		c-0.177-0.8-0.28-1.712-0.312-2.736v-14.64h-4.128V180.864z"/>
</g>
<g>
	<pattern  id="SVGID_35_" xlink:href="#New_Pattern_Swatch_2" patternTransform="matrix(1 0 0 1 33.1926 97.9407)">
	</pattern>
	<path fill="url(#SVGID_35_)" d="M232.473,171.408h8.448l9.456,26.832h0.096l9.216-26.832h8.353v34.271h-5.712v-26.448h-0.097
		l-9.504,26.448h-4.943l-9.504-26.448h-0.097v26.448h-5.712V171.408z"/>
	<pattern  id="SVGID_36_" xlink:href="#New_Pattern_Swatch_2" patternTransform="matrix(1 0 0 1 33.1926 97.9407)">
	</pattern>
	<path fill="url(#SVGID_36_)" d="M268.952,171.408h6.24l8.592,27.12h0.097l8.783-27.12h6.097l-11.712,34.271h-6.673L268.952,171.408
		z"/>
	<pattern  id="SVGID_37_" xlink:href="#New_Pattern_Swatch_2" patternTransform="matrix(1 0 0 1 33.1926 97.9407)">
	</pattern>
	<path fill="url(#SVGID_37_)" d="M299.769,171.408h15.119c2.432,0,4.416,0.353,5.952,1.056c1.536,0.704,2.72,1.584,3.553,2.64
		c0.831,1.057,1.399,2.208,1.703,3.456s0.456,2.4,0.456,3.456c0,1.057-0.152,2.201-0.456,3.433
		c-0.304,1.232-0.872,2.376-1.703,3.432c-0.833,1.056-2.017,1.929-3.553,2.616c-1.536,0.688-3.521,1.032-5.952,1.032h-9.119v13.151
		h-6V171.408z M305.769,187.632h8.783c0.672,0,1.36-0.096,2.064-0.288c0.703-0.191,1.352-0.504,1.944-0.936
		c0.592-0.433,1.071-1.008,1.439-1.729c0.367-0.72,0.552-1.623,0.552-2.712c0-1.119-0.16-2.047-0.479-2.784
		c-0.32-0.735-0.752-1.319-1.296-1.752c-0.545-0.432-1.169-0.728-1.872-0.888c-0.704-0.16-1.457-0.24-2.256-0.24h-8.88V187.632z"/>
</g>
<g>
	<pattern  id="SVGID_38_" xlink:href="#New_Pattern_Swatch_2" patternTransform="matrix(1 0 0 1 313.1926 -30.0593)">
	</pattern>
	<path fill="url(#SVGID_38_)" d="M570.049,72.256c0,0.864,0.151,1.376,0.455,1.536c0.305,0.16,0.664,0.24,1.08,0.24h0.336
		c0.128,0,0.248-0.008,0.36-0.024c0.112-0.016,0.248-0.04,0.408-0.072v3.792c-0.416,0.16-0.984,0.304-1.704,0.433
		c-0.72,0.127-1.32,0.191-1.8,0.191c-1.536,0-2.624-0.368-3.265-1.104c-0.64-0.736-1.024-1.808-1.151-3.216h-0.145
		c-0.768,1.536-1.84,2.624-3.216,3.264s-2.944,0.96-4.704,0.96c-1.856,0-3.473-0.368-4.848-1.104
		c-1.376-0.736-2.521-1.712-3.432-2.929c-0.912-1.216-1.593-2.607-2.04-4.176c-0.449-1.567-0.673-3.184-0.673-4.848
		s0.232-3.28,0.696-4.849c0.464-1.567,1.168-2.959,2.112-4.176c0.943-1.216,2.144-2.184,3.6-2.904
		c1.456-0.72,3.176-1.079,5.16-1.079c1.536,0,2.944,0.368,4.224,1.104c1.28,0.736,2.272,1.696,2.977,2.88h0.096v-3.312h5.473V72.256
		z M551.185,65.2c0,1.024,0.127,2.063,0.384,3.12c0.256,1.056,0.648,2.008,1.176,2.855c0.528,0.849,1.208,1.536,2.04,2.064
		c0.832,0.527,1.84,0.792,3.024,0.792c1.312,0,2.416-0.265,3.312-0.792c0.896-0.528,1.616-1.216,2.16-2.064
		c0.544-0.848,0.937-1.808,1.176-2.88c0.24-1.071,0.36-2.167,0.36-3.288c0-1.184-0.137-2.287-0.408-3.312
		c-0.272-1.024-0.688-1.92-1.248-2.688c-0.56-0.768-1.256-1.375-2.088-1.824c-0.832-0.447-1.809-0.672-2.928-0.672
		c-1.344,0-2.465,0.248-3.36,0.744c-0.896,0.496-1.607,1.152-2.136,1.968c-0.528,0.816-0.904,1.745-1.128,2.784
		C551.296,63.048,551.185,64.112,551.185,65.2z"/>
	<pattern  id="SVGID_39_" xlink:href="#New_Pattern_Swatch_2" patternTransform="matrix(1 0 0 1 313.1926 -30.0593)">
	</pattern>
	<path fill="url(#SVGID_39_)" d="M560.416,86.433c0,0.319,0.048,0.735,0.144,1.248c0.097,0.511,0.28,1.008,0.553,1.487
		c0.271,0.48,0.631,0.896,1.08,1.248c0.447,0.352,1.023,0.528,1.728,0.528h9.888c1.12,0,2.096,0.224,2.929,0.672
		c0.831,0.448,1.52,0.991,2.063,1.632c0.544,0.64,0.943,1.312,1.2,2.017c0.256,0.703,0.384,1.312,0.384,1.823v4.368h-4.32v-2.64
		c0-0.608-0.104-1.089-0.312-1.44c-0.209-0.353-0.48-0.624-0.816-0.815c-0.336-0.192-0.704-0.312-1.104-0.36
		c-0.4-0.048-0.776-0.072-1.128-0.072h-9.36c-0.96,0-1.76-0.191-2.399-0.575c-0.641-0.385-1.145-0.841-1.513-1.368
		c-0.368-0.528-0.641-1.073-0.815-1.632c-0.177-0.561-0.281-1.032-0.312-1.416h-0.096c-0.032,0.384-0.112,0.855-0.24,1.416
		c-0.128,0.559-0.376,1.104-0.744,1.632c-0.368,0.527-0.896,0.983-1.584,1.368c-0.688,0.384-1.607,0.575-2.76,0.575h-9.072
		c-0.352,0-0.728,0.024-1.128,0.072c-0.399,0.048-0.768,0.168-1.104,0.36c-0.336,0.191-0.607,0.463-0.816,0.815
		c-0.208,0.352-0.312,0.832-0.312,1.44v2.64h-4.32v-4.368c0-0.512,0.128-1.12,0.384-1.823c0.257-0.705,0.656-1.377,1.2-2.017
		c0.545-0.641,1.232-1.184,2.064-1.632s1.808-0.672,2.928-0.672h9.504c0.768,0,1.407-0.177,1.92-0.528
		c0.512-0.353,0.912-0.768,1.2-1.248c0.288-0.479,0.487-0.977,0.6-1.487c0.112-0.513,0.168-0.929,0.168-1.248H560.416z"/>
</g>
<g>
	<pattern  id="SVGID_40_" xlink:href="#New_Pattern_Swatch_2" patternTransform="matrix(1 0 0 1 425.1926 -30.0593)">
	</pattern>
	<path fill="url(#SVGID_40_)" d="M682.049,72.256c0,0.864,0.151,1.376,0.455,1.536c0.305,0.16,0.664,0.24,1.08,0.24h0.336
		c0.128,0,0.248-0.008,0.36-0.024c0.112-0.016,0.248-0.04,0.408-0.072v3.792c-0.416,0.16-0.984,0.304-1.704,0.433
		c-0.72,0.127-1.32,0.191-1.8,0.191c-1.536,0-2.624-0.368-3.265-1.104c-0.64-0.736-1.024-1.808-1.151-3.216h-0.145
		c-0.768,1.536-1.84,2.624-3.216,3.264s-2.944,0.96-4.704,0.96c-1.856,0-3.473-0.368-4.848-1.104
		c-1.376-0.736-2.521-1.712-3.432-2.929c-0.912-1.216-1.593-2.607-2.04-4.176c-0.449-1.567-0.673-3.184-0.673-4.848
		s0.232-3.28,0.696-4.849c0.464-1.567,1.168-2.959,2.112-4.176c0.943-1.216,2.144-2.184,3.6-2.904
		c1.456-0.72,3.176-1.079,5.16-1.079c1.536,0,2.944,0.368,4.224,1.104c1.28,0.736,2.272,1.696,2.977,2.88h0.096v-3.312h5.473V72.256
		z M663.185,65.2c0,1.024,0.127,2.063,0.384,3.12c0.256,1.056,0.648,2.008,1.176,2.855c0.528,0.849,1.208,1.536,2.04,2.064
		c0.832,0.527,1.84,0.792,3.024,0.792c1.312,0,2.416-0.265,3.312-0.792c0.896-0.528,1.616-1.216,2.16-2.064
		c0.544-0.848,0.937-1.808,1.176-2.88c0.24-1.071,0.36-2.167,0.36-3.288c0-1.184-0.137-2.287-0.408-3.312
		c-0.272-1.024-0.688-1.92-1.248-2.688c-0.56-0.768-1.256-1.375-2.088-1.824c-0.832-0.447-1.809-0.672-2.928-0.672
		c-1.344,0-2.465,0.248-3.36,0.744c-0.896,0.496-1.607,1.152-2.136,1.968c-0.528,0.816-0.904,1.745-1.128,2.784
		C663.296,63.048,663.185,64.112,663.185,65.2z"/>
	<pattern  id="SVGID_41_" xlink:href="#New_Pattern_Swatch_2" patternTransform="matrix(1 0 0 1 425.1926 -30.0593)">
	</pattern>
	<path fill="url(#SVGID_41_)" d="M672.416,86.433c0,0.319,0.048,0.735,0.144,1.248c0.097,0.511,0.28,1.008,0.553,1.487
		c0.271,0.48,0.631,0.896,1.08,1.248c0.447,0.352,1.023,0.528,1.728,0.528h9.888c1.12,0,2.096,0.224,2.929,0.672
		c0.831,0.448,1.52,0.991,2.063,1.632c0.544,0.64,0.943,1.312,1.2,2.017c0.256,0.703,0.384,1.312,0.384,1.823v4.368h-4.32v-2.64
		c0-0.608-0.104-1.089-0.312-1.44c-0.209-0.353-0.48-0.624-0.816-0.815c-0.336-0.192-0.704-0.312-1.104-0.36
		c-0.4-0.048-0.776-0.072-1.128-0.072h-9.36c-0.96,0-1.76-0.191-2.399-0.575c-0.641-0.385-1.145-0.841-1.513-1.368
		c-0.368-0.528-0.641-1.073-0.815-1.632c-0.177-0.561-0.281-1.032-0.312-1.416h-0.096c-0.032,0.384-0.112,0.855-0.24,1.416
		c-0.128,0.559-0.376,1.104-0.744,1.632c-0.368,0.527-0.896,0.983-1.584,1.368c-0.688,0.384-1.607,0.575-2.76,0.575h-9.072
		c-0.352,0-0.728,0.024-1.128,0.072c-0.399,0.048-0.768,0.168-1.104,0.36c-0.336,0.191-0.607,0.463-0.816,0.815
		c-0.208,0.352-0.312,0.832-0.312,1.44v2.64h-4.32v-4.368c0-0.512,0.128-1.12,0.384-1.823c0.257-0.705,0.656-1.377,1.2-2.017
		c0.545-0.641,1.232-1.184,2.064-1.632s1.808-0.672,2.928-0.672h9.504c0.768,0,1.407-0.177,1.92-0.528
		c0.512-0.353,0.912-0.768,1.2-1.248c0.288-0.479,0.487-0.977,0.6-1.487c0.112-0.513,0.168-0.929,0.168-1.248H672.416z"/>
</g>
<g>
	<pattern  id="SVGID_42_" xlink:href="#New_Pattern_Swatch_2" patternTransform="matrix(1 0 0 1 201.1926 -30.0593)">
	</pattern>
	<path fill="url(#SVGID_42_)" d="M458.049,72.256c0,0.864,0.151,1.376,0.455,1.536c0.305,0.16,0.664,0.24,1.08,0.24h0.336
		c0.128,0,0.248-0.008,0.36-0.024c0.112-0.016,0.248-0.04,0.408-0.072v3.792c-0.416,0.16-0.984,0.304-1.704,0.433
		c-0.72,0.127-1.32,0.191-1.8,0.191c-1.536,0-2.624-0.368-3.265-1.104c-0.64-0.736-1.024-1.808-1.151-3.216h-0.145
		c-0.768,1.536-1.84,2.624-3.216,3.264s-2.944,0.96-4.704,0.96c-1.856,0-3.473-0.368-4.848-1.104
		c-1.376-0.736-2.521-1.712-3.432-2.929c-0.912-1.216-1.593-2.607-2.04-4.176c-0.449-1.567-0.673-3.184-0.673-4.848
		s0.232-3.28,0.696-4.849c0.464-1.567,1.168-2.959,2.112-4.176c0.943-1.216,2.144-2.184,3.6-2.904
		c1.456-0.72,3.176-1.079,5.16-1.079c1.536,0,2.944,0.368,4.224,1.104c1.28,0.736,2.272,1.696,2.977,2.88h0.096v-3.312h5.473V72.256
		z M439.185,65.2c0,1.024,0.127,2.063,0.384,3.12c0.256,1.056,0.648,2.008,1.176,2.855c0.528,0.849,1.208,1.536,2.04,2.064
		c0.832,0.527,1.84,0.792,3.024,0.792c1.312,0,2.416-0.265,3.312-0.792c0.896-0.528,1.616-1.216,2.16-2.064
		c0.544-0.848,0.937-1.808,1.176-2.88c0.24-1.071,0.36-2.167,0.36-3.288c0-1.184-0.137-2.287-0.408-3.312
		c-0.272-1.024-0.688-1.92-1.248-2.688c-0.56-0.768-1.256-1.375-2.088-1.824c-0.832-0.447-1.809-0.672-2.928-0.672
		c-1.344,0-2.465,0.248-3.36,0.744c-0.896,0.496-1.607,1.152-2.136,1.968c-0.528,0.816-0.904,1.745-1.128,2.784
		C439.296,63.048,439.185,64.112,439.185,65.2z"/>
	<pattern  id="SVGID_43_" xlink:href="#New_Pattern_Swatch_2" patternTransform="matrix(1 0 0 1 201.1926 -30.0593)">
	</pattern>
	<path fill="url(#SVGID_43_)" d="M448.416,86.433c0,0.319,0.048,0.735,0.144,1.248c0.097,0.511,0.28,1.008,0.553,1.487
		c0.271,0.48,0.631,0.896,1.08,1.248c0.447,0.352,1.023,0.528,1.728,0.528h9.888c1.12,0,2.096,0.224,2.929,0.672
		c0.831,0.448,1.52,0.991,2.063,1.632c0.544,0.64,0.943,1.312,1.2,2.017c0.256,0.703,0.384,1.312,0.384,1.823v4.368h-4.32v-2.64
		c0-0.608-0.104-1.089-0.312-1.44c-0.209-0.353-0.48-0.624-0.816-0.815c-0.336-0.192-0.704-0.312-1.104-0.36
		c-0.4-0.048-0.776-0.072-1.128-0.072h-9.36c-0.96,0-1.76-0.191-2.399-0.575c-0.641-0.385-1.145-0.841-1.513-1.368
		c-0.368-0.528-0.641-1.073-0.815-1.632c-0.177-0.561-0.281-1.032-0.312-1.416h-0.096c-0.032,0.384-0.112,0.855-0.24,1.416
		c-0.128,0.559-0.376,1.104-0.744,1.632c-0.368,0.527-0.896,0.983-1.584,1.368c-0.688,0.384-1.607,0.575-2.76,0.575h-9.072
		c-0.352,0-0.728,0.024-1.128,0.072c-0.399,0.048-0.768,0.168-1.104,0.36c-0.336,0.191-0.607,0.463-0.816,0.815
		c-0.208,0.352-0.312,0.832-0.312,1.44v2.64h-4.32v-4.368c0-0.512,0.128-1.12,0.384-1.823c0.257-0.705,0.656-1.377,1.2-2.017
		c0.545-0.641,1.232-1.184,2.064-1.632s1.808-0.672,2.928-0.672h9.504c0.768,0,1.407-0.177,1.92-0.528
		c0.512-0.353,0.912-0.768,1.2-1.248c0.288-0.479,0.487-0.977,0.6-1.487c0.112-0.513,0.168-0.929,0.168-1.248H448.416z"/>
</g>
<g>
	<pattern  id="SVGID_44_" xlink:href="#New_Pattern_Swatch_2" patternTransform="matrix(1 0 0 1 89.1926 -30.0593)">
	</pattern>
	<path fill="url(#SVGID_44_)" d="M346.049,72.256c0,0.864,0.151,1.376,0.455,1.536c0.305,0.16,0.664,0.24,1.08,0.24h0.336
		c0.128,0,0.248-0.008,0.36-0.024c0.112-0.016,0.248-0.04,0.408-0.072v3.792c-0.416,0.16-0.984,0.304-1.704,0.433
		c-0.72,0.127-1.32,0.191-1.8,0.191c-1.536,0-2.624-0.368-3.265-1.104c-0.64-0.736-1.024-1.808-1.151-3.216h-0.145
		c-0.768,1.536-1.84,2.624-3.216,3.264s-2.944,0.96-4.704,0.96c-1.856,0-3.473-0.368-4.848-1.104
		c-1.376-0.736-2.521-1.712-3.432-2.929c-0.912-1.216-1.593-2.607-2.04-4.176c-0.449-1.567-0.673-3.184-0.673-4.848
		s0.232-3.28,0.696-4.849c0.464-1.567,1.168-2.959,2.112-4.176c0.943-1.216,2.144-2.184,3.6-2.904
		c1.456-0.72,3.176-1.079,5.16-1.079c1.536,0,2.944,0.368,4.224,1.104c1.28,0.736,2.272,1.696,2.977,2.88h0.096v-3.312h5.473V72.256
		z M327.185,65.2c0,1.024,0.127,2.063,0.384,3.12c0.256,1.056,0.648,2.008,1.176,2.855c0.528,0.849,1.208,1.536,2.04,2.064
		c0.832,0.527,1.84,0.792,3.024,0.792c1.312,0,2.416-0.265,3.312-0.792c0.896-0.528,1.616-1.216,2.16-2.064
		c0.544-0.848,0.937-1.808,1.176-2.88c0.24-1.071,0.36-2.167,0.36-3.288c0-1.184-0.137-2.287-0.408-3.312
		c-0.272-1.024-0.688-1.92-1.248-2.688c-0.56-0.768-1.256-1.375-2.088-1.824c-0.832-0.447-1.809-0.672-2.928-0.672
		c-1.344,0-2.465,0.248-3.36,0.744c-0.896,0.496-1.607,1.152-2.136,1.968c-0.528,0.816-0.904,1.745-1.128,2.784
		C327.296,63.048,327.185,64.112,327.185,65.2z"/>
	<pattern  id="SVGID_45_" xlink:href="#New_Pattern_Swatch_2" patternTransform="matrix(1 0 0 1 89.1926 -30.0593)">
	</pattern>
	<path fill="url(#SVGID_45_)" d="M336.416,86.433c0,0.319,0.048,0.735,0.144,1.248c0.097,0.511,0.28,1.008,0.553,1.487
		c0.271,0.48,0.631,0.896,1.08,1.248c0.447,0.352,1.023,0.528,1.728,0.528h9.888c1.12,0,2.096,0.224,2.929,0.672
		c0.831,0.448,1.52,0.991,2.063,1.632c0.544,0.64,0.943,1.312,1.2,2.017c0.256,0.703,0.384,1.312,0.384,1.823v4.368h-4.32v-2.64
		c0-0.608-0.104-1.089-0.312-1.44c-0.209-0.353-0.48-0.624-0.816-0.815c-0.336-0.192-0.704-0.312-1.104-0.36
		c-0.4-0.048-0.776-0.072-1.128-0.072h-9.36c-0.96,0-1.76-0.191-2.399-0.575c-0.641-0.385-1.145-0.841-1.513-1.368
		c-0.368-0.528-0.641-1.073-0.815-1.632c-0.177-0.561-0.281-1.032-0.312-1.416h-0.096c-0.032,0.384-0.112,0.855-0.24,1.416
		c-0.128,0.559-0.376,1.104-0.744,1.632c-0.368,0.527-0.896,0.983-1.584,1.368c-0.688,0.384-1.607,0.575-2.76,0.575h-9.072
		c-0.352,0-0.728,0.024-1.128,0.072c-0.399,0.048-0.768,0.168-1.104,0.36c-0.336,0.191-0.607,0.463-0.816,0.815
		c-0.208,0.352-0.312,0.832-0.312,1.44v2.64h-4.32v-4.368c0-0.512,0.128-1.12,0.384-1.823c0.257-0.705,0.656-1.377,1.2-2.017
		c0.545-0.641,1.232-1.184,2.064-1.632s1.808-0.672,2.928-0.672h9.504c0.768,0,1.407-0.177,1.92-0.528
		c0.512-0.353,0.912-0.768,1.2-1.248c0.288-0.479,0.487-0.977,0.6-1.487c0.112-0.513,0.168-0.929,0.168-1.248H336.416z"/>
</g>
<g>
	<pattern  id="SVGID_46_" xlink:href="#New_Pattern_Swatch_3" patternTransform="matrix(1 0 0 1 593.1926 97.9407)">
	</pattern>
	<path fill="url(#SVGID_46_)" d="M827.681,180.576c0-1.567,0.264-2.968,0.792-4.2c0.527-1.231,1.255-2.28,2.184-3.145
		c0.928-0.863,2.032-1.519,3.312-1.968c1.28-0.447,2.688-0.672,4.225-0.672c1.279,0,2.535,0.192,3.768,0.576
		c1.231,0.384,2.328,0.944,3.288,1.68c0.96,0.736,1.729,1.641,2.305,2.712c0.575,1.073,0.863,2.297,0.863,3.672
		c0,1.633-0.4,3.12-1.2,4.465c-0.8,1.344-2.032,2.272-3.695,2.783v0.097c2.016,0.256,3.64,1.16,4.872,2.712
		c1.231,1.553,1.848,3.528,1.848,5.928c0,1.568-0.248,3.024-0.744,4.368s-1.224,2.52-2.184,3.528c-0.96,1.008-2.137,1.8-3.528,2.376
		c-1.392,0.575-3,0.863-4.824,0.863c-1.216,0-2.304-0.152-3.264-0.456s-1.809-0.711-2.544-1.224v10.176h-5.472V180.576z
		 M833.152,199.152c0.576,0.832,1.336,1.52,2.28,2.063c0.943,0.545,2.136,0.816,3.575,0.816c1.088,0,2-0.2,2.736-0.601
		c0.736-0.399,1.327-0.919,1.776-1.56c0.447-0.64,0.768-1.376,0.96-2.208c0.191-0.832,0.288-1.664,0.288-2.496
		c0-1.279-0.216-2.336-0.648-3.168c-0.432-0.832-1.024-1.488-1.775-1.968c-0.753-0.48-1.649-0.816-2.688-1.008
		c-1.04-0.192-2.152-0.32-3.336-0.385v-3.6c0.896,0,1.752-0.088,2.568-0.264c0.815-0.176,1.52-0.473,2.111-0.889
		c0.592-0.415,1.063-0.967,1.416-1.656c0.352-0.688,0.528-1.512,0.528-2.472c0-3.231-1.616-4.848-4.848-4.848
		c-0.545,0-1.112,0.088-1.704,0.264c-0.593,0.177-1.128,0.497-1.608,0.96c-0.479,0.465-0.872,1.097-1.176,1.896
		c-0.305,0.8-0.456,1.84-0.456,3.12V199.152z"/>
</g>
<g>
	<pattern  id="SVGID_47_" xlink:href="#New_Pattern_Swatch_4" patternTransform="matrix(1 0 0 1 705.1926 -30.0593)">
	</pattern>
	<path fill="url(#SVGID_47_)" d="M885.754,43.408h5.472V77.68h-5.472V43.408z"/>
	<pattern  id="SVGID_48_" xlink:href="#New_Pattern_Swatch_4" patternTransform="matrix(1 0 0 1 705.1926 -30.0593)">
	</pattern>
	<path fill="url(#SVGID_48_)" d="M915.562,72.16c0,0.672,0.088,1.151,0.264,1.439s0.52,0.433,1.032,0.433c0.16,0,0.352,0,0.576,0
		c0.224,0,0.479-0.032,0.768-0.097v3.792c-0.191,0.064-0.44,0.136-0.744,0.217c-0.304,0.079-0.616,0.151-0.936,0.216
		c-0.32,0.063-0.641,0.111-0.96,0.144c-0.32,0.031-0.593,0.048-0.816,0.048c-1.12,0-2.048-0.224-2.783-0.672
		c-0.737-0.447-1.217-1.231-1.44-2.352c-1.088,1.056-2.424,1.824-4.008,2.304c-1.584,0.48-3.112,0.72-4.584,0.72
		c-1.121,0-2.192-0.152-3.216-0.456c-1.025-0.304-1.929-0.751-2.713-1.344c-0.784-0.592-1.408-1.344-1.871-2.256
		c-0.465-0.912-0.696-1.976-0.696-3.192c0-1.535,0.279-2.783,0.84-3.743c0.56-0.96,1.296-1.712,2.208-2.257
		c0.912-0.543,1.936-0.936,3.072-1.176c1.135-0.24,2.279-0.424,3.432-0.552c0.991-0.192,1.936-0.328,2.832-0.408
		c0.896-0.079,1.688-0.216,2.376-0.408c0.688-0.191,1.231-0.487,1.632-0.888c0.4-0.399,0.601-1,0.601-1.8
		c0-0.704-0.168-1.279-0.504-1.729c-0.336-0.447-0.753-0.792-1.248-1.031c-0.497-0.24-1.049-0.4-1.656-0.48
		c-0.608-0.079-1.185-0.12-1.729-0.12c-1.535,0-2.8,0.32-3.792,0.96c-0.992,0.641-1.552,1.632-1.68,2.977h-5.472
		c0.096-1.6,0.479-2.929,1.151-3.984c0.673-1.056,1.528-1.903,2.568-2.544c1.039-0.64,2.216-1.088,3.528-1.344
		c1.312-0.256,2.655-0.384,4.031-0.384c1.216,0,2.416,0.128,3.601,0.384c1.184,0.256,2.248,0.672,3.191,1.248
		c0.944,0.576,1.704,1.319,2.28,2.231s0.864,2.024,0.864,3.336V72.16z M910.09,65.248c-0.833,0.544-1.856,0.872-3.072,0.983
		c-1.217,0.113-2.433,0.281-3.648,0.505c-0.575,0.096-1.136,0.232-1.68,0.407c-0.545,0.177-1.024,0.417-1.44,0.721
		s-0.743,0.704-0.983,1.199c-0.24,0.497-0.36,1.097-0.36,1.801c0,0.608,0.176,1.12,0.528,1.536c0.352,0.416,0.775,0.743,1.271,0.983
		s1.04,0.408,1.633,0.504c0.592,0.097,1.128,0.145,1.607,0.145c0.607,0,1.264-0.08,1.968-0.24s1.368-0.432,1.992-0.816
		c0.624-0.384,1.144-0.871,1.561-1.464c0.415-0.592,0.624-1.319,0.624-2.184V65.248z"/>
	<pattern  id="SVGID_49_" xlink:href="#New_Pattern_Swatch_4" patternTransform="matrix(1 0 0 1 705.1926 -30.0593)">
	</pattern>
	<path fill="url(#SVGID_49_)" d="M940.857,77.68h-5.376v-3.456h-0.096c-0.672,1.248-1.673,2.249-3,3
		c-1.328,0.752-2.681,1.128-4.057,1.128c-3.264,0-5.624-0.808-7.079-2.424c-1.457-1.615-2.185-4.056-2.185-7.319V52.864h5.472V68.08
		c0,2.177,0.416,3.712,1.248,4.607c0.832,0.896,2,1.345,3.504,1.345c1.152,0,2.112-0.176,2.881-0.528
		c0.768-0.352,1.392-0.823,1.872-1.416c0.479-0.592,0.823-1.304,1.031-2.136s0.312-1.729,0.312-2.688V52.864h5.472V77.68z"/>
	<pattern  id="SVGID_50_" xlink:href="#New_Pattern_Swatch_4" patternTransform="matrix(1 0 0 1 705.1926 -30.0593)">
	</pattern>
	<path fill="url(#SVGID_50_)" d="M944.217,52.864h5.185v3.647l0.096,0.097c0.832-1.376,1.92-2.456,3.264-3.24
		s2.832-1.176,4.464-1.176c2.72,0,4.864,0.704,6.433,2.111c1.567,1.409,2.352,3.521,2.352,6.336v17.04h-5.472v-15.6
		c-0.064-1.951-0.48-3.367-1.248-4.248c-0.769-0.88-1.968-1.32-3.601-1.32c-0.928,0-1.76,0.168-2.495,0.504
		c-0.737,0.336-1.361,0.801-1.872,1.393c-0.513,0.592-0.912,1.288-1.2,2.088s-0.433,1.648-0.433,2.544v14.64h-5.472V52.864z"/>
	<pattern  id="SVGID_51_" xlink:href="#New_Pattern_Swatch_4" patternTransform="matrix(1 0 0 1 705.1926 -30.0593)">
	</pattern>
	<path fill="url(#SVGID_51_)" d="M986.12,61.168c-0.224-1.536-0.84-2.695-1.848-3.48c-1.008-0.783-2.28-1.176-3.816-1.176
		c-0.704,0-1.456,0.12-2.256,0.36s-1.536,0.688-2.208,1.344c-0.672,0.656-1.232,1.568-1.68,2.736
		c-0.448,1.168-0.672,2.696-0.672,4.584c0,1.024,0.12,2.048,0.359,3.072c0.24,1.024,0.624,1.936,1.152,2.735
		c0.528,0.801,1.207,1.448,2.04,1.944c0.832,0.496,1.84,0.744,3.023,0.744c1.601,0,2.92-0.496,3.961-1.488
		c1.039-0.991,1.688-2.384,1.943-4.176h5.472c-0.512,3.232-1.735,5.704-3.672,7.416s-4.504,2.567-7.704,2.567
		c-1.952,0-3.672-0.328-5.159-0.983c-1.488-0.655-2.744-1.552-3.769-2.688c-1.024-1.136-1.8-2.487-2.328-4.056
		c-0.527-1.567-0.792-3.264-0.792-5.088c0-1.855,0.256-3.601,0.769-5.232c0.512-1.632,1.279-3.048,2.304-4.248
		c1.023-1.2,2.296-2.144,3.816-2.832c1.52-0.688,3.304-1.031,5.352-1.031c1.44,0,2.808,0.184,4.104,0.552
		c1.296,0.368,2.447,0.92,3.456,1.656c1.008,0.736,1.831,1.664,2.472,2.783c0.64,1.121,1.023,2.448,1.151,3.984H986.12z"/>
	<pattern  id="SVGID_52_" xlink:href="#New_Pattern_Swatch_4" patternTransform="matrix(1 0 0 1 705.1926 -30.0593)">
	</pattern>
	<path fill="url(#SVGID_52_)" d="M993.656,43.408h5.472v12.72h0.097c0.672-1.12,1.672-2.056,3-2.808
		c1.327-0.752,2.808-1.128,4.439-1.128c2.72,0,4.864,0.704,6.433,2.111c1.567,1.409,2.352,3.521,2.352,6.336v17.04h-5.472v-15.6
		c-0.064-1.951-0.48-3.367-1.248-4.248c-0.769-0.88-1.968-1.32-3.601-1.32c-0.928,0-1.76,0.168-2.495,0.504
		c-0.737,0.336-1.361,0.801-1.872,1.393c-0.513,0.592-0.912,1.288-1.2,2.088s-0.433,1.648-0.433,2.544v14.64h-5.472V43.408z"/>
</g>
<g>
	<pattern  id="SVGID_53_" xlink:href="#New_Pattern_Swatch_1" patternTransform="matrix(1 0 0 1 -78.8074 -30.0593)">
	</pattern>
	<path fill="url(#SVGID_53_)" d="M125.129,52.864h5.185v3.647l0.096,0.097c0.832-1.376,1.92-2.456,3.264-3.24
		s2.832-1.176,4.464-1.176c2.72,0,4.864,0.704,6.433,2.111c1.567,1.409,2.352,3.521,2.352,6.336v17.04h-5.472v-15.6
		c-0.064-1.951-0.48-3.367-1.248-4.248c-0.769-0.88-1.968-1.32-3.601-1.32c-0.928,0-1.76,0.168-2.495,0.504
		c-0.737,0.336-1.361,0.801-1.872,1.393c-0.513,0.592-0.912,1.288-1.2,2.088s-0.433,1.648-0.433,2.544v14.64h-5.472V52.864z"/>
	<pattern  id="SVGID_54_" xlink:href="#New_Pattern_Swatch_1" patternTransform="matrix(1 0 0 1 -78.8074 -30.0593)">
	</pattern>
	<path fill="url(#SVGID_54_)" d="M161.656,78.352c-1.984,0-3.752-0.328-5.304-0.983c-1.553-0.655-2.864-1.561-3.937-2.712
		c-1.072-1.152-1.888-2.527-2.447-4.128c-0.561-1.601-0.841-3.36-0.841-5.28c0-1.888,0.28-3.632,0.841-5.232
		c0.56-1.6,1.375-2.976,2.447-4.128c1.072-1.151,2.384-2.056,3.937-2.712c1.552-0.655,3.319-0.983,5.304-0.983
		s3.752,0.328,5.304,0.983c1.552,0.656,2.864,1.561,3.937,2.712c1.071,1.152,1.888,2.528,2.448,4.128
		c0.56,1.601,0.84,3.345,0.84,5.232c0,1.92-0.28,3.68-0.84,5.28c-0.561,1.601-1.377,2.976-2.448,4.128
		c-1.072,1.151-2.385,2.057-3.937,2.712S163.641,78.352,161.656,78.352z M161.656,74.032c1.216,0,2.271-0.256,3.168-0.769
		c0.896-0.512,1.632-1.184,2.208-2.016s1-1.768,1.272-2.809c0.271-1.039,0.407-2.104,0.407-3.191c0-1.056-0.136-2.112-0.407-3.168
		c-0.272-1.056-0.696-1.992-1.272-2.809c-0.576-0.815-1.312-1.479-2.208-1.991c-0.896-0.512-1.952-0.769-3.168-0.769
		c-1.217,0-2.272,0.257-3.168,0.769c-0.896,0.512-1.632,1.176-2.208,1.991c-0.576,0.816-1,1.753-1.271,2.809
		c-0.272,1.056-0.408,2.112-0.408,3.168c0,1.088,0.136,2.152,0.408,3.191c0.271,1.041,0.695,1.977,1.271,2.809
		s1.312,1.504,2.208,2.016C159.384,73.776,160.439,74.032,161.656,74.032z"/>
	<pattern  id="SVGID_55_" xlink:href="#New_Pattern_Swatch_1" patternTransform="matrix(1 0 0 1 -78.8074 -30.0593)">
	</pattern>
	<path fill="url(#SVGID_55_)" d="M174.088,52.864h5.808l4.849,18.527h0.096l4.656-18.527h5.52l4.464,18.527h0.097l5.04-18.527h5.567
		l-7.775,24.815h-5.616l-4.608-18.432h-0.096l-4.56,18.432h-5.761L174.088,52.864z"/>
</g>
</svg>
