<?xml version="1.0" encoding="utf-8"?>
<!-- Generator: Adobe Illustrator 22.1.0, SVG Export Plug-In . SVG Version: 6.00 Build 0)  -->
<svg version="1.1" id="Layer_1" xmlns="http://www.w3.org/2000/svg" xmlns:xlink="http://www.w3.org/1999/xlink" x="0px" y="0px"
	 viewBox="0 0 1024 384" style="enable-background:new 0 0 1024 384;" xml:space="preserve">
<style type="text/css">
	.st0{fill:#404041;}
</style>
<g>
	<polygon class="st0" points="848.9,299.9 77.9,299.9 77.9,40.9 83.9,40.9 83.9,293.9 848.9,293.9 	"/>
</g>
<g>
	<path class="st0" d="M393.1,325.3v3.1H388v14.2h-3.6v-14.2h-5.2v-3.1H393.1z"/>
	<path class="st0" d="M396.8,328.2h-3.4v-3.1h3.4V328.2z M393.4,329.8h3.4v12.8h-3.4V329.8z"/>
	<path class="st0" d="M414.8,329.8c0.5,0.2,1,0.6,1.5,1.1c0.4,0.4,0.6,1,0.7,1.6c0.1,0.4,0.1,1.1,0.1,1.9l0,8.1h-3.4v-8.1
		c0-0.5-0.1-0.9-0.2-1.2c-0.3-0.6-0.8-0.9-1.6-0.9c-0.9,0-1.6,0.4-1.9,1.1c-0.2,0.4-0.3,0.9-0.3,1.5v7.6h-3.4v-7.6
		c0-0.8-0.1-1.3-0.2-1.7c-0.3-0.6-0.8-0.9-1.7-0.9c-1,0-1.6,0.3-1.9,0.9c-0.2,0.4-0.3,0.9-0.3,1.6v7.7h-3.4v-12.8h3.2v1.9
		c0.4-0.7,0.8-1.1,1.2-1.4c0.6-0.5,1.5-0.8,2.5-0.8c1,0,1.8,0.2,2.4,0.6c0.5,0.4,0.9,0.9,1.1,1.5c0.4-0.8,1-1.3,1.6-1.7
		c0.7-0.4,1.5-0.5,2.3-0.5C413.7,329.5,414.2,329.6,414.8,329.8z"/>
	<path class="st0" d="M427.3,330c0.9,0.4,1.6,1,2.2,1.9c0.5,0.8,0.9,1.6,1,2.6c0.1,0.6,0.1,1.4,0.1,2.5h-9.3
		c0.1,1.3,0.5,2.2,1.3,2.7c0.5,0.3,1.1,0.5,1.8,0.5c0.8,0,1.4-0.2,1.9-0.6c0.3-0.2,0.5-0.5,0.7-0.9h3.4c-0.1,0.8-0.5,1.5-1.2,2.3
		c-1.1,1.2-2.7,1.9-4.8,1.9c-1.7,0-3.2-0.5-4.5-1.6c-1.3-1-1.9-2.8-1.9-5.1c0-2.2,0.6-3.9,1.8-5.1c1.2-1.2,2.7-1.8,4.6-1.8
		C425.4,329.4,426.4,329.6,427.3,330z M422.3,332.9c-0.5,0.5-0.8,1.1-0.9,2h5.8c-0.1-0.9-0.4-1.6-0.9-2c-0.5-0.5-1.2-0.7-2-0.7
		C423.4,332.2,422.8,332.4,422.3,332.9z"/>
	<path class="st0" d="M437.4,329.6c0.6-1.4,1.5-3,2.7-4.6h2.5l-0.7,1.3c-1,1.8-1.7,3.7-2.1,5.7c-0.2,1.3-0.4,2.7-0.4,4.2
		c0,2.4,0.3,4.6,1,6.6c0.4,1.2,1.1,2.7,2.2,4.6h-2.5l-0.8-1.1c-0.5-0.7-1.1-1.7-1.7-3.1c-1.1-2.4-1.6-4.8-1.6-7.2
		C436.1,333.9,436.5,331.7,437.4,329.6z"/>
	<path class="st0" d="M453.7,330.5c0.8,0.7,1.3,1.8,1.3,3.4v8.6h-3.4v-7.8c0-0.7-0.1-1.2-0.3-1.5c-0.3-0.7-0.9-1-1.9-1
		c-1.1,0-1.9,0.5-2.3,1.4c-0.2,0.5-0.3,1.2-0.3,1.9v6.9h-3.3v-12.8h3.2v1.9c0.4-0.7,0.8-1.1,1.2-1.4c0.7-0.5,1.6-0.8,2.6-0.8
		C451.8,329.5,452.8,329.8,453.7,330.5z"/>
	<path class="st0" d="M467.5,341c-1.1,1.3-2.7,2-4.9,2s-3.8-0.7-4.9-2c-1.1-1.3-1.6-2.9-1.6-4.8c0-1.8,0.5-3.4,1.6-4.8s2.7-2,4.9-2
		s3.8,0.7,4.9,2s1.6,2.9,1.6,4.8C469.1,338.1,468.6,339.7,467.5,341z M464.8,339.1c0.5-0.7,0.8-1.7,0.8-3s-0.3-2.3-0.8-3
		s-1.3-1-2.2-1s-1.7,0.3-2.3,1s-0.8,1.7-0.8,3s0.3,2.3,0.8,3s1.3,1,2.3,1S464.3,339.8,464.8,339.1z"/>
	<path class="st0" d="M469,332.3v-2.4h1.8v-3.6h3.3v3.6h2.1v2.4h-2.1v6.8c0,0.5,0.1,0.8,0.2,1s0.5,0.2,1.2,0.2c0.1,0,0.2,0,0.3,0
		s0.2,0,0.3,0v2.5l-1.6,0.1c-1.6,0.1-2.7-0.2-3.2-0.8c-0.4-0.4-0.6-1-0.6-1.8v-7.9H469z"/>
	<path class="st0" d="M481.2,332.3v-2.4h1.8v-3.6h3.3v3.6h2.1v2.4h-2.1v6.8c0,0.5,0.1,0.8,0.2,1s0.5,0.2,1.2,0.2c0.1,0,0.2,0,0.3,0
		s0.2,0,0.3,0v2.5l-1.6,0.1c-1.6,0.1-2.7-0.2-3.2-0.8c-0.4-0.4-0.6-1-0.6-1.8v-7.9H481.2z"/>
	<path class="st0" d="M500,341c-1.1,1.3-2.7,2-4.9,2s-3.8-0.7-4.9-2c-1.1-1.3-1.6-2.9-1.6-4.8c0-1.8,0.5-3.4,1.6-4.8s2.7-2,4.9-2
		s3.8,0.7,4.9,2s1.6,2.9,1.6,4.8C501.6,338.1,501.1,339.7,500,341z M497.3,339.1c0.5-0.7,0.8-1.7,0.8-3s-0.3-2.3-0.8-3s-1.3-1-2.2-1
		s-1.7,0.3-2.3,1s-0.8,1.7-0.8,3s0.3,2.3,0.8,3s1.3,1,2.3,1S496.8,339.8,497.3,339.1z"/>
	<path class="st0" d="M510.9,338.5c0.1,0.6,0.2,1,0.5,1.3c0.4,0.4,1.2,0.7,2.3,0.7c0.7,0,1.2-0.1,1.6-0.3s0.6-0.5,0.6-0.9
		c0-0.4-0.2-0.7-0.5-0.9c-0.3-0.2-1.5-0.5-3.5-1c-1.5-0.4-2.5-0.8-3.1-1.3c-0.6-0.5-0.9-1.3-0.9-2.3c0-1.2,0.5-2.2,1.4-3
		s2.2-1.3,3.9-1.3c1.6,0,2.9,0.3,3.9,1s1.6,1.7,1.7,3.3h-3.3c0-0.4-0.2-0.8-0.4-1c-0.4-0.5-1-0.7-1.9-0.7c-0.7,0-1.2,0.1-1.6,0.3
		c-0.3,0.2-0.5,0.5-0.5,0.8c0,0.4,0.2,0.7,0.5,0.8c0.3,0.2,1.5,0.5,3.5,0.9c1.3,0.3,2.3,0.8,3,1.4c0.7,0.6,1,1.4,1,2.4
		c0,1.3-0.5,2.3-1.4,3.1s-2.4,1.2-4.4,1.2c-2,0-3.5-0.4-4.5-1.3s-1.4-1.9-1.4-3.2H510.9z"/>
	<path class="st0" d="M528.1,334.4c-0.1-0.5-0.2-0.9-0.5-1.3c-0.4-0.5-1-0.8-1.8-0.8c-1.1,0-1.9,0.6-2.3,1.7
		c-0.2,0.6-0.3,1.4-0.3,2.4c0,0.9,0.1,1.7,0.3,2.3c0.4,1.1,1.2,1.6,2.3,1.6c0.8,0,1.3-0.2,1.7-0.6c0.3-0.4,0.5-1,0.6-1.6h3.4
		c-0.1,1-0.4,2-1.1,2.9c-1,1.5-2.6,2.2-4.7,2.2s-3.6-0.6-4.5-1.8s-1.5-2.8-1.5-4.7c0-2.2,0.5-3.9,1.6-5.1s2.5-1.8,4.4-1.8
		c1.6,0,2.9,0.4,3.9,1.1s1.6,2,1.8,3.8H528.1z"/>
	<path class="st0" d="M537.6,334.8c0.6-0.1,1.1-0.2,1.3-0.3c0.5-0.2,0.7-0.5,0.7-0.9c0-0.5-0.2-0.9-0.6-1.1s-0.9-0.3-1.6-0.3
		c-0.8,0-1.4,0.2-1.7,0.6c-0.2,0.3-0.4,0.7-0.5,1.2h-3.2c0.1-1.1,0.4-2,0.9-2.8c0.9-1.1,2.4-1.7,4.6-1.7c1.4,0,2.7,0.3,3.7,0.8
		s1.6,1.6,1.6,3.1v5.9c0,0.4,0,0.9,0,1.5c0,0.4,0.1,0.7,0.2,0.9s0.3,0.3,0.5,0.4v0.5h-3.6c-0.1-0.3-0.2-0.5-0.2-0.7
		s-0.1-0.5-0.1-0.8c-0.5,0.5-1,0.9-1.6,1.3c-0.7,0.4-1.5,0.6-2.5,0.6c-1.2,0-2.1-0.3-2.9-1c-0.8-0.7-1.1-1.6-1.1-2.8
		c0-1.6,0.6-2.7,1.8-3.4c0.7-0.4,1.7-0.7,3-0.8L537.6,334.8z M539.7,336.3c-0.2,0.1-0.4,0.2-0.6,0.3s-0.5,0.2-0.9,0.2l-0.8,0.1
		c-0.7,0.1-1.2,0.3-1.5,0.5c-0.5,0.3-0.8,0.8-0.8,1.4c0,0.6,0.2,1,0.5,1.2s0.7,0.4,1.2,0.4c0.7,0,1.4-0.2,2-0.6s0.9-1.2,1-2.3V336.3
		z"/>
	<path class="st0" d="M548.1,342.5h-3.3v-17.3h3.3V342.5z"/>
	<path class="st0" d="M558.5,330c0.9,0.4,1.6,1,2.2,1.9c0.5,0.8,0.9,1.6,1,2.6c0.1,0.6,0.1,1.4,0.1,2.5h-9.3
		c0.1,1.3,0.5,2.2,1.3,2.7c0.5,0.3,1.1,0.5,1.8,0.5c0.8,0,1.4-0.2,1.9-0.6c0.3-0.2,0.5-0.5,0.7-0.9h3.4c-0.1,0.8-0.5,1.5-1.2,2.3
		c-1.1,1.2-2.7,1.9-4.8,1.9c-1.7,0-3.2-0.5-4.5-1.6c-1.3-1-1.9-2.8-1.9-5.1c0-2.2,0.6-3.9,1.8-5.1s2.7-1.8,4.6-1.8
		C556.6,329.4,557.6,329.6,558.5,330z M553.5,332.9c-0.5,0.5-0.8,1.1-0.9,2h5.8c-0.1-0.9-0.4-1.6-0.9-2s-1.2-0.7-2-0.7
		C554.6,332.2,554,332.4,553.5,332.9z"/>
	<path class="st0" d="M566.3,329.6c0.9,2.1,1.4,4.2,1.4,6.4c0,2.4-0.5,4.7-1.6,7.2c-0.6,1.4-1.2,2.4-1.7,3.1l-0.8,1.1H561
		c1-1.9,1.7-3.4,2.1-4.6c0.7-2,1-4.2,1-6.6c0-1.5-0.1-2.9-0.4-4.2c-0.4-2-1.1-3.9-2-5.7l-0.7-1.3h2.5
		C564.8,326.6,565.7,328.2,566.3,329.6z"/>
</g>
<g>
	<g>
		<path class="st0" d="M80.4,298.7c-0.8,0-1.5-0.7-1.5-1.5s0.7-1.5,1.5-1.5c0.2,0,0.5-0.1,0.7-0.2c0.7-0.4,1.6-0.1,2,0.6
			s0.1,1.6-0.6,2C81.8,298.5,81.1,298.7,80.4,298.7z"/>
	</g>
	<g>
		<path class="st0" d="M201.5,288.5c-0.6,0-1.2-0.4-1.4-1.1c-0.3-0.9-0.6-1.9-0.8-2.9c-0.2-0.8,0.3-1.6,1.1-1.8
			c0.8-0.2,1.6,0.3,1.8,1.1c0.3,1,0.5,1.9,0.8,2.8c0.2,0.8-0.2,1.6-1,1.9C201.8,288.4,201.7,288.5,201.5,288.5z M87.4,287.9
			c-0.1,0-0.3,0-0.4-0.1c-0.8-0.2-1.2-1.1-1-1.9c0.3-0.9,0.5-1.8,0.8-2.8c0.2-0.8,1-1.3,1.8-1.1c0.8,0.2,1.3,1,1.1,1.8
			c-0.3,1-0.5,2-0.8,2.9C88.6,287.5,88,287.9,87.4,287.9z M198.1,273.8c-0.7,0-1.3-0.5-1.5-1.2c-0.2-1-0.4-2-0.5-3
			c-0.1-0.8,0.4-1.6,1.2-1.7c0.8-0.1,1.6,0.4,1.7,1.2c0.2,1,0.3,2,0.5,2.9c0.2,0.8-0.4,1.6-1.2,1.7
			C198.3,273.8,198.2,273.8,198.1,273.8z M90.7,273.3c-0.1,0-0.2,0-0.3,0c-0.8-0.1-1.4-0.9-1.2-1.7c0.2-1,0.3-1.9,0.5-2.9
			c0.1-0.8,0.9-1.4,1.7-1.2c0.8,0.1,1.4,0.9,1.2,1.7c-0.2,1-0.3,2-0.5,3C92.1,272.8,91.5,273.3,90.7,273.3z M195.7,259
			c-0.7,0-1.4-0.5-1.5-1.3c-0.1-1-0.3-2-0.4-3c-0.1-0.8,0.5-1.6,1.3-1.7c0.8-0.1,1.6,0.5,1.7,1.3c0.1,1,0.3,2,0.4,3
			c0.1,0.8-0.5,1.6-1.3,1.7C195.9,259,195.8,259,195.7,259z M93.1,258.5c-0.1,0-0.1,0-0.2,0c-0.8-0.1-1.4-0.9-1.3-1.7
			c0.1-1,0.3-2,0.4-3c0.1-0.8,0.9-1.4,1.7-1.3c0.8,0.1,1.4,0.9,1.3,1.7c-0.1,1-0.3,2-0.4,3C94.5,257.9,93.8,258.5,93.1,258.5z
			 M193.9,244.1c-0.8,0-1.4-0.6-1.5-1.3c-0.1-1-0.2-2-0.3-3c-0.1-0.8,0.5-1.6,1.3-1.7c0.8-0.1,1.6,0.5,1.7,1.3c0.1,1,0.2,2,0.3,3
			c0.1,0.8-0.5,1.6-1.3,1.7C194,244.1,193.9,244.1,193.9,244.1z M95,243.6c-0.1,0-0.1,0-0.2,0c-0.8-0.1-1.4-0.8-1.3-1.7
			c0.1-1,0.2-2,0.3-3c0.1-0.8,0.8-1.4,1.7-1.3c0.8,0.1,1.4,0.8,1.3,1.7c-0.1,1-0.2,2-0.3,3C96.4,243,95.7,243.6,95,243.6z
			 M192.2,229.1c-0.8,0-1.4-0.6-1.5-1.3l-0.3-3c-0.1-0.8,0.5-1.6,1.3-1.6c0.8-0.1,1.6,0.5,1.6,1.3l0.3,3c0.1,0.8-0.5,1.6-1.3,1.6
			C192.3,229.1,192.3,229.1,192.2,229.1z M96.6,228.6c-0.1,0-0.1,0-0.2,0c-0.8-0.1-1.4-0.8-1.3-1.6l0.3-3c0.1-0.8,0.8-1.4,1.6-1.3
			c0.8,0.1,1.4,0.8,1.3,1.6l-0.3,3C98,228,97.3,228.6,96.6,228.6z M190.8,214.2c-0.8,0-1.4-0.6-1.5-1.4l-0.3-3
			c-0.1-0.8,0.5-1.6,1.4-1.6c0.8-0.1,1.6,0.5,1.6,1.4l0.3,3c0.1,0.8-0.5,1.6-1.4,1.6C190.9,214.2,190.8,214.2,190.8,214.2z
			 M98,213.7c0,0-0.1,0-0.1,0c-0.8-0.1-1.4-0.8-1.4-1.6l0.3-3c0.1-0.8,0.8-1.4,1.6-1.4c0.8,0.1,1.4,0.8,1.4,1.6l-0.3,3
			C99.4,213.1,98.8,213.7,98,213.7z M189.5,199.2c-0.8,0-1.4-0.6-1.5-1.4l-0.3-3c-0.1-0.8,0.5-1.6,1.4-1.6c0.8-0.1,1.6,0.5,1.6,1.4
			l0.3,3c0.1,0.8-0.5,1.6-1.4,1.6C189.5,199.2,189.5,199.2,189.5,199.2z M99.3,198.7c0,0-0.1,0-0.1,0c-0.8-0.1-1.4-0.8-1.4-1.6
			l0.3-3c0.1-0.8,0.8-1.4,1.6-1.4c0.8,0.1,1.4,0.8,1.4,1.6l-0.3,3C100.8,198.1,100.1,198.7,99.3,198.7z M188.2,184.3
			c-0.8,0-1.4-0.6-1.5-1.4l-0.3-3c-0.1-0.8,0.5-1.6,1.4-1.6c0.8-0.1,1.6,0.5,1.6,1.4l0.3,3c0.1,0.8-0.5,1.6-1.4,1.6
			C188.3,184.3,188.2,184.3,188.2,184.3z M100.6,183.8c0,0-0.1,0-0.1,0c-0.8-0.1-1.4-0.8-1.4-1.6l0.3-3c0.1-0.8,0.8-1.4,1.6-1.4
			c0.8,0.1,1.4,0.8,1.4,1.6l-0.3,3C102,183.2,101.4,183.8,100.6,183.8z M186.9,169.3c-0.8,0-1.4-0.6-1.5-1.4l-0.2-3
			c-0.1-0.8,0.5-1.6,1.4-1.6c0.8-0.1,1.6,0.5,1.6,1.4l0.3,3c0.1,0.8-0.5,1.6-1.4,1.6C187,169.3,187,169.3,186.9,169.3z M101.9,168.8
			c0,0-0.1,0-0.1,0c-0.8-0.1-1.4-0.8-1.4-1.6l0.2-3c0.1-0.8,0.8-1.4,1.6-1.4c0.8,0.1,1.4,0.8,1.4,1.6l-0.2,3
			C103.3,168.2,102.6,168.8,101.9,168.8z M185.7,154.4c-0.8,0-1.4-0.6-1.5-1.4l-0.3-3c-0.1-0.8,0.5-1.6,1.4-1.6
			c0.8-0.1,1.6,0.5,1.6,1.4l0.3,3c0.1,0.8-0.5,1.6-1.4,1.6C185.8,154.4,185.7,154.4,185.7,154.4z M103.1,153.8c0,0-0.1,0-0.1,0
			c-0.8-0.1-1.4-0.8-1.4-1.6l0.3-3c0.1-0.8,0.8-1.4,1.6-1.4c0.8,0.1,1.4,0.8,1.4,1.6l-0.3,3C104.6,153.2,103.9,153.8,103.1,153.8z
			 M184.4,139.4c-0.8,0-1.4-0.6-1.5-1.4l-0.3-3c-0.1-0.8,0.5-1.6,1.4-1.6c0.8-0.1,1.6,0.5,1.6,1.4l0.3,3c0.1,0.8-0.5,1.6-1.4,1.6
			C184.5,139.4,184.4,139.4,184.4,139.4z M104.4,138.9c0,0-0.1,0-0.1,0c-0.8-0.1-1.4-0.8-1.4-1.6l0.3-3c0.1-0.8,0.8-1.4,1.6-1.4
			s1.4,0.8,1.4,1.6l-0.3,3C105.8,138.3,105.2,138.9,104.4,138.9z M183,124.4c-0.8,0-1.4-0.6-1.5-1.4l-0.3-3
			c-0.1-0.8,0.5-1.6,1.4-1.6c0.8-0.1,1.6,0.5,1.6,1.4l0.3,3c0.1,0.8-0.5,1.6-1.4,1.6C183.1,124.4,183.1,124.4,183,124.4z
			 M105.8,123.9c0,0-0.1,0-0.1,0c-0.8-0.1-1.4-0.8-1.4-1.6l0.3-3c0.1-0.8,0.8-1.4,1.6-1.3c0.8,0.1,1.4,0.8,1.3,1.6l-0.3,3
			C107.2,123.3,106.5,123.9,105.8,123.9z M181.6,109.5c-0.8,0-1.4-0.6-1.5-1.3l-0.3-3c-0.1-0.8,0.5-1.6,1.3-1.6
			c0.8-0.1,1.6,0.5,1.7,1.3l0.3,3c0.1,0.8-0.5,1.6-1.3,1.6C181.7,109.5,181.6,109.5,181.6,109.5z M107.3,109c-0.1,0-0.1,0-0.2,0
			c-0.8-0.1-1.4-0.8-1.3-1.6l0.3-3c0.1-0.8,0.8-1.4,1.6-1.3c0.8,0.1,1.4,0.8,1.3,1.6l-0.3,3C108.7,108.4,108,109,107.3,109z
			 M179.9,94.6c-0.7,0-1.4-0.6-1.5-1.3c-0.1-1-0.2-2-0.4-3c-0.1-0.8,0.5-1.6,1.3-1.7c0.8-0.1,1.6,0.5,1.7,1.3c0.1,1,0.2,2,0.4,3
			c0.1,0.8-0.5,1.6-1.3,1.7C180,94.6,180,94.6,179.9,94.6z M108.9,94c-0.1,0-0.1,0-0.2,0c-0.8-0.1-1.4-0.8-1.3-1.7
			c0.1-1,0.2-2,0.4-3c0.1-0.8,0.8-1.4,1.7-1.3c0.8,0.1,1.4,0.9,1.3,1.7c-0.1,1-0.2,2-0.4,3C110.3,93.5,109.7,94,108.9,94z
			 M177.9,79.7c-0.7,0-1.4-0.5-1.5-1.3c-0.1-1-0.3-2-0.4-3c-0.1-0.8,0.4-1.6,1.3-1.7c0.8-0.1,1.6,0.4,1.7,1.3c0.1,1,0.3,2,0.4,3
			c0.1,0.8-0.4,1.6-1.3,1.7C178.1,79.7,178,79.7,177.9,79.7z M110.9,79.1c-0.1,0-0.1,0-0.2,0c-0.8-0.1-1.4-0.9-1.3-1.7
			c0.1-1,0.3-2,0.4-3c0.1-0.8,0.9-1.4,1.7-1.3c0.8,0.1,1.4,0.9,1.3,1.7c-0.1,1-0.3,2-0.4,3C112.3,78.6,111.6,79.1,110.9,79.1z
			 M175.5,64.8c-0.7,0-1.3-0.5-1.5-1.2c-0.2-1-0.4-2-0.6-2.9c-0.2-0.8,0.3-1.6,1.2-1.8c0.8-0.2,1.6,0.3,1.8,1.2c0.2,1,0.4,1.9,0.6,3
			c0.2,0.8-0.4,1.6-1.2,1.8C175.6,64.8,175.5,64.8,175.5,64.8z M113.4,64.3c-0.1,0-0.2,0-0.3,0c-0.8-0.2-1.3-1-1.2-1.8
			c0.2-1,0.4-2,0.6-3c0.2-0.8,1-1.3,1.8-1.1c0.8,0.2,1.3,1,1.1,1.8c-0.2,0.9-0.4,1.9-0.6,2.9C114.7,63.8,114.1,64.3,113.4,64.3z
			 M171.7,50.3c-0.6,0-1.2-0.4-1.4-1c-0.4-1-0.7-1.9-1.1-2.6c-0.4-0.7,0-1.6,0.7-2c0.7-0.4,1.6,0,2,0.7c0.4,0.9,0.8,1.8,1.2,2.9
			c0.3,0.8-0.1,1.6-0.9,1.9C172,50.3,171.8,50.3,171.7,50.3z M117.3,49.8c-0.2,0-0.4,0-0.5-0.1c-0.8-0.3-1.2-1.2-0.9-1.9
			c0.4-1.1,0.8-2,1.2-2.9c0.4-0.7,1.3-1,2-0.7c0.7,0.4,1,1.3,0.7,2c-0.4,0.8-0.8,1.6-1.1,2.6C118.4,49.5,117.9,49.8,117.3,49.8z
			 M161.2,42.7h-3c-0.8,0-1.5-0.7-1.5-1.5s0.7-1.5,1.5-1.5h3c0.8,0,1.5,0.7,1.5,1.5S162,42.7,161.2,42.7z M146.2,42.7h-3
			c-0.8,0-1.5-0.7-1.5-1.5s0.7-1.5,1.5-1.5h3c0.8,0,1.5,0.7,1.5,1.5S147,42.7,146.2,42.7z M131.2,42.7h-3c-0.8,0-1.5-0.7-1.5-1.5
			s0.7-1.5,1.5-1.5h3c0.8,0,1.5,0.7,1.5,1.5S132.1,42.7,131.2,42.7z"/>
	</g>
	<g>
		<path class="st0" d="M208.4,298.7c-0.7,0-1.5-0.2-2.2-0.6c-0.7-0.4-1-1.3-0.6-2c0.4-0.7,1.3-1,2-0.6c0.2,0.1,0.5,0.2,0.7,0.2
			c0.8,0,1.5,0.7,1.5,1.5S209.2,298.7,208.4,298.7z"/>
	</g>
</g>
<g>
	<g>
		<path class="st0" d="M324.4,298.7c-0.8,0-1.5-0.7-1.5-1.5s0.7-1.5,1.5-1.5c0.2,0,0.5-0.1,0.7-0.2c0.7-0.4,1.6-0.1,2,0.6
			s0.1,1.6-0.6,2C325.8,298.5,325.1,298.7,324.4,298.7z"/>
	</g>
	<g>
		<path class="st0" d="M445.5,288.5c-0.6,0-1.2-0.4-1.4-1.1c-0.3-0.9-0.6-1.9-0.8-2.9c-0.2-0.8,0.3-1.6,1.1-1.8
			c0.8-0.2,1.6,0.3,1.8,1.1c0.3,1,0.5,1.9,0.8,2.8c0.2,0.8-0.2,1.6-1,1.9C445.8,288.4,445.7,288.5,445.5,288.5z M331.4,287.9
			c-0.1,0-0.3,0-0.4-0.1c-0.8-0.2-1.2-1.1-1-1.9c0.3-0.9,0.5-1.8,0.8-2.8c0.2-0.8,1-1.3,1.8-1.1c0.8,0.2,1.3,1,1.1,1.8
			c-0.3,1-0.5,2-0.8,2.9C332.6,287.5,332,287.9,331.4,287.9z M442.1,273.8c-0.7,0-1.3-0.5-1.5-1.2c-0.2-1-0.4-2-0.5-3
			c-0.1-0.8,0.4-1.6,1.2-1.7c0.8-0.1,1.6,0.4,1.7,1.2c0.2,1,0.3,2,0.5,2.9c0.2,0.8-0.4,1.6-1.2,1.7
			C442.3,273.8,442.2,273.8,442.1,273.8z M334.7,273.3c-0.1,0-0.2,0-0.3,0c-0.8-0.1-1.4-0.9-1.2-1.7c0.2-1,0.3-1.9,0.5-2.9
			c0.1-0.8,0.9-1.4,1.7-1.2c0.8,0.1,1.4,0.9,1.2,1.7c-0.2,1-0.3,2-0.5,3C336.1,272.8,335.5,273.3,334.7,273.3z M439.7,259
			c-0.7,0-1.4-0.5-1.5-1.3c-0.1-1-0.3-2-0.4-3c-0.1-0.8,0.5-1.6,1.3-1.7c0.8-0.1,1.6,0.5,1.7,1.3c0.1,1,0.3,2,0.4,3
			c0.1,0.8-0.5,1.6-1.3,1.7C439.9,259,439.8,259,439.7,259z M337.1,258.5c-0.1,0-0.1,0-0.2,0c-0.8-0.1-1.4-0.9-1.3-1.7
			c0.1-1,0.3-2,0.4-3c0.1-0.8,0.9-1.4,1.7-1.3c0.8,0.1,1.4,0.9,1.3,1.7c-0.1,1-0.3,2-0.4,3C338.5,257.9,337.8,258.5,337.1,258.5z
			 M437.9,244.1c-0.8,0-1.4-0.6-1.5-1.3c-0.1-1-0.2-2-0.3-3c-0.1-0.8,0.5-1.6,1.3-1.7c0.8-0.1,1.6,0.5,1.7,1.3c0.1,1,0.2,2,0.3,3
			c0.1,0.8-0.5,1.6-1.3,1.7C438,244.1,437.9,244.1,437.9,244.1z M339,243.6c-0.1,0-0.1,0-0.2,0c-0.8-0.1-1.4-0.8-1.3-1.7
			c0.1-1,0.2-2,0.3-3c0.1-0.8,0.8-1.4,1.7-1.3c0.8,0.1,1.4,0.8,1.3,1.7c-0.1,1-0.2,2-0.3,3C340.4,243,339.7,243.6,339,243.6z
			 M436.2,229.1c-0.8,0-1.4-0.6-1.5-1.3l-0.3-3c-0.1-0.8,0.5-1.6,1.3-1.6c0.8-0.1,1.6,0.5,1.6,1.3l0.3,3c0.1,0.8-0.5,1.6-1.3,1.6
			C436.3,229.1,436.3,229.1,436.2,229.1z M340.6,228.6c-0.1,0-0.1,0-0.2,0c-0.8-0.1-1.4-0.8-1.3-1.6l0.3-3c0.1-0.8,0.8-1.4,1.6-1.3
			c0.8,0.1,1.4,0.8,1.3,1.6l-0.3,3C342,228,341.3,228.6,340.6,228.6z M434.8,214.2c-0.8,0-1.4-0.6-1.5-1.4l-0.3-3
			c-0.1-0.8,0.5-1.6,1.4-1.6c0.8-0.1,1.6,0.5,1.6,1.4l0.3,3c0.1,0.8-0.5,1.6-1.4,1.6C434.9,214.2,434.8,214.2,434.8,214.2z
			 M342,213.7c0,0-0.1,0-0.1,0c-0.8-0.1-1.4-0.8-1.4-1.6l0.3-3c0.1-0.8,0.8-1.4,1.6-1.4c0.8,0.1,1.4,0.8,1.4,1.6l-0.3,3
			C343.4,213.1,342.8,213.7,342,213.7z M433.5,199.2c-0.8,0-1.4-0.6-1.5-1.4l-0.3-3c-0.1-0.8,0.5-1.6,1.4-1.6
			c0.8-0.1,1.6,0.5,1.6,1.4l0.3,3c0.1,0.8-0.5,1.6-1.4,1.6C433.5,199.2,433.5,199.2,433.5,199.2z M343.3,198.7c0,0-0.1,0-0.1,0
			c-0.8-0.1-1.4-0.8-1.4-1.6l0.3-3c0.1-0.8,0.8-1.4,1.6-1.4c0.8,0.1,1.4,0.8,1.4,1.6l-0.3,3C344.8,198.1,344.1,198.7,343.3,198.7z
			 M432.2,184.3c-0.8,0-1.4-0.6-1.5-1.4l-0.3-3c-0.1-0.8,0.5-1.6,1.4-1.6c0.8-0.1,1.6,0.5,1.6,1.4l0.3,3c0.1,0.8-0.5,1.6-1.4,1.6
			C432.3,184.3,432.2,184.3,432.2,184.3z M344.6,183.8c0,0-0.1,0-0.1,0c-0.8-0.1-1.4-0.8-1.4-1.6l0.3-3c0.1-0.8,0.8-1.4,1.6-1.4
			c0.8,0.1,1.4,0.8,1.4,1.6l-0.3,3C346,183.2,345.4,183.8,344.6,183.8z M430.9,169.3c-0.8,0-1.4-0.6-1.5-1.4l-0.2-3
			c-0.1-0.8,0.5-1.6,1.4-1.6c0.8-0.1,1.6,0.5,1.6,1.4l0.3,3c0.1,0.8-0.5,1.6-1.4,1.6C431,169.3,431,169.3,430.9,169.3z M345.9,168.8
			c0,0-0.1,0-0.1,0c-0.8-0.1-1.4-0.8-1.4-1.6l0.2-3c0.1-0.8,0.8-1.4,1.6-1.4c0.8,0.1,1.4,0.8,1.4,1.6l-0.2,3
			C347.3,168.2,346.6,168.8,345.9,168.8z M429.7,154.4c-0.8,0-1.4-0.6-1.5-1.4l-0.3-3c-0.1-0.8,0.5-1.6,1.4-1.6
			c0.8-0.1,1.6,0.5,1.6,1.4l0.3,3c0.1,0.8-0.5,1.6-1.4,1.6C429.8,154.4,429.7,154.4,429.7,154.4z M347.1,153.8c0,0-0.1,0-0.1,0
			c-0.8-0.1-1.4-0.8-1.4-1.6l0.3-3c0.1-0.8,0.8-1.4,1.6-1.4c0.8,0.1,1.4,0.8,1.4,1.6l-0.3,3C348.6,153.2,347.9,153.8,347.1,153.8z
			 M428.4,139.4c-0.8,0-1.4-0.6-1.5-1.4l-0.3-3c-0.1-0.8,0.5-1.6,1.4-1.6c0.8-0.1,1.6,0.5,1.6,1.4l0.3,3c0.1,0.8-0.5,1.6-1.4,1.6
			C428.5,139.4,428.4,139.4,428.4,139.4z M348.4,138.9c0,0-0.1,0-0.1,0c-0.8-0.1-1.4-0.8-1.4-1.6l0.3-3c0.1-0.8,0.8-1.4,1.6-1.4
			c0.8,0.1,1.4,0.8,1.4,1.6l-0.3,3C349.8,138.3,349.2,138.9,348.4,138.9z M427,124.4c-0.8,0-1.4-0.6-1.5-1.4l-0.3-3
			c-0.1-0.8,0.5-1.6,1.4-1.6c0.8-0.1,1.6,0.5,1.6,1.4l0.3,3c0.1,0.8-0.5,1.6-1.4,1.6C427.1,124.4,427.1,124.4,427,124.4z
			 M349.8,123.9c0,0-0.1,0-0.1,0c-0.8-0.1-1.4-0.8-1.4-1.6l0.3-3c0.1-0.8,0.8-1.4,1.6-1.3c0.8,0.1,1.4,0.8,1.3,1.6l-0.3,3
			C351.2,123.3,350.5,123.9,349.8,123.9z M425.6,109.5c-0.8,0-1.4-0.6-1.5-1.3l-0.3-3c-0.1-0.8,0.5-1.6,1.3-1.6
			c0.8-0.1,1.6,0.5,1.7,1.3l0.3,3c0.1,0.8-0.5,1.6-1.3,1.6C425.7,109.5,425.6,109.5,425.6,109.5z M351.3,109c-0.1,0-0.1,0-0.2,0
			c-0.8-0.1-1.4-0.8-1.3-1.6l0.3-3c0.1-0.8,0.8-1.4,1.6-1.3c0.8,0.1,1.4,0.8,1.3,1.6l-0.3,3C352.7,108.4,352,109,351.3,109z
			 M423.9,94.6c-0.7,0-1.4-0.6-1.5-1.3c-0.1-1-0.2-2-0.4-3c-0.1-0.8,0.5-1.6,1.3-1.7c0.8-0.1,1.6,0.5,1.7,1.3c0.1,1,0.2,2,0.4,3
			c0.1,0.8-0.5,1.6-1.3,1.7C424,94.6,424,94.6,423.9,94.6z M352.9,94c-0.1,0-0.1,0-0.2,0c-0.8-0.1-1.4-0.8-1.3-1.7
			c0.1-1,0.2-2,0.4-3c0.1-0.8,0.9-1.4,1.7-1.3c0.8,0.1,1.4,0.9,1.3,1.7c-0.1,1-0.2,2-0.4,3C354.3,93.5,353.7,94,352.9,94z
			 M421.9,79.7c-0.7,0-1.4-0.5-1.5-1.3c-0.1-1-0.3-2-0.4-3c-0.1-0.8,0.4-1.6,1.3-1.7c0.8-0.1,1.6,0.4,1.7,1.3c0.1,1,0.3,2,0.4,3
			c0.1,0.8-0.4,1.6-1.3,1.7C422.1,79.7,422,79.7,421.9,79.7z M354.9,79.1c-0.1,0-0.1,0-0.2,0c-0.8-0.1-1.4-0.9-1.3-1.7
			c0.1-1,0.3-2,0.4-3c0.1-0.8,0.9-1.4,1.7-1.3c0.8,0.1,1.4,0.9,1.3,1.7c-0.1,1-0.3,2-0.4,3C356.3,78.6,355.6,79.1,354.9,79.1z
			 M419.5,64.8c-0.7,0-1.3-0.5-1.5-1.2c-0.2-1-0.4-2-0.6-2.9c-0.2-0.8,0.3-1.6,1.2-1.8c0.8-0.2,1.6,0.3,1.8,1.2c0.2,1,0.4,1.9,0.6,3
			c0.2,0.8-0.4,1.6-1.2,1.8C419.6,64.8,419.5,64.8,419.5,64.8z M357.4,64.3c-0.1,0-0.2,0-0.3,0c-0.8-0.2-1.3-1-1.2-1.8
			c0.2-1,0.4-2,0.6-3c0.2-0.8,1-1.3,1.8-1.1c0.8,0.2,1.3,1,1.1,1.8c-0.2,0.9-0.4,1.9-0.6,2.9C358.7,63.8,358.1,64.3,357.4,64.3z
			 M415.7,50.3c-0.6,0-1.2-0.4-1.4-1c-0.4-1-0.7-1.9-1.1-2.6c-0.4-0.7,0-1.6,0.7-2c0.7-0.4,1.6,0,2,0.7c0.4,0.9,0.8,1.8,1.2,2.9
			c0.3,0.8-0.1,1.6-0.9,1.9C416,50.3,415.8,50.3,415.7,50.3z M361.3,49.8c-0.2,0-0.4,0-0.5-0.1c-0.8-0.3-1.2-1.2-0.9-1.9
			c0.4-1.1,0.8-2,1.2-2.9c0.4-0.7,1.3-1,2-0.7c0.7,0.4,1,1.3,0.7,2c-0.4,0.8-0.8,1.6-1.1,2.6C362.4,49.5,361.9,49.8,361.3,49.8z
			 M405.2,42.7h-3c-0.8,0-1.5-0.7-1.5-1.5s0.7-1.5,1.5-1.5h3c0.8,0,1.5,0.7,1.5,1.5S406,42.7,405.2,42.7z M390.2,42.7h-3
			c-0.8,0-1.5-0.7-1.5-1.5s0.7-1.5,1.5-1.5h3c0.8,0,1.5,0.7,1.5,1.5S391,42.7,390.2,42.7z M375.2,42.7h-3c-0.8,0-1.5-0.7-1.5-1.5
			s0.7-1.5,1.5-1.5h3c0.8,0,1.5,0.7,1.5,1.5S376.1,42.7,375.2,42.7z"/>
	</g>
	<g>
		<path class="st0" d="M452.4,298.7c-0.7,0-1.5-0.2-2.2-0.6c-0.7-0.4-1-1.3-0.6-2c0.4-0.7,1.3-1,2-0.6c0.2,0.1,0.5,0.2,0.7,0.2
			c0.8,0,1.5,0.7,1.5,1.5S453.2,298.7,452.4,298.7z"/>
	</g>
</g>
<g>
	<g>
		<path class="st0" d="M568.4,298.5c-0.8,0-1.5-0.7-1.5-1.5s0.7-1.5,1.5-1.5c0.2,0,0.5-0.1,0.7-0.2c0.7-0.4,1.6-0.1,2,0.6
			c0.4,0.7,0.1,1.6-0.6,2C569.8,298.3,569.1,298.5,568.4,298.5z"/>
	</g>
	<g>
		<path class="st0" d="M689.5,288.3c-0.6,0-1.2-0.4-1.4-1.1c-0.3-0.9-0.6-1.9-0.8-2.9c-0.2-0.8,0.3-1.6,1.1-1.8
			c0.8-0.2,1.6,0.3,1.8,1.1c0.3,1,0.5,1.9,0.8,2.8c0.2,0.8-0.2,1.6-1,1.9C689.8,288.2,689.7,288.3,689.5,288.3z M575.4,287.7
			c-0.1,0-0.3,0-0.4-0.1c-0.8-0.2-1.2-1.1-1-1.9c0.3-0.9,0.5-1.8,0.8-2.8c0.2-0.8,1-1.3,1.8-1.1c0.8,0.2,1.3,1,1.1,1.8
			c-0.3,1-0.5,2-0.8,2.9C576.6,287.3,576,287.7,575.4,287.7z M686.1,273.6c-0.7,0-1.3-0.5-1.5-1.2c-0.2-1-0.4-2-0.5-3
			c-0.1-0.8,0.4-1.6,1.2-1.7c0.8-0.1,1.6,0.4,1.7,1.2c0.2,1,0.3,2,0.5,2.9c0.2,0.8-0.4,1.6-1.2,1.7
			C686.3,273.6,686.2,273.6,686.1,273.6z M578.7,273.1c-0.1,0-0.2,0-0.3,0c-0.8-0.1-1.4-0.9-1.2-1.7c0.2-1,0.3-1.9,0.5-2.9
			c0.1-0.8,0.9-1.4,1.7-1.2c0.8,0.1,1.4,0.9,1.2,1.7c-0.2,1-0.3,2-0.5,3C580.1,272.6,579.5,273.1,578.7,273.1z M683.7,258.8
			c-0.7,0-1.4-0.5-1.5-1.3c-0.1-1-0.3-2-0.4-3c-0.1-0.8,0.5-1.6,1.3-1.7c0.8-0.1,1.6,0.5,1.7,1.3c0.1,1,0.3,2,0.4,3
			c0.1,0.8-0.5,1.6-1.3,1.7C683.9,258.8,683.8,258.8,683.7,258.8z M581.1,258.2c-0.1,0-0.1,0-0.2,0c-0.8-0.1-1.4-0.9-1.3-1.7
			c0.1-1,0.3-2,0.4-3c0.1-0.8,0.9-1.4,1.7-1.3c0.8,0.1,1.4,0.9,1.3,1.7c-0.1,1-0.3,2-0.4,3C582.5,257.7,581.8,258.2,581.1,258.2z
			 M681.9,243.9c-0.8,0-1.4-0.6-1.5-1.3c-0.1-1-0.2-2-0.3-3c-0.1-0.8,0.5-1.6,1.3-1.7c0.8-0.1,1.6,0.5,1.7,1.3c0.1,1,0.2,2,0.3,3
			c0.1,0.8-0.5,1.6-1.3,1.7C682,243.9,681.9,243.9,681.9,243.9z M583,243.3c-0.1,0-0.1,0-0.2,0c-0.8-0.1-1.4-0.8-1.3-1.7l0.3-3
			c0.1-0.8,0.8-1.4,1.7-1.3c0.8,0.1,1.4,0.8,1.3,1.7l-0.3,3C584.4,242.8,583.7,243.3,583,243.3z M680.2,228.9
			c-0.8,0-1.4-0.6-1.5-1.3l-0.3-3c-0.1-0.8,0.5-1.6,1.3-1.6c0.8-0.1,1.6,0.5,1.6,1.3l0.3,3c0.1,0.8-0.5,1.6-1.3,1.6
			C680.3,228.9,680.3,228.9,680.2,228.9z M584.6,228.4c-0.1,0-0.1,0-0.2,0c-0.8-0.1-1.4-0.8-1.3-1.6l0.3-3c0.1-0.8,0.8-1.4,1.6-1.3
			c0.8,0.1,1.4,0.8,1.3,1.6l-0.3,3C586,227.8,585.3,228.4,584.6,228.4z M678.8,214c-0.8,0-1.4-0.6-1.5-1.4l-0.3-3
			c-0.1-0.8,0.5-1.6,1.4-1.6c0.8-0.1,1.6,0.5,1.6,1.4l0.3,3c0.1,0.8-0.5,1.6-1.4,1.6C678.9,214,678.8,214,678.8,214z M586,213.5
			c0,0-0.1,0-0.1,0c-0.8-0.1-1.4-0.8-1.4-1.6l0.3-3c0.1-0.8,0.8-1.4,1.6-1.4c0.8,0.1,1.4,0.8,1.4,1.6l-0.3,3
			C587.4,212.9,586.8,213.5,586,213.5z M677.5,199c-0.8,0-1.4-0.6-1.5-1.4l-0.3-3c-0.1-0.8,0.5-1.6,1.4-1.6c0.8-0.1,1.6,0.5,1.6,1.4
			l0.3,3c0.1,0.8-0.5,1.6-1.4,1.6C677.5,199,677.5,199,677.5,199z M587.3,198.5c0,0-0.1,0-0.1,0c-0.8-0.1-1.4-0.8-1.4-1.6l0.3-3
			c0.1-0.8,0.8-1.4,1.6-1.4c0.8,0.1,1.4,0.8,1.4,1.6l-0.3,3C588.8,197.9,588.1,198.5,587.3,198.5z M676.2,184.1
			c-0.8,0-1.4-0.6-1.5-1.4l-0.3-3c-0.1-0.8,0.5-1.6,1.4-1.6c0.8-0.1,1.6,0.5,1.6,1.4l0.3,3c0.1,0.8-0.5,1.6-1.4,1.6
			C676.3,184.1,676.2,184.1,676.2,184.1z M588.6,183.5c0,0-0.1,0-0.1,0c-0.8-0.1-1.4-0.8-1.4-1.6l0.3-3c0.1-0.8,0.8-1.4,1.6-1.4
			c0.8,0.1,1.4,0.8,1.4,1.6l-0.3,3C590,183,589.4,183.5,588.6,183.5z M674.9,169.1c-0.8,0-1.4-0.6-1.5-1.4l-0.2-3
			c-0.1-0.8,0.5-1.6,1.4-1.6c0.8-0.1,1.5,0.5,1.6,1.4l0.2,3c0.1,0.8-0.5,1.6-1.4,1.6C675,169.1,675,169.1,674.9,169.1z M589.9,168.6
			c0,0-0.1,0-0.1,0c-0.8-0.1-1.4-0.8-1.4-1.6l0.2-3c0.1-0.8,0.8-1.4,1.6-1.4c0.8,0.1,1.4,0.8,1.4,1.6l-0.2,3
			C591.3,168,590.6,168.6,589.9,168.6z M673.7,154.1c-0.8,0-1.4-0.6-1.5-1.4l-0.3-3c-0.1-0.8,0.5-1.6,1.4-1.6
			c0.8-0.1,1.6,0.5,1.6,1.4l0.3,3c0.1,0.8-0.5,1.6-1.4,1.6C673.8,154.1,673.7,154.1,673.7,154.1z M591.1,153.6c0,0-0.1,0-0.1,0
			c-0.8-0.1-1.4-0.8-1.4-1.6l0.3-3c0.1-0.8,0.8-1.4,1.6-1.4c0.8,0.1,1.4,0.8,1.4,1.6l-0.3,3C592.6,153,591.9,153.6,591.1,153.6z
			 M672.4,139.2c-0.8,0-1.4-0.6-1.5-1.4l-0.3-3c-0.1-0.8,0.5-1.6,1.4-1.6c0.8-0.1,1.6,0.5,1.6,1.4l0.3,3c0.1,0.8-0.5,1.6-1.4,1.6
			C672.5,139.2,672.4,139.2,672.4,139.2z M592.4,138.7c0,0-0.1,0-0.1,0c-0.8-0.1-1.4-0.8-1.4-1.6l0.3-3c0.1-0.8,0.8-1.4,1.6-1.4
			c0.8,0.1,1.4,0.8,1.4,1.6l-0.3,3C593.8,138.1,593.2,138.7,592.4,138.7z M671,124.2c-0.8,0-1.4-0.6-1.5-1.4l-0.3-3
			c-0.1-0.8,0.5-1.6,1.4-1.6c0.8-0.1,1.6,0.5,1.6,1.4l0.3,3c0.1,0.8-0.5,1.6-1.4,1.6C671.1,124.2,671.1,124.2,671,124.2z
			 M593.8,123.7c0,0-0.1,0-0.1,0c-0.8-0.1-1.4-0.8-1.4-1.6l0.3-3c0.1-0.8,0.8-1.4,1.6-1.4c0.8,0.1,1.4,0.8,1.4,1.6l-0.3,3
			C595.2,123.1,594.5,123.7,593.8,123.7z M669.6,109.3c-0.8,0-1.4-0.6-1.5-1.3l-0.3-3c-0.1-0.8,0.5-1.6,1.3-1.7
			c0.8-0.1,1.6,0.5,1.7,1.3l0.3,3c0.1,0.8-0.5,1.6-1.3,1.6C669.7,109.3,669.6,109.3,669.6,109.3z M595.3,108.8c-0.1,0-0.1,0-0.2,0
			c-0.8-0.1-1.4-0.8-1.3-1.6l0.3-3c0.1-0.8,0.8-1.4,1.7-1.3c0.8,0.1,1.4,0.8,1.3,1.7l-0.3,3C596.7,108.2,596,108.8,595.3,108.8z
			 M667.9,94.4c-0.7,0-1.4-0.6-1.5-1.3l-0.4-3c-0.1-0.8,0.5-1.6,1.3-1.7c0.8-0.1,1.6,0.5,1.7,1.3l0.4,3c0.1,0.8-0.5,1.6-1.3,1.7
			C668,94.4,668,94.4,667.9,94.4z M596.9,93.8c-0.1,0-0.1,0-0.2,0c-0.8-0.1-1.4-0.8-1.3-1.7c0.1-1,0.2-2,0.4-3
			c0.1-0.8,0.9-1.4,1.7-1.3c0.8,0.1,1.4,0.9,1.3,1.7c-0.1,1-0.2,2-0.4,3C598.3,93.3,597.7,93.8,596.9,93.8z M665.9,79.5
			c-0.7,0-1.4-0.5-1.5-1.3c-0.1-1-0.3-2-0.4-3c-0.1-0.8,0.4-1.6,1.3-1.7c0.8-0.1,1.6,0.4,1.7,1.3c0.2,1,0.3,2,0.4,3
			c0.1,0.8-0.4,1.6-1.3,1.7C666.1,79.5,666,79.5,665.9,79.5z M598.9,78.9c-0.1,0-0.1,0-0.2,0c-0.8-0.1-1.4-0.9-1.3-1.7
			c0.1-1,0.3-2,0.4-3c0.1-0.8,0.9-1.4,1.7-1.3c0.8,0.1,1.4,0.9,1.3,1.7c-0.1,1-0.3,2-0.4,3C600.3,78.4,599.6,78.9,598.9,78.9z
			 M663.4,64.6c-0.7,0-1.3-0.5-1.5-1.2c-0.2-1-0.4-2-0.6-2.9c-0.2-0.8,0.3-1.6,1.2-1.8c0.8-0.2,1.6,0.3,1.8,1.2c0.2,1,0.4,1.9,0.6,3
			c0.2,0.8-0.4,1.6-1.2,1.8C663.6,64.6,663.5,64.6,663.4,64.6z M601.4,64.1c-0.1,0-0.2,0-0.3,0c-0.8-0.2-1.3-1-1.2-1.8
			c0.2-1,0.4-2,0.6-3c0.2-0.8,1-1.3,1.8-1.1c0.8,0.2,1.3,1,1.1,1.8c-0.2,0.9-0.4,1.9-0.6,2.9C602.7,63.6,602.1,64.1,601.4,64.1z
			 M659.7,50.1c-0.6,0-1.2-0.4-1.4-1c-0.4-1-0.7-1.9-1.1-2.6c-0.4-0.7,0-1.6,0.7-2c0.7-0.4,1.6,0,2,0.7c0.4,0.9,0.8,1.8,1.2,2.9
			c0.3,0.8-0.1,1.6-0.9,1.9C660,50.1,659.8,50.1,659.7,50.1z M605.3,49.6c-0.2,0-0.4,0-0.5-0.1c-0.8-0.3-1.2-1.2-0.9-1.9
			c0.4-1.1,0.8-2,1.2-2.9c0.4-0.7,1.3-1,2-0.7c0.7,0.4,1,1.3,0.7,2c-0.4,0.8-0.8,1.6-1.1,2.6C606.4,49.2,605.9,49.6,605.3,49.6z
			 M649.2,42.5h-3c-0.8,0-1.5-0.7-1.5-1.5s0.7-1.5,1.5-1.5h3c0.8,0,1.5,0.7,1.5,1.5S650,42.5,649.2,42.5z M634.2,42.5h-3
			c-0.8,0-1.5-0.7-1.5-1.5s0.7-1.5,1.5-1.5h3c0.8,0,1.5,0.7,1.5,1.5S635,42.5,634.2,42.5z M619.2,42.5h-3c-0.8,0-1.5-0.7-1.5-1.5
			s0.7-1.5,1.5-1.5h3c0.8,0,1.5,0.7,1.5,1.5S620.1,42.5,619.2,42.5z"/>
	</g>
	<g>
		<path class="st0" d="M696.4,298.5c-0.7,0-1.5-0.2-2.2-0.6c-0.7-0.4-1-1.3-0.6-2c0.4-0.7,1.3-1,2-0.6c0.2,0.1,0.5,0.2,0.7,0.2
			c0.8,0,1.5,0.7,1.5,1.5S697.2,298.5,696.4,298.5z"/>
	</g>
</g>
<g>
	<g>
		<path class="st0" d="M812.4,298.3c-0.8,0-1.5-0.7-1.5-1.5s0.7-1.5,1.5-1.5c0.2,0,0.5-0.1,0.7-0.2c0.7-0.4,1.6-0.1,2,0.6
			c0.4,0.7,0.1,1.6-0.6,2C813.8,298.1,813.1,298.3,812.4,298.3z"/>
	</g>
	<g>
		<path class="st0" d="M819.3,287.8c-0.1,0-0.3,0-0.4-0.1c-0.8-0.2-1.2-1.1-1-1.9c0.3-0.9,0.5-1.8,0.8-2.8c0.2-0.8,1-1.3,1.8-1.1
			c0.8,0.2,1.3,1,1.1,1.8c-0.3,1-0.5,2-0.8,2.9C820.5,287.4,819.9,287.8,819.3,287.8z M822.6,273.5c-0.1,0-0.2,0-0.3,0
			c-0.8-0.2-1.4-0.9-1.2-1.7c0.2-0.9,0.3-1.9,0.5-2.9c0.1-0.8,0.9-1.4,1.7-1.2c0.8,0.1,1.4,0.9,1.2,1.7c-0.2,1-0.3,2-0.5,2.9
			C824,273,823.3,273.5,822.6,273.5z M824.9,259c-0.1,0-0.1,0-0.2,0c-0.8-0.1-1.4-0.9-1.3-1.7c0.1-1,0.3-1.9,0.4-2.9
			c0.1-0.8,0.9-1.4,1.7-1.3c0.8,0.1,1.4,0.9,1.3,1.7c-0.1,1-0.3,2-0.4,2.9C826.3,258.5,825.7,259,824.9,259z M826.8,244.5
			c-0.1,0-0.1,0-0.2,0c-0.8-0.1-1.4-0.8-1.3-1.7l0.3-2.9c0.1-0.8,0.8-1.4,1.7-1.3c0.8,0.1,1.4,0.8,1.3,1.7l-0.3,2.9
			C828.2,243.9,827.5,244.5,826.8,244.5z M828.4,229.9c-0.1,0-0.1,0-0.2,0c-0.8-0.1-1.4-0.8-1.3-1.6l0.3-2.9
			c0.1-0.8,0.8-1.4,1.6-1.3c0.8,0.1,1.4,0.8,1.3,1.6l-0.3,2.9C829.8,229.4,829.1,229.9,828.4,229.9z M829.8,215.3c0,0-0.1,0-0.1,0
			c-0.8-0.1-1.4-0.8-1.4-1.6l0.3-2.9c0.1-0.8,0.8-1.4,1.6-1.4c0.8,0.1,1.4,0.8,1.4,1.6l-0.3,2.9
			C831.2,214.8,830.6,215.3,829.8,215.3z M831.1,200.7c0,0-0.1,0-0.1,0c-0.8-0.1-1.4-0.8-1.4-1.6l0.3-2.9c0.1-0.8,0.8-1.4,1.6-1.4
			c0.8,0.1,1.4,0.8,1.4,1.6l-0.3,2.9C832.6,200.2,831.9,200.7,831.1,200.7z M832.4,186.1c0,0-0.1,0-0.1,0c-0.8-0.1-1.4-0.8-1.4-1.6
			l0.2-2.9c0.1-0.8,0.8-1.4,1.6-1.4c0.8,0.1,1.4,0.8,1.4,1.6l-0.2,2.9C833.8,185.6,833.2,186.1,832.4,186.1z M833.6,171.6
			c0,0-0.1,0-0.1,0c-0.8-0.1-1.4-0.8-1.4-1.6l0.2-2.9c0.1-0.8,0.8-1.4,1.6-1.4c0.8,0.1,1.4,0.8,1.4,1.6l-0.2,2.9
			C835,171,834.4,171.6,833.6,171.6z M834.8,156.9c0,0-0.1,0-0.1,0c-0.8-0.1-1.4-0.8-1.4-1.6l0.2-2.9c0.1-0.8,0.8-1.4,1.6-1.4
			c0.8,0.1,1.4,0.8,1.4,1.6l-0.2,2.9C836.3,156.4,835.6,156.9,834.8,156.9z M836.1,142.3c0,0-0.1,0-0.1,0c-0.8-0.1-1.4-0.8-1.4-1.6
			l0.3-2.9c0.1-0.8,0.8-1.4,1.6-1.4c0.8,0.1,1.4,0.8,1.4,1.6l-0.3,2.9C837.5,141.8,836.8,142.3,836.1,142.3z M837.4,127.7
			c0,0-0.1,0-0.1,0c-0.8-0.1-1.4-0.8-1.4-1.6l0.3-2.9c0.1-0.8,0.8-1.4,1.6-1.4c0.8,0.1,1.4,0.8,1.4,1.6l-0.3,2.9
			C838.8,127.2,838.1,127.7,837.4,127.7z M838.8,113.2c-0.1,0-0.1,0-0.2,0c-0.8-0.1-1.4-0.8-1.3-1.6l0.3-2.9
			c0.1-0.8,0.8-1.4,1.6-1.3c0.8,0.1,1.4,0.8,1.3,1.6l-0.3,2.9C840.2,112.6,839.5,113.2,838.8,113.2z M840.3,98.6c-0.1,0-0.1,0-0.2,0
			c-0.8-0.1-1.4-0.8-1.3-1.7l0.3-2.9c0.1-0.8,0.9-1.4,1.7-1.3c0.8,0.1,1.4,0.8,1.3,1.7l-0.3,2.9C841.7,98,841.1,98.6,840.3,98.6z
			 M842.1,84c-0.1,0-0.1,0-0.2,0c-0.8-0.1-1.4-0.9-1.3-1.7c0.1-1,0.3-2,0.4-2.9c0.1-0.8,0.9-1.4,1.7-1.3c0.8,0.1,1.4,0.9,1.3,1.7
			c-0.1,1-0.3,1.9-0.4,2.9C843.5,83.5,842.9,84,842.1,84z M844.4,69.5c-0.1,0-0.2,0-0.3,0c-0.8-0.1-1.4-0.9-1.2-1.7
			c0.2-1,0.3-2,0.5-2.9c0.2-0.8,0.9-1.4,1.7-1.2c0.8,0.2,1.4,0.9,1.2,1.7c-0.2,0.9-0.3,1.9-0.5,2.9C845.7,69,845.1,69.5,844.4,69.5z
			 M847.4,55.2c-0.1,0-0.3,0-0.4-0.1c-0.8-0.2-1.3-1-1.1-1.8c0.3-1,0.6-2,0.8-2.9c0.2-0.8,1.1-1.2,1.9-1c0.8,0.2,1.2,1.1,1,1.9
			c-0.3,0.9-0.5,1.8-0.8,2.8C848.7,54.8,848.1,55.2,847.4,55.2z"/>
	</g>
	<g>
		<path class="st0" d="M853.6,42.7c-0.5,0-1-0.3-1.3-0.8c-0.4-0.7-0.1-1.6,0.6-2c0.7-0.4,1.4-0.6,2.2-0.6c0.8,0,1.5,0.7,1.5,1.5
			s-0.7,1.5-1.5,1.5c-0.2,0-0.5,0.1-0.7,0.2C854.1,42.6,853.9,42.7,853.6,42.7z"/>
	</g>
</g>
<g>
	<polygon class="st0" points="530.4,297.9 527.4,297.9 527.4,107.4 146.4,107.4 146.4,297.9 143.4,297.9 143.4,104.4 530.4,104.4 	
		"/>
</g>
<g>
	<polygon class="st0" points="594.4,297.9 591.4,297.9 591.4,104.4 849.4,104.4 849.4,107.4 594.4,107.4 	"/>
</g>
<g>
	<g>
		<path class="st0" d="M842.4,175.9c-0.8,0-1.5-0.6-1.5-1.5c0-0.8,0.6-1.5,1.5-1.5c1.9,0,4-0.1,6-0.1c0.8,0,1.5,0.7,1.5,1.5
			s-0.7,1.5-1.5,1.5C846.3,175.8,844.3,175.8,842.4,175.9C842.4,175.9,842.4,175.9,842.4,175.9z"/>
	</g>
	<g>
		<path class="st0" d="M592.4,186c-1.9,0-3.7,0-5.5-0.1c-0.8,0-1.5-0.7-1.5-1.5c0-0.8,0.7-1.5,1.5-1.5c3.7,0.1,7.9,0.1,11.7,0
			c0.8,0,1.5,0.6,1.5,1.5c0,0.8-0.6,1.5-1.5,1.5C596.7,186,594.6,186,592.4,186z M761.1,186C761.1,186,761.1,186,761.1,186
			c-4.2,0-8.1-0.2-11.8-0.4c-0.8-0.1-1.5-0.8-1.4-1.6c0.1-0.8,0.7-1.5,1.6-1.4c3.6,0.2,7.5,0.4,11.6,0.4c0.8,0,1.5,0.7,1.5,1.5
			C762.6,185.4,761.9,186,761.1,186z M424.5,186c-0.8,0-1.5-0.7-1.5-1.5c0-0.8,0.7-1.5,1.5-1.5c4.1,0,8-0.2,11.6-0.4
			c0.8-0.1,1.5,0.6,1.6,1.4c0.1,0.8-0.6,1.5-1.4,1.6C432.7,185.8,428.7,186,424.5,186C424.5,186,424.5,186,424.5,186z M412.8,185.9
			C412.8,185.9,412.8,185.9,412.8,185.9c-4.3-0.2-8.1-0.4-11.9-0.8c-0.8-0.1-1.4-0.8-1.3-1.7c0.1-0.8,0.8-1.4,1.7-1.3
			c3.7,0.4,7.5,0.7,11.6,0.8c0.8,0,1.5,0.7,1.4,1.6C414.3,185.2,413.6,185.9,412.8,185.9z M772.8,185.8c-0.8,0-1.5-0.6-1.5-1.4
			c0-0.8,0.6-1.5,1.4-1.6c4.1-0.2,7.9-0.5,11.6-0.9c0.8-0.1,1.6,0.5,1.7,1.3s-0.5,1.6-1.3,1.7C781,185.3,777.1,185.6,772.8,185.8
			C772.9,185.8,772.9,185.8,772.8,185.8z M575.2,185.4c0,0-0.1,0-0.1,0c-4.1-0.3-7.9-0.8-11.8-1.5c-0.8-0.1-1.4-0.9-1.2-1.7
			s0.9-1.4,1.7-1.2c3.7,0.6,7.5,1.1,11.5,1.5c0.8,0.1,1.4,0.8,1.4,1.6C576.7,184.8,576,185.4,575.2,185.4z M610.4,185.3
			c-0.8,0-1.4-0.6-1.5-1.4c-0.1-0.8,0.5-1.6,1.4-1.6c4-0.4,7.7-0.9,11.5-1.5c0.8-0.1,1.6,0.4,1.7,1.2c0.1,0.8-0.4,1.6-1.2,1.7
			c-3.9,0.7-7.7,1.2-11.7,1.6C610.5,185.3,610.4,185.3,610.4,185.3z M737.7,184.4c-0.1,0-0.1,0-0.2,0c-3.8-0.5-7.4-1.2-11.6-2.2
			c-0.8-0.2-1.3-1-1.1-1.8c0.2-0.8,1-1.3,1.8-1.1c4.2,0.9,7.7,1.6,11.4,2.1c0.8,0.1,1.4,0.9,1.3,1.7
			C739.1,183.9,738.5,184.4,737.7,184.4z M447.9,184.3c-0.7,0-1.4-0.5-1.5-1.3c-0.1-0.8,0.4-1.6,1.3-1.7c4.6-0.7,8.5-1.5,11.4-2.2
			c0.8-0.2,1.6,0.3,1.8,1.1c0.2,0.8-0.3,1.6-1.1,1.8c-2.9,0.7-6.9,1.5-11.6,2.2C448.1,184.3,448,184.3,447.9,184.3z M389.5,183.3
			c-0.1,0-0.2,0-0.3,0c-3.8-0.7-7.2-1.6-10.5-2.4l-1-0.2c-0.8-0.2-1.3-1-1.1-1.8c0.2-0.8,1-1.3,1.8-1.1l1,0.2
			c3.3,0.8,6.7,1.6,10.4,2.3c0.8,0.2,1.3,0.9,1.2,1.8C390.8,182.8,390.2,183.3,389.5,183.3z M796.1,183.1c-0.7,0-1.3-0.5-1.5-1.2
			c-0.2-0.8,0.4-1.6,1.2-1.8c3.4-0.7,6.5-1.4,9.6-2.2l1.8-0.4c0.8-0.2,1.6,0.3,1.8,1.1c0.2,0.8-0.3,1.6-1.1,1.8l-1.8,0.4
			c-3.1,0.7-6.3,1.5-9.7,2.2C796.3,183.1,796.2,183.1,796.1,183.1z M552.1,181.5c-0.1,0-0.2,0-0.3,0l-2.4-0.6
			c-2.9-0.7-5.8-1.4-8.9-2c-0.8-0.2-1.3-1-1.2-1.8c0.2-0.8,1-1.3,1.8-1.2c3.2,0.7,6.1,1.4,9,2.1l2.4,0.6c0.8,0.2,1.3,1,1.1,1.8
			C553.4,181,552.8,181.5,552.1,181.5z M633.5,181.3c-0.7,0-1.3-0.5-1.5-1.2c-0.2-0.8,0.3-1.6,1.1-1.8l1.6-0.4
			c3.1-0.8,6.4-1.5,9.9-2.2c0.8-0.2,1.6,0.4,1.8,1.2c0.2,0.8-0.4,1.6-1.2,1.8c-3.4,0.7-6.7,1.5-9.8,2.2l-1.6,0.4
			C633.7,181.3,633.6,181.3,633.5,181.3z M714.8,179.6c-0.1,0-0.2,0-0.3,0c-4.2-1-7.7-1.6-11.4-2.2c-0.8-0.1-1.4-0.9-1.3-1.7
			s0.9-1.4,1.7-1.3c3.8,0.5,7.3,1.2,11.6,2.2c0.8,0.2,1.3,1,1.1,1.8C716.1,179.1,715.5,179.6,714.8,179.6z M470.8,179.4
			c-0.7,0-1.3-0.5-1.5-1.2c-0.2-0.8,0.3-1.6,1.1-1.8c4.2-0.9,7.9-1.6,11.6-2.1c0.8-0.1,1.6,0.5,1.7,1.3c0.1,0.8-0.5,1.6-1.3,1.7
			c-3.7,0.5-7.3,1.2-11.4,2.1C471,179.4,470.9,179.4,470.8,179.4z M366.6,178.2c-0.1,0-0.2,0-0.3,0c-3.8-0.7-7.5-1.2-11.5-1.6
			c-0.8-0.1-1.4-0.8-1.4-1.6s0.8-1.4,1.6-1.4c4,0.4,7.9,0.9,11.7,1.6c0.8,0.1,1.4,0.9,1.2,1.7C368,177.7,367.3,178.2,366.6,178.2z
			 M819,178c-0.7,0-1.3-0.5-1.5-1.2c-0.1-0.8,0.4-1.6,1.2-1.7c3.8-0.7,7.7-1.2,11.8-1.5c0.8-0.1,1.6,0.5,1.6,1.4
			c0.1,0.8-0.5,1.6-1.4,1.6c-4,0.4-7.7,0.8-11.5,1.5C819.2,178,819.1,178,819,178z M529.2,177c-0.1,0-0.1,0-0.2,0
			c-3.7-0.4-7.5-0.7-11.6-0.9c-0.8,0-1.5-0.7-1.4-1.6c0-0.8,0.8-1.5,1.6-1.4c4.2,0.2,8.1,0.5,11.8,1c0.8,0.1,1.4,0.8,1.3,1.7
			C530.6,176.4,529.9,177,529.2,177z M656.5,176.9c-0.8,0-1.4-0.6-1.5-1.3c-0.1-0.8,0.5-1.6,1.3-1.7c3.7-0.4,7.6-0.7,11.8-0.9
			c0.8,0,1.5,0.6,1.6,1.4c0,0.8-0.6,1.5-1.4,1.6c-4.1,0.2-7.9,0.5-11.6,0.9C656.6,176.9,656.5,176.9,656.5,176.9z M691.6,176.2
			c0,0-0.1,0-0.1,0c-3.6-0.2-7.5-0.4-11.6-0.4c-0.8,0-1.5-0.7-1.5-1.5c0-0.8,0.7-1.5,1.5-1.5c0,0,0,0,0,0c4.2,0,8.1,0.2,11.8,0.4
			c0.8,0.1,1.5,0.8,1.4,1.6C693.1,175.6,692.4,176.2,691.6,176.2z M494,176.2c-0.8,0-1.4-0.6-1.5-1.4c-0.1-0.8,0.6-1.5,1.4-1.6
			c3.7-0.2,7.6-0.3,11.8-0.4c0,0,0,0,0,0c0.8,0,1.5,0.7,1.5,1.5c0,0.8-0.7,1.5-1.5,1.5C501.6,175.8,497.7,175.9,494,176.2
			C494.1,176.2,494,176.2,494,176.2z"/>
	</g>
	<g>
		<path class="st0" d="M342.4,175.9C342.4,175.9,342.4,175.9,342.4,175.9c-1.9,0-3.9-0.1-6-0.1c-0.8,0-1.5-0.7-1.5-1.5
			s0.7-1.5,1.5-1.5c2.1,0,4.1,0,6,0.1c0.8,0,1.5,0.7,1.5,1.5C343.9,175.2,343.2,175.9,342.4,175.9z"/>
	</g>
</g>
<g>
	<g>
		<path class="st0" d="M330.6,177.2c-0.6,0-1.2-0.4-1.4-1c-0.3-0.8,0.1-1.6,0.9-1.9c2.6-0.9,4.7-1.4,6.3-1.4c0.8,0,1.5,0.7,1.5,1.5
			s-0.7,1.5-1.5,1.5c-1.3,0-3,0.4-5.3,1.2C330.9,177.2,330.7,177.2,330.6,177.2z"/>
	</g>
	<g>
		<path class="st0" d="M98.9,296.2c-0.7,0-1.3-0.5-1.5-1.2c-0.1-0.8,0.4-1.6,1.2-1.7c3.6-0.7,7.5-1.5,11.5-2.6
			c0.8-0.2,1.6,0.3,1.8,1.1c0.2,0.8-0.3,1.6-1.1,1.8c-4,1.1-8,2-11.7,2.6C99,296.2,99,296.2,98.9,296.2z M121.8,290.2
			c-0.6,0-1.2-0.4-1.4-1c-0.3-0.8,0.2-1.6,1-1.9c3.6-1.2,7.3-2.5,11.1-4c0.8-0.3,1.6,0.1,1.9,0.9c0.3,0.8-0.1,1.6-0.9,1.9
			c-3.9,1.5-7.6,2.8-11.3,4C122.2,290.2,122,290.2,121.8,290.2z M144.1,281.8c-0.6,0-1.1-0.3-1.4-0.9c-0.3-0.8,0-1.6,0.8-2
			c3.5-1.5,7.1-3.1,10.8-4.8c0.8-0.3,1.6,0,2,0.7c0.3,0.8,0,1.6-0.7,2c-3.7,1.7-7.4,3.3-10.9,4.8
			C144.5,281.7,144.3,281.8,144.1,281.8z M165.7,271.9c-0.6,0-1.1-0.3-1.3-0.8c-0.4-0.7-0.1-1.6,0.7-2c3.4-1.7,7-3.5,10.6-5.3
			c0.7-0.4,1.6-0.1,2,0.6c0.4,0.7,0.1,1.6-0.6,2c-3.6,1.9-7.2,3.7-10.7,5.3C166.1,271.8,165.9,271.9,165.7,271.9z M186.8,261
			c-0.5,0-1.1-0.3-1.3-0.8c-0.4-0.7-0.1-1.6,0.6-2c3.4-1.8,6.9-3.7,10.4-5.7c0.7-0.4,1.6-0.1,2,0.6s0.1,1.6-0.6,2
			c-3.5,2-7.1,3.9-10.5,5.7C187.3,261,187.1,261,186.8,261z M207.6,249.5c-0.5,0-1-0.3-1.3-0.8c-0.4-0.7-0.2-1.6,0.6-2
			c3.4-2,6.9-3.9,10.3-5.9c0.7-0.4,1.6-0.2,2.1,0.5c0.4,0.7,0.2,1.6-0.5,2.1c-3.4,2-6.8,4-10.3,6
			C208.2,249.4,207.9,249.5,207.6,249.5z M228.2,237.5c-0.5,0-1-0.3-1.3-0.7c-0.4-0.7-0.2-1.6,0.5-2.1c3.4-2,6.8-4.1,10.2-6.1
			c0.7-0.4,1.6-0.2,2.1,0.5s0.2,1.6-0.5,2.1c-3.4,2-6.8,4.1-10.2,6.1C228.7,237.4,228.4,237.5,228.2,237.5z M248.5,225.2
			c-0.5,0-1-0.3-1.3-0.7c-0.4-0.7-0.2-1.6,0.5-2.1c3.4-2.1,6.8-4.2,10.1-6.2c0.7-0.4,1.6-0.2,2.1,0.5c0.4,0.7,0.2,1.6-0.5,2.1
			c-3.3,2.1-6.7,4.1-10.1,6.2C249,225.1,248.8,225.2,248.5,225.2z M268.7,212.6c-0.5,0-1-0.3-1.3-0.7c-0.4-0.7-0.2-1.6,0.5-2.1
			l10.1-6.3c0.7-0.4,1.6-0.2,2.1,0.5c0.4,0.7,0.2,1.6-0.5,2.1l-10.1,6.3C269.3,212.6,269,212.6,268.7,212.6z M288.9,200.1
			c-0.5,0-1-0.3-1.3-0.7c-0.4-0.7-0.2-1.6,0.5-2.1c3.5-2.2,6.9-4.2,10.2-6.2c0.7-0.4,1.6-0.2,2.1,0.5c0.4,0.7,0.2,1.6-0.5,2.1
			c-3.2,1.9-6.6,4-10.1,6.2C289.5,200,289.2,200.1,288.9,200.1z M309.3,187.9c-0.5,0-1-0.3-1.3-0.8c-0.4-0.7-0.2-1.6,0.6-2
			c4-2.3,7.4-4.2,10.5-5.8c0.7-0.4,1.6-0.1,2,0.6c0.4,0.7,0.1,1.6-0.6,2c-3,1.6-6.4,3.4-10.4,5.7
			C309.9,187.8,309.6,187.9,309.3,187.9z"/>
	</g>
	<g>
		<path class="st0" d="M81.4,297.9c-0.8,0-1.5-0.7-1.5-1.5s0.7-1.5,1.5-1.5c1.9,0,3.9-0.1,5.9-0.2c0.8-0.1,1.5,0.6,1.6,1.4
			s-0.6,1.5-1.4,1.6C85.4,297.8,83.3,297.9,81.4,297.9z"/>
	</g>
</g>
<g>
	<path class="st0" d="M875.6,97.3h3.6v14.2h8.6v3.1h-12.2V97.3z"/>
	<path class="st0" d="M901.8,100.3h-9.1v3.7h8.4v3h-8.4v4.4h9.6v3.1h-13.1V97.3h12.7V100.3z"/>
	<path class="st0" d="M914,97.6c1.2,0.4,2.2,1.1,2.9,2.2c0.6,0.9,1,1.8,1.2,2.8c0.2,1,0.3,2,0.3,2.9c0,2.3-0.5,4.2-1.4,5.8
		c-1.3,2.1-3.2,3.2-5.8,3.2h-7.4V97.3h7.4C912.4,97.3,913.3,97.4,914,97.6z M907.4,100.3v11.3h3.3c1.7,0,2.9-0.8,3.6-2.5
		c0.4-0.9,0.6-2,0.6-3.3c0-1.8-0.3-3.1-0.8-4c-0.6-0.9-1.6-1.4-3.3-1.4H907.4z"/>
</g>
<g>
	<path class="st0" d="M875.6,179.5v-17.3h3.6v6.6h6.7v-6.6h3.6v17.3h-3.6v-7.7h-6.7v7.7H875.6z"/>
	<path class="st0" d="M899.8,167c0.9,0.4,1.6,1,2.2,1.9c0.5,0.8,0.9,1.6,1,2.6c0.1,0.6,0.1,1.4,0.1,2.5h-9.3
		c0.1,1.3,0.5,2.2,1.3,2.7c0.5,0.3,1.1,0.5,1.8,0.5c0.8,0,1.4-0.2,1.9-0.6c0.3-0.2,0.5-0.5,0.7-0.9h3.4c-0.1,0.8-0.5,1.5-1.2,2.3
		c-1.1,1.2-2.7,1.9-4.8,1.9c-1.7,0-3.2-0.5-4.5-1.6c-1.3-1-1.9-2.8-1.9-5.1c0-2.2,0.6-3.9,1.8-5.1s2.7-1.8,4.6-1.8
		C897.9,166.4,898.9,166.6,899.8,167z M894.8,169.9c-0.5,0.5-0.8,1.1-0.9,2h5.8c-0.1-0.9-0.4-1.6-0.9-2s-1.2-0.7-2-0.7
		C895.9,169.2,895.2,169.4,894.8,169.9z"/>
	<path class="st0" d="M908.7,171.8c0.6-0.1,1.1-0.2,1.3-0.3c0.5-0.2,0.7-0.5,0.7-0.9c0-0.5-0.2-0.9-0.6-1.1s-0.9-0.3-1.6-0.3
		c-0.8,0-1.4,0.2-1.7,0.6c-0.2,0.3-0.4,0.7-0.5,1.2h-3.2c0.1-1.1,0.4-2,0.9-2.8c0.9-1.1,2.4-1.7,4.6-1.7c1.4,0,2.7,0.3,3.7,0.8
		c1.1,0.6,1.6,1.6,1.6,3.1v5.9c0,0.4,0,0.9,0,1.5c0,0.4,0.1,0.7,0.2,0.9s0.3,0.3,0.5,0.4v0.5h-3.6c-0.1-0.3-0.2-0.5-0.2-0.7
		s-0.1-0.5-0.1-0.8c-0.5,0.5-1,0.9-1.6,1.3c-0.7,0.4-1.5,0.6-2.5,0.6c-1.2,0-2.1-0.3-2.9-1c-0.8-0.7-1.1-1.6-1.1-2.8
		c0-1.6,0.6-2.7,1.8-3.4c0.7-0.4,1.7-0.7,3-0.8L908.7,171.8z M910.7,173.3c-0.2,0.1-0.4,0.2-0.6,0.3c-0.2,0.1-0.5,0.2-0.9,0.2
		l-0.8,0.1c-0.7,0.1-1.2,0.3-1.5,0.5c-0.5,0.3-0.8,0.8-0.8,1.4c0,0.6,0.2,1,0.5,1.2s0.7,0.4,1.2,0.4c0.7,0,1.4-0.2,2-0.6
		c0.6-0.4,0.9-1.2,1-2.3V173.3z"/>
	<path class="st0" d="M914.4,169.3v-2.4h1.8v-3.6h3.3v3.6h2.1v2.4h-2.1v6.8c0,0.5,0.1,0.8,0.2,1s0.5,0.2,1.2,0.2c0.1,0,0.2,0,0.3,0
		s0.2,0,0.3,0v2.5l-1.6,0.1c-1.6,0.1-2.7-0.2-3.2-0.8c-0.4-0.4-0.6-1-0.6-1.8v-7.9H914.4z"/>
	<path class="st0" d="M930.9,167c0.9,0.4,1.6,1,2.2,1.9c0.5,0.8,0.9,1.6,1,2.6c0.1,0.6,0.1,1.4,0.1,2.5h-9.3
		c0.1,1.3,0.5,2.2,1.3,2.7c0.5,0.3,1.1,0.5,1.8,0.5c0.8,0,1.4-0.2,1.9-0.6c0.3-0.2,0.5-0.5,0.7-0.9h3.4c-0.1,0.8-0.5,1.5-1.2,2.3
		c-1.1,1.2-2.7,1.9-4.8,1.9c-1.7,0-3.2-0.5-4.5-1.6c-1.3-1-1.9-2.8-1.9-5.1c0-2.2,0.6-3.9,1.8-5.1s2.7-1.8,4.6-1.8
		C929,166.4,930,166.6,930.9,167z M925.9,169.9c-0.5,0.5-0.8,1.1-0.9,2h5.8c-0.1-0.9-0.4-1.6-0.9-2s-1.2-0.7-2-0.7
		C927,169.2,926.3,169.4,925.9,169.9z"/>
	<path class="st0" d="M941.8,166.5c0,0,0.1,0,0.3,0v3.4c-0.2,0-0.4,0-0.6,0s-0.3,0-0.4,0c-1.3,0-2.2,0.4-2.7,1.3
		c-0.3,0.5-0.4,1.2-0.4,2.3v6.1h-3.4v-12.8h3.2v2.2c0.5-0.9,1-1.4,1.3-1.7c0.6-0.5,1.4-0.8,2.4-0.8
		C941.7,166.5,941.7,166.5,941.8,166.5z"/>
</g>
<g>
	<path class="st0" d="M875.5,33.3h3.8l6.9,12v-12h3.4v17.3h-3.6l-7-12.3v12.3h-3.4V33.3z"/>
	<path class="st0" d="M902.1,49c-1.1,1.3-2.7,2-4.9,2s-3.8-0.7-4.9-2c-1.1-1.3-1.6-2.9-1.6-4.8c0-1.8,0.5-3.4,1.6-4.8s2.7-2,4.9-2
		s3.8,0.7,4.9,2s1.6,2.9,1.6,4.8C903.7,46.1,903.2,47.7,902.1,49z M899.4,47.1c0.5-0.7,0.8-1.7,0.8-3s-0.3-2.3-0.8-3s-1.3-1-2.2-1
		s-1.7,0.3-2.3,1s-0.8,1.7-0.8,3s0.3,2.3,0.8,3s1.3,1,2.3,1S898.9,47.8,899.4,47.1z"/>
	<path class="st0" d="M904.2,40.5v-2.7h10.1v2.8l-6.3,7.3h6.5v2.7h-10.8v-2.6l6.3-7.5H904.2z"/>
	<path class="st0" d="M915,40.5v-2.7h10.1v2.8l-6.3,7.3h6.5v2.7h-10.8v-2.6l6.3-7.5H915z"/>
	<path class="st0" d="M929.9,50.5h-3.3V33.3h3.3V50.5z"/>
	<path class="st0" d="M940.3,38c0.9,0.4,1.6,1,2.2,1.9c0.5,0.8,0.9,1.6,1,2.6c0.1,0.6,0.1,1.4,0.1,2.5h-9.3c0.1,1.3,0.5,2.2,1.3,2.7
		c0.5,0.3,1.1,0.5,1.8,0.5c0.8,0,1.4-0.2,1.9-0.6c0.3-0.2,0.5-0.5,0.7-0.9h3.4c-0.1,0.8-0.5,1.5-1.2,2.3c-1.1,1.2-2.7,1.9-4.8,1.9
		c-1.7,0-3.2-0.5-4.5-1.6c-1.3-1-1.9-2.8-1.9-5.1c0-2.2,0.6-3.9,1.8-5.1s2.7-1.8,4.6-1.8C938.4,37.4,939.4,37.6,940.3,38z
		 M935.3,40.9c-0.5,0.5-0.8,1.1-0.9,2h5.8c-0.1-0.9-0.4-1.6-0.9-2s-1.2-0.7-2-0.7C936.4,40.2,935.8,40.4,935.3,40.9z"/>
</g>
</svg>
