<svg xmlns="http://www.w3.org/2000/svg" width="134" height="80" viewBox="0 0 134 80">
    <g fill="none" fill-rule="evenodd">
        <path fill="#777776" d="M121.877 47.774c0 1.767-.533 3.078-1.486 3.857-1.2.969-2.629 1.35-4.095 1.35-1.771 0-3.561-.61-5.028-1.635l1.6-3.002c1.2 1.045 2.247 1.482 3.295 1.482 1.067 0 1.828-.55 1.828-1.444 0-1.064-1.447-1.387-2.266-1.634-1.905-.608-3.886-.95-3.886-4.047 0-2.926 2.076-4.806 4.933-4.806 1.43 0 3.163.437 4.515 1.177l-1.486 2.888c-.704-.589-1.58-.95-2.476-.95-.839 0-1.6.494-1.6 1.197 0 .646.571 1.064 1.962 1.463.723.21 1.39.4 1.961.684 1.373.665 2.23 1.672 2.23 3.42zm-65.235 8.525h3.97v15.234h-3.97V65.29H50.91v6.243h-3.97V56.3h3.97v5.88h5.733v-5.88zm-1.427-33.214h.044l1.772 5.302h-3.61l1.794-5.302zm-2.99 8.615h5.98l1.085 2.893h4.628l-6.29-16.655H52.89l-6.422 16.655h4.606l1.151-2.893zm.237 15.561l1.543-4.56h.038l1.524 4.56h-3.105zm-.457-8.986L46.48 52.6h3.962l.99-2.489h5.143l.933 2.49h3.982l-5.41-14.326h-4.076zm19.568 18.024h3.97v8.748c0 1.758-.162 2.93-.668 3.94-.892 1.779-2.978 2.95-5.996 2.95-1.6 0-3.667-.343-5.065-1.697-1.215-1.192-1.6-2.627-1.6-5.193V56.3h3.97v8.163c0 1.96.223 4 2.695 4 2.43 0 2.694-1.98 2.694-3.98v-8.183zm-7.61-25.66c-.708-1.236-1.085-2.694-1.085-4.351 0-5.19 4.297-8.791 8.814-8.791 1.395 0 2.658.309 3.964.839v5.191c-.863-1.171-2.303-1.834-3.809-1.834-2.569 0-4.451 1.944-4.451 4.617 0 2.717 1.904 4.528 4.517 4.528 1.396 0 2.791-.64 3.743-1.767v5.191c-2.237.685-2.812.773-3.831.773-3.167 0-6.311-1.745-7.862-4.395zm42.58 7.636h3.733V52.6h-3.733l-6.839-8.778h-.038V52.6h-3.733V38.275h3.733l6.839 8.758h.038v-8.758zm-4.703 24.752h7.88c-.02 1.879-.243 3.293-.607 4.243-1.135 2.93-3.627 4.768-7.253 4.768-4.76 0-8.143-3.192-8.143-8.041 0-5.011 3.403-8.204 8.285-8.204 3.14 0 5.57 1.415 6.888 4.264l-3.768 1.576c-.588-1.536-1.783-2.425-3.302-2.425-2.796 0-3.971 2.748-3.971 4.81 0 2.02 1.175 4.767 4.032 4.767 1.863 0 3.038-1.01 3.2-2.646h-3.241v-3.112zm-13.412-6.728H92.4v15.234h-3.97L81.155 62.2h-.04v9.334h-3.971V56.3h3.97l7.273 9.314h.04V56.3zm22.61 0h8.69v3.354h-4.72v2.546h4.477v3.354h-4.477v2.626h4.72v3.354h-8.69V56.3zM90.052 34.593h4.34V17.938h-4.34v16.655zm14.882-13.01c2.547 0 4.74 2.054 4.74 4.396 0 2.783-2.06 4.97-4.718 4.97-2.613 0-4.717-2.12-4.717-4.97 0-2.386 2.26-4.396 4.695-4.396zm.155 13.563c4.695 0 9.102-3.358 9.102-9.19 0-5.102-4.495-8.57-9.235-8.57-1.461 0-3.52.31-5.558 1.723-.886.619-3.676 2.673-3.676 7.046 0 4.55 3.322 8.99 9.367 8.99zm14.795-.553h-4.341V17.938h4.34l7.95 10.184h.045V17.938h4.34v16.655h-4.34l-7.95-10.205h-.044v10.205zm5.613 18.007V41.428h-3.085v-3.153h9.905v3.153h-3.086V52.6h-3.734zm-34.688 0h3.733V38.275H90.81V52.6zm-22.384-7.999h7.41c-.02 1.767-.229 3.097-.572 3.99-1.067 2.755-3.41 4.484-6.819 4.484-4.476 0-7.657-3.002-7.657-7.562 0-4.712 3.2-7.714 7.79-7.714 2.953 0 5.239 1.33 6.476 4.01l-3.542 1.481c-.553-1.443-1.677-2.28-3.105-2.28-2.629 0-3.733 2.584-3.733 4.522 0 1.9 1.104 4.484 3.79 4.484 1.752 0 2.857-.95 3.01-2.49h-3.048v-2.925zm12.326-22.996h-3.588v-3.667h11.516v3.667H85.09v12.988h-4.34V21.605zm44.792 41.523h-.345V59.33h.345c1.964 0 2.796.606 2.796 1.9 0 1.293-.851 1.9-2.796 1.9zm3.585 2.162c2.067-.364 3.343-2.101 3.343-4.304 0-3.152-2.188-4.687-5.246-4.687h-5.997v15.234h3.97v-5.859h.041l3.748 5.86h4.942l-4.801-6.244zM81.093 47.26l1.543-4.56h.038l1.524 4.56h-3.105zm-.457-8.986L75.112 52.6h3.962l.99-2.489h5.144l.933 2.49h3.98l-5.409-14.326h-4.076z"/>
        <path fill="#006AA7" d="M20.3 71.533h-.005c-5.197-.003-9.671-4.23-9.409-9.646.35-7.202 6.738-8.235 8.93-11.456a.567.567 0 0 1 .96-.001h.002c2.192 3.221 8.583 4.254 8.932 11.457.262 5.417-4.212 9.643-9.41 9.646zm-.002-27.498c-9.736 0-17.628 7.872-17.628 17.582 0 9.711 7.892 17.583 17.628 17.583 9.735 0 17.628-7.872 17.628-17.583 0-9.71-7.893-17.582-17.628-17.582z"/>
        <path fill="#4DAF46" d="M40.577 12.95l-.008-.252-.252.028c-4.4.491-8.501 2.303-11.895 5.249.017-.348.025-.691.025-1.025 0-6.606-2.912-12.694-7.989-16.704l-.164-.13-.164.13c-5.076 4.01-7.988 10.098-7.988 16.704 0 .334.008.677.025 1.025-3.394-2.946-7.495-4.758-11.895-5.25l-.253-.027-.008.253c-.006.225-.011.45-.011.676 0 7.11 3.616 13.41 9.252 17.437 1.318.941 2.72 1.921 4.112 2.82 2.672 1.724 5.195 3.352 6.214 5.15a.804.804 0 0 0 1.433 0c1.018-1.798 3.542-3.426 6.213-5.15a106.628 106.628 0 0 0 4.113-2.82c5.635-4.026 9.252-10.328 9.252-17.437 0-.226-.005-.451-.012-.676"/>
    </g>
</svg>
