<?xml version="1.0" encoding="utf-8"?>
<!-- Generator: Adobe Illustrator 16.0.0, SVG Export Plug-In . SVG Version: 6.00 Build 0)  -->
<!DOCTYPE svg PUBLIC "-//W3C//DTD SVG 1.1//EN" "http://www.w3.org/Graphics/SVG/1.1/DTD/svg11.dtd">
<svg version="1.1" id="Layer_1" xmlns="http://www.w3.org/2000/svg" xmlns:xlink="http://www.w3.org/1999/xlink" x="0px" y="0px"
	 width="235px" height="43px" viewBox="0 0 235 43" enable-background="new 0 0 235 43" xml:space="preserve">
<g>
	<path fill="#FFFFFF" d="M0,1.131h11.739c1.418,0,2.906,0.164,4.458,0.49c1.553,0.326,2.972,0.892,4.258,1.698
		c1.285,0.806,2.339,1.909,3.165,3.308c0.825,1.401,1.237,3.157,1.237,5.266c0,1.841-0.336,3.434-1.007,4.775
		c-0.671,1.345-1.573,2.446-2.705,3.31c-1.131,0.863-2.436,1.506-3.912,1.927c-1.477,0.423-3.021,0.634-4.632,0.634H3.798v19.333H0
		V1.131z M3.799,19.085h8.631c1.075,0,2.129-0.124,3.165-0.374c1.036-0.248,1.957-0.651,2.762-1.208
		c0.806-0.555,1.457-1.295,1.957-2.215c0.498-0.921,0.749-2.052,0.749-3.395c0-1.305-0.26-2.417-0.777-3.338
		c-0.519-0.92-1.19-1.678-2.014-2.274c-0.825-0.593-1.775-1.025-2.848-1.293C14.348,4.72,13.274,4.585,12.2,4.585h-8.4V19.085
		L3.799,19.085L3.799,19.085z"/>
	<path fill="#FFFFFF" d="M33.029,1.131h3.798v37.288h18.989v3.453H33.028L33.029,1.131L33.029,1.131L33.029,1.131z"/>
	<path fill="#FFFFFF" d="M74.288,1.131h3.912l17.146,40.74h-4.258l-4.431-10.817H65.078l-4.604,10.817h-3.97L74.288,1.131z
		 M76.07,5.274l-9.495,22.327h18.702L76.07,5.274z"/>
	<path fill="#FFFFFF" d="M101.217,1.131h4.892l24.8,35.677h0.114V1.131h3.799v40.74h-4.892L105.129,6.196h-0.115v35.675h-3.798
		V1.131H101.217L101.217,1.131z"/>
	<path fill="#FFFFFF" d="M155.018,4.585h-13.926V1.131h31.647v3.454h-13.924v37.286h-3.798V4.585L155.018,4.585z"/>
	<path fill="#FFFFFF" d="M177.804,1.131h7.25v40.74h-7.25V1.131z"/>
	<path fill="#FFFFFF" d="M191.786,21.674c0-3.259,0.536-6.223,1.611-8.89c1.072-2.667,2.562-4.939,4.461-6.819
		c1.898-1.879,4.162-3.327,6.79-4.345c2.627-1.016,5.514-1.524,8.66-1.524c3.184-0.039,6.1,0.43,8.746,1.409
		c2.647,0.978,4.929,2.408,6.847,4.287c1.917,1.88,3.413,4.143,4.488,6.791c1.073,2.647,1.61,5.601,1.61,8.861
		c0,3.184-0.537,6.081-1.61,8.689c-1.075,2.609-2.571,4.854-4.488,6.732c-1.918,1.88-4.199,3.347-6.847,4.401
		c-2.646,1.056-5.563,1.602-8.746,1.64c-3.146,0-6.032-0.508-8.66-1.524s-4.892-2.454-6.79-4.315
		c-1.899-1.86-3.388-4.096-4.461-6.704C192.322,27.755,191.786,24.859,191.786,21.674z M199.381,21.214
		c0,2.187,0.337,4.202,1.008,6.042c0.669,1.841,1.62,3.434,2.848,4.775c1.227,1.343,2.693,2.397,4.401,3.165
		c1.705,0.769,3.616,1.151,5.726,1.151s4.027-0.383,5.754-1.151c1.728-0.768,3.203-1.821,4.431-3.165
		c1.227-1.342,2.177-2.935,2.848-4.775c0.671-1.84,1.008-3.855,1.008-6.042c0-2.033-0.337-3.931-1.008-5.697
		c-0.671-1.763-1.621-3.308-2.848-4.632c-1.229-1.324-2.703-2.36-4.431-3.108c-1.727-0.749-3.645-1.121-5.754-1.121
		s-4.021,0.374-5.726,1.121c-1.708,0.749-3.175,1.784-4.401,3.108c-1.229,1.323-2.179,2.869-2.848,4.632
		C199.718,17.282,199.381,19.181,199.381,21.214z"/>
</g>
</svg>
