<?xml version="1.0" encoding="utf-8"?>
<!-- Generator: Adobe Illustrator 22.1.0, SVG Export Plug-In . SVG Version: 6.00 Build 0)  -->
<svg version="1.1" id="Layer_1" xmlns="http://www.w3.org/2000/svg" xmlns:xlink="http://www.w3.org/1999/xlink" x="0px" y="0px"
	 viewBox="0 0 1024 1024" enable-background="new 0 0 1024 1024" xml:space="preserve">
<pattern  width="129" height="130" patternUnits="userSpaceOnUse" id="New_Pattern_Swatch_1" viewBox="0 -130 129 130" overflow="visible">
	<g>
		<rect y="-130" fill="none" width="129" height="130"/>
		<rect y="-130" fill="#CC138A" width="129" height="130"/>
	</g>
</pattern>
<pattern  id="SVGID_1_" xlink:href="#New_Pattern_Swatch_1" patternTransform="matrix(1.5 0 0 1.5 3612.3633 3278.0588)">
</pattern>
<polygon fill="none" stroke="url(#SVGID_1_)" stroke-width="9" stroke-miterlimit="10" points="128,846.556 512.001,181.444 
	896,846.556 "/>
<g>
	<g>
		<g>
			<path d="M556.638,396.493c7.776-17.281,1.728-36.29-14.689-47.522c0-26.785-9.504-54.434-27.649-73.443
				c-1.296-1.296-3.024-1.296-4.32,0c-18.145,19.009-27.649,46.658-28.081,73.011c-15.553,11.232-22.465,30.241-14.689,47.522
				c3.456-7.776,9.504-14.689,17.713-19.441c0.864,3.456,1.728,6.912,3.024,9.936c0.432,1.296,1.296,2.16,3.024,2.16h43.202
				c0.864,0,1.728-0.864,2.16-2.16c1.296-3.024,2.16-6.48,2.592-9.504C547.134,381.804,553.182,388.717,556.638,396.493z
				 M512.14,345.947c-6.912,0-12.097-5.184-12.097-12.097c0-6.912,5.184-12.097,12.097-12.097s12.097,5.184,12.097,12.097
				C524.237,340.763,519.052,345.947,512.14,345.947z"/>
		</g>
	</g>
	<g>
		<g>
			<path d="M535.037,420.686v-18.145c0-3.456-2.592-6.048-6.048-6.048c-3.456,0-6.048,2.592-6.048,6.048v18.145
				c0,3.456,2.592,6.048,6.048,6.048C532.445,426.734,535.037,424.142,535.037,420.686z"/>
		</g>
	</g>
	<g>
		<g>
			<path d="M501.34,420.686v-18.145c0-3.456-2.592-6.048-6.048-6.048c-3.456,0-6.048,2.592-6.048,6.048v18.145
				c0,3.456,2.592,6.048,6.048,6.048C498.748,426.734,501.34,424.142,501.34,420.686z"/>
		</g>
	</g>
	<g>
		<g>
			<path d="M517.756,427.598v-25.057c0-3.456-2.592-6.048-6.048-6.048c-3.456,0-6.048,2.592-6.048,6.048v25.057
				c0,3.456,2.592,6.048,6.048,6.048C515.164,433.647,517.756,431.055,517.756,427.598z"/>
		</g>
	</g>
</g>
<g>
	<g>
		<g>
			<g>
				<path d="M291.2,702.555c-3.308,0-6,2.692-6,6c0,3.308,2.692,6,6,6c3.308,0,6-2.692,6-6
					C297.2,705.247,294.509,702.555,291.2,702.555z M291.2,712.155c-1.985,0-3.6-1.615-3.6-3.6c0-1.985,1.615-3.6,3.6-3.6
					s3.6,1.615,3.6,3.6C294.8,710.54,293.185,712.155,291.2,712.155z"/>
			</g>
		</g>
		<g>
			<g>
				<path d="M252.8,702.555c-3.308,0-6,2.692-6,6c0,3.308,2.692,6,6,6s6-2.692,6-6C258.8,705.247,256.109,702.555,252.8,702.555z
					 M252.8,712.155c-1.985,0-3.6-1.615-3.6-3.6c0-1.985,1.615-3.6,3.6-3.6c1.985,0,3.6,1.615,3.6,3.6
					C256.4,710.54,254.785,712.155,252.8,712.155z"/>
			</g>
		</g>
		<g>
			<g>
				<path d="M307.649,701.707l-0.848-0.848v-0.703v-1.2v-2.4v-1.2v-15.6c0-0.662-0.536-1.2-1.2-1.2h-54
					c-0.391,0-0.758,0.191-0.983,0.512l-8.307,11.866c-1.388,1.152-2.707,2.516-3.666,4.422l-0.906,2.4
					c-0.246,0.919-0.431,1.925-0.511,3.074l-0.876,0.877c-0.226,0.224-0.352,0.53-0.352,0.848v2.4c0,0.318,0.126,0.624,0.352,0.848
					l0.848,0.848v1.903c0,0.662,0.536,1.2,1.2,1.2h4.8c0.664,0,1.2-0.538,1.2-1.2c0-4.632,3.769-8.4,8.4-8.4s8.4,3.768,8.4,8.4
					c0,0.662,0.536,1.2,1.2,1.2h19.2c0.664,0,1.2-0.538,1.2-1.2c0-4.632,3.769-8.4,8.4-8.4s8.4,3.768,8.4,8.4
					c0,0.662,0.536,1.2,1.2,1.2h4.8c0.664,0,1.2-0.538,1.2-1.2v-1.903l0.848-0.848c0.226-0.224,0.352-0.53,0.352-0.848v-2.4
					C308.001,702.237,307.875,701.931,307.649,701.707z M262.4,689.355c0,0.662-0.536,1.2-1.2,1.2H248
					c-0.443,0-0.85-0.244-1.058-0.634c-0.209-0.39-0.185-0.864,0.06-1.231l4.8-7.2c0.223-0.335,0.598-0.535,0.998-0.535h8.4
					c0.664,0,1.2,0.538,1.2,1.2V689.355z"/>
			</g>
		</g>
	</g>
	<g>
		<g>
			<g>
				<path d="M387.2,702.555c-3.308,0-6,2.692-6,6c0,3.308,2.692,6,6,6c3.308,0,6-2.692,6-6
					C393.2,705.247,390.509,702.555,387.2,702.555z M387.2,712.155c-1.985,0-3.6-1.615-3.6-3.6c0-1.985,1.615-3.6,3.6-3.6
					s3.6,1.615,3.6,3.6C390.8,710.54,389.185,712.155,387.2,712.155z"/>
			</g>
		</g>
		<g>
			<g>
				<path d="M348.8,702.555c-3.308,0-6,2.692-6,6c0,3.308,2.692,6,6,6c3.309,0,6-2.692,6-6
					C354.8,705.247,352.109,702.555,348.8,702.555z M348.8,712.155c-1.985,0-3.6-1.615-3.6-3.6c0-1.985,1.615-3.6,3.6-3.6
					s3.6,1.615,3.6,3.6C352.4,710.54,350.785,712.155,348.8,712.155z"/>
			</g>
		</g>
		<g>
			<g>
				<path d="M403.649,701.707l-0.848-0.848v-0.703v-1.2v-2.4v-1.2v-15.6c0-0.662-0.536-1.2-1.2-1.2h-54
					c-0.391,0-0.758,0.191-0.983,0.512l-8.306,11.866c-1.388,1.152-2.707,2.516-3.666,4.422l-0.906,2.4
					c-0.246,0.919-0.431,1.925-0.511,3.074l-0.876,0.877c-0.226,0.224-0.352,0.53-0.352,0.848v2.4c0,0.318,0.126,0.624,0.352,0.848
					l0.848,0.848v1.903c0,0.662,0.536,1.2,1.2,1.2h4.8c0.664,0,1.2-0.538,1.2-1.2c0-4.632,3.769-8.4,8.4-8.4
					c4.631,0,8.4,3.768,8.4,8.4c0,0.662,0.536,1.2,1.2,1.2h19.2c0.664,0,1.2-0.538,1.2-1.2c0-4.632,3.769-8.4,8.4-8.4
					s8.4,3.768,8.4,8.4c0,0.662,0.536,1.2,1.2,1.2h4.8c0.664,0,1.2-0.538,1.2-1.2v-1.903l0.848-0.848
					c0.226-0.224,0.352-0.53,0.352-0.848v-2.4C404.001,702.237,403.875,701.931,403.649,701.707z M358.4,689.355
					c0,0.662-0.536,1.2-1.2,1.2H344c-0.443,0-0.85-0.244-1.058-0.634c-0.209-0.39-0.185-0.864,0.06-1.231l4.8-7.2
					c0.223-0.335,0.598-0.535,0.998-0.535h8.4c0.664,0,1.2,0.538,1.2,1.2V689.355z"/>
			</g>
		</g>
	</g>
	<g>
		<g>
			<g>
				<path d="M483.2,702.555c-3.308,0-6,2.692-6,6c0,3.308,2.692,6,6,6c3.308,0,6-2.692,6-6
					C489.2,705.247,486.509,702.555,483.2,702.555z M483.2,712.155c-1.985,0-3.6-1.615-3.6-3.6c0-1.985,1.615-3.6,3.6-3.6
					s3.6,1.615,3.6,3.6C486.8,710.54,485.185,712.155,483.2,712.155z"/>
			</g>
		</g>
		<g>
			<g>
				<path d="M444.8,702.555c-3.308,0-6,2.692-6,6c0,3.308,2.692,6,6,6c3.309,0,6-2.692,6-6
					C450.8,705.247,448.109,702.555,444.8,702.555z M444.8,712.155c-1.985,0-3.6-1.615-3.6-3.6c0-1.985,1.615-3.6,3.6-3.6
					s3.6,1.615,3.6,3.6C448.4,710.54,446.785,712.155,444.8,712.155z"/>
			</g>
		</g>
		<g>
			<g>
				<path d="M499.649,701.707l-0.848-0.848v-0.703v-1.2v-2.4v-1.2v-15.6c0-0.662-0.536-1.2-1.2-1.2h-54
					c-0.391,0-0.758,0.191-0.983,0.512l-8.306,11.866c-1.388,1.152-2.707,2.516-3.666,4.422l-0.906,2.4
					c-0.246,0.919-0.431,1.925-0.511,3.074l-0.876,0.877c-0.226,0.224-0.352,0.53-0.352,0.848v2.4c0,0.318,0.126,0.624,0.352,0.848
					l0.848,0.848v1.903c0,0.662,0.536,1.2,1.2,1.2h4.8c0.664,0,1.2-0.538,1.2-1.2c0-4.632,3.769-8.4,8.4-8.4
					c4.631,0,8.4,3.768,8.4,8.4c0,0.662,0.536,1.2,1.2,1.2h19.2c0.664,0,1.2-0.538,1.2-1.2c0-4.632,3.769-8.4,8.4-8.4
					s8.4,3.768,8.4,8.4c0,0.662,0.536,1.2,1.2,1.2h4.8c0.664,0,1.2-0.538,1.2-1.2v-1.903l0.848-0.848
					c0.226-0.224,0.352-0.53,0.352-0.848v-2.4C500.001,702.237,499.875,701.931,499.649,701.707z M454.4,689.355
					c0,0.662-0.536,1.2-1.2,1.2H440c-0.443,0-0.85-0.244-1.058-0.634c-0.209-0.39-0.185-0.864,0.06-1.231l4.8-7.2
					c0.223-0.335,0.598-0.535,0.998-0.535h8.4c0.664,0,1.2,0.538,1.2,1.2V689.355z"/>
			</g>
		</g>
	</g>
	<g>
		<g>
			<g>
				<path d="M579.2,702.555c-3.308,0-6,2.692-6,6c0,3.308,2.692,6,6,6c3.308,0,6-2.692,6-6
					C585.201,705.247,582.509,702.555,579.2,702.555z M579.2,712.155c-1.985,0-3.6-1.615-3.6-3.6c0-1.985,1.615-3.6,3.6-3.6
					s3.6,1.615,3.6,3.6C582.8,710.54,581.185,712.155,579.2,712.155z"/>
			</g>
		</g>
		<g>
			<g>
				<path d="M540.8,702.555c-3.308,0-6,2.692-6,6c0,3.308,2.692,6,6,6s6-2.692,6-6C546.8,705.247,544.109,702.555,540.8,702.555z
					 M540.8,712.155c-1.985,0-3.6-1.615-3.6-3.6c0-1.985,1.615-3.6,3.6-3.6s3.6,1.615,3.6,3.6
					C544.4,710.54,542.785,712.155,540.8,712.155z"/>
			</g>
		</g>
		<g>
			<g>
				<path d="M595.649,701.707l-0.848-0.848v-0.703v-1.2v-2.4v-1.2v-15.6c0-0.662-0.536-1.2-1.2-1.2h-54
					c-0.391,0-0.758,0.191-0.983,0.512l-8.307,11.866c-1.388,1.152-2.707,2.516-3.666,4.422l-0.906,2.4
					c-0.246,0.919-0.431,1.925-0.511,3.074l-0.876,0.877c-0.226,0.224-0.352,0.53-0.352,0.848v2.4c0,0.318,0.126,0.624,0.352,0.848
					l0.848,0.848v1.903c0,0.662,0.536,1.2,1.2,1.2h4.8c0.664,0,1.2-0.538,1.2-1.2c0-4.632,3.769-8.4,8.4-8.4s8.4,3.768,8.4,8.4
					c0,0.662,0.536,1.2,1.2,1.2h19.2c0.664,0,1.2-0.538,1.2-1.2c0-4.632,3.769-8.4,8.4-8.4c4.631,0,8.4,3.768,8.4,8.4
					c0,0.662,0.536,1.2,1.2,1.2h4.8c0.664,0,1.2-0.538,1.2-1.2v-1.903l0.848-0.848c0.226-0.224,0.352-0.53,0.352-0.848v-2.4
					C596.001,702.237,595.875,701.931,595.649,701.707z M550.4,689.355c0,0.662-0.536,1.2-1.2,1.2H536
					c-0.443,0-0.85-0.244-1.058-0.634c-0.209-0.39-0.185-0.864,0.06-1.231l4.8-7.2c0.223-0.335,0.598-0.535,0.998-0.535h8.4
					c0.664,0,1.2,0.538,1.2,1.2V689.355z"/>
			</g>
		</g>
	</g>
	<g>
		<g>
			<g>
				<path d="M675.2,702.555c-3.308,0-6,2.692-6,6c0,3.308,2.692,6,6,6c3.308,0,6-2.692,6-6
					C681.201,705.247,678.509,702.555,675.2,702.555z M675.2,712.155c-1.985,0-3.6-1.615-3.6-3.6c0-1.985,1.615-3.6,3.6-3.6
					s3.6,1.615,3.6,3.6C678.8,710.54,677.185,712.155,675.2,712.155z"/>
			</g>
		</g>
		<g>
			<g>
				<path d="M636.8,702.555c-3.308,0-6,2.692-6,6c0,3.308,2.692,6,6,6s6-2.692,6-6C642.8,705.247,640.109,702.555,636.8,702.555z
					 M636.8,712.155c-1.985,0-3.6-1.615-3.6-3.6c0-1.985,1.615-3.6,3.6-3.6s3.6,1.615,3.6,3.6
					C640.4,710.54,638.785,712.155,636.8,712.155z"/>
			</g>
		</g>
		<g>
			<g>
				<path d="M691.649,701.707l-0.848-0.848v-0.703v-1.2v-2.4v-1.2v-15.6c0-0.662-0.536-1.2-1.2-1.2h-54
					c-0.391,0-0.758,0.191-0.983,0.512l-8.307,11.866c-1.388,1.152-2.707,2.516-3.666,4.422l-0.906,2.4
					c-0.246,0.919-0.431,1.925-0.511,3.074l-0.876,0.877c-0.226,0.224-0.352,0.53-0.352,0.848v2.4c0,0.318,0.126,0.624,0.352,0.848
					l0.848,0.848v1.903c0,0.662,0.536,1.2,1.2,1.2h4.8c0.664,0,1.2-0.538,1.2-1.2c0-4.632,3.769-8.4,8.4-8.4s8.4,3.768,8.4,8.4
					c0,0.662,0.536,1.2,1.2,1.2h19.2c0.664,0,1.2-0.538,1.2-1.2c0-4.632,3.769-8.4,8.4-8.4c4.631,0,8.4,3.768,8.4,8.4
					c0,0.662,0.536,1.2,1.2,1.2h4.8c0.664,0,1.2-0.538,1.2-1.2v-1.903l0.848-0.848c0.226-0.224,0.352-0.53,0.352-0.848v-2.4
					C692.001,702.237,691.875,701.931,691.649,701.707z M646.4,689.355c0,0.662-0.536,1.2-1.2,1.2H632
					c-0.443,0-0.85-0.244-1.058-0.634c-0.209-0.39-0.185-0.864,0.06-1.231l4.8-7.2c0.223-0.335,0.598-0.535,0.998-0.535h8.4
					c0.664,0,1.2,0.538,1.2,1.2V689.355z"/>
			</g>
		</g>
	</g>
	<g>
		<g>
			<g>
				<path d="M771.2,702.555c-3.308,0-6,2.692-6,6c0,3.308,2.692,6,6,6c3.308,0,6-2.692,6-6
					C777.201,705.247,774.509,702.555,771.2,702.555z M771.2,712.155c-1.985,0-3.6-1.615-3.6-3.6c0-1.985,1.615-3.6,3.6-3.6
					s3.6,1.615,3.6,3.6C774.8,710.54,773.185,712.155,771.2,712.155z"/>
			</g>
		</g>
		<g>
			<g>
				<path d="M732.8,702.555c-3.308,0-6,2.692-6,6c0,3.308,2.692,6,6,6s6-2.692,6-6C738.8,705.247,736.109,702.555,732.8,702.555z
					 M732.8,712.155c-1.985,0-3.6-1.615-3.6-3.6c0-1.985,1.615-3.6,3.6-3.6s3.6,1.615,3.6,3.6
					C736.4,710.54,734.785,712.155,732.8,712.155z"/>
			</g>
		</g>
		<g>
			<g>
				<path d="M787.649,701.707l-0.848-0.848v-0.703v-1.2v-2.4v-1.2v-15.6c0-0.662-0.536-1.2-1.2-1.2h-54
					c-0.391,0-0.758,0.191-0.983,0.512l-8.307,11.866c-1.388,1.152-2.707,2.516-3.666,4.422l-0.906,2.4
					c-0.246,0.919-0.431,1.925-0.511,3.074l-0.876,0.877c-0.226,0.224-0.352,0.53-0.352,0.848v2.4c0,0.318,0.126,0.624,0.352,0.848
					l0.848,0.848v1.903c0,0.662,0.536,1.2,1.2,1.2h4.8c0.664,0,1.2-0.538,1.2-1.2c0-4.632,3.769-8.4,8.4-8.4s8.4,3.768,8.4,8.4
					c0,0.662,0.536,1.2,1.2,1.2h19.2c0.664,0,1.2-0.538,1.2-1.2c0-4.632,3.769-8.4,8.4-8.4c4.631,0,8.4,3.768,8.4,8.4
					c0,0.662,0.536,1.2,1.2,1.2h4.8c0.664,0,1.2-0.538,1.2-1.2v-1.903l0.848-0.848c0.226-0.224,0.352-0.53,0.352-0.848v-2.4
					C788.001,702.237,787.875,701.931,787.649,701.707z M742.4,689.355c0,0.662-0.536,1.2-1.2,1.2H728
					c-0.443,0-0.85-0.244-1.058-0.634c-0.209-0.39-0.185-0.864,0.06-1.231l4.8-7.2c0.223-0.335,0.598-0.535,0.998-0.535h8.4
					c0.664,0,1.2,0.538,1.2,1.2V689.355z"/>
			</g>
		</g>
	</g>
</g>
<g>
	<g>
		<g>
			<circle fill="#010002" cx="205.999" cy="779.159" r="3.884"/>
			<path fill="#010002" d="M217.983,800.172c-1.095-12.306-6.96-14.761-6.96-14.761s-5.668-3.407-11.634,0.932
				c-3.868,3.521-4.761,8.895-5.373,14.086c-0.309,2.638,3.817,2.606,4.123,0c0.365-3.098,0.886-6.21,2.424-8.861l-0.007,2.991
				l-0.028,14.373v11.402c0,1.226,0.899,2.221,2.16,2.221c1.261,0,2.285-0.995,2.285-2.221v-16.298h2.019c0,3.818,0,12.534,0,16.35
				c0,2.658,4.122,2.658,4.122,0c0-3.818,0-7.638,0-11.455l0.175-14.401c0.002-1.374,0.004-2.603,0.004-3.457
				c1.647,2.699,2.191,5.905,2.566,9.096C214.168,802.779,218.293,802.81,217.983,800.172z"/>
		</g>
	</g>
	<g>
		<g>
			<circle fill="#010002" cx="241.999" cy="779.159" r="3.884"/>
			<path fill="#010002" d="M253.983,800.172c-1.095-12.306-6.96-14.761-6.96-14.761s-5.668-3.407-11.634,0.932
				c-3.868,3.521-4.761,8.895-5.373,14.086c-0.309,2.638,3.817,2.606,4.123,0c0.365-3.098,0.886-6.21,2.424-8.861l-0.007,2.991
				l-0.028,14.373v11.402c0,1.226,0.899,2.221,2.16,2.221c1.261,0,2.285-0.995,2.285-2.221v-16.298h2.019c0,3.818,0,12.534,0,16.35
				c0,2.658,4.122,2.658,4.122,0c0-3.818,0-7.638,0-11.455l0.175-14.401c0.002-1.374,0.004-2.603,0.004-3.457
				c1.647,2.699,2.191,5.905,2.566,9.096C250.168,802.779,254.293,802.81,253.983,800.172z"/>
		</g>
	</g>
	<g>
		<g>
			<circle fill="#010002" cx="277.999" cy="779.159" r="3.884"/>
			<path fill="#010002" d="M289.983,800.172c-1.095-12.306-6.96-14.761-6.96-14.761s-5.668-3.407-11.634,0.932
				c-3.868,3.521-4.761,8.895-5.373,14.086c-0.309,2.638,3.817,2.606,4.123,0c0.365-3.098,0.886-6.21,2.424-8.861l-0.007,2.991
				l-0.028,14.373v11.402c0,1.226,0.899,2.221,2.16,2.221c1.261,0,2.285-0.995,2.285-2.221v-16.298h2.019c0,3.818,0,12.534,0,16.35
				c0,2.658,4.122,2.658,4.122,0c0-3.818,0-7.638,0-11.455l0.175-14.401c0.002-1.374,0.004-2.603,0.004-3.457
				c1.647,2.699,2.191,5.905,2.566,9.096C286.168,802.779,290.293,802.81,289.983,800.172z"/>
		</g>
	</g>
	<g>
		<g>
			<circle fill="#010002" cx="313.999" cy="779.159" r="3.884"/>
			<path fill="#010002" d="M325.983,800.172c-1.095-12.306-6.96-14.761-6.96-14.761s-5.668-3.407-11.634,0.932
				c-3.868,3.521-4.761,8.895-5.373,14.086c-0.309,2.638,3.817,2.606,4.123,0c0.365-3.098,0.886-6.21,2.424-8.861l-0.007,2.991
				l-0.028,14.373v11.402c0,1.226,0.899,2.221,2.16,2.221c1.261,0,2.285-0.995,2.285-2.221v-16.298h2.019c0,3.818,0,12.534,0,16.35
				c0,2.658,4.122,2.658,4.122,0c0-3.818,0-7.638,0-11.455l0.175-14.401c0.002-1.374,0.004-2.603,0.004-3.457
				c1.647,2.699,2.191,5.905,2.566,9.096C322.168,802.779,326.293,802.81,325.983,800.172z"/>
		</g>
	</g>
	<g>
		<g>
			<circle fill="#010002" cx="349.999" cy="779.159" r="3.884"/>
			<path fill="#010002" d="M361.983,800.172c-1.095-12.306-6.96-14.761-6.96-14.761s-5.668-3.407-11.634,0.932
				c-3.868,3.521-4.761,8.895-5.373,14.086c-0.309,2.638,3.817,2.606,4.123,0c0.365-3.098,0.886-6.21,2.424-8.861l-0.007,2.991
				l-0.028,14.373v11.402c0,1.226,0.899,2.221,2.16,2.221c1.261,0,2.285-0.995,2.285-2.221v-16.298h2.019c0,3.818,0,12.534,0,16.35
				c0,2.658,4.122,2.658,4.122,0c0-3.818,0-7.638,0-11.455l0.175-14.401c0.002-1.374,0.004-2.603,0.004-3.457
				c1.647,2.699,2.191,5.905,2.566,9.096C358.168,802.779,362.293,802.81,361.983,800.172z"/>
		</g>
	</g>
	<g>
		<g>
			<circle fill="#010002" cx="385.999" cy="779.159" r="3.884"/>
			<path fill="#010002" d="M397.983,800.172c-1.095-12.306-6.96-14.761-6.96-14.761s-5.668-3.407-11.634,0.932
				c-3.868,3.521-4.761,8.895-5.373,14.086c-0.309,2.638,3.817,2.606,4.123,0c0.365-3.098,0.886-6.21,2.424-8.861l-0.007,2.991
				l-0.028,14.373v11.402c0,1.226,0.899,2.221,2.16,2.221c1.261,0,2.285-0.995,2.285-2.221v-16.298h2.019c0,3.818,0,12.534,0,16.35
				c0,2.658,4.122,2.658,4.122,0c0-3.818,0-7.638,0-11.455l0.175-14.401c0.002-1.374,0.004-2.603,0.004-3.457
				c1.647,2.699,2.191,5.905,2.566,9.096C394.168,802.779,398.293,802.81,397.983,800.172z"/>
		</g>
	</g>
	<g>
		<g>
			<circle fill="#010002" cx="421.999" cy="779.159" r="3.884"/>
			<path fill="#010002" d="M433.983,800.172c-1.095-12.306-6.96-14.761-6.96-14.761s-5.668-3.407-11.634,0.932
				c-3.868,3.521-4.761,8.895-5.373,14.086c-0.309,2.638,3.817,2.606,4.123,0c0.365-3.098,0.886-6.21,2.424-8.861l-0.007,2.991
				l-0.028,14.373v11.402c0,1.226,0.899,2.221,2.16,2.221c1.261,0,2.285-0.995,2.285-2.221v-16.298h2.019c0,3.818,0,12.534,0,16.35
				c0,2.658,4.122,2.658,4.122,0c0-3.818,0-7.638,0-11.455l0.175-14.401c0.002-1.374,0.004-2.603,0.004-3.457
				c1.647,2.699,2.191,5.905,2.566,9.096C430.168,802.779,434.293,802.81,433.983,800.172z"/>
		</g>
	</g>
	<g>
		<g>
			<circle fill="#010002" cx="457.999" cy="779.159" r="3.884"/>
			<path fill="#010002" d="M469.983,800.172c-1.095-12.306-6.96-14.761-6.96-14.761s-5.668-3.407-11.634,0.932
				c-3.868,3.521-4.761,8.895-5.373,14.086c-0.309,2.638,3.817,2.606,4.123,0c0.365-3.098,0.886-6.21,2.424-8.861l-0.007,2.991
				l-0.028,14.373v11.402c0,1.226,0.899,2.221,2.16,2.221c1.261,0,2.285-0.995,2.285-2.221v-16.298h2.019c0,3.818,0,12.534,0,16.35
				c0,2.658,4.122,2.658,4.122,0c0-3.818,0-7.638,0-11.455l0.175-14.401c0.002-1.374,0.004-2.603,0.004-3.457
				c1.647,2.699,2.191,5.905,2.566,9.096C466.168,802.779,470.293,802.81,469.983,800.172z"/>
		</g>
	</g>
	<g>
		<g>
			<circle fill="#010002" cx="493.999" cy="779.159" r="3.884"/>
			<path fill="#010002" d="M505.983,800.172c-1.095-12.306-6.96-14.761-6.96-14.761s-5.668-3.407-11.634,0.932
				c-3.868,3.521-4.761,8.895-5.373,14.086c-0.309,2.638,3.817,2.606,4.123,0c0.365-3.098,0.886-6.21,2.424-8.861l-0.007,2.991
				l-0.028,14.373v11.402c0,1.226,0.899,2.221,2.16,2.221c1.261,0,2.285-0.995,2.285-2.221v-16.298h2.019c0,3.818,0,12.534,0,16.35
				c0,2.658,4.122,2.658,4.122,0c0-3.818,0-7.638,0-11.455l0.175-14.401c0.002-1.374,0.004-2.603,0.004-3.457
				c1.647,2.699,2.191,5.905,2.566,9.096C502.168,802.779,506.293,802.81,505.983,800.172z"/>
		</g>
	</g>
	<g>
		<g>
			<circle fill="#010002" cx="529.999" cy="779.159" r="3.884"/>
			<path fill="#010002" d="M541.983,800.172c-1.095-12.306-6.96-14.761-6.96-14.761s-5.668-3.407-11.634,0.932
				c-3.868,3.521-4.761,8.895-5.373,14.086c-0.309,2.638,3.817,2.606,4.123,0c0.365-3.098,0.886-6.21,2.424-8.861l-0.007,2.991
				l-0.028,14.373v11.402c0,1.226,0.899,2.221,2.16,2.221c1.261,0,2.285-0.995,2.285-2.221v-16.298h2.019c0,3.818,0,12.534,0,16.35
				c0,2.658,4.122,2.658,4.122,0c0-3.818,0-7.638,0-11.455l0.175-14.401c0.002-1.374,0.004-2.603,0.004-3.457
				c1.647,2.699,2.191,5.905,2.566,9.096C538.168,802.779,542.293,802.81,541.983,800.172z"/>
		</g>
	</g>
	<g>
		<g>
			<circle fill="#010002" cx="565.999" cy="779.159" r="3.884"/>
			<path fill="#010002" d="M577.983,800.172c-1.095-12.306-6.96-14.761-6.96-14.761s-5.668-3.407-11.634,0.932
				c-3.868,3.521-4.761,8.895-5.373,14.086c-0.309,2.638,3.817,2.606,4.123,0c0.365-3.098,0.886-6.21,2.424-8.861l-0.007,2.991
				l-0.028,14.373v11.402c0,1.226,0.899,2.221,2.16,2.221c1.261,0,2.285-0.995,2.285-2.221v-16.298h2.019c0,3.818,0,12.534,0,16.35
				c0,2.658,4.122,2.658,4.122,0c0-3.818,0-7.638,0-11.455l0.175-14.401c0.002-1.374,0.004-2.603,0.004-3.457
				c1.647,2.699,2.191,5.905,2.566,9.096C574.168,802.779,578.293,802.81,577.983,800.172z"/>
		</g>
	</g>
	<g>
		<g>
			<circle fill="#010002" cx="601.999" cy="779.159" r="3.884"/>
			<path fill="#010002" d="M613.983,800.172c-1.095-12.306-6.96-14.761-6.96-14.761s-5.668-3.407-11.634,0.932
				c-3.868,3.521-4.761,8.895-5.373,14.086c-0.309,2.638,3.817,2.606,4.123,0c0.365-3.098,0.886-6.21,2.424-8.861l-0.007,2.991
				l-0.028,14.373v11.402c0,1.226,0.899,2.221,2.16,2.221c1.261,0,2.285-0.995,2.285-2.221v-16.298h2.019c0,3.818,0,12.534,0,16.35
				c0,2.658,4.122,2.658,4.122,0c0-3.818,0-7.638,0-11.455l0.175-14.401c0.002-1.374,0.004-2.603,0.004-3.457
				c1.647,2.699,2.191,5.905,2.566,9.096C610.168,802.779,614.293,802.81,613.983,800.172z"/>
		</g>
	</g>
	<g>
		<g>
			<circle fill="#010002" cx="637.999" cy="779.159" r="3.884"/>
			<path fill="#010002" d="M649.983,800.172c-1.095-12.306-6.96-14.761-6.96-14.761s-5.668-3.407-11.634,0.932
				c-3.868,3.521-4.761,8.895-5.373,14.086c-0.309,2.638,3.817,2.606,4.123,0c0.365-3.098,0.886-6.21,2.424-8.861l-0.007,2.991
				l-0.028,14.373v11.402c0,1.226,0.899,2.221,2.16,2.221c1.261,0,2.285-0.995,2.285-2.221v-16.298h2.019c0,3.818,0,12.534,0,16.35
				c0,2.658,4.122,2.658,4.122,0c0-3.818,0-7.638,0-11.455l0.175-14.401c0.002-1.374,0.004-2.603,0.004-3.457
				c1.647,2.699,2.191,5.905,2.566,9.096C646.168,802.779,650.293,802.81,649.983,800.172z"/>
		</g>
	</g>
	<g>
		<g>
			<circle fill="#010002" cx="673.999" cy="779.159" r="3.884"/>
			<path fill="#010002" d="M685.983,800.172c-1.095-12.306-6.96-14.761-6.96-14.761s-5.668-3.407-11.634,0.932
				c-3.868,3.521-4.761,8.895-5.373,14.086c-0.309,2.638,3.817,2.606,4.123,0c0.365-3.098,0.886-6.21,2.424-8.861l-0.007,2.991
				l-0.028,14.373v11.402c0,1.226,0.899,2.221,2.16,2.221c1.261,0,2.285-0.995,2.285-2.221v-16.298h2.019c0,3.818,0,12.534,0,16.35
				c0,2.658,4.122,2.658,4.122,0c0-3.818,0-7.638,0-11.455l0.175-14.401c0.002-1.374,0.004-2.603,0.004-3.457
				c1.647,2.699,2.191,5.905,2.566,9.096C682.168,802.779,686.293,802.81,685.983,800.172z"/>
		</g>
	</g>
	<g>
		<g>
			<circle fill="#010002" cx="709.999" cy="779.159" r="3.884"/>
			<path fill="#010002" d="M721.983,800.172c-1.095-12.306-6.96-14.761-6.96-14.761s-5.668-3.407-11.634,0.932
				c-3.868,3.521-4.761,8.895-5.373,14.086c-0.309,2.638,3.817,2.606,4.123,0c0.365-3.098,0.886-6.21,2.424-8.861l-0.007,2.991
				l-0.028,14.373v11.402c0,1.226,0.899,2.221,2.16,2.221c1.261,0,2.285-0.995,2.285-2.221v-16.298h2.019c0,3.818,0,12.534,0,16.35
				c0,2.658,4.122,2.658,4.122,0c0-3.818,0-7.638,0-11.455l0.175-14.401c0.002-1.374,0.004-2.603,0.004-3.457
				c1.647,2.699,2.191,5.905,2.566,9.096C718.168,802.779,722.293,802.81,721.983,800.172z"/>
		</g>
	</g>
	<g>
		<g>
			<circle fill="#010002" cx="745.999" cy="779.159" r="3.884"/>
			<path fill="#010002" d="M757.983,800.172c-1.095-12.306-6.96-14.761-6.96-14.761s-5.668-3.407-11.634,0.932
				c-3.868,3.521-4.761,8.895-5.373,14.086c-0.309,2.638,3.817,2.606,4.123,0c0.365-3.098,0.886-6.21,2.424-8.861l-0.007,2.991
				l-0.028,14.373v11.402c0,1.226,0.899,2.221,2.16,2.221c1.261,0,2.285-0.995,2.285-2.221v-16.298h2.019c0,3.818,0,12.534,0,16.35
				c0,2.658,4.122,2.658,4.122,0c0-3.818,0-7.638,0-11.455l0.175-14.401c0.002-1.374,0.004-2.603,0.004-3.457
				c1.647,2.699,2.191,5.905,2.566,9.096C754.168,802.779,758.293,802.81,757.983,800.172z"/>
		</g>
	</g>
	<g>
		<g>
			<circle fill="#010002" cx="781.999" cy="779.159" r="3.884"/>
			<path fill="#010002" d="M793.983,800.172c-1.095-12.306-6.96-14.761-6.96-14.761s-5.668-3.407-11.634,0.932
				c-3.868,3.521-4.761,8.895-5.373,14.086c-0.309,2.638,3.817,2.606,4.123,0c0.365-3.098,0.886-6.21,2.424-8.861l-0.007,2.991
				l-0.028,14.373v11.402c0,1.226,0.899,2.221,2.16,2.221c1.261,0,2.285-0.995,2.285-2.221v-16.298h2.019c0,3.818,0,12.534,0,16.35
				c0,2.658,4.122,2.658,4.122,0c0-3.818,0-7.638,0-11.455l0.175-14.401c0.002-1.374,0.004-2.603,0.004-3.457
				c1.647,2.699,2.191,5.905,2.566,9.096C790.168,802.779,794.293,802.81,793.983,800.172z"/>
		</g>
	</g>
	<g>
		<g>
			<circle fill="#010002" cx="817.999" cy="779.159" r="3.884"/>
			<path fill="#010002" d="M829.983,800.172c-1.095-12.306-6.96-14.761-6.96-14.761s-5.668-3.407-11.634,0.932
				c-3.868,3.521-4.761,8.895-5.373,14.086c-0.309,2.638,3.817,2.606,4.123,0c0.365-3.098,0.886-6.21,2.424-8.861l-0.007,2.991
				l-0.028,14.373v11.402c0,1.226,0.899,2.221,2.16,2.221c1.261,0,2.285-0.995,2.285-2.221v-16.298h2.019c0,3.818,0,12.534,0,16.35
				c0,2.658,4.122,2.658,4.122,0c0-3.818,0-7.638,0-11.455l0.175-14.401c0.002-1.374,0.004-2.603,0.004-3.457
				c1.647,2.699,2.191,5.905,2.566,9.096C826.168,802.779,830.293,802.81,829.983,800.172z"/>
		</g>
	</g>
</g>
<g>
	<g>
		<g>
			<path d="M367.946,584.817h16.957v-17.34h10.193v17.34h16.957v-77.635h-44.108V584.817z M393.094,516.332h10.193v10.193h-10.193
				V516.332z M393.094,532.713h10.193v10.193h-10.193V532.713z M393.094,549.094h10.193v10.193h-10.193V549.094z M376.713,516.332
				h10.193v10.193h-10.193V516.332z M376.713,532.713h10.193v10.193h-10.193V532.713z M376.713,549.094h10.193v10.193h-10.193
				V549.094z"/>
			<path d="M416.013,514.137v54.894h6.548v15.787H438v-70.68H416.013z M430.019,561.574h-9.28v-9.28h9.28L430.019,561.574
				L430.019,561.574z M430.019,546.66h-9.28v-9.279h9.28L430.019,546.66L430.019,546.66z M430.019,531.747h-9.28v-9.279h9.28
				L430.019,531.747L430.019,531.747z"/>
			<path d="M342,584.817h15.438v-15.787h6.548v-54.894H342V584.817z M349.982,522.467h9.28v9.279h-9.28V522.467z M349.982,537.381
				h9.28v9.279h-9.28V537.381z M349.982,552.294h9.28v9.279h-9.28V552.294z"/>
		</g>
	</g>
	<g>
		<g>
			<path d="M489.946,584.817h16.957v-17.34h10.193v17.34h16.957v-77.635h-44.108V584.817z M515.094,516.332h10.193v10.193h-10.193
				V516.332z M515.094,532.713h10.193v10.193h-10.193V532.713z M515.094,549.094h10.193v10.193h-10.193V549.094z M498.713,516.332
				h10.193v10.193h-10.193V516.332z M498.713,532.713h10.193v10.193h-10.193V532.713z M498.713,549.094h10.193v10.193h-10.193
				V549.094z"/>
			<path d="M538.013,514.137v54.894h6.548v15.787H560v-70.68H538.013z M552.019,561.574h-9.28v-9.28h9.28L552.019,561.574
				L552.019,561.574z M552.019,546.66h-9.28v-9.279h9.28L552.019,546.66L552.019,546.66z M552.019,531.747h-9.28v-9.279h9.28
				L552.019,531.747L552.019,531.747z"/>
			<path d="M464,584.817h15.438v-15.787h6.548v-54.894H464V584.817z M471.982,522.467h9.28v9.279h-9.28V522.467z M471.982,537.381
				h9.28v9.279h-9.28V537.381z M471.982,552.294h9.28v9.279h-9.28V552.294z"/>
		</g>
	</g>
	<g>
		<g>
			<path d="M611.946,584.817h16.957v-17.34h10.193v17.34h16.957v-77.635h-44.108V584.817z M637.094,516.332h10.193v10.193h-10.193
				V516.332z M637.094,532.713h10.193v10.193h-10.193V532.713z M637.094,549.094h10.193v10.193h-10.193V549.094z M620.713,516.332
				h10.193v10.193h-10.193V516.332z M620.713,532.713h10.193v10.193h-10.193V532.713z M620.713,549.094h10.193v10.193h-10.193
				V549.094z"/>
			<path d="M660.013,514.137v54.894h6.548v15.787H682v-70.68H660.013z M674.019,561.574h-9.28v-9.28h9.28L674.019,561.574
				L674.019,561.574z M674.019,546.66h-9.28v-9.279h9.28L674.019,546.66L674.019,546.66z M674.019,531.747h-9.28v-9.279h9.28
				L674.019,531.747L674.019,531.747z"/>
			<path d="M586,584.817h15.438v-15.787h6.548v-54.894H586V584.817z M593.982,522.467h9.28v9.279h-9.28V522.467z M593.982,537.381
				h9.28v9.279h-9.28V537.381z M593.982,552.294h9.28v9.279h-9.28V552.294z"/>
		</g>
	</g>
</g>
</svg>
