<?xml version="1.0" encoding="utf-8"?>
<!-- Generator: Adobe Illustrator 16.0.0, SVG Export Plug-In . SVG Version: 6.00 Build 0)  -->
<!DOCTYPE svg PUBLIC "-//W3C//DTD SVG 1.1//EN" "http://www.w3.org/Graphics/SVG/1.1/DTD/svg11.dtd">
<svg version="1.1" id="Layer_1" xmlns="http://www.w3.org/2000/svg" xmlns:xlink="http://www.w3.org/1999/xlink" x="0px" y="0px"
	 width="128px" height="128px" viewBox="0 0 128 128" enable-background="new 0 0 128 128" xml:space="preserve">
<pattern  width="129" height="130" patternUnits="userSpaceOnUse" id="New_Pattern_Swatch_1" viewBox="0 -130 129 130" overflow="visible">
	<g>
		<polygon fill="none" points="0,0 129,0 129,-130 0,-130 		"/>
		<polygon fill="#CC138A" points="129,0 0,0 0,-130 129,-130 		"/>
	</g>
</pattern>
<path fill="url(#New_Pattern_Swatch_1)" d="M64,0C40.436,0,21.333,19.103,21.333,42.666C21.333,66.23,64,128,64,128
	s42.667-61.77,42.667-85.334C106.667,19.103,87.564,0,64,0z M64,58.666c-8.837,0-16-7.162-16-16c0-8.836,7.163-16,16-16
	s16,7.164,16,16C80,51.504,72.837,58.666,64,58.666z"/>
</svg>
