<?xml version="1.0" encoding="utf-8"?>
<!-- Generator: Adobe Illustrator 22.1.0, SVG Export Plug-In . SVG Version: 6.00 Build 0)  -->
<svg version="1.1" id="_x31_" xmlns="http://www.w3.org/2000/svg" xmlns:xlink="http://www.w3.org/1999/xlink" x="0px" y="0px"
	 viewBox="0 0 1024 1024" enable-background="new 0 0 1024 1024" xml:space="preserve">
<g>
	<path fill="#CC138A" d="M601.753,518.006c0,0,3.781-39.751,52.319-60.901c48.539-21.149,108.677-9.152,108.677-9.152l-0.444,0.193
		c-0.021,0.028-0.044,0.059-0.069,0.094l0.513-0.287c0,0-37.206,54.639-80.969,73.707c-15.321,6.676-28.666,9.005-39.837,8.999
		c-25.97-0.015-26.905-0.002-26.905-0.002L601.753,518.006z"/>
	<path fill="#F0A836" d="M727.278,400.428c0,0-12.228,64.964-44.699,99.954c-23.705,25.543-47.098,30.33-61.246,30.347
		c-8.411,0.01-12.915-0.02-12.915-0.02l-0.638-1.644c0,0-12.446-37.944,23.569-76.751
		C667.364,413.505,727.278,400.428,727.278,400.428"/>
	<path fill="#A4CDC6" d="M677.078,369.159c0,0-51.897,32.668-72.573,81.41c-20.674,48.742,3.93,80.191,3.93,80.191
		s38.892-1.251,60.592-52.406C687.668,434.41,677.078,369.159,677.078,369.159z"/>
	<path fill="#a8c924" d="M608.469,355.182c0,0-35.02,50.34-35.02,103.286c0,52.945,34.931,72.291,34.931,72.291
		s35.318-16.341,35.318-71.905C643.698,411.117,608.469,355.182,608.469,355.182z"/>
	<g>
		<g>
			<path fill="#404041" d="M128,422.925h74.312c6.176,0,11.741,0.998,16.696,2.992c4.951,1.996,9.198,4.729,12.739,8.203
				c3.537,3.474,6.239,7.528,8.106,12.16c1.864,4.633,2.799,9.524,2.799,14.67c0,8.106-1.706,15.121-5.114,21.038
				c-3.412,5.921-8.976,10.423-16.696,13.511v0.386c3.731,1.031,6.819,2.606,9.265,4.729c2.442,2.122,4.439,4.664,5.984,7.624
				c1.544,2.962,2.669,6.146,3.378,9.554c0.706,3.411,1.189,6.852,1.448,10.327c0.127,2.189,0.257,4.761,0.386,7.721
				c0.127,2.961,0.353,5.953,0.676,8.975c0.319,3.024,0.836,5.954,1.544,8.782c0.705,2.831,1.767,5.211,3.184,7.141h-30.304
				c-0.902-2.186-1.577-4.599-2.026-7.238c-0.452-2.636-0.839-5.405-1.158-8.3c-0.323-2.896-0.579-5.853-0.772-8.878
				c-0.193-3.022-0.483-5.887-0.869-8.59c-1.031-7.204-3.218-12.48-6.562-15.827c-3.347-3.344-8.816-5.018-16.407-5.018h-30.304
				v53.851H128V422.925z M158.304,485.27h33.199c6.818,0,11.997-1.544,15.538-4.633c3.538-3.088,5.308-8.107,5.308-15.056
				c0-6.689-1.77-11.548-5.308-14.572c-3.541-3.023-8.719-4.536-15.538-4.536h-33.199V485.27z"/>
			<path fill="#404041" d="M343.596,560.74h-26.057v-13.897h-0.578c-3.475,5.663-7.981,9.843-13.511,12.546
				c-5.534,2.702-11.195,4.053-16.986,4.053c-7.335,0-13.352-0.998-18.048-2.991c-4.698-1.994-8.395-4.761-11.098-8.3
				c-2.702-3.538-4.602-7.848-5.694-12.933c-1.094-5.081-1.641-10.712-1.641-16.889V460.95h27.409v56.361
				c0,8.236,1.317,14.379,3.956,18.433c2.637,4.052,7.173,6.079,13.608,6.079c7.462,0,12.867-2.219,16.214-6.659
				c3.344-4.439,5.017-11.741,5.017-21.908V460.95h27.408V560.74z"/>
			<path fill="#404041" d="M442.612,560.74h-26.058v-13.897h-0.578c-3.474,5.663-7.981,9.843-13.511,12.546
				c-5.534,2.702-11.196,4.053-16.986,4.053c-7.335,0-13.351-0.998-18.047-2.991c-4.699-1.994-8.396-4.761-11.098-8.3
				c-2.702-3.538-4.602-7.848-5.694-12.933c-1.095-5.081-1.641-10.712-1.641-16.889V460.95h27.409v56.361
				c0,8.236,1.317,14.379,3.956,18.433c2.636,4.052,7.173,6.079,13.608,6.079c7.462,0,12.866-2.219,16.214-6.659
				c3.344-4.439,5.018-11.741,5.018-21.908V460.95h27.408V560.74z"/>
			<path fill="#404041" d="M488.547,460.95h20.074v18.336h-20.074v49.412c0,4.633,0.773,7.721,2.317,9.265
				c1.543,1.544,4.632,2.316,9.264,2.316c3.089,0,5.918-0.256,8.493-0.771v21.426c-2.316,0.386-4.892,0.642-7.721,0.771
				c-2.832,0.127-5.598,0.194-8.3,0.194c-4.246,0-8.269-0.291-12.063-0.87c-3.797-0.578-7.141-1.736-10.037-3.473
				c-2.895-1.738-5.181-4.151-6.852-7.238c-1.674-3.089-2.509-7.142-2.509-12.16v-58.87H444.54V460.95h16.599v-29.918h27.408V460.95
				z"/>
			<path fill="#404041" d="M538.152,528.312c0,2.963,0.609,5.502,1.835,7.624c1.221,2.124,2.797,3.86,4.727,5.212
				c1.93,1.351,4.149,2.348,6.66,2.991c2.509,0.646,5.115,0.965,7.816,0.965c1.93,0,3.959-0.222,6.08-0.675
				c2.122-0.449,4.054-1.158,5.79-2.124c1.739-0.965,3.186-2.249,4.343-3.86c1.159-1.607,1.74-3.634,1.74-6.079
				c0-2.057-0.709-3.828-2.124-5.308c-1.417-1.477-3.446-2.799-6.08-3.957c-2.639-1.159-5.889-2.219-9.749-3.184
				c-3.86-0.965-8.236-1.961-13.124-2.992c-3.991-0.899-7.885-1.961-11.68-3.186c-3.795-1.222-7.172-2.829-10.132-4.826
				c-2.961-1.993-5.341-4.503-7.14-7.527c-1.805-3.022-2.702-6.723-2.702-11.099c0-6.303,1.254-11.548,3.763-15.731
				c2.511-4.18,5.821-7.461,9.94-9.844c4.116-2.379,8.751-4.053,13.899-5.018c5.144-0.965,10.421-1.448,15.827-1.448
				c5.404,0,10.646,0.516,15.731,1.544c5.081,1.032,9.617,2.769,13.606,5.212c3.989,2.446,7.301,5.694,9.94,9.747
				c2.636,4.054,4.215,9.168,4.73,15.345H575.79c-0.388-5.274-2.383-8.846-5.984-10.712c-3.604-1.864-7.849-2.799-12.74-2.799
				c-1.544,0-3.218,0.096-5.016,0.29c-1.805,0.193-3.446,0.612-4.924,1.254c-1.48,0.646-2.734,1.578-3.763,2.799
				c-1.032,1.224-1.545,2.865-1.545,4.922c0,2.446,0.899,4.439,2.701,5.984c1.802,1.544,4.152,2.799,7.047,3.764
				c2.895,0.965,6.205,1.833,9.94,2.606c3.729,0.771,7.526,1.609,11.388,2.508c3.985,0.902,7.881,1.997,11.676,3.282
				c3.795,1.286,7.172,2.991,10.134,5.114c2.96,2.124,5.337,4.763,7.143,7.914c1.799,3.154,2.701,7.045,2.701,11.677
				c0,6.563-1.319,12.064-3.956,16.503c-2.639,4.439-6.079,8.011-10.326,10.712c-4.247,2.702-9.105,4.632-14.571,5.791
				c-5.473,1.159-11.036,1.737-16.699,1.737c-5.79,0-11.452-0.578-16.984-1.737c-5.535-1.159-10.456-3.119-14.766-5.887
				c-4.312-2.766-7.851-6.4-10.615-10.905c-2.77-4.503-4.281-10.036-4.537-16.6H538.152z"/>
			<path fill="#404041" d="M607.249,531.015h30.304v29.724h-30.304V531.015z"/>
			<path fill="#404041" d="M643.344,422.925h30.304v112.336h67.17v25.478h-97.474V422.925z"/>
			<path fill="#404041" d="M775.17,460.95h20.076v18.336H775.17v49.412c0,4.633,0.775,7.721,2.317,9.265
				c1.544,1.544,4.633,2.316,9.264,2.316c3.089,0,5.919-0.256,8.495-0.771v21.426c-2.317,0.386-4.894,0.642-7.721,0.771
				c-2.833,0.127-5.599,0.194-8.3,0.194c-4.245,0-8.269-0.291-12.064-0.87c-3.797-0.578-7.141-1.736-10.036-3.473
				c-2.895-1.738-5.182-4.151-6.854-7.238c-1.674-3.089-2.508-7.142-2.508-12.16v-58.87h-16.6V460.95h16.6v-29.918h27.406V460.95z"
				/>
			<path fill="#404041" d="M869.943,548h-0.387c-3.216,5.405-7.464,9.332-12.739,11.775c-5.279,2.443-11.131,3.667-17.566,3.667
				c-7.593,0-14.184-1.481-19.784-4.439c-5.596-2.959-10.229-6.916-13.896-11.871c-3.666-4.952-6.436-10.646-8.3-17.081
				c-1.865-6.434-2.797-13.125-2.797-20.074c0-6.689,0.932-13.155,2.797-19.398c1.864-6.24,4.634-11.741,8.3-16.503
				c3.667-4.759,8.266-8.589,13.801-11.484c5.531-2.895,11.967-4.342,19.301-4.342c5.916,0,11.549,1.254,16.889,3.764
				c5.339,2.509,9.556,6.209,12.643,11.098h0.386v-50.184H896V560.74h-26.057V548z M868.396,498.781
				c-0.771-3.86-2.093-7.237-3.955-10.133c-1.867-2.895-4.314-5.242-7.336-7.045c-3.024-1.801-6.725-2.702-11.099-2.702
				c-4.504,0-8.299,0.902-11.388,2.702c-3.089,1.803-5.566,4.183-7.431,7.141c-1.865,2.962-3.217,6.339-4.051,10.133
				c-0.84,3.797-1.257,7.755-1.257,11.871c0,3.861,0.45,7.721,1.352,11.581c0.9,3.861,2.348,7.304,4.343,10.326
				c1.994,3.025,4.504,5.471,7.528,7.335c3.024,1.868,6.66,2.799,10.905,2.799c4.504,0,8.269-0.899,11.293-2.702
				c3.022-1.801,5.436-4.214,7.237-7.238c1.803-3.023,3.089-6.467,3.86-10.327c0.772-3.861,1.159-7.848,1.159-11.967
				C869.555,506.568,869.169,502.641,868.396,498.781z"/>
		</g>
		<g>
			<path fill="none" stroke="#FFFFFF" stroke-width="5.12" d="M128,422.925h74.312c6.176,0,11.741,0.998,16.696,2.992
				c4.951,1.996,9.198,4.729,12.739,8.203c3.537,3.474,6.239,7.528,8.106,12.16c1.864,4.633,2.799,9.524,2.799,14.67
				c0,8.106-1.706,15.121-5.114,21.038c-3.412,5.921-8.976,10.423-16.696,13.511v0.386c3.731,1.031,6.819,2.606,9.265,4.729
				c2.442,2.122,4.439,4.664,5.984,7.624c1.544,2.962,2.669,6.146,3.378,9.554c0.706,3.411,1.189,6.852,1.448,10.327
				c0.127,2.189,0.257,4.761,0.386,7.721c0.127,2.961,0.353,5.953,0.676,8.975c0.319,3.024,0.836,5.954,1.544,8.782
				c0.705,2.831,1.767,5.211,3.184,7.141h-30.304c-0.902-2.186-1.577-4.599-2.026-7.238c-0.452-2.636-0.839-5.405-1.158-8.3
				c-0.323-2.896-0.579-5.853-0.772-8.878c-0.193-3.022-0.483-5.887-0.869-8.59c-1.031-7.204-3.218-12.48-6.562-15.827
				c-3.347-3.344-8.816-5.018-16.407-5.018h-30.304v53.851H128V422.925z M158.304,485.27h33.199c6.818,0,11.997-1.544,15.538-4.633
				c3.538-3.088,5.308-8.107,5.308-15.056c0-6.689-1.77-11.548-5.308-14.572c-3.541-3.023-8.719-4.536-15.538-4.536h-33.199V485.27z
				"/>
			<path fill="none" stroke="#FFFFFF" stroke-width="5.12" d="M343.596,560.74h-26.057v-13.897h-0.578
				c-3.475,5.663-7.981,9.843-13.511,12.546c-5.534,2.702-11.195,4.053-16.986,4.053c-7.335,0-13.352-0.998-18.048-2.991
				c-4.698-1.994-8.395-4.761-11.098-8.3c-2.702-3.538-4.602-7.848-5.694-12.933c-1.094-5.081-1.641-10.712-1.641-16.889V460.95
				h27.409v56.361c0,8.236,1.317,14.379,3.956,18.433c2.637,4.052,7.173,6.079,13.608,6.079c7.462,0,12.867-2.219,16.214-6.659
				c3.344-4.439,5.017-11.741,5.017-21.908V460.95h27.408V560.74z"/>
			<path fill="none" stroke="#FFFFFF" stroke-width="5.12" d="M442.612,560.74h-26.058v-13.897h-0.578
				c-3.474,5.663-7.981,9.843-13.511,12.546c-5.534,2.702-11.196,4.053-16.986,4.053c-7.335,0-13.351-0.998-18.047-2.991
				c-4.699-1.994-8.396-4.761-11.098-8.3c-2.702-3.538-4.602-7.848-5.694-12.933c-1.095-5.081-1.641-10.712-1.641-16.889V460.95
				h27.409v56.361c0,8.236,1.317,14.379,3.956,18.433c2.636,4.052,7.173,6.079,13.608,6.079c7.462,0,12.866-2.219,16.214-6.659
				c3.344-4.439,5.018-11.741,5.018-21.908V460.95h27.408V560.74z"/>
			<path fill="none" stroke="#FFFFFF" stroke-width="5.12" d="M488.547,460.95h20.074v18.336h-20.074v49.412
				c0,4.633,0.773,7.721,2.317,9.265c1.543,1.544,4.632,2.316,9.264,2.316c3.089,0,5.918-0.256,8.493-0.771v21.426
				c-2.316,0.386-4.892,0.642-7.721,0.771c-2.832,0.127-5.598,0.194-8.3,0.194c-4.246,0-8.269-0.291-12.063-0.87
				c-3.797-0.578-7.141-1.736-10.037-3.473c-2.895-1.738-5.181-4.151-6.852-7.238c-1.674-3.089-2.509-7.142-2.509-12.16v-58.87
				H444.54V460.95h16.599v-29.918h27.408V460.95z"/>
			<path fill="none" stroke="#FFFFFF" stroke-width="5.12" d="M538.152,528.312c0,2.963,0.609,5.502,1.835,7.624
				c1.221,2.124,2.797,3.86,4.727,5.212c1.93,1.351,4.149,2.348,6.66,2.991c2.509,0.646,5.115,0.965,7.816,0.965
				c1.93,0,3.959-0.222,6.08-0.675c2.122-0.449,4.054-1.158,5.79-2.124c1.739-0.965,3.186-2.249,4.343-3.86
				c1.159-1.607,1.74-3.634,1.74-6.079c0-2.057-0.709-3.828-2.124-5.308c-1.417-1.477-3.446-2.799-6.08-3.957
				c-2.639-1.159-5.889-2.219-9.749-3.184c-3.86-0.965-8.236-1.961-13.124-2.992c-3.991-0.899-7.885-1.961-11.68-3.186
				c-3.795-1.222-7.172-2.829-10.132-4.826c-2.961-1.993-5.341-4.503-7.14-7.527c-1.805-3.022-2.702-6.723-2.702-11.099
				c0-6.303,1.254-11.548,3.763-15.731c2.511-4.18,5.821-7.461,9.94-9.844c4.116-2.379,8.751-4.053,13.899-5.018
				c5.144-0.965,10.421-1.448,15.827-1.448c5.404,0,10.646,0.516,15.731,1.544c5.081,1.032,9.617,2.769,13.606,5.212
				c3.989,2.446,7.301,5.694,9.94,9.747c2.636,4.054,4.215,9.168,4.73,15.345H575.79c-0.388-5.274-2.383-8.846-5.984-10.712
				c-3.604-1.864-7.849-2.799-12.74-2.799c-1.544,0-3.218,0.096-5.016,0.29c-1.805,0.193-3.446,0.612-4.924,1.254
				c-1.48,0.646-2.734,1.578-3.763,2.799c-1.032,1.224-1.545,2.865-1.545,4.922c0,2.446,0.899,4.439,2.701,5.984
				c1.802,1.544,4.152,2.799,7.047,3.764c2.895,0.965,6.205,1.833,9.94,2.606c3.729,0.771,7.526,1.609,11.388,2.508
				c3.985,0.902,7.881,1.997,11.676,3.282c3.795,1.286,7.172,2.991,10.134,5.114c2.96,2.124,5.337,4.763,7.143,7.914
				c1.799,3.154,2.701,7.045,2.701,11.677c0,6.563-1.319,12.064-3.956,16.503c-2.639,4.439-6.079,8.011-10.326,10.712
				c-4.247,2.702-9.105,4.632-14.571,5.791c-5.473,1.159-11.036,1.737-16.699,1.737c-5.79,0-11.452-0.578-16.984-1.737
				c-5.535-1.159-10.456-3.119-14.766-5.887c-4.312-2.766-7.851-6.4-10.615-10.905c-2.77-4.503-4.281-10.036-4.537-16.6H538.152z"/>
			<path fill="none" stroke="#FFFFFF" stroke-width="5.12" d="M607.249,531.015h30.304v29.724h-30.304V531.015z"/>
			<path fill="none" stroke="#FFFFFF" stroke-width="5.12" d="M643.344,422.925h30.304v112.336h67.17v25.478h-97.474V422.925z"/>
			<path fill="none" stroke="#FFFFFF" stroke-width="5.12" d="M775.17,460.95h20.076v18.336H775.17v49.412
				c0,4.633,0.775,7.721,2.317,9.265c1.544,1.544,4.633,2.316,9.264,2.316c3.089,0,5.919-0.256,8.495-0.771v21.426
				c-2.317,0.386-4.894,0.642-7.721,0.771c-2.833,0.127-5.599,0.194-8.3,0.194c-4.245,0-8.269-0.291-12.064-0.87
				c-3.797-0.578-7.141-1.736-10.036-3.473c-2.895-1.738-5.182-4.151-6.854-7.238c-1.674-3.089-2.508-7.142-2.508-12.16v-58.87
				h-16.6V460.95h16.6v-29.918h27.406V460.95z"/>
			<path fill="none" stroke="#FFFFFF" stroke-width="5.12" d="M869.943,548h-0.387c-3.216,5.405-7.464,9.332-12.739,11.775
				c-5.279,2.443-11.131,3.667-17.566,3.667c-7.593,0-14.184-1.481-19.784-4.439c-5.596-2.959-10.229-6.916-13.896-11.871
				c-3.666-4.952-6.436-10.646-8.3-17.081c-1.865-6.434-2.797-13.125-2.797-20.074c0-6.689,0.932-13.155,2.797-19.398
				c1.864-6.24,4.634-11.741,8.3-16.503c3.667-4.759,8.266-8.589,13.801-11.484c5.531-2.895,11.967-4.342,19.301-4.342
				c5.916,0,11.549,1.254,16.889,3.764c5.339,2.509,9.556,6.209,12.643,11.098h0.386v-50.184H896V560.74h-26.057V548z
				 M868.396,498.781c-0.771-3.86-2.093-7.237-3.955-10.133c-1.867-2.895-4.314-5.242-7.336-7.045
				c-3.024-1.801-6.725-2.702-11.099-2.702c-4.504,0-8.299,0.902-11.388,2.702c-3.089,1.803-5.566,4.183-7.431,7.141
				c-1.865,2.962-3.217,6.339-4.051,10.133c-0.84,3.797-1.257,7.755-1.257,11.871c0,3.861,0.45,7.721,1.352,11.581
				c0.9,3.861,2.348,7.304,4.343,10.326c1.994,3.025,4.504,5.471,7.528,7.335c3.024,1.868,6.66,2.799,10.905,2.799
				c4.504,0,8.269-0.899,11.293-2.702c3.022-1.801,5.436-4.214,7.237-7.238c1.803-3.023,3.089-6.467,3.86-10.327
				c0.772-3.861,1.159-7.848,1.159-11.967C869.555,506.568,869.169,502.641,868.396,498.781z"/>
		</g>
		<g>
			<path fill="#404041" d="M128,422.925h74.312c6.176,0,11.741,0.998,16.696,2.992c4.951,1.996,9.198,4.729,12.739,8.203
				c3.537,3.474,6.239,7.528,8.106,12.16c1.864,4.633,2.799,9.524,2.799,14.67c0,8.106-1.706,15.121-5.114,21.038
				c-3.412,5.921-8.976,10.423-16.696,13.511v0.386c3.731,1.031,6.819,2.606,9.265,4.729c2.442,2.122,4.439,4.664,5.984,7.624
				c1.544,2.962,2.669,6.146,3.378,9.554c0.706,3.411,1.189,6.852,1.448,10.327c0.127,2.189,0.257,4.761,0.386,7.721
				c0.127,2.961,0.353,5.953,0.676,8.975c0.319,3.024,0.836,5.954,1.544,8.782c0.705,2.831,1.767,5.211,3.184,7.141h-30.304
				c-0.902-2.186-1.577-4.599-2.026-7.238c-0.452-2.636-0.839-5.405-1.158-8.3c-0.323-2.896-0.579-5.853-0.772-8.878
				c-0.193-3.022-0.483-5.887-0.869-8.59c-1.031-7.204-3.218-12.48-6.562-15.827c-3.347-3.344-8.816-5.018-16.407-5.018h-30.304
				v53.851H128V422.925z M158.304,485.27h33.199c6.818,0,11.997-1.544,15.538-4.633c3.538-3.088,5.308-8.107,5.308-15.056
				c0-6.689-1.77-11.548-5.308-14.572c-3.541-3.023-8.719-4.536-15.538-4.536h-33.199V485.27z"/>
			<path fill="#404041" d="M343.596,560.74h-26.057v-13.897h-0.578c-3.475,5.663-7.981,9.843-13.511,12.546
				c-5.534,2.702-11.195,4.053-16.986,4.053c-7.335,0-13.352-0.998-18.048-2.991c-4.698-1.994-8.395-4.761-11.098-8.3
				c-2.702-3.538-4.602-7.848-5.694-12.933c-1.094-5.081-1.641-10.712-1.641-16.889V460.95h27.409v56.361
				c0,8.236,1.317,14.379,3.956,18.433c2.637,4.052,7.173,6.079,13.608,6.079c7.462,0,12.867-2.219,16.214-6.659
				c3.344-4.439,5.017-11.741,5.017-21.908V460.95h27.408V560.74z"/>
			<path fill="#404041" d="M442.612,560.74h-26.058v-13.897h-0.578c-3.474,5.663-7.981,9.843-13.511,12.546
				c-5.534,2.702-11.196,4.053-16.986,4.053c-7.335,0-13.351-0.998-18.047-2.991c-4.699-1.994-8.396-4.761-11.098-8.3
				c-2.702-3.538-4.602-7.848-5.694-12.933c-1.095-5.081-1.641-10.712-1.641-16.889V460.95h27.409v56.361
				c0,8.236,1.317,14.379,3.956,18.433c2.636,4.052,7.173,6.079,13.608,6.079c7.462,0,12.866-2.219,16.214-6.659
				c3.344-4.439,5.018-11.741,5.018-21.908V460.95h27.408V560.74z"/>
			<path fill="#404041" d="M488.547,460.95h20.074v18.336h-20.074v49.412c0,4.633,0.773,7.721,2.317,9.265
				c1.543,1.544,4.632,2.316,9.264,2.316c3.089,0,5.918-0.256,8.493-0.771v21.426c-2.316,0.386-4.892,0.642-7.721,0.771
				c-2.832,0.127-5.598,0.194-8.3,0.194c-4.246,0-8.269-0.291-12.063-0.87c-3.797-0.578-7.141-1.736-10.037-3.473
				c-2.895-1.738-5.181-4.151-6.852-7.238c-1.674-3.089-2.509-7.142-2.509-12.16v-58.87H444.54V460.95h16.599v-29.918h27.408V460.95
				z"/>
			<path fill="#404041" d="M538.152,528.312c0,2.963,0.609,5.502,1.835,7.624c1.221,2.124,2.797,3.86,4.727,5.212
				c1.93,1.351,4.149,2.348,6.66,2.991c2.509,0.646,5.115,0.965,7.816,0.965c1.93,0,3.959-0.222,6.08-0.675
				c2.122-0.449,4.054-1.158,5.79-2.124c1.739-0.965,3.186-2.249,4.343-3.86c1.159-1.607,1.74-3.634,1.74-6.079
				c0-2.057-0.709-3.828-2.124-5.308c-1.417-1.477-3.446-2.799-6.08-3.957c-2.639-1.159-5.889-2.219-9.749-3.184
				c-3.86-0.965-8.236-1.961-13.124-2.992c-3.991-0.899-7.885-1.961-11.68-3.186c-3.795-1.222-7.172-2.829-10.132-4.826
				c-2.961-1.993-5.341-4.503-7.14-7.527c-1.805-3.022-2.702-6.723-2.702-11.099c0-6.303,1.254-11.548,3.763-15.731
				c2.511-4.18,5.821-7.461,9.94-9.844c4.116-2.379,8.751-4.053,13.899-5.018c5.144-0.965,10.421-1.448,15.827-1.448
				c5.404,0,10.646,0.516,15.731,1.544c5.081,1.032,9.617,2.769,13.606,5.212c3.989,2.446,7.301,5.694,9.94,9.747
				c2.636,4.054,4.215,9.168,4.73,15.345H575.79c-0.388-5.274-2.383-8.846-5.984-10.712c-3.604-1.864-7.849-2.799-12.74-2.799
				c-1.544,0-3.218,0.096-5.016,0.29c-1.805,0.193-3.446,0.612-4.924,1.254c-1.48,0.646-2.734,1.578-3.763,2.799
				c-1.032,1.224-1.545,2.865-1.545,4.922c0,2.446,0.899,4.439,2.701,5.984c1.802,1.544,4.152,2.799,7.047,3.764
				c2.895,0.965,6.205,1.833,9.94,2.606c3.729,0.771,7.526,1.609,11.388,2.508c3.985,0.902,7.881,1.997,11.676,3.282
				c3.795,1.286,7.172,2.991,10.134,5.114c2.96,2.124,5.337,4.763,7.143,7.914c1.799,3.154,2.701,7.045,2.701,11.677
				c0,6.563-1.319,12.064-3.956,16.503c-2.639,4.439-6.079,8.011-10.326,10.712c-4.247,2.702-9.105,4.632-14.571,5.791
				c-5.473,1.159-11.036,1.737-16.699,1.737c-5.79,0-11.452-0.578-16.984-1.737c-5.535-1.159-10.456-3.119-14.766-5.887
				c-4.312-2.766-7.851-6.4-10.615-10.905c-2.77-4.503-4.281-10.036-4.537-16.6H538.152z"/>
			<path fill="#404041" d="M607.249,531.015h30.304v29.724h-30.304V531.015z"/>
			<path fill="#404041" d="M643.344,422.925h30.304v112.336h67.17v25.478h-97.474V422.925z"/>
			<path fill="#404041" d="M775.17,460.95h20.076v18.336H775.17v49.412c0,4.633,0.775,7.721,2.317,9.265
				c1.544,1.544,4.633,2.316,9.264,2.316c3.089,0,5.919-0.256,8.495-0.771v21.426c-2.317,0.386-4.894,0.642-7.721,0.771
				c-2.833,0.127-5.599,0.194-8.3,0.194c-4.245,0-8.269-0.291-12.064-0.87c-3.797-0.578-7.141-1.736-10.036-3.473
				c-2.895-1.738-5.182-4.151-6.854-7.238c-1.674-3.089-2.508-7.142-2.508-12.16v-58.87h-16.6V460.95h16.6v-29.918h27.406V460.95z"
				/>
			<path fill="#404041" d="M869.943,548h-0.387c-3.216,5.405-7.464,9.332-12.739,11.775c-5.279,2.443-11.131,3.667-17.566,3.667
				c-7.593,0-14.184-1.481-19.784-4.439c-5.596-2.959-10.229-6.916-13.896-11.871c-3.666-4.952-6.436-10.646-8.3-17.081
				c-1.865-6.434-2.797-13.125-2.797-20.074c0-6.689,0.932-13.155,2.797-19.398c1.864-6.24,4.634-11.741,8.3-16.503
				c3.667-4.759,8.266-8.589,13.801-11.484c5.531-2.895,11.967-4.342,19.301-4.342c5.916,0,11.549,1.254,16.889,3.764
				c5.339,2.509,9.556,6.209,12.643,11.098h0.386v-50.184H896V560.74h-26.057V548z M868.396,498.781
				c-0.771-3.86-2.093-7.237-3.955-10.133c-1.867-2.895-4.314-5.242-7.336-7.045c-3.024-1.801-6.725-2.702-11.099-2.702
				c-4.504,0-8.299,0.902-11.388,2.702c-3.089,1.803-5.566,4.183-7.431,7.141c-1.865,2.962-3.217,6.339-4.051,10.133
				c-0.84,3.797-1.257,7.755-1.257,11.871c0,3.861,0.45,7.721,1.352,11.581c0.9,3.861,2.348,7.304,4.343,10.326
				c1.994,3.025,4.504,5.471,7.528,7.335c3.024,1.868,6.66,2.799,10.905,2.799c4.504,0,8.269-0.899,11.293-2.702
				c3.022-1.801,5.436-4.214,7.237-7.238c1.803-3.023,3.089-6.467,3.86-10.327c0.772-3.861,1.159-7.848,1.159-11.967
				C869.555,506.568,869.169,502.641,868.396,498.781z"/>
		</g>
	</g>
	<rect x="623.179" y="594.701" fill="#A4CDC6" width="13.267" height="13.272"/>
	<rect x="547.255" y="625.118" fill="#a8c924" width="13.269" height="13.27"/>
	<rect x="577.662" y="609.913" fill="#a8c924" width="13.269" height="13.27"/>
	<rect x="638.387" y="609.903" fill="#A4CDC6" width="13.267" height="13.27"/>
	<rect x="562.45" y="609.916" fill="#a8c924" width="13.269" height="13.267"/>
	<rect x="653.778" y="609.868" fill="#A4CDC6" width="13.27" height="13.269"/>
	<rect x="668.845" y="609.946" fill="#A4CDC6" width="13.27" height="13.265"/>
	<rect x="668.845" y="625.146" fill="#A4CDC6" width="13.27" height="13.267"/>
	<rect x="577.566" y="579.47" fill="#a8c924" width="13.268" height="13.273"/>
	<rect x="562.45" y="625.118" fill="#a8c924" width="13.269" height="13.273"/>
	<rect x="607.977" y="594.701" fill="#A4CDC6" width="13.27" height="13.272"/>
	<rect x="577.566" y="594.675" fill="#a8c924" width="13.268" height="13.273"/>
	<rect x="638.382" y="594.703" fill="#A4CDC6" width="13.269" height="13.267"/>
	<rect x="607.977" y="579.495" fill="#A4CDC6" width="13.27" height="13.27"/>
	<rect x="668.776" y="579.45" fill="#F0A836" width="13.267" height="13.267"/>
	<rect x="683.983" y="625.073" fill="#F0A836" width="13.266" height="13.267"/>
	<rect x="684.052" y="640.311" fill="#F0A836" width="13.269" height="13.27"/>
	<rect x="729.66" y="640.308" fill="#CC138A" width="13.267" height="13.267"/>
	<rect x="684.053" y="655.511" fill="#F0A836" width="13.269" height="13.275"/>
	<rect x="684.053" y="594.662" fill="#F0A836" width="13.268" height="13.272"/>
	<rect x="683.978" y="609.886" fill="#F0A836" width="13.269" height="13.27"/>
	<rect x="684.053" y="579.462" fill="#F0A836" width="13.268" height="13.265"/>
	<rect x="729.66" y="625.106" fill="#CC138A" width="13.267" height="13.27"/>
	<rect x="744.898" y="640.308" fill="#CC138A" width="13.27" height="13.267"/>
	<rect x="532.052" y="625.153" fill="#a8c924" width="13.266" height="13.267"/>
	<rect x="592.77" y="579.472" fill="#a8c924" width="13.267" height="13.267"/>
	<rect x="760.136" y="640.308" fill="#CC138A" width="13.267" height="13.267"/>
	<rect x="760.136" y="655.511" fill="#CC138A" width="13.269" height="13.27"/>
	<rect x="729.66" y="609.901" fill="#CC138A" width="13.267" height="13.272"/>
	<rect x="699.219" y="609.901" fill="#CC138A" width="13.267" height="13.272"/>
	<rect x="714.455" y="609.901" fill="#CC138A" width="13.27" height="13.272"/>
	<rect x="653.588" y="579.425" fill="#F0A836" width="13.27" height="13.267"/>
	<rect x="638.351" y="579.492" fill="#F0A836" width="13.268" height="13.27"/>
	<rect x="623.148" y="579.495" fill="#F0A836" width="13.267" height="13.27"/>
	<rect x="623.149" y="564.292" fill="#F0A836" width="13.266" height="13.268"/>
	<rect x="607.977" y="564.292" fill="#A4CDC6" width="13.27" height="13.268"/>
	<rect x="668.845" y="640.348" fill="#A4CDC6" width="13.27" height="13.267"/>
	<rect x="668.845" y="655.548" fill="#A4CDC6" width="13.27" height="13.27"/>
	<rect x="501.701" y="625.191" fill="#a8c924" width="13.267" height="13.265"/>
	<rect x="547.35" y="655.541" fill="#a8c924" width="13.27" height="13.27"/>
	<rect x="547.255" y="640.303" fill="#a8c924" width="13.27" height="13.267"/>
	<rect x="501.797" y="655.523" fill="#a8c924" width="13.271" height="13.268"/>
	<rect x="501.701" y="640.283" fill="#a8c924" width="13.269" height="13.27"/>
	<rect x="516.904" y="625.153" fill="#a8c924" width="13.269" height="13.27"/>
</g>
</svg>
