<?xml version="1.0" encoding="utf-8"?>
<!-- Generator: Adobe Illustrator 16.0.0, SVG Export Plug-In . SVG Version: 6.00 Build 0)  -->
<!DOCTYPE svg PUBLIC "-//W3C//DTD SVG 1.1//EN" "http://www.w3.org/Graphics/SVG/1.1/DTD/svg11.dtd">
<svg version="1.1" id="Layer_1" xmlns="http://www.w3.org/2000/svg" xmlns:xlink="http://www.w3.org/1999/xlink" x="0px" y="0px"
	 width="1024px" height="256px" viewBox="0 0 1024 256" enable-background="new 0 0 1024 256" xml:space="preserve">
<pattern  x="0.5" y="256.5" width="129" height="130" patternUnits="userSpaceOnUse" id="New_Pattern_Swatch_1" viewBox="0 -130 129 130" overflow="visible">
	<g>
		<polygon fill="none" points="0,0 129,0 129,-130 0,-130 		"/>
		<g>
			<polygon fill="none" points="0,-130 129,-130 129,0 0,0 			"/>
			<polygon fill="#CC138A" points="129,-130 0,-130 0,0 129,0 			"/>
		</g>
	</g>
</pattern>
<pattern  x="0.5" y="256.5" width="129" height="130" patternUnits="userSpaceOnUse" id="New_Pattern_Swatch_2" viewBox="0 -130 129 130" overflow="visible">
	<g>
		<polygon fill="none" points="0,0 129,0 129,-130 0,-130 		"/>
		<g>
			<polygon fill="none" points="0,-130 129,-130 129,0 0,0 			"/>
			<polygon fill="#F0A836" points="129,-130 0,-130 0,0 129,0 			"/>
		</g>
	</g>
</pattern>
<pattern  x="0.5" y="256.5" width="129" height="130" patternUnits="userSpaceOnUse" id="New_Pattern_Swatch_3" viewBox="0 -130 129 130" overflow="visible">
	<g>
		<polygon fill="none" points="0,0 129,0 129,-130 0,-130 		"/>
		<g>
			<polygon fill="none" points="0,-130 129,-130 129,0 0,0 			"/>
			<polygon fill="#A4CDC6" points="129,-130 0,-130 0,0 129,0 			"/>
		</g>
	</g>
</pattern>
<pattern  x="0.5" y="256.5" width="129" height="130" patternUnits="userSpaceOnUse" id="New_Pattern_Swatch_4" viewBox="0 -130 129 130" overflow="visible">
	<g>
		<polygon fill="none" points="0,0 129,0 129,-130 0,-130 		"/>
		<g>
			<polygon fill="none" points="0,-130 129,-130 129,0 0,0 			"/>
			<polygon fill="#a8c924" points="129,-130 0,-130 0,0 129,0 			"/>
		</g>
	</g>
</pattern>
<pattern  x="0.5" y="256.5" width="129" height="130" patternUnits="userSpaceOnUse" id="New_Pattern_Swatch_5" viewBox="0 -130 129 130" overflow="visible">
	<g>
		<polygon fill="none" points="0,0 129,0 129,-130 0,-130 		"/>
		<g>
			<polygon fill="none" points="0,-130 129,-130 129,0 0,0 			"/>
			<polygon fill="#404041" points="129,-130 0,-130 0,0 129,0 			"/>
		</g>
	</g>
</pattern>
<g>
	<g>
		<pattern  id="SVGID_1_" xlink:href="#New_Pattern_Swatch_3" patternTransform="matrix(1 0 0 -1 -0.5 -16566.3008)">
		</pattern>
		<path fill="url(#SVGID_1_)" d="M948.699,133.102c2.201-2.521,3.301-5.5,3.301-8.94c0-3.12-1.141-5.819-3.418-8.101
			c-2.279-2.281-4.979-3.421-8.1-3.421h-16.617c0.159-0.56,0.317-1.039,0.479-1.439c0.158-0.4,0.381-0.841,0.659-1.321
			c0.28-0.48,0.48-0.84,0.599-1.079c0.722-1.359,1.271-2.481,1.652-3.36c0.38-0.881,0.758-2.081,1.139-3.601
			c0.381-1.519,0.57-3.04,0.57-4.56c0-0.959-0.012-1.74-0.031-2.339c-0.02-0.6-0.12-1.5-0.299-2.701
			c-0.18-1.199-0.422-2.2-0.721-2.999c-0.301-0.8-0.781-1.701-1.439-2.7c-0.661-1.001-1.459-1.811-2.4-2.431
			c-0.94-0.619-2.141-1.14-3.6-1.559c-1.463-0.42-3.11-0.63-4.953-0.63c-1.04,0-1.938,0.38-2.698,1.14c-0.802,0.8-1.481,1.8-2.041,3
			c-0.561,1.2-0.949,2.24-1.17,3.12c-0.222,0.88-0.472,2.101-0.749,3.66c-0.362,1.681-0.631,2.891-0.813,3.63
			c-0.18,0.74-0.53,1.71-1.051,2.91c-0.521,1.2-1.139,2.16-1.859,2.88c-1.32,1.32-3.339,3.72-6.061,7.2
			c-1.96,2.56-3.98,4.98-6.062,7.26c-2.08,2.281-3.599,3.46-4.56,3.541c-0.999,0.08-1.858,0.489-2.579,1.229
			c-0.72,0.741-1.08,1.611-1.08,2.61v38.46c0,1.039,0.379,1.93,1.14,2.668c0.762,0.742,1.659,1.131,2.7,1.172
			c1.4,0.039,4.561,0.918,9.48,2.642c3.078,1.037,5.487,1.829,7.229,2.368s4.172,1.119,7.289,1.74c3.12,0.619,6,0.931,8.641,0.931
			h1.02h4.56h2.161c5.32-0.08,9.259-1.642,11.819-4.681c2.319-2.76,3.299-6.381,2.939-10.858c1.561-1.481,2.643-3.36,3.24-5.642
			c0.68-2.438,0.68-4.777,0-7.019c1.84-2.438,2.7-5.181,2.578-8.22C949.602,136.381,949.301,134.861,948.699,133.102z"/>
		<pattern  id="SVGID_2_" xlink:href="#New_Pattern_Swatch_3" patternTransform="matrix(1 0 0 -1 -0.5 -16566.3008)">
		</pattern>
		<path fill="url(#SVGID_2_)" d="M877.12,120.32h-17.279c-1.042,0-1.939,0.38-2.701,1.141c-0.761,0.76-1.14,1.66-1.14,2.7v38.401
			c0,1.037,0.379,1.938,1.14,2.699c0.762,0.76,1.661,1.139,2.701,1.139h17.279c1.04,0,1.938-0.379,2.7-1.139
			c0.76-0.761,1.139-1.662,1.139-2.699v-38.401c0-1.04-0.379-1.939-1.139-2.7C879.06,120.701,878.16,120.32,877.12,120.32z
			 M870.219,157.609c-0.76,0.74-1.659,1.111-2.699,1.111c-1.079,0-1.988-0.371-2.729-1.111c-0.74-0.738-1.111-1.648-1.111-2.729
			c0-1.039,0.369-1.939,1.111-2.699c0.739-0.76,1.648-1.141,2.729-1.141c1.04,0,1.939,0.381,2.699,1.141
			c0.762,0.76,1.143,1.659,1.143,2.699C871.36,155.961,870.98,156.871,870.219,157.609z"/>
	</g>
</g>
<g>
	<pattern  id="SVGID_3_" xlink:href="#New_Pattern_Swatch_4" patternTransform="matrix(1 0 0 -1 -0.5 -16566.3008)">
	</pattern>
	<path fill="url(#SVGID_3_)" d="M576.714,85.001c-1.807-1.81-3.951-2.715-6.428-2.715h-9.143v-6.858c0-3.142-1.119-5.833-3.357-8.07
		C555.548,65.12,552.858,64,549.715,64h-4.57c-3.144,0-5.834,1.12-8.07,3.358c-2.239,2.238-3.358,4.929-3.358,8.07v6.858h-27.427
		v-6.858c0-3.141-1.12-5.832-3.358-8.07C500.692,65.12,498.002,64,494.858,64h-4.571c-3.144,0-5.833,1.12-8.071,3.358
		c-2.238,2.238-3.357,4.929-3.357,8.07v6.858h-9.143c-2.477,0-4.619,0.905-6.429,2.715c-1.811,1.809-2.715,3.953-2.715,6.428v91.428
		c0,2.475,0.904,4.617,2.715,6.43c1.81,1.809,3.951,2.713,6.429,2.713h100.568c2.477,0,4.621-0.904,6.429-2.713
		c1.811-1.813,2.715-3.955,2.715-6.43V91.43C579.427,88.953,578.523,86.811,576.714,85.001z M490.286,182.857h-20.57v-20.574h20.57
		V182.857z M490.286,157.715h-20.57v-22.857h20.57V157.715z M490.286,130.285h-20.57v-20.57h20.57V130.285z M488.681,97.607
		c-0.452-0.453-0.679-0.988-0.679-1.606V75.43c0-0.619,0.227-1.155,0.679-1.607c0.452-0.453,0.986-0.678,1.606-0.678h4.571
		c0.617,0,1.153,0.225,1.605,0.678c0.453,0.453,0.679,0.988,0.679,1.607v20.572c0,0.618-0.227,1.153-0.679,1.606
		s-0.987,0.679-1.605,0.679h-4.571C489.668,98.287,489.133,98.061,488.681,97.607z M517.715,182.857h-22.856v-20.574h22.856V182.857
		z M517.715,157.715h-22.856v-22.857h22.856V157.715z M517.715,130.285h-22.856v-20.57h22.856V130.285z M545.145,182.857h-22.856
		v-20.574h22.856V182.857z M545.145,157.715h-22.856v-22.857h22.856V157.715z M545.145,130.285h-22.856v-20.57h22.856V130.285z
		 M543.536,97.607c-0.451-0.453-0.677-0.988-0.677-1.606V75.43c0-0.619,0.226-1.155,0.677-1.607
		c0.453-0.453,0.988-0.678,1.607-0.678h4.57c0.62,0,1.155,0.225,1.608,0.678c0.451,0.453,0.677,0.988,0.677,1.607v20.572
		c0,0.618-0.226,1.153-0.677,1.606c-0.453,0.453-0.988,0.679-1.608,0.679h-4.57C544.524,98.287,543.987,98.061,543.536,97.607z
		 M570.284,182.857h-20.571v-20.574h20.571V182.857z M570.284,157.715h-20.571v-22.857h20.571V157.715z M570.284,130.285h-20.571
		v-20.57h20.571V130.285z"/>
</g>
<g>
	<pattern  id="SVGID_4_" xlink:href="#New_Pattern_Swatch_1" patternTransform="matrix(1 0 0 -1 -0.5 -16566.3008)">
	</pattern>
	<path fill="url(#SVGID_4_)" d="M72,132.572c1.523,0,3.048,0,4.571,0c0,0.75,0,1.5,0,2.285c-1.555,0-3.063,0-4.571,0
		C72,134.096,72,133.334,72,132.572z M165.713,132.572c0,0.762,0,1.523,0,2.285c3.81,0,7.619,0,11.429,0c0-0.762,0-1.523,0-2.285
		c-0.762,0-1.523,0-2.285,0c-1.525,0-3.048,0-4.572,0c-0.762,0-1.524,0-2.286,0C167.237,132.572,166.477,132.572,165.713,132.572z
		 M188.571,132.572c0,0.762,0,1.523,0,2.285c1.509,0,3.017,0,4.572,0c0-0.785,0-1.535,0-2.285
		C191.619,132.572,190.096,132.572,188.571,132.572z M152,132.572c-0.762,0-1.523,0-2.287,0c-1.523,0-3.047,0-4.571,0
		c0,0.762,0,1.523,0,2.285c5.293,0,10.584,0,15.877-0.002c0.023,0,0.049-0.015,0.069-0.027c0.021-0.016,0.037-0.039,0.054-0.059
		c0-0.732,0-1.465,0-2.197C158.096,132.572,155.047,132.572,152,132.572z M97.143,132.572c-0.762,0-1.523,0-2.286,0
		c-1.523,0-3.047,0-4.571,0c0,0.762,0,1.523,0,2.285c5.293,0,10.585,0,15.877-0.002c0.023,0,0.05-0.015,0.069-0.027
		c0.021-0.016,0.036-0.039,0.054-0.059c0-0.732,0-1.465,0-2.197C103.238,132.572,100.19,132.572,97.143,132.572z M108.571,134.857
		c1.519,0,2.982,0,4.445,0c0.023,0,0.05-0.015,0.07-0.027c0.021-0.016,0.037-0.039,0.056-0.059c0-0.732,0-1.467,0-2.199
		c-1.523,0-3.048,0-4.571,0C108.571,133.326,108.571,134.078,108.571,134.857z M120,134.857c1.508,0,3.017,0,4.571,0
		c0-0.785,0-1.535,0-2.285c-1.523,0-3.048,0-4.571,0C120,133.334,120,134.096,120,134.857z M126.856,134.857c1.52,0,2.982,0,4.446,0
		c0.023,0,0.05-0.015,0.069-0.027c0.022-0.016,0.038-0.039,0.057-0.059c0-0.732,0-1.467,0-2.199c-1.524,0-3.048,0-4.572,0
		C126.856,133.326,126.856,134.078,126.856,134.857z"/>
	<pattern  id="SVGID_5_" xlink:href="#New_Pattern_Swatch_1" patternTransform="matrix(1 0 0 -1 -0.5 -16566.3008)">
	</pattern>
	<path fill="url(#SVGID_5_)" d="M72,130.287c1.523,0,3.048,0,4.571,0c0,0.762,0,1.523,0,2.285c-1.523,0-3.048,0-4.571,0
		C72,131.811,72,131.049,72,130.287z M179.428,132.572c0-0.762,0-1.523,0-2.285c-1.508,0-3.016,0-4.571,0c0,0.783,0,1.535,0,2.285
		c0.762,0,1.523,0,2.285,0C177.905,132.572,178.667,132.572,179.428,132.572z M188.571,132.572c1.525,0,3.048,0,4.572,0
		c0-0.762,0-1.523,0-2.285c-1.523,0-3.047,0-4.572,0C188.571,131.049,188.571,131.811,188.571,132.572z M145.143,132.572
		c1.524,0,3.047,0,4.571,0c0-0.762,0-1.523,0-2.285c-1.523,0-3.047,0-4.571,0C145.143,131.049,145.143,131.811,145.143,132.572z
		 M90.285,132.572c1.524,0,3.048,0,4.571,0c0-0.762,0-1.523,0-2.285c-1.523,0-3.047,0-4.571,0
		C90.285,131.049,90.285,131.811,90.285,132.572z M113.143,132.572c0-0.762,0-1.523,0-2.285c-1.523,0-3.048,0-4.571,0
		c0,0.762,0,1.523,0,2.285C110.095,132.572,111.619,132.572,113.143,132.572z M120,132.572c1.523,0,3.048,0,4.571,0
		c0-0.762,0-1.523,0-2.285c-1.523,0-3.048,0-4.571,0C120,131.049,120,131.811,120,132.572z M126.856,132.572
		c1.524,0,3.048,0,4.572,0c0-0.762,0-1.523,0-2.285c-1.524,0-3.048,0-4.572,0C126.856,131.049,126.856,131.811,126.856,132.572z
		 M165.713,132.572c0.763,0,1.525,0,2.287,0c0-0.762,0-1.523,0-2.285c-1.523,0-3.048,0-4.572,0c0,0.762,0,1.523,0,2.285
		C164.19,132.572,164.952,132.572,165.713,132.572z"/>
	<pattern  id="SVGID_6_" xlink:href="#New_Pattern_Swatch_4" patternTransform="matrix(1 0 0 -1 -0.5 -16566.3008)">
	</pattern>
	<path fill="url(#SVGID_6_)" d="M76.571,125.715c-1.523,0-3.048,0-4.571,0c0-1.524,0-3.048,0-4.571c1.523,0,3.048,0,4.571,0
		C76.571,122.667,76.571,124.19,76.571,125.715z M188.571,125.715c1.525,0,3.048,0,4.572,0c0-1.524,0-3.048,0-4.571
		c-1.523,0-3.047,0-4.572,0c0,0.762,0,1.523,0,2.285C188.571,124.191,188.571,124.953,188.571,125.715z M149.713,121.144
		c-1.523,0-3.047,0-4.571,0c0,0.762,0,1.523,0,2.285c0,0.762,0,1.524,0,2.286c1.524,0,3.047,0,4.571,0
		C149.713,124.19,149.713,122.667,149.713,121.144z M94.856,125.715c0-1.524,0-3.048,0-4.571c-1.523,0-3.047,0-4.571,0
		c0,1.523,0,3.047,0,4.571C91.81,125.715,93.333,125.715,94.856,125.715z M113.143,121.144c-1.523,0-3.048,0-4.571,0
		c0,0.762,0,1.523,0,2.285c0,0.762,0,1.524,0,2.286c1.523,0,3.048,0,4.571,0C113.143,124.19,113.143,122.667,113.143,121.144z
		 M131.429,121.144c-1.524,0-3.048,0-4.572,0c0,1.523,0,3.047,0,4.571c1.524,0,3.048,0,4.572,0
		C131.429,124.19,131.429,122.667,131.429,121.144z M168,125.715c0-1.524,0-3.048,0-4.571c-1.523,0-3.048,0-4.572,0
		c0,0.762,0,1.523,0,2.285c0,0.762,0,1.524,0,2.286C164.952,125.715,166.477,125.715,168,125.715z M83.429,125.715
		c0.762,0,1.523,0,2.285,0c0.762,0,1.524,0,2.286,0c0-1.524,0-3.048,0-4.571c-0.762,0-1.524,0-2.286,0c-0.762,0-1.523,0-2.285,0
		c0,0.762,0,1.523,0,2.285C83.429,124.191,83.429,124.953,83.429,125.715z M120,125.715c0.762,0,1.523,0,2.285,0
		c0.763,0,1.524,0,2.286,0c0-1.524,0-3.048,0-4.571c-0.762,0-1.523,0-2.286,0c-0.762,0-1.523,0-2.285,0c0,0.762,0,1.523,0,2.285
		C120,124.191,120,124.953,120,125.715z M177.143,121.144c-0.762,0-1.523,0-2.285,0c0,0.762,0,1.523,0,2.285
		c1.508,0,3.016,0,4.571,0c0-0.784,0-1.535,0-2.285C178.667,121.144,177.905,121.144,177.143,121.144z"/>
	<pattern  id="SVGID_7_" xlink:href="#New_Pattern_Swatch_2" patternTransform="matrix(1 0 0 -1 -0.5 -16566.3008)">
	</pattern>
	<path fill="url(#SVGID_7_)" d="M85.714,128c-3.048,0-6.095,0-9.143,0c-1.523,0-3.048,0-4.571,0c0-0.762,0-1.523,0-2.285
		c1.523,0,3.048,0,4.571,0c0.762,0,1.523,0,2.285,0c1.524,0,3.048,0,4.572,0c0.762,0,1.523,0,2.285,0
		C85.714,126.477,85.714,127.238,85.714,128z M188.571,128c1.525,0,3.048,0,4.572,0c0-0.762,0-1.523,0-2.285
		c-1.523,0-3.047,0-4.572,0C188.571,126.477,188.571,127.238,188.571,128z M145.143,125.715c0,0.762,0,1.523,0,2.285
		c1.524,0,3.047,0,4.571,0c2.27,0,4.539,0,6.857,0c0-0.782,0-1.534,0-2.285c-1.523,0-3.047,0-4.571,0c-0.762,0-1.523,0-2.287,0
		C148.19,125.715,146.667,125.715,145.143,125.715z M126.856,125.715c0,0.762,0,1.523,0,2.285c1.524,0,3.048,0,4.572,0
		c2.269,0,4.538,0,6.857,0c0-0.782,0-1.534,0-2.285c-1.524,0-3.047,0-4.572,0c-0.762,0-1.523,0-2.285,0
		C129.904,125.715,128.381,125.715,126.856,125.715z M90.285,125.715c0,0.762,0,1.523,0,2.285c1.524,0,3.048,0,4.571,0
		c2.27,0,4.539,0,6.857,0c0-0.782,0-1.534,0-2.285c-1.523,0-3.048,0-4.571,0c-0.762,0-1.523,0-2.286,0
		C93.333,125.715,91.81,125.715,90.285,125.715z M113.143,128c2.286,0,4.571,0,6.857,0c0.762,0,1.523,0,2.285,0
		c0-0.762,0-1.523,0-2.285c-0.762,0-1.523,0-2.285,0c-1.524,0-3.048,0-4.571,0c-0.763,0-1.524,0-2.286,0c-1.523,0-3.048,0-4.571,0
		c0,0.762,0,1.523,0,2.285C110.095,128,111.619,128,113.143,128z M163.428,128c1.523,0,3.048,0,4.572,0c0-0.762,0-1.523,0-2.285
		c-1.523,0-3.048,0-4.572,0C163.428,126.477,163.428,127.238,163.428,128z"/>
	<pattern  id="SVGID_8_" xlink:href="#New_Pattern_Swatch_2" patternTransform="matrix(1 0 0 -1 -0.5 -16566.3008)">
	</pattern>
	<path fill="url(#SVGID_8_)" d="M72,128c1.523,0,3.048,0,4.571,0c0,0.762,0,1.523,0,2.287c-1.523,0-3.048,0-4.571,0
		C72,129.523,72,128.762,72,128z M188.571,130.287c1.525,0,3.048,0,4.572,0c0-0.764,0-1.525,0-2.287c-1.523,0-3.047,0-4.572,0
		C188.571,128.762,188.571,129.523,188.571,130.287z M145.143,130.287c1.524,0,3.047,0,4.571,0c0-0.764,0-1.525,0-2.287
		c-1.523,0-3.047,0-4.571,0C145.143,128.762,145.143,129.523,145.143,130.287z M90.285,130.287c1.524,0,3.048,0,4.571,0
		c0-0.764,0-1.525,0-2.287c-1.523,0-3.047,0-4.571,0C90.285,128.762,90.285,129.523,90.285,130.287z M113.143,128
		c-1.523,0-3.048,0-4.571,0c0,0.762,0,1.523,0,2.287c1.523,0,3.048,0,4.571,0C113.143,129.523,113.143,128.762,113.143,128z
		 M120,130.287c1.523,0,3.048,0,4.571,0c0-0.764,0-1.525,0-2.287c-0.762,0-1.523,0-2.286,0c-0.762,0-1.523,0-2.285,0
		C120,128.762,120,129.523,120,130.287z M126.856,130.287c1.524,0,3.048,0,4.572,0c0-0.764,0-1.525,0-2.287
		c-1.524,0-3.048,0-4.572,0C126.856,128.762,126.856,129.523,126.856,130.287z M163.428,130.287c1.523,0,3.048,0,4.572,0
		c0-0.764,0-1.525,0-2.287c-1.523,0-3.048,0-4.572,0C163.428,128.762,163.428,129.523,163.428,130.287z"/>
	<pattern  id="SVGID_9_" xlink:href="#New_Pattern_Swatch_5" patternTransform="matrix(1 0 0 -1 -0.5 -16566.3008)">
	</pattern>
	<path fill="url(#SVGID_9_)" d="M90.285,137.143c0-0.762,0-1.522,0-2.285c5.293,0,10.585,0,15.877-0.002
		c0.023,0,0.05-0.014,0.069-0.026c0.021-0.017,0.036-0.039,0.054-0.06c0-0.731,0-1.465,0-2.197c0.763,0,1.524,0,2.286,0
		c0,0.755,0,1.507,0,2.285c1.519,0,2.982,0,4.445,0c0.023,0,0.05-0.014,0.07-0.026c0.021-0.017,0.037-0.039,0.056-0.06
		c0-0.731,0-1.467,0-2.199c0-0.762,0-1.522,0-2.284c0-0.765,0-1.524,0-2.287c2.286,0,4.571,0,6.857,0c0,0.763,0,1.522,0,2.287
		c-1.512,0-3.023,0-4.571,0c0,2.313,0,4.586,0,6.854C107.048,137.143,98.666,137.143,90.285,137.143z M138.286,128
		c-2.319,0-4.588,0-6.857,0c0,0.762,0,1.523,0,2.287c0,0.762,0,1.523,0,2.285c0,0.732,0,1.467,0,2.199
		c-0.019,0.02-0.034,0.043-0.057,0.059c-0.02,0.014-0.046,0.027-0.069,0.027c-1.464,0-2.927,0-4.446,0c0-0.779,0-1.531,0-2.285
		c0-0.762,0-1.523,0-2.285c0-0.764,0-1.525,0-2.287c-0.762,0-1.523,0-2.285,0c0,0.762,0,1.523,0,2.287c0,0.762,0,1.523,0,2.285
		c0,0.75,0,1.5,0,2.285c-1.555,0-3.063,0-4.571,0c0,0.762,0,1.522,0,2.285c4.571,0,9.143,0,13.714,0c0-2.273,0-4.547,0-6.869
		c2.308,0,4.574,0,6.857,0c0-1.512,0-2.976,0-4.438c0-0.023-0.015-0.049-0.029-0.068c-0.016-0.021-0.039-0.036-0.059-0.054
		c-0.732,0-1.465,0-2.197,0C138.286,126.466,138.286,127.218,138.286,128z M200,121.144c-2.287,0-4.572,0-6.857,0
		c0,1.523,0,3.047,0,4.571c0,0.762,0,1.523,0,2.285c0,0.762,0,1.523,0,2.287c0,0.762,0,1.523,0,2.285c0,0.75,0,1.5,0,2.285
		c-1.555,0-3.063,0-4.572,0c0,0.762,0,1.522,0,2.285c2.287,0,4.572,0,6.857,0c0-4.556,0-9.109,0-13.714c1.545,0,3.058,0,4.572,0
		C200,122.667,200,121.905,200,121.144z M163.428,137.143c0-0.748,0-1.496,0-2.285c0.789,0,1.537,0,2.285,0c0-0.762,0-1.522,0-2.285
		c-0.762,0-1.523,0-2.285,0c-0.762,0-1.523,0-2.286,0c0,0.732,0,1.466,0,2.197c-0.018,0.021-0.033,0.043-0.054,0.06
		c-0.02,0.015-0.045,0.026-0.069,0.026c-5.292,0.002-10.584,0.002-15.877,0.002c0,0.763,0,1.523,0,2.285
		C151.238,137.143,157.333,137.143,163.428,137.143z M76.571,128c0,0.762,0,1.523,0,2.287c0,0.762,0,1.523,0,2.285
		c0,0.75,0,1.5,0,2.285c-1.555,0-3.063,0-4.571,0c0,0.762,0,1.522,0,2.285c2.285,0,4.571,0,6.856,0c0-2.277,0-4.554,0-6.855
		c1.191,0,2.33,0.004,3.468-0.004c1.13-0.008,2.262,0.039,3.39-0.025c0-0.791,0-1.523,0-2.258C82.666,128,79.619,128,76.571,128z
		 M94.856,125.715c0.763,0,1.524,0,2.286,0c0-0.732,0-1.465,0-2.196c0.018-0.021,0.032-0.044,0.053-0.06
		c0.02-0.015,0.046-0.029,0.068-0.029c3.77-0.001,7.538-0.001,11.308-0.001c0-0.762,0-1.523,0-2.285c0-0.763,0-1.524,0-2.286
		c-0.762,0-1.523,0-2.286,0c0,0.753,0,1.505,0,2.286c-3.844,0-7.636,0-11.429,0C94.856,122.667,94.856,124.19,94.856,125.715z
		 M131.429,125.715c0.762,0,1.523,0,2.285,0c0-0.753,0-1.505,0-2.286c3.845,0,7.636,0,11.429,0c0-0.762,0-1.523,0-2.285
		c0-0.763,0-1.524,0-2.286c-0.762,0-1.523,0-2.285,0c0,0.753,0,1.505,0,2.286c-3.845,0-7.637,0-11.429,0
		C131.429,122.667,131.429,124.19,131.429,125.715z M161.143,121.054c-0.018,0.021-0.033,0.044-0.053,0.059
		c-0.02,0.015-0.045,0.029-0.068,0.029c-3.769,0.002-7.539,0.002-11.308,0.002c0,1.523,0,3.047,0,4.571c0.763,0,1.525,0,2.287,0
		c0-0.732,0-1.465,0-2.196c0.018-0.021,0.032-0.044,0.053-0.06c0.02-0.015,0.045-0.029,0.068-0.029
		c3.77-0.001,7.538-0.001,11.307-0.001c0-0.762,0-1.523,0-2.285c0-0.763,0-1.524,0-2.286c-0.762,0-1.523,0-2.286,0
		C161.143,119.59,161.143,120.321,161.143,121.054z M165.713,134.857c0,0.762,0,1.522,0,2.285c3.81,0,7.619,0,11.429,0
		c0-0.763,0-1.523,0-2.285C173.333,134.857,169.523,134.857,165.713,134.857z M124.571,121.144c0-0.763,0-1.524,0-2.286
		c-0.762,0-1.523,0-2.286,0c0,0.762,0,1.523,0,2.286C123.048,121.144,123.81,121.144,124.571,121.144z M179.428,121.144
		c0-0.763,0-1.524,0-2.286c-0.762,0-1.523,0-2.286,0c0,0.762,0,1.523,0,2.286C177.905,121.144,178.667,121.144,179.428,121.144z
		 M88,121.144c0-0.763,0-1.524,0-2.286c-0.762,0-1.524,0-2.286,0c0,0.762,0,1.523,0,2.286C86.476,121.144,87.238,121.144,88,121.144
		z M168,125.715c0,0.762,0,1.523,0,2.285c0,0.762,0,1.523,0,2.287c0,0.762,0,1.523,0,2.285c0.762,0,1.523,0,2.286,0
		c0-3.033,0-6.065,0-9.144c1.547,0,3.059,0,4.572,0c0-0.762,0-1.523,0-2.285c-2.287,0-4.572,0-6.857,0
		C168,122.667,168,124.19,168,125.715z M179.428,123.429c-1.555,0-3.063,0-4.571,0c0,0.753,0,1.505,0,2.251c2.316,0,4.581,0,6.871,0
		c0-0.76,0-1.485,0-2.251c2.297,0,4.57,0,6.842,0c0-0.762,0-1.523,0-2.285c-3.047,0-6.094,0-9.143,0
		C179.428,121.894,179.428,122.645,179.428,123.429z M181.713,132.572c0-0.432,0.008-0.809-0.002-1.184
		c-0.008-0.369,0.043-0.742-0.035-1.103c-0.782,0-1.514,0-2.248,0c0,0.762,0,1.522,0,2.284
		C180.182,132.572,180.936,132.572,181.713,132.572z M177.143,134.857c0.749,0,1.497,0,2.286,0c0-0.789,0-1.537,0-2.285
		c-0.762,0-1.523,0-2.286,0C177.143,133.334,177.143,134.096,177.143,134.857z M88,125.715c0.762,0,1.523,0,2.285,0
		c0-1.524,0-3.048,0-4.571c-0.762,0-1.523,0-2.285,0C88,122.667,88,124.19,88,125.715z M88,128c0-0.788,0-1.537,0-2.285
		c-0.762,0-1.524,0-2.286,0c0,0.762,0,1.523,0,2.285C86.463,128,87.211,128,88,128z M124.571,121.144c0,1.523,0,3.047,0,4.571
		c0.762,0,1.523,0,2.285,0c0-1.524,0-3.048,0-4.571C126.095,121.144,125.333,121.144,124.571,121.144z M78.856,125.715
		c0-0.751,0-1.501,0-2.286c1.555,0,3.063,0,4.572,0c0-0.762,0-1.523,0-2.285c-2.286,0-4.572,0-6.857,0c0,1.523,0,3.047,0,4.571
		C77.333,125.715,78.095,125.715,78.856,125.715z M115.429,125.715c0-0.751,0-1.501,0-2.286c1.555,0,3.063,0,4.571,0
		c0-0.762,0-1.523,0-2.285c-2.286,0-4.571,0-6.857,0c0,1.523,0,3.047,0,4.571C113.904,125.715,114.666,125.715,115.429,125.715z
		 M156.571,128c-2.318,0-4.588,0-6.857,0c0,0.762,0,1.523,0,2.287c0,0.762,0,1.523,0,2.285c0.763,0,1.525,0,2.287,0
		c0-0.754,0-1.504,0-2.305c2.315,0,4.579,0,6.857,0c0-1.511,0-2.972-0.002-4.434c0-0.023-0.015-0.049-0.029-0.068
		c-0.016-0.021-0.039-0.035-0.06-0.052c-0.731,0-1.463,0-2.195,0C156.571,126.466,156.571,127.218,156.571,128z M101.714,128
		c-2.318,0-4.588,0-6.857,0c0,0.762,0,1.523,0,2.287c0,0.762,0,1.523,0,2.285c0.763,0,1.524,0,2.286,0c0-0.754,0-1.504,0-2.305
		c2.315,0,4.579,0,6.857,0c0-1.511,0-2.972-0.002-4.434c0-0.023-0.015-0.049-0.029-0.068c-0.016-0.021-0.039-0.035-0.06-0.052
		c-0.731,0-1.463,0-2.195,0C101.714,126.466,101.714,127.218,101.714,128z M122.285,128c0.763,0,1.524,0,2.286,0
		c0-0.762,0-1.523,0-2.285c-0.762,0-1.523,0-2.286,0C122.285,126.477,122.285,127.238,122.285,128z"/>
</g>
<g>
	<pattern  id="SVGID_10_" xlink:href="#New_Pattern_Swatch_1" patternTransform="matrix(1 0 0 -1 -0.5 -16566.3008)">
	</pattern>
	<path fill="url(#SVGID_10_)" d="M328,64c-23.564,0-42.667,19.103-42.667,42.667C285.333,130.23,328,192,328,192
		s42.667-61.77,42.667-85.333C370.667,83.104,351.564,64,328,64z M328,122.667c-8.837,0-16-7.163-16-16c0-8.836,7.163-16,16-16
		s16,7.164,16,16S336.837,122.667,328,122.667z"/>
</g>
<g>
	<pattern  id="SVGID_11_" xlink:href="#New_Pattern_Swatch_5" patternTransform="matrix(1 0 0 -1 -0.5 -16566.3008)">
	</pattern>
	<path fill="url(#SVGID_11_)" d="M768.58,148.584c0.003-0.014,0.003-0.023,0.006-0.037c1.292-4.826,1.99-9.895,1.99-15.123
		c0-5.207-0.698-10.251-1.979-15.06c-0.007-0.035-0.007-0.069-0.017-0.104c-0.01-0.036-0.027-0.067-0.039-0.102
		c-1.327-4.909-3.264-9.569-5.748-13.88c-0.021-0.047-0.037-0.097-0.064-0.143c-0.041-0.072-0.094-0.132-0.142-0.197
		c-2.184-3.729-4.763-7.199-7.688-10.345l6.191-6.191c0.848-0.848,0.848-2.219,0-3.068c-0.85-0.848-2.221-0.848-3.068,0l-6.2,6.201
		c-3.105-2.883-6.521-5.434-10.193-7.597c-0.104-0.09-0.216-0.173-0.34-0.245c-0.127-0.074-0.259-0.132-0.395-0.178
		c-4.236-2.413-8.796-4.323-13.604-5.625c-0.044-0.014-0.083-0.036-0.128-0.048c-0.065-0.018-0.3-0.021-0.366-0.032
		C723.363,75.905,720,75.294,716,75.025V71h5.762c1.797,0,3.256-1.703,3.256-3.5c0-1.795-1.459-3.5-3.256-3.5h-19.524
		c-1.795,0-3.254,1.705-3.254,3.5c0,1.797,1.456,3.5,3.254,3.5H708v4.025c-4,0.269-7.362,0.879-10.792,1.786
		c-0.066,0.012-0.219,0.015-0.285,0.033c-0.045,0.012-0.126,0.034-0.169,0.048c-4.807,1.301-9.386,3.21-13.621,5.621
		c-0.137,0.046-0.281,0.106-0.411,0.181c-0.127,0.073-0.248,0.157-0.354,0.25c-3.67,2.161-7.083,4.71-10.187,7.591l-6.202-6.201
		c-0.849-0.848-2.22-0.848-3.068,0c-0.848,0.85-0.849,2.221-0.001,3.068l6.191,6.191c-2.926,3.145-5.505,6.614-7.688,10.342
		c-0.049,0.066-0.102,0.127-0.144,0.2c-0.026,0.045-0.041,0.094-0.063,0.141c-2.485,4.311-4.422,8.973-5.749,13.882
		c-0.012,0.035-0.029,0.066-0.039,0.102c-0.01,0.035-0.01,0.069-0.017,0.104c-1.281,4.809-1.979,9.853-1.979,15.06
		c0,5.229,0.698,10.297,1.99,15.123c0.003,0.014,0.003,0.023,0.006,0.037c0.006,0.021,0.016,0.04,0.021,0.061
		c1.314,4.883,3.25,9.51,5.71,13.803c0.037,0.09,0.069,0.181,0.119,0.267c0.037,0.063,0.09,0.11,0.132,0.169
		c2.493,4.268,5.504,8.196,8.957,11.69c0.066,0.093,0.137,0.186,0.221,0.271c0.082,0.081,0.174,0.148,0.265,0.215
		c3.482,3.442,7.396,6.444,11.646,8.936c0.07,0.055,0.14,0.111,0.22,0.158c0.063,0.035,0.13,0.051,0.193,0.08
		c4.316,2.48,8.974,4.433,13.889,5.756c0.016,0.005,0.03,0.013,0.047,0.018c0.01,0.004,0.021,0.002,0.029,0.004
		c4.83,1.293,9.898,1.992,15.131,1.992c5.231,0,10.301-0.699,15.131-1.992c0.01-0.002,0.021-0.001,0.029-0.004
		c0.017-0.005,0.03-0.013,0.047-0.018c4.909-1.321,9.56-3.27,13.872-5.746c0.068-0.031,0.142-0.049,0.208-0.086
		c0.088-0.051,0.163-0.112,0.239-0.174c4.243-2.486,8.15-5.485,11.628-8.922c0.092-0.066,0.183-0.136,0.266-0.217
		c0.084-0.085,0.153-0.178,0.221-0.271c3.452-3.494,6.462-7.423,8.956-11.688c0.042-0.059,0.095-0.105,0.132-0.171
		c0.051-0.086,0.083-0.177,0.12-0.267c2.46-4.293,4.396-8.92,5.71-13.803C768.564,148.623,768.574,148.605,768.58,148.584z
		 M710,79.241v4.284c0,1.199,0.801,2.17,2,2.17s2-0.971,2-2.17v-4.284c4,0.132,6.684,0.57,9.842,1.282l-1.065,4.141
		c-0.31,1.156,0.399,2.348,1.557,2.658c0.188,0.05,0.388,0.074,0.575,0.074c0.955,0,1.84-0.641,2.098-1.609l1.115-4.155
		c3.163,0.987,6.199,2.267,9.087,3.79l-2.138,3.705c-0.601,1.039-0.241,2.365,0.796,2.964c0.34,0.196,0.713,0.29,1.082,0.29
		c0.75,0,1.479-0.391,1.881-1.084l2.133-3.696c2.78,1.764,5.394,3.768,7.802,5.992l-3.013,3.013c-0.848,0.848-0.848,2.219,0,3.068
		c0.424,0.422,0.979,0.635,1.535,0.635c0.555,0,1.108-0.213,1.533-0.635l3.013-3.012c2.225,2.409,4.229,5.021,5.992,7.802
		l-3.694,2.132c-1.039,0.598-1.395,1.925-0.793,2.964c0.402,0.696,1.129,1.084,1.881,1.084c0.367,0,0.742-0.094,1.082-0.291
		l3.702-2.137c1.521,2.887,2.802,5.92,3.788,9.083l-4.154,1.113c-1.155,0.312-1.846,1.501-1.533,2.658
		c0.261,0.97,1.136,1.607,2.095,1.607c0.186,0,0.375-0.023,0.563-0.074l4.14-1.236c0.712,3.159,1.149,6.632,1.282,9.632H761.9
		c-1.199,0-2.17,1.301-2.17,2.5c0,1.198,0.971,2.5,2.17,2.5h4.282c-0.133,3-0.57,6.396-1.282,9.556l-4.14-1.209
		c-1.151-0.314-2.348,0.323-2.658,1.481c-0.311,1.155,0.378,2.319,1.533,2.633l4.154,1.101c-0.986,3.164-2.267,6.19-3.789,9.078
		l-3.703-2.143c-1.037-0.602-2.365-0.247-2.963,0.792c-0.6,1.039-0.244,2.364,0.793,2.964l3.695,2.132
		c-1.764,2.78-3.768,5.394-5.99,7.802l-3.014-3.015c-0.849-0.849-2.22-0.849-3.068,0c-0.848,0.851-0.848,2.222,0,3.067l3.014,3.015
		c-2.407,2.226-5.021,4.229-7.803,5.993l-2.133-3.694c-0.603-1.04-1.932-1.396-2.963-0.793c-1.041,0.599-1.396,1.927-0.795,2.964
		l2.138,3.702c-2.888,1.522-5.922,2.804-9.085,3.789l-1.113-4.153c-0.309-1.156-1.498-1.849-2.655-1.533
		c-1.156,0.311-1.845,1.498-1.535,2.658l1.022,4.139c-3.157,0.712-5.842,1.15-9.842,1.283v-4.285c0-1.199-0.801-2.17-2-2.17
		s-2,0.971-2,2.17v4.285c-4-0.133-6.684-0.571-9.843-1.283l1.064-4.139c0.31-1.16-0.397-2.351-1.555-2.658
		c-1.156-0.313-2.357,0.377-2.669,1.533l-1.119,4.153c-3.163-0.987-6.199-2.267-9.086-3.789l2.137-3.704
		c0.599-1.037,0.242-2.363-0.795-2.966c-1.036-0.601-2.363-0.246-2.964,0.795l-2.134,3.696c-2.781-1.764-5.394-3.768-7.803-5.992
		l3.015-3.016c0.849-0.848,0.849-2.219,0-3.067c-0.85-0.849-2.221-0.846-3.067,0l-3.016,3.015c-2.224-2.408-4.228-5.021-5.991-7.802
		l3.695-2.133c1.037-0.601,1.396-1.926,0.793-2.965c-0.6-1.039-1.93-1.396-2.963-0.793l-3.703,2.138
		c-1.521-2.887-2.802-5.92-3.789-9.083l4.156-1.112c1.156-0.313,1.842-1.502,1.533-2.658c-0.31-1.158-1.498-1.851-2.658-1.533
		l-4.141,1.313c-0.713-3.16-1.15-6.557-1.283-9.557h4.285c1.198,0,2.17-1.301,2.17-2.5s-0.972-2.5-2.17-2.5h-4.285
		c0.133-3,0.57-6.473,1.283-9.632l4.141,1.173c0.189,0.05,0.377,0.105,0.564,0.105c0.956,0,1.834-0.622,2.094-1.591
		c0.313-1.156-0.377-2.338-1.533-2.65l-4.156-1.11c0.987-3.163,2.268-6.194,3.789-9.081l3.703,2.139
		c0.34,0.197,0.713,0.292,1.082,0.292c0.752,0,1.479-0.388,1.881-1.084c0.6-1.039,0.244-2.366-0.793-2.964l-3.695-2.133
		c1.766-2.781,3.769-5.394,5.993-7.803l3.013,3.013c0.425,0.422,0.979,0.635,1.533,0.635c0.558,0,1.111-0.213,1.535-0.635
		c0.848-0.849,0.848-2.22,0-3.068l-3.014-3.013c2.409-2.225,5.021-4.228,7.803-5.992l2.133,3.696
		c0.404,0.693,1.131,1.084,1.881,1.084c0.369,0,0.742-0.093,1.082-0.29c1.039-0.599,1.396-1.927,0.795-2.964l-2.138-3.705
		c2.886-1.522,5.919-2.802,9.082-3.789l1.112,4.154c0.26,0.968,1.135,1.609,2.094,1.609c0.188,0,0.375-0.024,0.563-0.074
		c1.156-0.311,1.845-1.5,1.533-2.658l-1.022-4.14C703.314,79.812,706,79.373,710,79.241z"/>
	<pattern  id="SVGID_12_" xlink:href="#New_Pattern_Swatch_3" patternTransform="matrix(1 0 0 -1 -0.5 -16566.3008)">
	</pattern>
	<path fill="url(#SVGID_12_)" d="M688.135,109.56L688.135,109.56l28.082,20.313c2.765,2.008,3.078,6.012,0.662,8.43l0,0
		c-2.416,2.418-6.42,2.102-8.43-0.66L688.135,109.56z"/>
	<pattern  id="SVGID_13_" xlink:href="#New_Pattern_Swatch_2" patternTransform="matrix(1 0 0 -1 -0.5 -16566.3008)">
	</pattern>
	<polygon fill="url(#SVGID_13_)" points="670.987,83.502 662.503,91.988 654.017,83.502 662.503,75.017 	"/>
	<pattern  id="SVGID_14_" xlink:href="#New_Pattern_Swatch_4" patternTransform="matrix(1 0 0 -1 -0.5 -16566.3008)">
	</pattern>
	<polygon fill="url(#SVGID_14_)" points="761.498,91.987 753.012,83.503 761.498,75.017 769.982,83.503 	"/>
</g>
</svg>
