<?xml version="1.0" encoding="utf-8"?>
<!-- Generator: Adobe Illustrator 16.0.0, SVG Export Plug-In . SVG Version: 6.00 Build 0)  -->
<!DOCTYPE svg PUBLIC "-//W3C//DTD SVG 1.1//EN" "http://www.w3.org/Graphics/SVG/1.1/DTD/svg11.dtd">
<svg version="1.1" id="Layer_1" xmlns="http://www.w3.org/2000/svg" xmlns:xlink="http://www.w3.org/1999/xlink" x="0px" y="0px"
	 width="128px" height="128px" viewBox="0 0 128 128" enable-background="new 0 0 128 128" xml:space="preserve">
<pattern  width="129" height="130" patternUnits="userSpaceOnUse" id="New_Pattern_Swatch_1" viewBox="0 -130 129 130" overflow="visible">
	<g>
		<polygon fill="none" points="0,0 129,0 129,-130 0,-130 		"/>
		<polygon fill="#CC138A" points="129,0 0,0 0,-130 129,-130 		"/>
	</g>
</pattern>
<pattern  width="129" height="130" patternUnits="userSpaceOnUse" id="New_Pattern_Swatch_2" viewBox="0 -130 129 130" overflow="visible">
	<g>
		<polygon fill="none" points="0,0 129,0 129,-130 0,-130 		"/>
		<polygon fill="#F0A836" points="129,0 0,0 0,-130 129,-130 		"/>
	</g>
</pattern>
<pattern  width="129" height="130" patternUnits="userSpaceOnUse" id="New_Pattern_Swatch_4" viewBox="0 -130 129 130" overflow="visible">
	<g>
		<polygon fill="none" points="0,0 129,0 129,-130 0,-130 		"/>
		<polygon fill="#a8c924" points="129,0 0,0 0,-130 129,-130 		"/>
	</g>
</pattern>
<pattern  width="129" height="130" patternUnits="userSpaceOnUse" id="New_Pattern_Swatch_5" viewBox="0 -130 129 130" overflow="visible">
	<g>
		<polygon fill="none" points="0,0 129,0 129,-130 0,-130 		"/>
		<polygon fill="#404041" points="129,0 0,0 0,-130 129,-130 		"/>
	</g>
</pattern>
<g>
	<path fill-rule="evenodd" clip-rule="evenodd" fill="url(#New_Pattern_Swatch_1)" d="M0,68.572c1.523,0,3.048,0,4.571,0
		c0,0.75,0,1.5,0,2.285c-1.555,0-3.063,0-4.571,0C0,70.096,0,69.334,0,68.572z M93.713,68.572c0,0.762,0,1.523,0,2.285
		c3.811,0,7.619,0,11.43,0c0-0.762,0-1.523,0-2.285c-0.762,0-1.523,0-2.285,0c-1.525,0-3.049,0-4.572,0c-0.762,0-1.523,0-2.285,0
		S94.477,68.572,93.713,68.572z M116.57,68.572c0,0.762,0,1.523,0,2.285c1.51,0,3.018,0,4.572,0c0-0.785,0-1.535,0-2.285
		C119.619,68.572,118.096,68.572,116.57,68.572z M80,68.572c-0.762,0-1.523,0-2.287,0c-1.523,0-3.047,0-4.57,0
		c0,0.762,0,1.523,0,2.285c5.293,0,10.584,0,15.877-0.002c0.023,0,0.049-0.014,0.068-0.027c0.021-0.016,0.037-0.039,0.055-0.059
		c0-0.732,0-1.465,0-2.197C86.096,68.572,83.047,68.572,80,68.572z M25.143,68.572c-0.762,0-1.523,0-2.286,0
		c-1.523,0-3.047,0-4.571,0c0,0.762,0,1.523,0,2.285c5.293,0,10.585,0,15.877-0.002c0.023,0,0.05-0.014,0.069-0.027
		c0.021-0.016,0.036-0.039,0.054-0.059c0-0.732,0-1.465,0-2.197C31.238,68.572,28.19,68.572,25.143,68.572z M36.571,70.857
		c1.519,0,2.982,0,4.445,0c0.023,0,0.05-0.014,0.07-0.027c0.021-0.016,0.037-0.039,0.056-0.059c0-0.732,0-1.467,0-2.199
		c-1.523,0-3.048,0-4.571,0C36.571,69.326,36.571,70.078,36.571,70.857z M48,70.857c1.508,0,3.017,0,4.571,0
		c0-0.785,0-1.535,0-2.285c-1.523,0-3.048,0-4.571,0C48,69.334,48,70.096,48,70.857z M54.856,70.857c1.52,0,2.982,0,4.446,0
		c0.023,0,0.05-0.014,0.069-0.027c0.022-0.016,0.038-0.039,0.057-0.059c0-0.732,0-1.467,0-2.199c-1.524,0-3.048,0-4.572,0
		C54.856,69.326,54.856,70.078,54.856,70.857z"/>
	<path fill-rule="evenodd" clip-rule="evenodd" fill="url(#New_Pattern_Swatch_1)" d="M0,66.287c1.523,0,3.048,0,4.571,0
		c0,0.762,0,1.523,0,2.285c-1.523,0-3.048,0-4.571,0C0,67.811,0,67.049,0,66.287z M107.428,68.572c0-0.762,0-1.523,0-2.285
		c-1.508,0-3.016,0-4.57,0c0,0.783,0,1.535,0,2.285c0.762,0,1.523,0,2.285,0S106.666,68.572,107.428,68.572z M116.57,68.572
		c1.525,0,3.049,0,4.572,0c0-0.762,0-1.523,0-2.285c-1.523,0-3.047,0-4.572,0C116.57,67.049,116.57,67.811,116.57,68.572z
		 M73.143,68.572c1.523,0,3.047,0,4.57,0c0-0.762,0-1.523,0-2.285c-1.523,0-3.047,0-4.57,0
		C73.143,67.049,73.143,67.811,73.143,68.572z M18.285,68.572c1.524,0,3.048,0,4.571,0c0-0.762,0-1.523,0-2.285
		c-1.523,0-3.047,0-4.571,0C18.285,67.049,18.285,67.811,18.285,68.572z M41.143,68.572c0-0.762,0-1.523,0-2.285
		c-1.523,0-3.048,0-4.571,0c0,0.762,0,1.523,0,2.285C38.095,68.572,39.619,68.572,41.143,68.572z M48,68.572
		c1.523,0,3.048,0,4.571,0c0-0.762,0-1.523,0-2.285c-1.523,0-3.048,0-4.571,0C48,67.049,48,67.811,48,68.572z M54.856,68.572
		c1.524,0,3.048,0,4.572,0c0-0.762,0-1.523,0-2.285c-1.524,0-3.048,0-4.572,0C54.856,67.049,54.856,67.811,54.856,68.572z
		 M93.713,68.572c0.764,0,1.525,0,2.287,0c0-0.762,0-1.523,0-2.285c-1.523,0-3.049,0-4.572,0c0,0.762,0,1.523,0,2.285
		C92.189,68.572,92.951,68.572,93.713,68.572z"/>
	<path fill-rule="evenodd" clip-rule="evenodd" fill="url(#New_Pattern_Swatch_4)" d="M4.571,61.715c-1.523,0-3.048,0-4.571,0
		c0-1.524,0-3.048,0-4.571c1.523,0,3.048,0,4.571,0C4.571,58.667,4.571,60.19,4.571,61.715z M116.57,61.715c1.525,0,3.049,0,4.572,0
		c0-1.524,0-3.048,0-4.571c-1.523,0-3.047,0-4.572,0c0,0.762,0,1.523,0,2.285S116.57,60.953,116.57,61.715z M77.713,57.144
		c-1.523,0-3.047,0-4.57,0c0,0.762,0,1.523,0,2.285s0,1.524,0,2.286c1.523,0,3.047,0,4.57,0
		C77.713,60.19,77.713,58.667,77.713,57.144z M22.856,61.715c0-1.524,0-3.048,0-4.571c-1.523,0-3.047,0-4.571,0
		c0,1.523,0,3.047,0,4.571C19.81,61.715,21.333,61.715,22.856,61.715z M41.143,57.144c-1.523,0-3.048,0-4.571,0
		c0,0.762,0,1.523,0,2.285s0,1.524,0,2.286c1.523,0,3.048,0,4.571,0C41.143,60.19,41.143,58.667,41.143,57.144z M59.429,57.144
		c-1.524,0-3.048,0-4.572,0c0,1.523,0,3.047,0,4.571c1.524,0,3.048,0,4.572,0C59.429,60.19,59.429,58.667,59.429,57.144z M96,61.715
		c0-1.524,0-3.048,0-4.571c-1.523,0-3.049,0-4.572,0c0,0.762,0,1.523,0,2.285s0,1.524,0,2.286
		C92.951,61.715,94.477,61.715,96,61.715z M11.429,61.715c0.762,0,1.523,0,2.285,0s1.524,0,2.286,0c0-1.524,0-3.048,0-4.571
		c-0.762,0-1.524,0-2.286,0s-1.523,0-2.285,0c0,0.762,0,1.523,0,2.285S11.429,60.953,11.429,61.715z M48,61.715
		c0.762,0,1.523,0,2.285,0c0.763,0,1.524,0,2.286,0c0-1.524,0-3.048,0-4.571c-0.762,0-1.523,0-2.286,0c-0.762,0-1.523,0-2.285,0
		c0,0.762,0,1.523,0,2.285S48,60.953,48,61.715z M105.143,57.144c-0.762,0-1.523,0-2.285,0c0,0.762,0,1.523,0,2.285
		c1.508,0,3.016,0,4.57,0c0-0.784,0-1.535,0-2.285C106.666,57.144,105.904,57.144,105.143,57.144z"/>
	<path fill-rule="evenodd" clip-rule="evenodd" fill="url(#New_Pattern_Swatch_2)" d="M13.714,64c-3.048,0-6.095,0-9.143,0
		C3.048,64,1.523,64,0,64c0-0.762,0-1.523,0-2.285c1.523,0,3.048,0,4.571,0c0.762,0,1.523,0,2.285,0c1.524,0,3.048,0,4.572,0
		c0.762,0,1.523,0,2.285,0C13.714,62.477,13.714,63.238,13.714,64z M116.57,64c1.525,0,3.049,0,4.572,0c0-0.762,0-1.523,0-2.285
		c-1.523,0-3.047,0-4.572,0C116.57,62.477,116.57,63.238,116.57,64z M73.143,61.715c0,0.762,0,1.523,0,2.285c1.523,0,3.047,0,4.57,0
		c2.27,0,4.539,0,6.857,0c0-0.782,0-1.534,0-2.285c-1.523,0-3.047,0-4.57,0c-0.762,0-1.523,0-2.287,0
		C76.189,61.715,74.666,61.715,73.143,61.715z M54.856,61.715c0,0.762,0,1.523,0,2.285c1.524,0,3.048,0,4.572,0
		c2.269,0,4.538,0,6.856,0c0-0.782,0-1.534,0-2.285c-1.523,0-3.047,0-4.571,0c-0.762,0-1.523,0-2.285,0
		C57.904,61.715,56.381,61.715,54.856,61.715z M18.285,61.715c0,0.762,0,1.523,0,2.285c1.524,0,3.048,0,4.571,0
		c2.27,0,4.539,0,6.857,0c0-0.782,0-1.534,0-2.285c-1.523,0-3.048,0-4.571,0c-0.762,0-1.523,0-2.286,0
		C21.333,61.715,19.81,61.715,18.285,61.715z M41.143,64c2.286,0,4.571,0,6.857,0c0.762,0,1.523,0,2.285,0c0-0.762,0-1.523,0-2.285
		c-0.762,0-1.523,0-2.285,0c-1.524,0-3.048,0-4.571,0c-0.763,0-1.524,0-2.286,0c-1.523,0-3.048,0-4.571,0c0,0.762,0,1.523,0,2.285
		C38.095,64,39.619,64,41.143,64z M91.428,64c1.523,0,3.049,0,4.572,0c0-0.762,0-1.523,0-2.285c-1.523,0-3.049,0-4.572,0
		C91.428,62.477,91.428,63.238,91.428,64z"/>
	<path fill-rule="evenodd" clip-rule="evenodd" fill="url(#New_Pattern_Swatch_2)" d="M0,64c1.523,0,3.048,0,4.571,0
		c0,0.762,0,1.523,0,2.287c-1.523,0-3.048,0-4.571,0C0,65.523,0,64.762,0,64z M116.57,66.287c1.525,0,3.049,0,4.572,0
		c0-0.764,0-1.525,0-2.287c-1.523,0-3.047,0-4.572,0C116.57,64.762,116.57,65.523,116.57,66.287z M73.143,66.287
		c1.523,0,3.047,0,4.57,0c0-0.764,0-1.525,0-2.287c-1.523,0-3.047,0-4.57,0C73.143,64.762,73.143,65.523,73.143,66.287z
		 M18.285,66.287c1.524,0,3.048,0,4.571,0c0-0.764,0-1.525,0-2.287c-1.523,0-3.047,0-4.571,0
		C18.285,64.762,18.285,65.523,18.285,66.287z M41.143,64c-1.523,0-3.048,0-4.571,0c0,0.762,0,1.523,0,2.287
		c1.523,0,3.048,0,4.571,0C41.143,65.523,41.143,64.762,41.143,64z M48,66.287c1.523,0,3.048,0,4.571,0c0-0.764,0-1.525,0-2.287
		c-0.762,0-1.523,0-2.286,0c-0.762,0-1.523,0-2.285,0C48,64.762,48,65.523,48,66.287z M54.856,66.287c1.524,0,3.048,0,4.572,0
		c0-0.764,0-1.525,0-2.287c-1.524,0-3.048,0-4.572,0C54.856,64.762,54.856,65.523,54.856,66.287z M91.428,66.287
		c1.523,0,3.049,0,4.572,0c0-0.764,0-1.525,0-2.287c-1.523,0-3.049,0-4.572,0C91.428,64.762,91.428,65.523,91.428,66.287z"/>
	<path fill-rule="evenodd" clip-rule="evenodd" fill="url(#New_Pattern_Swatch_5)" d="M18.285,73.143c0-0.762,0-1.523,0-2.285
		c5.293,0,10.585,0,15.877-0.002c0.023,0,0.05-0.014,0.069-0.027c0.021-0.016,0.036-0.039,0.054-0.059c0-0.732,0-1.465,0-2.197
		c0.763,0,1.524,0,2.286,0c0,0.754,0,1.506,0,2.285c1.519,0,2.982,0,4.445,0c0.023,0,0.05-0.014,0.07-0.027
		c0.021-0.016,0.037-0.039,0.056-0.059c0-0.732,0-1.467,0-2.199c0-0.762,0-1.523,0-2.285c0-0.764,0-1.525,0-2.287
		c2.286,0,4.571,0,6.857,0c0,0.762,0,1.523,0,2.287c-1.512,0-3.023,0-4.571,0c0,2.313,0,4.586,0,6.855
		C35.048,73.143,26.666,73.143,18.285,73.143z M66.285,64c-2.318,0-4.588,0-6.856,0c0,0.762,0,1.523,0,2.287
		c0,0.762,0,1.523,0,2.285c0,0.732,0,1.467,0,2.199c-0.019,0.02-0.034,0.043-0.057,0.059c-0.02,0.014-0.046,0.027-0.069,0.027
		c-1.464,0-2.927,0-4.446,0c0-0.779,0-1.531,0-2.285c0-0.762,0-1.523,0-2.285c0-0.764,0-1.525,0-2.287c-0.762,0-1.523,0-2.285,0
		c0,0.762,0,1.523,0,2.287c0,0.762,0,1.523,0,2.285c0,0.75,0,1.5,0,2.285c-1.555,0-3.063,0-4.571,0c0,0.762,0,1.523,0,2.285
		c4.571,0,9.143,0,13.714,0c0-2.273,0-4.547,0-6.869c2.308,0,4.573,0,6.856,0c0-1.512,0-2.975,0-4.437
		c0-0.023-0.016-0.049-0.029-0.068c-0.016-0.021-0.039-0.036-0.059-0.054c-0.732,0-1.465,0-2.197,0
		C66.285,62.466,66.285,63.218,66.285,64z M128,57.144c-2.287,0-4.572,0-6.857,0c0,1.523,0,3.047,0,4.571c0,0.762,0,1.523,0,2.285
		s0,1.523,0,2.287c0,0.762,0,1.523,0,2.285c0,0.75,0,1.5,0,2.285c-1.555,0-3.063,0-4.572,0c0,0.762,0,1.523,0,2.285
		c2.287,0,4.572,0,6.857,0c0-4.555,0-9.109,0-13.714c1.545,0,3.059,0,4.572,0C128,58.667,128,57.905,128,57.144z M91.428,73.143
		c0-0.748,0-1.496,0-2.285c0.789,0,1.537,0,2.285,0c0-0.762,0-1.523,0-2.285c-0.762,0-1.523,0-2.285,0s-1.523,0-2.285,0
		c0,0.732,0,1.465,0,2.197c-0.018,0.02-0.033,0.043-0.055,0.059c-0.02,0.014-0.045,0.027-0.068,0.027
		c-5.293,0.002-10.584,0.002-15.877,0.002c0,0.762,0,1.523,0,2.285C79.238,73.143,85.332,73.143,91.428,73.143z M4.571,64
		c0,0.762,0,1.523,0,2.287c0,0.762,0,1.523,0,2.285c0,0.75,0,1.5,0,2.285c-1.555,0-3.063,0-4.571,0c0,0.762,0,1.523,0,2.285
		c2.285,0,4.571,0,6.856,0c0-2.277,0-4.553,0-6.855c1.191,0,2.33,0.004,3.468-0.004c1.13-0.008,2.262,0.039,3.39-0.025
		c0-0.791,0-1.523,0-2.258C10.666,64,7.619,64,4.571,64z M22.856,61.715c0.763,0,1.524,0,2.286,0c0-0.732,0-1.465,0-2.196
		c0.018-0.021,0.032-0.044,0.053-0.06c0.02-0.015,0.046-0.029,0.068-0.029c3.77-0.001,7.538-0.001,11.308-0.001
		c0-0.762,0-1.523,0-2.285c0-0.763,0-1.524,0-2.286c-0.762,0-1.523,0-2.286,0c0,0.753,0,1.505,0,2.286c-3.844,0-7.636,0-11.429,0
		C22.856,58.667,22.856,60.19,22.856,61.715z M59.429,61.715c0.762,0,1.523,0,2.285,0c0-0.753,0-1.505,0-2.286
		c3.845,0,7.636,0,11.429,0c0-0.762,0-1.523,0-2.285c0-0.763,0-1.524,0-2.286c-0.762,0-1.523,0-2.285,0c0,0.753,0,1.505,0,2.286
		c-3.846,0-7.637,0-11.429,0C59.429,58.667,59.429,60.19,59.429,61.715z M89.143,57.054c-0.018,0.021-0.033,0.044-0.053,0.059
		s-0.045,0.029-0.068,0.029c-3.77,0.002-7.539,0.002-11.309,0.002c0,1.523,0,3.047,0,4.571c0.764,0,1.525,0,2.287,0
		c0-0.732,0-1.465,0-2.196c0.018-0.021,0.031-0.044,0.053-0.06c0.02-0.015,0.045-0.029,0.068-0.029
		c3.77-0.001,7.537-0.001,11.307-0.001c0-0.762,0-1.523,0-2.285c0-0.763,0-1.524,0-2.286c-0.762,0-1.523,0-2.285,0
		C89.143,55.59,89.143,56.321,89.143,57.054z M93.713,70.857c0,0.762,0,1.523,0,2.285c3.811,0,7.619,0,11.43,0
		c0-0.762,0-1.523,0-2.285C101.332,70.857,97.523,70.857,93.713,70.857z M52.571,57.144c0-0.763,0-1.524,0-2.286
		c-0.762,0-1.523,0-2.286,0c0,0.762,0,1.523,0,2.286C51.048,57.144,51.81,57.144,52.571,57.144z M107.428,57.144
		c0-0.763,0-1.524,0-2.286c-0.762,0-1.523,0-2.285,0c0,0.762,0,1.523,0,2.286C105.904,57.144,106.666,57.144,107.428,57.144z
		 M16,57.144c0-0.763,0-1.524,0-2.286c-0.762,0-1.524,0-2.286,0c0,0.762,0,1.523,0,2.286C14.476,57.144,15.238,57.144,16,57.144z
		 M96,61.715c0,0.762,0,1.523,0,2.285s0,1.523,0,2.287c0,0.762,0,1.523,0,2.285c0.762,0,1.523,0,2.285,0c0-3.033,0-6.065,0-9.144
		c1.547,0,3.059,0,4.572,0c0-0.762,0-1.523,0-2.285c-2.287,0-4.572,0-6.857,0C96,58.667,96,60.19,96,61.715z M107.428,59.429
		c-1.555,0-3.063,0-4.57,0c0,0.753,0,1.505,0,2.251c2.316,0,4.58,0,6.871,0c0-0.76,0-1.485,0-2.251c2.297,0,4.57,0,6.842,0
		c0-0.762,0-1.523,0-2.285c-3.047,0-6.094,0-9.143,0C107.428,57.894,107.428,58.645,107.428,59.429z M109.713,68.572
		c0-0.432,0.008-0.809-0.002-1.184c-0.008-0.369,0.043-0.742-0.035-1.102c-0.781,0-1.514,0-2.248,0c0,0.762,0,1.523,0,2.285
		C108.182,68.572,108.936,68.572,109.713,68.572z M105.143,70.857c0.748,0,1.496,0,2.285,0c0-0.789,0-1.537,0-2.285
		c-0.762,0-1.523,0-2.285,0C105.143,69.334,105.143,70.096,105.143,70.857z M16,61.715c0.762,0,1.523,0,2.285,0
		c0-1.524,0-3.048,0-4.571c-0.762,0-1.523,0-2.285,0C16,58.667,16,60.19,16,61.715z M16,64c0-0.788,0-1.537,0-2.285
		c-0.762,0-1.524,0-2.286,0c0,0.762,0,1.523,0,2.285C14.463,64,15.211,64,16,64z M52.571,57.144c0,1.523,0,3.047,0,4.571
		c0.762,0,1.523,0,2.285,0c0-1.524,0-3.048,0-4.571C54.095,57.144,53.333,57.144,52.571,57.144z M6.856,61.715
		c0-0.751,0-1.501,0-2.286c1.555,0,3.063,0,4.572,0c0-0.762,0-1.523,0-2.285c-2.286,0-4.572,0-6.857,0c0,1.523,0,3.047,0,4.571
		C5.333,61.715,6.095,61.715,6.856,61.715z M43.429,61.715c0-0.751,0-1.501,0-2.286c1.555,0,3.063,0,4.571,0
		c0-0.762,0-1.523,0-2.285c-2.286,0-4.571,0-6.857,0c0,1.523,0,3.047,0,4.571C41.904,61.715,42.666,61.715,43.429,61.715z M84.57,64
		c-2.318,0-4.588,0-6.857,0c0,0.762,0,1.523,0,2.287c0,0.762,0,1.523,0,2.285c0.764,0,1.525,0,2.287,0c0-0.754,0-1.504,0-2.305
		c2.314,0,4.578,0,6.857,0c0-1.51,0-2.971-0.002-4.433c0-0.023-0.016-0.049-0.029-0.068c-0.016-0.021-0.039-0.035-0.061-0.052
		c-0.73,0-1.463,0-2.195,0C84.57,62.466,84.57,63.218,84.57,64z M29.714,64c-2.318,0-4.588,0-6.857,0c0,0.762,0,1.523,0,2.287
		c0,0.762,0,1.523,0,2.285c0.763,0,1.524,0,2.286,0c0-0.754,0-1.504,0-2.305c2.315,0,4.579,0,6.857,0c0-1.51,0-2.971-0.002-4.433
		c0-0.023-0.015-0.049-0.029-0.068c-0.016-0.021-0.039-0.035-0.06-0.052c-0.731,0-1.463,0-2.195,0
		C29.714,62.466,29.714,63.218,29.714,64z M50.285,64c0.763,0,1.524,0,2.286,0c0-0.762,0-1.523,0-2.285c-0.762,0-1.523,0-2.286,0
		C50.285,62.477,50.285,63.238,50.285,64z"/>
</g>
</svg>
