<?xml version="1.0" encoding="utf-8"?>
<!-- Generator: Adobe Illustrator 22.1.0, SVG Export Plug-In . SVG Version: 6.00 Build 0)  -->
<svg version="1.1" id="Layer_1" xmlns="http://www.w3.org/2000/svg" xmlns:xlink="http://www.w3.org/1999/xlink" x="0px" y="0px"
	 viewBox="0 0 256 256" enable-background="new 0 0 256 256" xml:space="preserve">
<pattern  width="129" height="130" patternUnits="userSpaceOnUse" id="New_Pattern_Swatch_2" viewBox="0 -130 129 130" overflow="visible">
	<g>
		<rect y="-130" fill="none" width="129" height="130"/>
		<rect y="-130" fill="#F0A836" width="129" height="130"/>
	</g>
</pattern>
<g>
	<pattern  id="SVGID_1_" xlink:href="#New_Pattern_Swatch_2" patternTransform="matrix(1 0 0 1 -152.526 -122.9633)">
	</pattern>
	<path fill="url(#SVGID_1_)" d="M224.999,97.482c-1.976-1.976-5.157-1.975-7.134-0.002c-8.144,8.135-12.627,18.979-12.628,30.513
		c0,11.542,4.481,22.382,12.626,30.524c0.985,0.986,2.274,1.482,3.572,1.483c1.287,0,2.574-0.491,3.557-1.478
		c1.976-1.973,1.975-5.16,0.004-7.133c-6.23-6.236-9.674-14.55-9.667-23.392c-0.009-8.843,3.427-17.151,9.673-23.385
		C226.962,102.639,226.96,99.449,224.999,97.482z"/>
	<pattern  id="SVGID_2_" xlink:href="#New_Pattern_Swatch_2" patternTransform="matrix(1 0 0 1 -152.526 -122.9633)">
	</pattern>
	<path fill="url(#SVGID_2_)" d="M175.525,66.964c-3.952-3.952-10.313-3.951-14.268-0.004c-16.288,16.27-25.254,37.959-25.257,61.026
		c0,23.084,8.962,44.764,25.252,61.048c1.97,1.972,4.548,2.965,7.143,2.966c2.573,0,5.148-0.982,7.114-2.956
		c3.952-3.945,3.951-10.32,0.008-14.267c-12.46-12.471-19.349-29.1-19.333-46.783c-0.018-17.685,6.855-34.302,19.346-46.77
		C179.451,77.279,179.445,70.899,175.525,66.964z"/>
	<pattern  id="SVGID_3_" xlink:href="#New_Pattern_Swatch_2" patternTransform="matrix(1 0 0 1 -152.526 -122.9633)">
	</pattern>
	<path fill="url(#SVGID_3_)" d="M108.575,5.928c-7.904-7.904-20.626-7.902-28.536-0.008c-32.576,32.54-50.508,75.917-50.513,122.052
		c0,46.168,17.925,89.527,50.504,122.095c3.94,3.944,9.096,5.929,14.286,5.932c5.146,0,10.296-1.964,14.229-5.912
		c7.905-7.89,7.901-20.64,0.017-28.534c-24.92-24.942-38.698-58.2-38.667-93.566c-0.035-35.371,13.709-68.604,38.692-93.54
		C116.427,26.557,116.417,13.797,108.575,5.928z"/>
</g>
</svg>
