<?xml version="1.0" encoding="utf-8"?>
<!-- Generator: Adobe Illustrator 16.0.0, SVG Export Plug-In . SVG Version: 6.00 Build 0)  -->
<!DOCTYPE svg PUBLIC "-//W3C//DTD SVG 1.1//EN" "http://www.w3.org/Graphics/SVG/1.1/DTD/svg11.dtd">
<svg version="1.1" id="Layer_1" xmlns="http://www.w3.org/2000/svg" xmlns:xlink="http://www.w3.org/1999/xlink" x="0px" y="0px"
	 width="1024px" height="1024px" viewBox="0 0 1024 1024" enable-background="new 0 0 1024 1024" xml:space="preserve">
<g>
	<path fill="#a8c924" d="M512,508.692c46.909-53.155,115.533-86.693,192-86.693c17.425,0,34.44,1.749,50.888,5.066
		C763.387,401.588,768,374.334,768,345.999c0-141.385-114.613-256-256-256c-141.385,0-256,114.615-256,256
		c0,28.335,4.613,55.589,13.113,81.066c16.446-3.317,33.462-5.066,50.887-5.066C396.468,421.999,465.092,455.537,512,508.692z"/>
	<path fill="#A4CDC6" d="M754.888,427.065c-28.685,85.982-101.739,151.664-192,169.87C571.387,622.412,576,649.667,576,678.001
		c0,64.918-24.176,124.18-64,169.307c46.909,53.155,115.533,86.693,192,86.693c141.387,0,256-114.615,256-256
		C960,554.039,871.894,450.664,754.888,427.065z"/>
	<path fill="#F0A836" d="M461.112,596.936c-90.26-18.206-163.315-83.888-191.999-169.87C152.107,450.665,64,554.039,64,678.001
		c0,141.385,114.615,256,256,256c76.468,0,145.092-33.538,192-86.693c-39.823-45.127-64-104.389-64-169.307
		C448,649.667,452.613,622.412,461.112,596.936z"/>
	<path fill="#F8F02D" d="M461.112,596.936c16.447,3.317,33.463,5.065,50.888,5.065s34.44-1.748,50.888-5.065
		c-10.974-32.896-28.445-62.812-50.888-88.243C489.559,534.124,472.086,564.04,461.112,596.936z"/>
	<path fill="#C3E86C" d="M512,508.692c22.442,25.432,39.914,55.348,50.888,88.243c90.261-18.206,163.315-83.888,192-169.87
		c-16.447-3.317-33.463-5.066-50.888-5.066C627.533,421.999,558.909,455.537,512,508.692z"/>
	<path fill="#F5D71D" d="M461.112,596.936c10.974-32.896,28.446-62.812,50.888-88.243c-46.908-53.155-115.532-86.693-192-86.693
		c-17.425,0-34.44,1.749-50.887,5.066C297.797,513.048,370.853,578.729,461.112,596.936z"/>
	<path fill="#F5DDA6" d="M562.888,596.936c-16.447,3.317-33.463,5.065-50.888,5.065s-34.44-1.748-50.888-5.065
		C452.613,622.412,448,649.667,448,678.001c0,64.918,24.177,124.18,64,169.307c39.824-45.127,64-104.389,64-169.307
		C576,649.667,571.387,622.412,562.888,596.936z"/>
</g>
<g>
	<path fill="#FFFFFF" d="M382.355,292.464h16.129c6.529,0,10.945,2.112,10.945,8.497c0,3.408-1.632,5.665-4.656,7.153
		c4.225,1.2,6.288,4.416,6.288,8.688c0,6.961-5.904,9.937-12.097,9.937h-16.609V292.464z M389.891,306.337h7.633
		c2.688,0,4.608-1.2,4.608-4.08c0-3.216-2.496-3.937-5.185-3.937h-7.057V306.337z M389.891,320.883h8.065
		c2.928,0,5.568-0.96,5.568-4.512c0-3.504-2.16-4.896-5.425-4.896h-8.209V320.883z"/>
	<path fill="#FFFFFF" d="M413.026,301.921h6.481v4.608h0.096c1.296-3.12,4.513-5.28,7.921-5.28c0.527,0,1.008,0.096,1.487,0.24
		v6.336c-0.624-0.144-1.632-0.24-2.447-0.24c-5.041,0-6.721,3.552-6.721,7.969v11.185h-6.817V301.921z"/>
	<path fill="#FFFFFF" d="M434.915,315.986c0.191,4.368,2.256,6.289,6.097,6.289c2.735,0,4.944-1.68,5.376-3.216h6.001
		c-1.921,5.904-6.001,8.353-11.617,8.353c-7.825,0-12.673-5.376-12.673-13.057c0-7.44,5.136-13.105,12.673-13.105
		c8.448,0,12.577,7.104,12.049,14.737H434.915z M446.003,311.666c-0.624-3.457-2.112-5.281-5.425-5.281
		c-4.416,0-5.521,3.36-5.664,5.281H446.003z"/>
	<path fill="#FFFFFF" d="M463.09,301.921h4.992v4.561h-4.992v12.289c0,2.304,0.575,2.88,2.88,2.88c0.768,0,1.488-0.048,2.112-0.192
		v5.328c-1.152,0.192-2.641,0.24-3.984,0.24c-4.225,0-7.825-0.912-7.825-5.905v-14.641h-4.128v-4.561h4.128v-7.44h6.817V301.921z"/>
	<path fill="#FFFFFF" d="M477.586,301.921h4.992v4.561h-4.992v12.289c0,2.304,0.575,2.88,2.88,2.88c0.768,0,1.488-0.048,2.112-0.192
		v5.328c-1.152,0.192-2.641,0.24-3.984,0.24c-4.225,0-7.825-0.912-7.825-5.905v-14.641h-4.128v-4.561h4.128v-7.44h6.817V301.921z"/>
	<path fill="#FFFFFF" d="M495.105,292.464h16.129c6.53,0,10.946,2.112,10.946,8.497c0,3.408-1.633,5.665-4.656,7.153
		c4.225,1.2,6.287,4.416,6.287,8.688c0,6.961-5.904,9.937-12.096,9.937h-16.609V292.464z M502.641,306.337h7.633
		c2.688,0,4.609-1.2,4.609-4.08c0-3.216-2.497-3.937-5.185-3.937h-7.057V306.337z M502.641,320.883h8.065
		c2.928,0,5.569-0.96,5.569-4.512c0-3.504-2.16-4.896-5.425-4.896h-8.209V320.883z"/>
	<path fill="#FFFFFF" d="M525.488,309.554c0.385-6.336,6.096-8.305,11.664-8.305c4.945,0,10.898,1.104,10.898,7.057v12.913
		c0,2.256,0.24,4.512,0.863,5.521h-6.912c-0.24-0.768-0.432-1.584-0.48-2.4c-2.16,2.256-5.279,3.072-8.352,3.072
		c-4.754,0-8.449-2.352-8.449-7.44c0.096-11.281,16.801-5.232,16.514-10.801c0-2.88-2.018-3.36-4.418-3.36
		c-2.639,0-4.271,1.056-4.512,3.744H525.488z M541.234,314.594c-1.152,1.008-3.553,1.056-5.666,1.44
		c-2.111,0.384-4.031,1.152-4.031,3.648s1.969,3.168,4.176,3.168c5.328,0,5.521-4.177,5.521-5.713V314.594z"/>
	<path fill="#FFFFFF" d="M550.928,301.921h6.48v4.608h0.096c1.297-3.12,4.514-5.28,7.922-5.28c0.527,0,1.008,0.096,1.486,0.24v6.336
		c-0.623-0.144-1.631-0.24-2.447-0.24c-5.041,0-6.721,3.552-6.721,7.969v11.185h-6.816V301.921z"/>
	<path fill="#FFFFFF" d="M575.84,301.921h4.992v4.561h-4.992v12.289c0,2.304,0.576,2.88,2.881,2.88c0.768,0,1.488-0.048,2.111-0.192
		v5.328c-1.152,0.192-2.641,0.24-3.984,0.24c-4.225,0-7.824-0.912-7.824-5.905v-14.641h-4.129v-4.561h4.129v-7.44h6.816V301.921z"/>
	<path fill="#FFFFFF" d="M581.887,292.464h6.816v34.275h-6.816V292.464z"/>
	<path fill="#FFFFFF" d="M597.295,315.986c0.191,4.368,2.256,6.289,6.098,6.289c2.734,0,4.943-1.68,5.375-3.216h6.002
		c-1.922,5.904-6.002,8.353-11.617,8.353c-7.826,0-12.674-5.376-12.674-13.057c0-7.44,5.137-13.105,12.674-13.105
		c8.447,0,12.576,7.104,12.049,14.737H597.295z M608.385,311.666c-0.625-3.457-2.113-5.281-5.426-5.281
		c-4.416,0-5.52,3.36-5.664,5.281H608.385z"/>
	<path fill="#FFFFFF" d="M625.471,301.921h4.992v4.561h-4.992v12.289c0,2.304,0.576,2.88,2.881,2.88
		c0.768,0,1.488-0.048,2.111-0.192v5.328c-1.152,0.192-2.641,0.24-3.984,0.24c-4.225,0-7.824-0.912-7.824-5.905v-14.641h-4.129
		v-4.561h4.129v-7.44h6.816V301.921z"/>
	<path fill="#FFFFFF" d="M639.967,301.921h4.992v4.561h-4.992v12.289c0,2.304,0.576,2.88,2.881,2.88
		c0.768,0,1.488-0.048,2.111-0.192v5.328c-1.152,0.192-2.641,0.24-3.984,0.24c-4.225,0-7.824-0.912-7.824-5.905v-14.641h-4.129
		v-4.561h4.129v-7.44h6.816V301.921z"/>
	<path fill="#FFFFFF" d="M422.168,337.039h5.651v9.863h10.403v-9.863h5.651v25.701h-5.651v-11.086H427.82v11.086h-5.651V337.039z"/>
	<path fill="#FFFFFF" d="M455.54,343.625c5.867,0,9.646,3.888,9.646,9.827c0,5.903-3.779,9.791-9.646,9.791
		c-5.831,0-9.61-3.888-9.61-9.791C445.929,347.513,449.708,343.625,455.54,343.625z M455.54,359.392
		c3.491,0,4.535-2.952,4.535-5.939c0-2.988-1.044-5.976-4.535-5.976c-3.455,0-4.499,2.988-4.499,5.976
		C451.041,356.44,452.084,359.392,455.54,359.392z"/>
	<path fill="#FFFFFF" d="M466.7,344.129h4.859v3.456h0.072c0.972-2.339,3.384-3.959,5.939-3.959c0.396,0,0.756,0.072,1.116,0.18
		v4.751c-0.469-0.108-1.225-0.18-1.836-0.18c-3.779,0-5.04,2.664-5.04,5.976v8.387H466.7V344.129z"/>
	<path fill="#FFFFFF" d="M485.383,344.129h3.743v3.42h-3.743v9.215c0,1.728,0.432,2.16,2.16,2.16c0.575,0,1.115-0.036,1.583-0.144
		v3.996c-0.863,0.144-1.979,0.18-2.987,0.18c-3.167,0-5.867-0.684-5.867-4.427v-10.979h-3.096v-3.42h3.096v-5.579h5.111V344.129z"/>
	<path fill="#FFFFFF" d="M495.032,341.25h-5.111v-4.211h5.111V341.25z M489.92,344.129h5.111v18.61h-5.111V344.129z"/>
	<path fill="#FFFFFF" d="M509.934,350.681c-0.324-2.124-1.584-3.204-3.779-3.204c-3.276,0-4.355,3.312-4.355,6.047
		c0,2.7,1.044,5.867,4.247,5.867c2.412,0,3.743-1.476,4.067-3.779h4.931c-0.684,4.931-4.031,7.631-8.962,7.631
		c-5.615,0-9.395-3.959-9.395-9.539c0-5.795,3.455-10.079,9.503-10.079c4.391,0,8.458,2.304,8.747,7.055H509.934z"/>
	<path fill="#FFFFFF" d="M533.584,362.739h-4.859v-2.592h-0.107c-1.295,2.124-3.527,3.096-5.688,3.096
		c-5.436,0-6.803-3.06-6.803-7.667v-11.447h5.111v10.511c0,3.06,0.863,4.572,3.275,4.572c2.771,0,3.959-1.548,3.959-5.328v-9.755
		h5.111V362.739z"/>
	<path fill="#FFFFFF" d="M534.379,337.039h5.111v25.701h-5.111V337.039z"/>
	<path fill="#FFFFFF" d="M548.201,344.129h3.744v3.42h-3.744v9.215c0,1.728,0.432,2.16,2.16,2.16c0.576,0,1.115-0.036,1.584-0.144
		v3.996c-0.863,0.144-1.98,0.18-2.988,0.18c-3.166,0-5.867-0.684-5.867-4.427v-10.979h-3.096v-3.42h3.096v-5.579h5.111V344.129z"/>
	<path fill="#FFFFFF" d="M570.053,362.739h-4.859v-2.592h-0.107c-1.297,2.124-3.529,3.096-5.688,3.096
		c-5.436,0-6.805-3.06-6.805-7.667v-11.447h5.111v10.511c0,3.06,0.865,4.572,3.277,4.572c2.771,0,3.959-1.548,3.959-5.328v-9.755
		h5.111V362.739z"/>
	<path fill="#FFFFFF" d="M572.141,344.129H577v3.456h0.072c0.973-2.339,3.385-3.959,5.939-3.959c0.396,0,0.756,0.072,1.117,0.18
		v4.751c-0.469-0.108-1.225-0.18-1.836-0.18c-3.779,0-5.041,2.664-5.041,5.976v8.387h-5.111V344.129z"/>
	<path fill="#FFFFFF" d="M588.557,354.676c0.145,3.275,1.691,4.715,4.572,4.715c2.051,0,3.707-1.26,4.031-2.412h4.5
		c-1.441,4.427-4.5,6.263-8.711,6.263c-5.867,0-9.504-4.031-9.504-9.791c0-5.58,3.852-9.827,9.504-9.827
		c6.334,0,9.43,5.328,9.035,11.051H588.557z M596.871,351.437c-0.467-2.591-1.582-3.959-4.066-3.959
		c-3.313,0-4.139,2.52-4.248,3.959H596.871z"/>
	<path fill="#FFFFFF" d="M462.362,373.039h19.222v4.751h-13.57v5.507h12.455v4.391h-12.455v6.299h13.858v4.751h-19.51V373.039z"/>
	<path fill="#FFFFFF" d="M488.101,388.949l-6.119-8.819h5.831l3.275,4.859l3.24-4.859h5.65l-6.119,8.711l6.875,9.899h-5.831
		l-3.888-5.867l-3.887,5.867h-5.724L488.101,388.949z"/>
	<path fill="#FFFFFF" d="M500.881,380.129h4.859v2.376h0.072c1.26-2.016,3.239-2.88,5.543-2.88c5.832,0,8.458,4.716,8.458,10.007
		c0,4.967-2.699,9.611-8.17,9.611c-2.268,0-4.319-0.972-5.579-2.808h-0.072v8.855h-5.111V380.129z M514.703,389.488
		c0-2.987-1.188-6.011-4.462-6.011c-3.348,0-4.428,2.988-4.428,6.011c0,3.024,1.152,5.903,4.464,5.903
		C513.625,395.392,514.703,392.512,514.703,389.488z"/>
	<path fill="#FFFFFF" d="M525.289,390.676c0.143,3.275,1.691,4.715,4.57,4.715c2.053,0,3.709-1.26,4.031-2.412h4.5
		c-1.439,4.427-4.5,6.263-8.711,6.263c-5.867,0-9.502-4.031-9.502-9.791c0-5.58,3.852-9.827,9.502-9.827
		c6.336,0,9.432,5.328,9.035,11.051H525.289z M533.604,387.437c-0.469-2.591-1.584-3.959-4.068-3.959
		c-3.311,0-4.139,2.52-4.246,3.959H533.604z"/>
	<path fill="#FFFFFF" d="M539.941,380.129h4.859v3.456h0.072c0.971-2.339,3.383-3.959,5.939-3.959c0.395,0,0.756,0.072,1.115,0.18
		v4.751c-0.469-0.108-1.225-0.18-1.836-0.18c-3.779,0-5.039,2.664-5.039,5.976v8.387h-5.111V380.129z"/>
	<path fill="#FFFFFF" d="M558.623,380.129h3.744v3.42h-3.744v9.215c0,1.728,0.432,2.16,2.16,2.16c0.576,0,1.115-0.036,1.584-0.144
		v3.996c-0.863,0.144-1.98,0.18-2.988,0.18c-3.166,0-5.867-0.684-5.867-4.427v-10.979h-3.096v-3.42h3.096v-5.579h5.111V380.129z"/>
</g>
<g>
	<path fill="#FFFFFF" d="M566.389,624.464h7.729l12.816,34.274h-7.824l-2.592-7.633h-12.818l-2.688,7.633h-7.633L566.389,624.464z
		 M565.668,645.49h8.881l-4.32-12.578h-0.096L565.668,645.49z"/>
	<path fill="#FFFFFF" d="M592.068,650.674c0,2.929,2.592,4.177,5.232,4.177c1.92,0,4.463-0.769,4.463-3.169
		c0-2.063-2.879-2.832-7.729-3.84c-3.984-0.912-7.873-2.208-7.873-6.625c0-6.336,5.473-7.969,10.803-7.969
		c5.375,0,10.416,1.824,10.943,7.922h-6.48c-0.191-2.641-2.207-3.361-4.656-3.361c-1.535,0-3.791,0.24-3.791,2.305
		c0,2.448,3.887,2.784,7.729,3.696c3.984,0.912,7.871,2.353,7.871,6.96c0,6.529-5.711,8.641-11.328,8.641
		c-5.76,0-11.426-2.16-11.664-8.736H592.068z"/>
	<path fill="#FFFFFF" d="M610.162,624.464h6.818v12.913h0.143c1.729-2.832,4.705-4.129,7.25-4.129c7.248,0,9.072,4.081,9.072,10.226
		v15.265h-6.816v-14.017c0-4.081-1.152-6.097-4.369-6.097c-3.695,0-5.279,2.064-5.279,7.104v13.009h-6.818V624.464z"/>
	<path fill="#FFFFFF" d="M636.418,624.464h6.816v34.274h-6.816V624.464z"/>
	<path fill="#FFFFFF" d="M651.826,647.986c0.191,4.367,2.256,6.288,6.098,6.288c2.734,0,4.943-1.681,5.375-3.216h6.002
		c-1.922,5.904-6.002,8.352-11.617,8.352c-7.826,0-12.674-5.376-12.674-13.057c0-7.44,5.137-13.105,12.674-13.105
		c8.447,0,12.576,7.105,12.049,14.738H651.826z M662.916,643.666c-0.625-3.457-2.113-5.281-5.426-5.281
		c-4.416,0-5.52,3.36-5.664,5.281H662.916z"/>
	<path fill="#FFFFFF" d="M683.602,661.859c-1.488,3.984-3.887,5.616-8.545,5.616c-1.391,0-2.783-0.097-4.176-0.24v-5.616
		c1.297,0.145,2.641,0.288,3.984,0.24c1.777-0.192,2.641-1.584,2.641-3.121c0-0.527-0.096-1.056-0.289-1.535l-8.736-23.283h7.297
		l5.617,16.994h0.096l5.424-16.994h7.057L683.602,661.859z"/>
	<path fill="#FFFFFF" d="M705.537,624.464h16.129c6.529,0,10.945,2.112,10.945,8.497c0,3.408-1.631,5.664-4.656,7.152
		c4.225,1.2,6.289,4.416,6.289,8.688c0,6.961-5.904,9.937-12.098,9.937h-16.609V624.464z M713.074,638.337h7.633
		c2.688,0,4.607-1.2,4.607-4.08c0-3.216-2.496-3.937-5.184-3.937h-7.057V638.337z M713.074,652.883h8.064
		c2.928,0,5.568-0.961,5.568-4.513c0-3.505-2.16-4.896-5.424-4.896h-8.209V652.883z"/>
	<path fill="#FFFFFF" d="M735.92,641.553c0.385-6.336,6.098-8.305,11.666-8.305c4.945,0,10.896,1.104,10.896,7.057v12.914
		c0,2.256,0.24,4.512,0.865,5.52h-6.914c-0.24-0.768-0.432-1.584-0.479-2.4c-2.16,2.257-5.281,3.072-8.354,3.072
		c-4.752,0-8.449-2.352-8.449-7.439c0.096-11.281,16.803-5.232,16.514-10.801c0-2.881-2.016-3.361-4.416-3.361
		c-2.641,0-4.273,1.057-4.512,3.744H735.92z M751.666,646.594c-1.152,1.008-3.553,1.057-5.664,1.439
		c-2.113,0.385-4.033,1.152-4.033,3.648s1.969,3.169,4.178,3.169c5.328,0,5.52-4.177,5.52-5.713V646.594z"/>
	<path fill="#FFFFFF" d="M761.359,633.92h6.482v3.457h0.143c1.729-2.832,4.705-4.129,7.586-4.129c7.248,0,9.072,4.081,9.072,10.226
		v15.265h-6.816v-14.017c0-4.081-1.152-6.097-4.369-6.097c-3.695,0-5.279,2.064-5.279,7.104v13.009h-6.818V633.92z"/>
	<path fill="#FFFFFF" d="M787.424,633.92h6.48v3.457h0.145c1.729-2.832,4.703-4.129,7.584-4.129c7.248,0,9.072,4.081,9.072,10.226
		v15.265h-6.816v-14.017c0-4.081-1.152-6.097-4.367-6.097c-3.697,0-5.281,2.064-5.281,7.104v13.009h-6.816V633.92z"/>
	<path fill="#FFFFFF" d="M819.104,647.986c0.191,4.367,2.256,6.288,6.098,6.288c2.734,0,4.943-1.681,5.375-3.216h6.002
		c-1.922,5.904-6.002,8.352-11.617,8.352c-7.826,0-12.674-5.376-12.674-13.057c0-7.44,5.137-13.105,12.674-13.105
		c8.447,0,12.576,7.105,12.049,14.738H819.104z M830.193,643.666c-0.625-3.457-2.113-5.281-5.426-5.281
		c-4.416,0-5.52,3.36-5.664,5.281H830.193z"/>
	<path fill="#FFFFFF" d="M838.639,633.92h6.48v4.609h0.096c1.297-3.121,4.514-5.281,7.922-5.281c0.527,0,1.008,0.097,1.486,0.24
		v6.337c-0.623-0.144-1.631-0.24-2.447-0.24c-5.041,0-6.721,3.552-6.721,7.969v11.185h-6.816V633.92z"/>
	<path fill="#FFFFFF" d="M618.119,669.038h19.221v4.751h-13.57v5.508h12.455v4.391H623.77v6.3h13.859v4.751h-19.51V669.038z"/>
	<path fill="#FFFFFF" d="M639.25,669.038h5.111v25.7h-5.111V669.038z"/>
	<path fill="#FFFFFF" d="M650.807,686.676c0.143,3.275,1.691,4.715,4.57,4.715c2.053,0,3.709-1.26,4.031-2.411h4.5
		c-1.439,4.427-4.5,6.263-8.711,6.263c-5.867,0-9.502-4.031-9.502-9.79c0-5.579,3.852-9.827,9.502-9.827
		c6.336,0,9.432,5.328,9.035,11.051H650.807z M659.121,683.436c-0.469-2.591-1.584-3.959-4.068-3.959
		c-3.311,0-4.139,2.52-4.246,3.959H659.121z"/>
	<path fill="#FFFFFF" d="M678.129,682.68c-0.324-2.123-1.584-3.203-3.779-3.203c-3.277,0-4.355,3.312-4.355,6.047
		c0,2.7,1.043,5.867,4.246,5.867c2.412,0,3.744-1.475,4.068-3.779h4.932c-0.684,4.932-4.031,7.631-8.963,7.631
		c-5.615,0-9.395-3.959-9.395-9.538c0-5.796,3.455-10.079,9.502-10.079c4.391,0,8.459,2.304,8.746,7.055H678.129z"/>
	<path fill="#FFFFFF" d="M690.801,676.129h3.744v3.42h-3.744v9.215c0,1.728,0.432,2.16,2.16,2.16c0.576,0,1.115-0.037,1.584-0.145
		v3.996c-0.863,0.144-1.98,0.18-2.988,0.18c-3.166,0-5.867-0.684-5.867-4.428v-10.979h-3.096v-3.42h3.096v-5.579h5.111V676.129z"/>
	<path fill="#FFFFFF" d="M695.193,676.129h4.859v3.455h0.072c0.971-2.339,3.383-3.959,5.939-3.959c0.395,0,0.756,0.072,1.115,0.18
		v4.752c-0.469-0.107-1.225-0.18-1.836-0.18c-3.779,0-5.039,2.663-5.039,5.975v8.387h-5.111V676.129z"/>
	<path fill="#FFFFFF" d="M716.432,675.625c5.867,0,9.646,3.888,9.646,9.827c0,5.903-3.779,9.79-9.646,9.79
		c-5.83,0-9.609-3.887-9.609-9.79C706.822,679.513,710.602,675.625,716.432,675.625z M716.432,691.391
		c3.492,0,4.535-2.951,4.535-5.938s-1.043-5.976-4.535-5.976c-3.455,0-4.498,2.988-4.498,5.976S712.977,691.391,716.432,691.391z"/>
	<path fill="#FFFFFF" d="M727.592,676.129h4.859v2.592h0.109c1.295-2.123,3.527-3.096,5.688-3.096c5.436,0,6.803,3.06,6.803,7.667
		v11.446h-5.111v-10.51c0-3.061-0.863-4.572-3.275-4.572c-2.771,0-3.961,1.549-3.961,5.328v9.754h-5.111V676.129z"/>
	<path fill="#FFFFFF" d="M752.396,673.25h-5.111v-4.212h5.111V673.25z M747.285,676.129h5.111v18.609h-5.111V676.129z"/>
	<path fill="#FFFFFF" d="M767.299,682.68c-0.324-2.123-1.584-3.203-3.779-3.203c-3.275,0-4.355,3.312-4.355,6.047
		c0,2.7,1.045,5.867,4.248,5.867c2.412,0,3.742-1.475,4.066-3.779h4.932c-0.684,4.932-4.031,7.631-8.963,7.631
		c-5.615,0-9.395-3.959-9.395-9.538c0-5.796,3.455-10.079,9.504-10.079c4.391,0,8.457,2.304,8.746,7.055H767.299z"/>
	<path fill="#FFFFFF" d="M777.451,688.691c0,2.195,1.943,3.132,3.924,3.132c1.439,0,3.348-0.576,3.348-2.376
		c0-1.548-2.16-2.123-5.795-2.879c-2.988-0.685-5.904-1.656-5.904-4.968c0-4.751,4.104-5.976,8.1-5.976
		c4.031,0,7.811,1.368,8.207,5.939h-4.859c-0.145-1.98-1.656-2.52-3.492-2.52c-1.15,0-2.844,0.18-2.844,1.728
		c0,1.836,2.916,2.088,5.797,2.771c2.986,0.685,5.902,1.765,5.902,5.22c0,4.895-4.283,6.479-8.494,6.479
		c-4.32,0-8.568-1.619-8.748-6.551H777.451z"/>
	<path fill="#FFFFFF" d="M635.723,705.038h19.221v4.751h-13.57v5.508h12.455v4.391h-12.455v6.3h13.859v4.751h-19.51V705.038z"/>
	<path fill="#FFFFFF" d="M656.709,712.129h4.859v2.592h0.109c1.295-2.123,3.527-3.096,5.688-3.096c5.436,0,6.803,3.06,6.803,7.667
		v11.446h-5.111v-10.51c0-3.061-0.863-4.572-3.275-4.572c-2.771,0-3.961,1.549-3.961,5.328v9.754h-5.111V712.129z"/>
	<path fill="#FFFFFF" d="M694.148,729.551c0,3.06-1.117,8.243-9.648,8.243c-3.67,0-7.918-1.764-8.207-5.976h5.076
		c0.469,1.908,1.98,2.557,3.816,2.557c2.842,0,4.139-1.908,4.102-4.607v-2.448h-0.07c-1.117,1.979-3.313,2.88-5.58,2.88
		c-5.615,0-7.955-4.248-7.955-9.359c0-4.823,2.809-9.215,7.99-9.215c2.449,0,4.285,0.828,5.545,2.988h0.07v-2.484h4.861V729.551z
		 M689.287,721.2c0-3.024-1.043-5.724-4.354-5.724c-2.881,0-4.141,2.52-4.141,5.291c0,2.664,0.973,5.58,4.141,5.58
		C687.848,726.348,689.287,723.863,689.287,721.2z"/>
	<path fill="#FFFFFF" d="M701.709,709.25h-5.111v-4.212h5.111V709.25z M696.598,712.129h5.111v18.609h-5.111V712.129z"/>
	<path fill="#FFFFFF" d="M703.941,712.129h4.859v2.592h0.107c1.297-2.123,3.527-3.096,5.688-3.096c5.436,0,6.803,3.06,6.803,7.667
		v11.446h-5.111v-10.51c0-3.061-0.863-4.572-3.275-4.572c-2.771,0-3.959,1.549-3.959,5.328v9.754h-5.111V712.129z"/>
	<path fill="#FFFFFF" d="M727.701,722.676c0.143,3.275,1.691,4.715,4.57,4.715c2.053,0,3.709-1.26,4.031-2.411h4.5
		c-1.439,4.427-4.5,6.263-8.711,6.263c-5.867,0-9.502-4.031-9.502-9.79c0-5.579,3.852-9.827,9.502-9.827
		c6.336,0,9.432,5.328,9.035,11.051H727.701z M736.016,719.436c-0.469-2.591-1.584-3.959-4.068-3.959
		c-3.311,0-4.139,2.52-4.246,3.959H736.016z"/>
	<path fill="#FFFFFF" d="M746.564,722.676c0.143,3.275,1.691,4.715,4.57,4.715c2.053,0,3.709-1.26,4.031-2.411h4.5
		c-1.439,4.427-4.5,6.263-8.711,6.263c-5.867,0-9.502-4.031-9.502-9.79c0-5.579,3.852-9.827,9.502-9.827
		c6.336,0,9.432,5.328,9.035,11.051H746.564z M754.879,719.436c-0.469-2.591-1.584-3.959-4.068-3.959
		c-3.311,0-4.139,2.52-4.246,3.959H754.879z"/>
	<path fill="#FFFFFF" d="M761.217,712.129h4.859v3.455h0.072c0.971-2.339,3.383-3.959,5.939-3.959c0.395,0,0.756,0.072,1.115,0.18
		v4.752c-0.469-0.107-1.225-0.18-1.836-0.18c-3.779,0-5.039,2.663-5.039,5.975v8.387h-5.111V712.129z"/>
</g>
<g>
	<path fill="#FFFFFF" d="M213.97,624.464h15.457c8.593,0,11.857,5.425,11.857,10.993s-3.265,10.992-11.857,10.992h-7.921v12.289
		h-7.536V624.464z M221.506,640.594h5.856c3.457,0,6.625-0.769,6.625-5.137c0-4.369-3.168-5.137-6.625-5.137h-5.856V640.594z"/>
	<path fill="#FFFFFF" d="M242.864,624.464h6.817v12.913h0.144c1.729-2.832,4.704-4.129,7.249-4.129
		c7.248,0,9.072,4.081,9.072,10.226v15.265h-6.816v-14.017c0-4.081-1.152-6.097-4.368-6.097c-3.696,0-5.28,2.064-5.28,7.104v13.009
		h-6.817V624.464z"/>
	<path fill="#FFFFFF" d="M275.937,630.08h-6.816v-5.616h6.816V630.08z M269.12,633.92h6.816v24.818h-6.816V633.92z"/>
	<path fill="#FFFFFF" d="M279.104,624.464h6.816v34.274h-6.816V624.464z"/>
	<path fill="#FFFFFF" d="M300.561,624.464h15.457c8.593,0,11.857,5.425,11.857,10.993s-3.265,10.992-11.857,10.992h-7.921v12.289
		h-7.536V624.464z M308.097,640.594h5.856c3.457,0,6.625-0.769,6.625-5.137c0-4.369-3.168-5.137-6.625-5.137h-5.856V640.594z"/>
	<path fill="#FFFFFF" d="M335.072,647.986c0.191,4.367,2.256,6.288,6.097,6.288c2.735,0,4.944-1.681,5.376-3.216h6.001
		c-1.921,5.904-6.001,8.352-11.617,8.352c-7.825,0-12.673-5.376-12.673-13.057c0-7.44,5.136-13.105,12.673-13.105
		c8.448,0,12.577,7.105,12.049,14.738H335.072z M346.161,643.666c-0.624-3.457-2.112-5.281-5.425-5.281
		c-4.416,0-5.521,3.36-5.664,5.281H346.161z"/>
	<path fill="#FFFFFF" d="M354.606,633.92h6.481v3.457h0.144c1.729-2.832,4.704-4.129,7.585-4.129c7.248,0,9.072,4.081,9.072,10.226
		v15.265h-6.816v-14.017c0-4.081-1.152-6.097-4.368-6.097c-3.696,0-5.28,2.064-5.28,7.104v13.009h-6.817V633.92z"/>
	<path fill="#FFFFFF" d="M380.67,633.92h6.481v3.457h0.144c1.729-2.832,4.704-4.129,7.585-4.129c7.248,0,9.072,4.081,9.072,10.226
		v15.265h-6.816v-14.017c0-4.081-1.152-6.097-4.368-6.097c-3.696,0-5.28,2.064-5.28,7.104v13.009h-6.817V633.92z"/>
	<path fill="#FFFFFF" d="M418.975,661.859c-1.488,3.984-3.888,5.616-8.545,5.616c-1.392,0-2.784-0.097-4.176-0.24v-5.616
		c1.296,0.145,2.64,0.288,3.984,0.24c1.776-0.192,2.64-1.584,2.64-3.121c0-0.527-0.096-1.056-0.288-1.535l-8.736-23.283h7.297
		l5.616,16.994h0.096l5.425-16.994h7.057L418.975,661.859z"/>
	<path fill="#FFFFFF" d="M258.434,669.038h11.591c6.443,0,8.891,4.067,8.891,8.243s-2.447,8.242-8.891,8.242h-5.939v9.215h-5.651
		V669.038z M264.085,681.133h4.392c2.592,0,4.968-0.576,4.968-3.852s-2.376-3.852-4.968-3.852h-4.392V681.133z"/>
	<path fill="#FFFFFF" d="M280.105,676.129h4.859v3.455h0.072c0.972-2.339,3.384-3.959,5.939-3.959c0.396,0,0.756,0.072,1.116,0.18
		v4.752c-0.469-0.107-1.225-0.18-1.836-0.18c-3.779,0-5.04,2.663-5.04,5.975v8.387h-5.111V676.129z"/>
	<path fill="#FFFFFF" d="M301.344,675.625c5.867,0,9.646,3.888,9.646,9.827c0,5.903-3.779,9.79-9.646,9.79
		c-5.831,0-9.61-3.887-9.61-9.79C291.733,679.513,295.513,675.625,301.344,675.625z M301.344,691.391
		c3.491,0,4.535-2.951,4.535-5.938s-1.044-5.976-4.535-5.976c-3.455,0-4.499,2.988-4.499,5.976S297.889,691.391,301.344,691.391z"/>
	<path fill="#FFFFFF" d="M325.788,692.363h-0.072c-1.188,2.016-3.24,2.879-5.651,2.879c-5.615,0-8.352-4.787-8.352-9.971
		c0-5.003,2.772-9.646,8.243-9.646c2.196,0,4.355,0.936,5.508,2.771h0.071v-9.358h5.112v25.7h-4.859V692.363z M321.324,679.477
		c-3.348,0-4.499,2.916-4.499,5.939c0,2.916,1.331,5.975,4.499,5.975c3.348,0,4.392-2.951,4.392-6.011
		C325.716,682.356,324.636,679.477,321.324,679.477z"/>
	<path fill="#FFFFFF" d="M350.158,694.738h-4.859v-2.592h-0.107c-1.296,2.125-3.528,3.096-5.688,3.096
		c-5.436,0-6.804-3.059-6.804-7.666v-11.447h5.111v10.511c0,3.06,0.864,4.571,3.276,4.571c2.771,0,3.959-1.547,3.959-5.327v-9.755
		h5.111V694.738z"/>
	<path fill="#FFFFFF" d="M364.919,682.68c-0.324-2.123-1.584-3.203-3.779-3.203c-3.276,0-4.355,3.312-4.355,6.047
		c0,2.7,1.044,5.867,4.247,5.867c2.412,0,3.743-1.475,4.067-3.779h4.932c-0.684,4.932-4.031,7.631-8.963,7.631
		c-5.615,0-9.395-3.959-9.395-9.538c0-5.796,3.455-10.079,9.503-10.079c4.391,0,8.458,2.304,8.746,7.055H364.919z"/>
	<path fill="#FFFFFF" d="M377.591,676.129h3.743v3.42h-3.743v9.215c0,1.728,0.432,2.16,2.16,2.16c0.575,0,1.115-0.037,1.583-0.145
		v3.996c-0.863,0.144-1.979,0.18-2.987,0.18c-3.167,0-5.867-0.684-5.867-4.428v-10.979h-3.096v-3.42h3.096v-5.579h5.111V676.129z"/>
	<path fill="#FFFFFF" d="M250.694,705.038h11.087c6.659,0,11.662,4.212,11.662,12.706c0,7.451-3.815,12.994-11.662,12.994h-11.087
		V705.038z M256.346,725.987h5.04c3.275,0,6.407-2.016,6.407-7.703c0-5.183-1.836-8.495-7.416-8.495h-4.031V725.987z"/>
	<path fill="#FFFFFF" d="M279.242,722.676c0.144,3.275,1.691,4.715,4.571,4.715c2.052,0,3.708-1.26,4.031-2.411h4.5
		c-1.44,4.427-4.5,6.263-8.711,6.263c-5.867,0-9.503-4.031-9.503-9.79c0-5.579,3.852-9.827,9.503-9.827
		c6.335,0,9.431,5.328,9.034,11.051H279.242z M287.557,719.436c-0.468-2.591-1.583-3.959-4.067-3.959
		c-3.312,0-4.139,2.52-4.247,3.959H287.557z"/>
	<path fill="#FFFFFF" d="M297.854,724.691c0,2.195,1.943,3.132,3.924,3.132c1.439,0,3.348-0.576,3.348-2.376
		c0-1.548-2.16-2.123-5.796-2.879c-2.987-0.685-5.903-1.656-5.903-4.968c0-4.751,4.104-5.976,8.1-5.976
		c4.031,0,7.811,1.368,8.207,5.939h-4.859c-0.145-1.98-1.656-2.52-3.492-2.52c-1.151,0-2.844,0.18-2.844,1.728
		c0,1.836,2.916,2.088,5.796,2.771c2.987,0.685,5.903,1.765,5.903,5.22c0,4.895-4.284,6.479-8.495,6.479
		c-4.319,0-8.567-1.619-8.747-6.551H297.854z"/>
	<path fill="#FFFFFF" d="M316.682,709.25h-5.111v-4.212h5.111V709.25z M311.57,712.129h5.111v18.609h-5.111V712.129z"/>
	<path fill="#FFFFFF" d="M336.804,729.551c0,3.06-1.116,8.243-9.647,8.243c-3.671,0-7.919-1.764-8.207-5.976h5.075
		c0.469,1.908,1.98,2.557,3.816,2.557c2.843,0,4.139-1.908,4.103-4.607v-2.448h-0.071c-1.116,1.979-3.312,2.88-5.579,2.88
		c-5.615,0-7.955-4.248-7.955-9.359c0-4.823,2.808-9.215,7.99-9.215c2.448,0,4.284,0.828,5.544,2.988h0.071v-2.484h4.86V729.551z
		 M331.943,721.2c0-3.024-1.043-5.724-4.354-5.724c-2.88,0-4.14,2.52-4.14,5.291c0,2.664,0.972,5.58,4.14,5.58
		C330.504,726.348,331.943,723.863,331.943,721.2z"/>
	<path fill="#FFFFFF" d="M339.109,712.129h4.859v2.592h0.108c1.296-2.123,3.527-3.096,5.688-3.096c5.436,0,6.803,3.06,6.803,7.667
		v11.446h-5.111v-10.51c0-3.061-0.863-4.572-3.275-4.572c-2.771,0-3.96,1.549-3.96,5.328v9.754h-5.111V712.129z"/>
	<path fill="#FFFFFF" d="M362.868,722.676c0.144,3.275,1.691,4.715,4.571,4.715c2.052,0,3.708-1.26,4.031-2.411h4.5
		c-1.44,4.427-4.5,6.263-8.711,6.263c-5.867,0-9.503-4.031-9.503-9.79c0-5.579,3.852-9.827,9.503-9.827
		c6.335,0,9.431,5.328,9.035,11.051H362.868z M371.183,719.436c-0.468-2.591-1.583-3.959-4.067-3.959
		c-3.312,0-4.139,2.52-4.247,3.959H371.183z"/>
	<path fill="#FFFFFF" d="M377.521,712.129h4.859v3.455h0.072c0.972-2.339,3.384-3.959,5.939-3.959c0.396,0,0.756,0.072,1.116,0.18
		v4.752c-0.469-0.107-1.225-0.18-1.836-0.18c-3.779,0-5.04,2.663-5.04,5.975v8.387h-5.111V712.129z"/>
</g>
<g>
	<path fill="#FFFFFF" d="M640,505h-10.771c-1.104,0-2.229,0.553-2.229,1.657v11.337c0-0.043-0.055-0.084-0.141-0.123
		c-2.142-1.008-4.316-1.518-6.689-1.518c-2.882,0-5.477,0.594-7.711,1.762c-1.276,0.668-2.422,1.486-3.459,2.416v-1.283
		c0-1.104-1.257-2.248-2.361-2.248H602v-7.658c0-1.104-0.905-2.342-2.01-2.342h-10.77c-1.104,0-2.221,1.237-2.221,2.342v3.491
		c-1.554-0.099-3.273-0.163-5.112-0.167c2.269-6.598,3.28-11.805,3.362-12.241c0.124-0.659-0.091-1.337-0.572-1.806
		c-0.48-0.467-1.164-0.662-1.82-0.521c-0.439,0.096-6.128,1.372-13.196,4.478c-0.082-7.248-0.952-12.748-1.025-13.198
		c-0.108-0.662-0.54-1.229-1.151-1.506c-0.263-0.119-0.543-0.184-0.823-0.184c-0.371,0-0.741,0.09-1.065,0.294
		c-0.422,0.265-6.408,4.077-12.715,10.484c-3.229-8.053-6.971-14.06-7.245-14.496c-0.357-0.567-0.976-0.971-1.646-0.971
		c-0.016,0-0.03,0-0.046,0c-0.653,0-1.268,0.356-1.642,0.895c-0.464,0.666-10.807,15.766-11.86,32.648
		c-1.082-0.118-2.187-0.184-3.309-0.184c-1.935,0-3.859,0.18-5.72,0.529c-2.016,0.378-3.867,1.057-5.502,2.002
		c-0.693,0.401-1.32,0.883-1.911,1.407v-1.05c0-1.104-1.166-2.248-2.271-2.248H507v-7.658c0-1.104-0.813-2.342-1.918-2.342h-10.771
		c-1.104,0-2.312,1.237-2.312,2.342V517h-2.128h-1.057h-9.714c-1.104,0-2.101,1.145-2.101,2.248v18.168
		c0,3.563-0.625,5.002-1.03,5.54c-0.347,0.46-0.989,1.071-3.039,1.071c-1.652,0-1.979-0.521-2.106-0.718
		c-0.317-0.487-0.824-1.727-0.824-4.551v-19.511c0-1.104-0.946-2.248-2.05-2.248h-10.771c-0.016,0-0.031,0.006-0.047,0.006
		c-0.016,0-0.03-0.006-0.046-0.006h-10.771c-1.104,0-2.313,1.145-2.313,2.248v18.168c0,3.564-0.545,5.002-0.951,5.54
		c-0.347,0.46-0.908,1.071-2.958,1.071c-1.652,0-2.032-0.521-2.16-0.718c-0.317-0.487-0.931-1.727-0.931-4.551v-19.511
		c0-1.104-0.732-2.248-1.837-2.248h-9.812c-0.189-0.95-0.461-1.879-0.825-2.783c-0.763-1.892-1.883-3.529-3.331-4.952
		c-1.435-1.407-3.167-2.44-5.15-3.239c-1.973-0.794-4.19-1.025-6.591-1.025H384c-1.104,0-2,0.553-2,1.657v47.329
		c0,1.104,0.896,2.014,2,2.014h11.729c1.104,0,2.271-0.909,2.271-2.014V538h6.917c1.646,0,2.893,0.38,3.418,0.904
		c0.452,0.452,1.056,1.526,1.369,3.708c0.117,0.816,0.206,1.699,0.264,2.624c0.066,1.035,0.156,2.069,0.268,3.071
		c0.112,1.015,0.249,1.997,0.407,2.916c0.185,1.081,0.47,2.093,0.846,3.005l0.216,0.527c0.309,0.749,1.039,1.244,1.849,1.244h12.275
		c0.754,0,1.444-0.431,1.784-1.104c0.097-0.19,0.152-0.394,0.184-0.599c0.737,0.523,1.542,0.987,2.435,1.366
		c1.903,0.809,4.288,1.218,7.088,1.218c2.344,0,4.657-0.546,6.875-1.628c0.259-0.127,0.513-0.258,0.761-0.4
		c0.322,0.674,1.01,1.146,1.806,1.146h10.324c1.104,0,1.915-0.909,1.915-2.014v-1.044c1.087,1.128,2.426,2.047,4.017,2.722
		c1.903,0.808,4.288,1.218,7.089,1.218c2.345,0,4.657-0.546,6.874-1.628c0.259-0.127,0.513-0.258,0.762-0.4
		c0.322,0.674,1.01,1.146,1.806,1.146h10.324c1.104,0,2.128-0.909,2.128-2.014v-8.325c0,2.135,0.551,3.945,1.33,5.383
		c0.797,1.472,2.065,2.644,3.465,3.483c1.276,0.765,2.742,1.277,4.358,1.523c1.393,0.212,2.881,0.319,4.424,0.319
		c0.92,0,1.921-0.022,2.913-0.066c1.059-0.049,2.068-0.147,2.925-0.291l0.776-0.117c0.965-0.16,1.809-0.995,1.809-1.974v-1.154
		c0.479,0.408,0.976,0.795,1.51,1.138c1.71,1.1,3.677,1.887,5.845,2.341c2.017,0.422,4.105,0.636,6.208,0.636
		c2.062,0,4.12-0.208,6.119-0.632c2.136-0.453,4.074-1.22,5.763-2.293c0.554-0.353,1.065-0.753,1.556-1.176V554
		c0,0.738,0.404,1.376,1,1.723V557h-3c-0.174,0-0.339,0.029-0.5,0.07c-0.161-0.041-0.326-0.07-0.5-0.07h-4c-1.104,0-2,0.896-2,2v4
		c0,0.174,0.029,0.339,0.07,0.5c-0.041,0.161-0.07,0.326-0.07,0.5v3h-3c-1.104,0-2,0.896-2,2v3h-3c-0.174,0-0.339,0.029-0.5,0.07
		c-0.161-0.041-0.326-0.07-0.5-0.07h-4c-0.174,0-0.339,0.029-0.5,0.07c-0.161-0.041-0.326-0.07-0.5-0.07h-4
		c-0.174,0-0.339,0.029-0.5,0.07c-0.161-0.041-0.326-0.07-0.5-0.07h-4c-1.104,0-2,0.896-2,2v4c0,0.174,0.029,0.339,0.071,0.5
		c-0.042,0.161-0.071,0.326-0.071,0.5v4c0,0.366,0.105,0.705,0.277,1c-0.172,0.295-0.277,0.634-0.277,1v4c0,1.104,0.896,2,2,2h4
		c1.104,0,2-0.896,2-2v-4c0-0.366-0.105-0.705-0.277-1c0.172-0.295,0.277-0.634,0.277-1v-3h3c0.174,0,0.339-0.029,0.5-0.07
		c0.161,0.041,0.326,0.07,0.5,0.07h3v3c0,0.366,0.105,0.705,0.277,1c-0.172,0.295-0.277,0.634-0.277,1v4c0,1.104,0.896,2,2,2h4
		c1.104,0,2-0.896,2-2v-4c0-0.366-0.105-0.705-0.277-1c0.172-0.295,0.277-0.634,0.277-1v-3h3c1.104,0,2-0.896,2-2v-3h3
		c1.104,0,2-0.896,2-2v-4c0-0.174-0.029-0.339-0.07-0.5c0.041-0.161,0.07-0.326,0.07-0.5v-3h2v3c0,1.104,0.896,2,2,2h4
		c0.174,0,0.339-0.029,0.5-0.07c0.161,0.041,0.326,0.07,0.5,0.07h3v3c0,1.104,0.896,2,2,2h4c0.174,0,0.339-0.029,0.5-0.07
		c0.161,0.041,0.326,0.07,0.5,0.07h3v3c0,0.366,0.105,0.705,0.277,1c-0.172,0.295-0.277,0.634-0.277,1v4
		c0,0.174,0.029,0.339,0.07,0.5c-0.041,0.161-0.07,0.326-0.07,0.5v4c0,1.104,0.896,2,2,2h4c0.174,0,0.339-0.029,0.5-0.07
		c0.161,0.041,0.326,0.07,0.5,0.07h4c1.104,0,2-0.896,2-2v-4c0-0.366-0.105-0.705-0.277-1c0.172-0.295,0.277-0.634,0.277-1v-4
		c0-0.174-0.029-0.339-0.07-0.5c0.041-0.161,0.07-0.326,0.07-0.5v-3h3c0.174,0,0.339-0.029,0.5-0.07
		c0.161,0.041,0.326,0.07,0.5,0.07h3v3c0,0.174,0.029,0.339,0.07,0.5c-0.041,0.161-0.07,0.326-0.07,0.5v4c0,1.104,0.896,2,2,2h4
		c0.174,0,0.339-0.029,0.5-0.07c0.161,0.041,0.326,0.07,0.5,0.07h3v4c0,1.104,0.896,2,2,2h4c1.104,0,2-0.896,2-2v-4
		c0-0.366-0.105-0.705-0.277-1c0.172-0.295,0.277-0.634,0.277-1v-4c0-1.104-0.896-2-2-2h-4c-0.174,0-0.339,0.029-0.5,0.07
		c-0.161-0.041-0.326-0.07-0.5-0.07h-3v-3c0-0.174-0.029-0.339-0.07-0.5c0.041-0.161,0.07-0.326,0.07-0.5v-4c0-1.104-0.896-2-2-2h-4
		c-0.174,0-0.339,0.029-0.5,0.07c-0.161-0.041-0.326-0.07-0.5-0.07h-4c-0.174,0-0.339,0.029-0.5,0.07
		c-0.161-0.041-0.326-0.07-0.5-0.07h-3v-3c0-0.174-0.029-0.339-0.07-0.5c0.041-0.161,0.07-0.326,0.07-0.5v-4c0-1.104-0.896-2-2-2h-4
		c-0.174,0-0.339,0.029-0.5,0.07c-0.161-0.041-0.326-0.07-0.5-0.07h-4c-0.174,0-0.339,0.029-0.5,0.07
		c-0.161-0.041-0.326-0.07-0.5-0.07h-4c-0.174,0-0.339,0.029-0.5,0.07c-0.161-0.041-0.326-0.07-0.5-0.07h-3v-1h33.615
		c1.086,0,2.334-0.88,2.377-1.958c0.233,0.167,0.465,0.338,0.71,0.485c1.276,0.765,2.743,1.277,4.36,1.523
		c1.392,0.212,2.88,0.319,4.423,0.319c0.919,0,1.932-0.022,2.924-0.066c1.059-0.049,2.079-0.147,2.937-0.291l0.8-0.117
		c0.966-0.16,1.854-0.995,1.854-1.974v-1.314c1.04,0.956,2.193,1.794,3.48,2.475c2.262,1.194,4.913,1.8,7.881,1.8
		c2.532,0,4.892-0.493,7.014-1.476c0.214-0.098,0.425-0.2,0.632-0.312c0.358,0.541,0.973,0.905,1.67,0.905H640
		c1.104,0,2-0.909,2-2.014v-47.329C642,505.553,641.104,505,640,505z M422,532.669c-0.301-0.385-0.611-0.763-0.958-1.104
		c0.342-0.299,0.656-0.615,0.958-0.939V532.669z M398,518h7.875c1.528,0,2.667,0.32,3.295,0.857c0.49,0.418,0.76,1.4,0.76,2.697
		c0,1.391-0.278,2.324-0.782,2.764c-0.624,0.545-1.756,0.682-3.273,0.682H398V518z M564,565h3v2h-3c-0.174,0-0.339,0.029-0.5,0.07
		c-0.161-0.041-0.326-0.07-0.5-0.07h-3v-2h3c0.174,0,0.339-0.029,0.5-0.07C563.661,564.971,563.826,565,564,565z M525.567,528.199
		c0.487-0.052,0.943-0.078,1.355-0.078c1.15,0,2.129,0.204,2.907,0.606c0.246,0.128,0.396,0.528,0.45,1.192
		c-0.443-0.096-0.88-0.188-1.31-0.277c-1.124-0.232-2.123-0.494-2.969-0.775c-0.52-0.174-0.878-0.357-1.122-0.517
		C525.079,528.277,525.31,528.228,525.567,528.199z M530.721,543.87c-0.01,0.166-0.037,0.228-0.037,0.228
		c-0.138,0.192-0.29,0.331-0.502,0.448c-0.325,0.181-0.696,0.317-1.12,0.407c-0.51,0.108-1.005,0.163-1.499,0.163
		c-0.594,0-1.146-0.075-1.758-0.232c-0.492-0.126-0.86-0.315-1.215-0.564c-0.293-0.204-0.416-0.479-0.611-0.817
		c-0.146-0.255,0.021-0.636,0.021-1.101v-0.811c1,0.276,2.18,0.543,3.182,0.794c1.115,0.278,1.804,0.58,2.527,0.898
		C530.268,543.528,530.571,543.742,530.721,543.87z M603.655,543.488c-0.224,0.011-0.44,0.028-0.675,0.028
		c-0.422,0-0.722-0.025-0.932-0.054c-0.028-0.209-0.049-0.513-0.049-0.934V529h1.764c-0.009,0.031-0.021,0.061-0.031,0.092
		c-0.694,2.32-1.046,4.756-1.046,7.238C602.687,538.791,603.018,541.196,603.655,543.488z M627.548,536.521
		c0,1.172-0.11,2.317-0.327,3.404c-0.191,0.956-0.505,1.804-0.933,2.521c-0.35,0.586-0.823,1.06-1.408,1.408
		c-0.541,0.322-1.33,0.493-2.281,0.493c-0.863,0-1.576-0.169-2.117-0.503c-0.64-0.395-1.182-0.925-1.61-1.574
		c-0.471-0.714-0.821-1.554-1.041-2.498c-0.247-1.061-0.373-2.132-0.373-3.187c0-1.154,0.117-2.271,0.35-3.32
		c0.203-0.926,0.529-1.75,0.969-2.447c0.368-0.584,0.868-1.063,1.487-1.424c0.577-0.336,1.363-0.508,2.336-0.508
		c0.921,0,1.667,0.166,2.216,0.494c0.617,0.367,1.121,0.85,1.493,1.426c0.422,0.656,0.729,1.455,0.913,2.375
		C627.438,534.268,627.548,535.392,627.548,536.521z M587,542h-18.121c0.046-0.02,0.092-0.036,0.139-0.057
		c6.643-2.895,12.771-8.055,17.566-12.943H587V542z M514.466,538.563c0.673,0.453,1.401,0.438,2.178,1.438h-4.612h-0.881
		c-0.544,0-1.064-0.002-1.442,0.391c-0.377,0.393-0.578,0.698-0.557,1.242l0.035,0.88c0.013,0.327,0.059,0.632,0.088,0.949
		c-0.39,0.035-0.799,0.055-1.226,0.055c-0.421,0-0.745-0.025-0.954-0.054c-0.029-0.209-0.095-0.513-0.095-0.934V529h2.999
		c-0.015,0.29-0.048,0.568-0.048,0.867c0,1.965,0.436,3.748,1.294,5.186C512.055,536.414,513.139,537.67,514.466,538.563z"/>
	<g>
		<g>
			<path fill="#CC138A" d="M541.72,538.989c0,0,1.252-13.163,17.324-20.167c16.072-7.002,35.985-3.03,35.985-3.03l-0.146,0.064
				c-0.007,0.009-0.015,0.02-0.022,0.03l0.169-0.095c0,0-12.32,18.093-26.811,24.406c-5.073,2.211-9.492,2.982-13.191,2.98
				c-8.6-0.005-8.909-0.001-8.909-0.001L541.72,538.989z"/>
		</g>
		<g>
			<path fill="#F0A836" d="M583.284,500.056c0,0-4.049,21.511-14.801,33.097c-7.85,8.459-15.595,10.044-20.28,10.05
				c-2.785,0.003-4.276-0.007-4.276-0.007l-0.212-0.545c0,0-4.12-12.564,7.805-25.414
				C563.445,504.386,583.284,500.056,583.284,500.056"/>
		</g>
		<g>
			<path fill="#A4CDC6" d="M566.661,489.701c0,0-17.185,10.818-24.03,26.957c-6.846,16.141,1.301,26.554,1.301,26.554
				s12.879-0.414,20.064-17.353C570.168,511.309,566.661,489.701,566.661,489.701z"/>
		</g>
		<g>
			<path fill="#a8c924" d="M543.943,485.073c0,0-11.596,16.669-11.596,34.2c0,17.532,11.566,23.938,11.566,23.938
				s11.694-5.41,11.694-23.81C555.608,503.596,543.943,485.073,543.943,485.073z"/>
		</g>
		<path fill="#FFFFFF" d="M425.828,553.986h-12.275l-0.217-0.524c-0.32-0.776-0.563-1.644-0.723-2.577
			c-0.151-0.88-0.283-1.821-0.391-2.798c-0.107-0.968-0.195-1.97-0.26-2.979c-0.062-0.974-0.156-1.909-0.279-2.778
			c-0.314-2.189-0.965-3.792-1.934-4.762c-0.939-0.938-2.564-1.413-4.834-1.413h-9.187v17.831H384v-47.329h25.455
			c2.143,0,4.109,0.354,5.844,1.052c1.738,0.701,3.25,1.676,4.496,2.898c1.25,1.227,2.217,2.679,2.877,4.314
			c0.655,1.629,0.988,3.37,0.988,5.174c0,2.822-0.608,5.308-1.807,7.39c-0.953,1.653-2.379,3.006-4.252,4.038
			c0.601,0.301,1.14,0.656,1.611,1.066c0.887,0.771,1.619,1.703,2.178,2.772c0.545,1.044,0.947,2.183,1.197,3.384
			c0.24,1.161,0.406,2.348,0.494,3.528c0.043,0.742,0.087,1.599,0.129,2.583c0.041,0.948,0.115,1.93,0.221,2.919
			c0.101,0.956,0.266,1.896,0.49,2.792c0.206,0.826,0.514,1.522,0.916,2.069L425.828,553.986z M414.707,552.291h8.004
			c-0.172-0.406-0.317-0.845-0.434-1.312c-0.244-0.973-0.423-1.99-0.531-3.024c-0.109-1.023-0.187-2.042-0.229-3.024
			c-0.043-0.974-0.085-1.821-0.127-2.544c-0.082-1.094-0.238-2.208-0.463-3.297c-0.219-1.048-0.568-2.038-1.041-2.943
			c-0.459-0.88-1.06-1.646-1.785-2.276c-0.709-0.615-1.63-1.083-2.738-1.389l-0.621-0.173v-1.346l0.533-0.214
			c2.362-0.944,4.082-2.327,5.109-4.11c1.048-1.82,1.58-4.021,1.58-6.543c0-1.586-0.292-3.113-0.866-4.541
			c-0.571-1.418-1.409-2.676-2.491-3.738c-1.086-1.065-2.412-1.918-3.941-2.535c-1.532-0.615-3.286-0.929-5.211-0.929h-23.76v43.938
			h8.339V534.46h10.882c2.734,0,4.764,0.642,6.032,1.909c1.235,1.236,2.046,3.16,2.413,5.721c0.131,0.913,0.229,1.893,0.295,2.91
			c0.063,0.982,0.146,1.958,0.252,2.9c0.104,0.943,0.23,1.852,0.376,2.699C414.387,551.201,414.528,551.769,414.707,552.291z
			 M405.875,528.996h-11.841v-14.541h11.841c2.454,0,4.371,0.573,5.695,1.705c1.363,1.165,2.055,3.006,2.055,5.47
			c0,2.546-0.689,4.438-2.048,5.624C410.252,528.41,408.333,528.996,405.875,528.996z M395.729,527.301h10.146
			c2.037,0,3.58-0.445,4.588-1.324c0.973-0.85,1.467-2.313,1.467-4.347c0-1.946-0.491-3.353-1.461-4.181
			c-1.009-0.861-2.555-1.299-4.594-1.299h-10.146V527.301z"/>
		<path fill="#FFFFFF" d="M437.319,554.882c-2.53,0-4.653-0.356-6.308-1.059c-1.684-0.714-3.035-1.728-4.018-3.014
			c-0.968-1.268-1.654-2.821-2.039-4.619c-0.374-1.732-0.563-3.674-0.563-5.77v-21.173h10.771v19.511
			c0,2.548,0.395,4.445,1.173,5.642c0.713,1.095,1.953,1.627,3.795,1.627c2.21,0,3.745-0.61,4.692-1.867
			c0.989-1.313,1.49-3.582,1.49-6.744v-18.168h10.771v34.738h-10.323v-3.147c-0.988,1.101-2.141,1.977-3.445,2.614
			C441.374,554.401,439.356,554.882,437.319,554.882z M426.087,520.943v19.478c0,1.976,0.177,3.797,0.524,5.413
			c0.334,1.552,0.916,2.88,1.73,3.946c0.801,1.049,1.923,1.885,3.332,2.483c1.444,0.612,3.344,0.923,5.646,0.923
			c1.777,0,3.544-0.423,5.253-1.257c1.677-0.819,3.064-2.11,4.123-3.836l0.248-0.404h1.514v4.602h6.933v-31.348h-7.38v16.473
			c0,3.589-0.6,6.128-1.832,7.765c-1.272,1.688-3.307,2.542-6.047,2.542c-2.426,0-4.181-0.807-5.217-2.397
			c-0.973-1.497-1.446-3.645-1.446-6.566v-17.815H426.087z"/>
		<path fill="#FFFFFF" d="M470.105,554.882c-2.531,0-4.652-0.356-6.307-1.059c-1.684-0.714-3.035-1.728-4.018-3.014
			c-0.968-1.268-1.654-2.821-2.041-4.619c-0.373-1.731-0.563-3.673-0.563-5.77v-21.173h10.771v19.511
			c0,2.548,0.395,4.445,1.174,5.642c0.712,1.095,1.953,1.627,3.795,1.627c2.209,0,3.744-0.61,4.692-1.867
			c0.989-1.313,1.49-3.582,1.49-6.744v-18.168h10.771v34.738h-10.323v-3.147c-0.986,1.101-2.14,1.977-3.446,2.614
			C474.16,554.401,472.143,554.882,470.105,554.882z M458.874,520.943v19.478c0,1.978,0.177,3.799,0.524,5.413
			c0.334,1.552,0.915,2.88,1.73,3.946c0.801,1.05,1.922,1.885,3.332,2.483c1.443,0.612,3.343,0.923,5.645,0.923
			c1.777,0,3.545-0.423,5.253-1.257c1.678-0.819,3.065-2.11,4.123-3.836l0.248-0.404h1.514v4.602h6.933v-31.348h-7.38v16.473
			c0,3.588-0.599,6.127-1.832,7.765c-1.272,1.688-3.307,2.542-6.046,2.542c-2.426,0-4.182-0.807-5.217-2.397
			c-0.974-1.497-1.447-3.645-1.447-6.566v-17.815H458.874z"/>
		<path fill="#FFFFFF" d="M505.576,554.37c-1.439,0-2.826-0.1-4.122-0.297c-1.358-0.207-2.581-0.632-3.632-1.262
			c-1.087-0.652-1.954-1.567-2.578-2.72c-0.619-1.143-0.933-2.633-0.933-4.431v-18.646h-5.497v-7.768h5.497v-9.906h10.771v9.906
			h6.647v7.768h-6.647v15.514c0,1.76,0.363,2.313,0.52,2.468c0.155,0.157,0.707,0.52,2.468,0.52c0.962,0,1.852-0.081,2.646-0.239
			l1.014-0.203v8.848l-0.708,0.117c-0.791,0.133-1.686,0.222-2.658,0.267C507.405,554.349,506.468,554.37,505.576,554.37z
			 M490.51,525.32h5.497v20.341c0,1.513,0.245,2.731,0.729,3.623c0.483,0.895,1.125,1.572,1.96,2.073
			c0.859,0.517,1.874,0.865,3.014,1.039c1.986,0.304,4.187,0.324,6.578,0.215c0.622-0.028,1.207-0.076,1.747-0.143v-5.368
			c-0.622,0.073-1.278,0.111-1.965,0.111c-1.785,0-2.984-0.332-3.667-1.016c-0.684-0.683-1.016-1.882-1.016-3.667V525.32h6.647
			v-4.377h-6.647v-9.906h-7.38v9.906h-5.497V525.32z"/>
		<path fill="#FFFFFF" d="M527.563,554.882c-1.968,0-3.918-0.2-5.799-0.594c-1.927-0.403-3.667-1.098-5.173-2.065
			c-1.53-0.981-2.802-2.287-3.779-3.881c-0.989-1.608-1.536-3.596-1.627-5.907l-0.034-0.881h10.357v0.848
			c0,0.827,0.166,1.534,0.493,2.101c0.341,0.593,0.784,1.082,1.318,1.456c0.553,0.387,1.202,0.678,1.929,0.863
			c1.292,0.332,2.677,0.415,4.214,0.088c0.62-0.131,1.185-0.338,1.683-0.614c0.471-0.262,0.851-0.6,1.16-1.031
			c0.282-0.391,0.418-0.887,0.418-1.52c0-0.466-0.148-0.838-0.468-1.172c-0.39-0.406-0.976-0.783-1.741-1.12
			c-0.824-0.361-1.864-0.701-3.094-1.008c-1.239-0.311-2.691-0.642-4.314-0.984c-1.348-0.303-2.674-0.664-3.953-1.077
			c-1.327-0.428-2.528-1-3.568-1.702c-1.08-0.727-1.962-1.655-2.619-2.762c-0.672-1.126-1.014-2.509-1.014-4.108
			c0-2.234,0.46-4.133,1.367-5.645c0.902-1.504,2.111-2.701,3.594-3.558c1.439-0.833,3.078-1.425,4.87-1.761
			c3.494-0.656,7.31-0.667,10.774,0.034c1.773,0.36,3.381,0.978,4.779,1.833c1.423,0.873,2.621,2.047,3.56,3.488
			c0.946,1.455,1.519,3.297,1.7,5.473l0.076,0.918h-10.337l-0.058-0.785c-0.106-1.445-0.605-2.379-1.526-2.856
			c-1.066-0.552-2.354-0.831-3.828-0.831c-0.479,0-1.009,0.029-1.57,0.09c-0.509,0.055-0.974,0.173-1.383,0.351
			c-0.372,0.163-0.679,0.39-0.936,0.695c-0.21,0.249-0.313,0.604-0.313,1.084c0,0.563,0.19,0.988,0.599,1.337
			c0.51,0.438,1.199,0.803,2.05,1.086c0.923,0.309,1.998,0.59,3.195,0.838c1.214,0.25,2.489,0.531,3.79,0.835
			c1.34,0.303,2.669,0.677,3.947,1.109c1.33,0.451,2.534,1.06,3.577,1.808c1.073,0.77,1.95,1.742,2.606,2.889
			c0.668,1.171,1.007,2.613,1.007,4.287c0,2.317-0.48,4.302-1.429,5.897c-0.938,1.579-2.182,2.868-3.693,3.83
			c-1.485,0.944-3.203,1.628-5.104,2.031C531.406,554.682,529.486,554.882,527.563,554.882z M512.939,543.249
			c0.164,1.639,0.605,3.05,1.316,4.205c0.844,1.375,1.938,2.499,3.25,3.342c1.333,0.855,2.882,1.473,4.605,1.833
			c3.489,0.731,7.271,0.749,10.805,0c1.702-0.36,3.231-0.967,4.546-1.803c1.285-0.818,2.344-1.916,3.145-3.265
			c0.79-1.331,1.191-3.024,1.191-5.032c0-1.376-0.264-2.535-0.783-3.446c-0.534-0.933-1.249-1.725-2.123-2.353
			c-0.907-0.65-1.961-1.182-3.133-1.579c-1.223-0.413-2.495-0.771-3.782-1.063c-1.292-0.301-2.554-0.578-3.755-0.826
			c-1.263-0.262-2.402-0.561-3.388-0.889c-1.06-0.354-1.939-0.826-2.617-1.407c-0.79-0.677-1.19-1.56-1.19-2.625
			c0-0.884,0.239-1.616,0.711-2.177c0.423-0.501,0.945-0.891,1.555-1.157c0.569-0.247,1.201-0.408,1.88-0.481
			c0.621-0.066,1.211-0.1,1.751-0.1c1.747,0,3.297,0.344,4.608,1.021c1.271,0.658,2.057,1.818,2.341,3.451h6.929
			c-0.222-1.489-0.666-2.756-1.327-3.771c-0.8-1.229-1.816-2.228-3.023-2.967c-1.229-0.753-2.652-1.298-4.23-1.618
			c-3.25-0.656-6.844-0.645-10.125-0.029c-1.603,0.301-3.061,0.826-4.334,1.563c-1.23,0.711-2.236,1.708-2.989,2.962
			c-0.746,1.244-1.125,2.85-1.125,4.772c0,1.289,0.261,2.379,0.775,3.24c0.528,0.891,1.238,1.638,2.109,2.225
			c0.909,0.612,1.966,1.115,3.142,1.494c1.23,0.396,2.507,0.745,3.794,1.034c1.633,0.345,3.105,0.681,4.365,0.995
			c1.32,0.331,2.452,0.701,3.363,1.102c0.971,0.427,1.739,0.932,2.284,1.499c0.623,0.652,0.938,1.44,0.938,2.345
			c0,0.987-0.248,1.832-0.736,2.509c-0.451,0.63-1.029,1.144-1.715,1.523c-0.644,0.358-1.368,0.625-2.151,0.791
			c-1.786,0.382-3.446,0.293-4.988-0.104c-0.925-0.236-1.759-0.611-2.48-1.116c-0.74-0.519-1.35-1.19-1.814-1.998
			c-0.354-0.612-0.579-1.315-0.672-2.1H512.939z"/>
		<g>
			<path fill="#FFFFFF" d="M554.422,553.986h-11.729v-11.538h11.729V553.986z M544.388,552.291h8.338v-8.146h-8.338V552.291z"/>
		</g>
		<path fill="#FFFFFF" d="M588.615,553.986h-33.971v-47.329h11.729v37.198h22.242V553.986z M556.34,552.291h30.58v-6.74h-22.242
			v-37.198h-8.338V552.291z"/>
		<path fill="#FFFFFF" d="M600.485,554.37c-1.439,0-2.827-0.1-4.122-0.297c-1.36-0.207-2.582-0.632-3.633-1.262
			c-1.087-0.653-1.955-1.568-2.578-2.721c-0.618-1.14-0.932-2.631-0.932-4.43v-18.646h-5.497v-7.768h5.497v-9.906h10.77v9.906h6.648
			v7.768h-6.648v15.514c0,1.759,0.363,2.313,0.52,2.469c0.155,0.155,0.708,0.519,2.468,0.519c0.962,0,1.852-0.081,2.647-0.239
			l1.014-0.203v8.848l-0.709,0.117c-0.791,0.133-1.685,0.222-2.657,0.267C602.313,554.349,601.376,554.37,600.485,554.37z
			 M585.419,525.32h5.497v20.341c0,1.514,0.244,2.732,0.728,3.623c0.483,0.895,1.125,1.572,1.96,2.073
			c0.859,0.517,1.874,0.865,3.015,1.039c1.986,0.304,4.185,0.324,6.577,0.215c0.622-0.028,1.207-0.076,1.748-0.143v-5.368
			c-0.622,0.073-1.279,0.111-1.966,0.111c-1.784,0-2.983-0.332-3.667-1.015c-0.684-0.685-1.016-1.885-1.016-3.668V525.32h6.648
			v-4.377h-6.648v-9.906h-7.379v9.906h-5.497V525.32z"/>
		<path fill="#FFFFFF" d="M620.361,554.882c-2.64,0-4.978-0.528-6.947-1.568c-1.958-1.035-3.602-2.44-4.887-4.176
			c-1.27-1.716-2.239-3.709-2.881-5.925c-0.638-2.197-0.96-4.513-0.96-6.883c0-2.287,0.323-4.529,0.962-6.666
			c0.644-2.154,1.615-4.085,2.889-5.738c1.285-1.669,2.916-3.027,4.849-4.037c1.945-1.019,4.228-1.535,6.784-1.535
			c2.077,0,4.08,0.447,5.953,1.327c1.186,0.558,2.224,1.286,3.105,2.177v-15.2H640v47.329h-10.323v-2.685
			c-0.902,0.971-1.953,1.736-3.143,2.287C624.68,554.446,622.603,554.882,620.361,554.882z M620.17,520.049
			c-2.28,0-4.298,0.451-5.998,1.342c-1.714,0.896-3.157,2.098-4.292,3.568c-1.146,1.489-2.023,3.235-2.607,5.19
			c-0.591,1.979-0.891,4.058-0.891,6.181c0,2.211,0.3,4.367,0.893,6.411c0.586,2.021,1.466,3.834,2.615,5.388
			c1.133,1.53,2.585,2.771,4.317,3.686c1.723,0.91,3.793,1.372,6.154,1.372c1.994,0,3.831-0.382,5.461-1.137
			c1.58-0.731,2.874-1.931,3.845-3.563l0.246-0.414h1.459v4.218h6.933v-43.938h-7.381v16.618h-1.442l-0.25-0.396
			c-0.93-1.471-2.218-2.602-3.829-3.359C623.756,520.441,621.995,520.049,620.17,520.049z M622.599,548.043
			c-1.561,0-2.925-0.354-4.057-1.054c-1.102-0.678-2.028-1.581-2.755-2.684c-0.712-1.078-1.235-2.321-1.556-3.692
			c-0.312-1.334-0.47-2.689-0.47-4.027c0-1.422,0.146-2.805,0.437-4.114c0.294-1.343,0.782-2.563,1.451-3.624
			c0.688-1.092,1.614-1.981,2.751-2.646c1.149-0.671,2.563-1.011,4.198-1.011c1.597,0,2.979,0.342,4.108,1.016
			c1.111,0.662,2.022,1.537,2.708,2.602c0.673,1.045,1.153,2.272,1.429,3.648c0.266,1.324,0.399,2.693,0.399,4.064
			c0,1.414-0.134,2.804-0.399,4.129c-0.274,1.37-0.739,2.61-1.382,3.688c-0.667,1.12-1.572,2.025-2.69,2.691
			C625.642,547.701,624.238,548.043,622.599,548.043z M622.599,526.887c-1.332,0-2.457,0.264-3.344,0.78
			c-0.899,0.524-1.63,1.226-2.171,2.084c-0.563,0.896-0.978,1.933-1.23,3.085c-0.264,1.191-0.396,2.451-0.396,3.75
			c0,1.209,0.144,2.434,0.426,3.642c0.273,1.176,0.718,2.233,1.319,3.145c0.59,0.895,1.34,1.626,2.229,2.175
			c0.861,0.531,1.927,0.801,3.167,0.801c1.33,0,2.442-0.261,3.306-0.775c0.873-0.521,1.58-1.228,2.102-2.103
			c0.544-0.911,0.939-1.972,1.176-3.151c0.243-1.217,0.366-2.494,0.366-3.797c0-1.26-0.123-2.516-0.366-3.732
			c-0.233-1.166-0.635-2.197-1.191-3.063c-0.543-0.842-1.267-1.536-2.151-2.064C624.976,527.148,623.886,526.887,622.599,526.887z"
			/>
		<g>
			<rect x="548.814" y="564.385" fill="#A4CDC6" width="4.394" height="4.395"/>
		</g>
		<g>
			<rect x="523.674" y="574.457" fill="#a8c924" width="4.395" height="4.394"/>
		</g>
		<g>
			<rect x="533.742" y="569.422" fill="#a8c924" width="4.394" height="4.394"/>
		</g>
		<g>
			<rect x="553.851" y="569.418" fill="#A4CDC6" width="4.393" height="4.395"/>
		</g>
		<g>
			<rect x="528.705" y="569.423" fill="#a8c924" width="4.395" height="4.393"/>
		</g>
		<g>
			<rect x="558.946" y="569.407" fill="#A4CDC6" width="4.394" height="4.394"/>
		</g>
		<g>
			<rect x="563.936" y="569.433" fill="#A4CDC6" width="4.394" height="4.393"/>
		</g>
		<g>
			<rect x="563.936" y="574.466" fill="#A4CDC6" width="4.394" height="4.394"/>
		</g>
		<g>
			<rect x="533.711" y="559.341" fill="#a8c924" width="4.394" height="4.396"/>
		</g>
		<g>
			<rect x="528.705" y="574.457" fill="#a8c924" width="4.395" height="4.395"/>
		</g>
		<g>
			<rect x="543.78" y="564.385" fill="#A4CDC6" width="4.395" height="4.395"/>
		</g>
		<g>
			<rect x="533.711" y="564.376" fill="#a8c924" width="4.394" height="4.395"/>
		</g>
		<g>
			<rect x="553.849" y="564.386" fill="#A4CDC6" width="4.394" height="4.393"/>
		</g>
		<g>
			<rect x="543.78" y="559.35" fill="#A4CDC6" width="4.395" height="4.394"/>
		</g>
		<g>
			<rect x="563.913" y="559.334" fill="#F0A836" width="4.394" height="4.394"/>
		</g>
		<g>
			<rect x="568.948" y="574.441" fill="#F0A836" width="4.393" height="4.394"/>
		</g>
		<g>
			<rect x="568.971" y="579.487" fill="#F0A836" width="4.394" height="4.394"/>
		</g>
		<g>
			<rect x="584.073" y="579.486" fill="#CC138A" width="4.393" height="4.394"/>
		</g>
		<g>
			<rect x="568.971" y="584.521" fill="#F0A836" width="4.395" height="4.396"/>
		</g>
		<g>
			<rect x="568.971" y="564.372" fill="#F0A836" width="4.394" height="4.395"/>
		</g>
		<g>
			<rect x="568.946" y="569.413" fill="#F0A836" width="4.394" height="4.394"/>
		</g>
		<g>
			<rect x="568.971" y="559.339" fill="#F0A836" width="4.394" height="4.392"/>
		</g>
		<g>
			<rect x="584.073" y="574.452" fill="#CC138A" width="4.393" height="4.395"/>
		</g>
		<g>
			<rect x="589.118" y="579.486" fill="#CC138A" width="4.395" height="4.394"/>
		</g>
		<g>
			<rect x="518.64" y="574.468" fill="#a8c924" width="4.393" height="4.394"/>
		</g>
		<g>
			<rect x="538.745" y="559.342" fill="#a8c924" width="4.394" height="4.394"/>
		</g>
		<g>
			<rect x="594.165" y="579.486" fill="#CC138A" width="4.393" height="4.394"/>
		</g>
		<g>
			<rect x="594.165" y="584.521" fill="#CC138A" width="4.393" height="4.394"/>
		</g>
		<g>
			<rect x="584.073" y="569.418" fill="#CC138A" width="4.393" height="4.395"/>
		</g>
		<g>
			<rect x="573.993" y="569.418" fill="#CC138A" width="4.394" height="4.395"/>
		</g>
		<g>
			<rect x="579.038" y="569.418" fill="#CC138A" width="4.394" height="4.395"/>
		</g>
		<g>
			<rect x="558.883" y="559.326" fill="#F0A836" width="4.395" height="4.394"/>
		</g>
		<g>
			<rect x="553.839" y="559.349" fill="#F0A836" width="4.393" height="4.394"/>
		</g>
		<g>
			<rect x="548.804" y="559.35" fill="#F0A836" width="4.394" height="4.394"/>
		</g>
		<g>
			<rect x="548.805" y="554.315" fill="#F0A836" width="4.393" height="4.394"/>
		</g>
		<g>
			<rect x="543.78" y="554.315" fill="#A4CDC6" width="4.395" height="4.394"/>
		</g>
		<g>
			<rect x="563.936" y="579.5" fill="#A4CDC6" width="4.394" height="4.393"/>
		</g>
		<g>
			<rect x="563.936" y="584.533" fill="#A4CDC6" width="4.394" height="4.394"/>
		</g>
		<g>
			<rect x="508.59" y="574.48" fill="#a8c924" width="4.393" height="4.393"/>
		</g>
		<g>
			<rect x="523.705" y="584.53" fill="#a8c924" width="4.395" height="4.394"/>
		</g>
		<g>
			<rect x="523.674" y="579.484" fill="#a8c924" width="4.395" height="4.394"/>
		</g>
		<g>
			<rect x="508.621" y="584.524" fill="#a8c924" width="4.395" height="4.394"/>
		</g>
		<g>
			<rect x="508.59" y="579.479" fill="#a8c924" width="4.394" height="4.394"/>
		</g>
		<g>
			<rect x="513.624" y="574.468" fill="#a8c924" width="4.394" height="4.395"/>
		</g>
		<g>
			<path fill="#404041" d="M384.848,507.505h24.607c2.044,0,3.887,0.331,5.527,0.991s3.046,1.565,4.219,2.716
				c1.172,1.151,2.066,2.493,2.684,4.026c0.617,1.534,0.928,3.154,0.928,4.857c0,2.685-0.566,5.008-1.694,6.967
				c-1.13,1.961-2.972,3.451-5.528,4.475v0.127c1.235,0.342,2.258,0.863,3.068,1.566c0.809,0.703,1.469,1.545,1.98,2.523
				c0.512,0.981,0.885,2.035,1.119,3.164c0.233,1.13,0.393,2.27,0.479,3.42c0.043,0.725,0.086,1.577,0.129,2.557
				c0.041,0.98,0.117,1.971,0.223,2.972c0.106,1.001,0.277,1.972,0.512,2.908c0.233,0.938,0.585,1.726,1.055,2.364H414.12
				c-0.299-0.724-0.522-1.522-0.671-2.396c-0.15-0.873-0.277-1.789-0.384-2.748s-0.192-1.938-0.256-2.939s-0.159-1.95-0.288-2.845
				c-0.341-2.386-1.064-4.133-2.172-5.241c-1.109-1.107-2.92-1.661-5.434-1.661h-10.034v17.831h-10.034V507.505z M394.882,528.148
				h10.993c2.258,0,3.973-0.511,5.145-1.533s1.758-2.685,1.758-4.985c0-2.216-0.586-3.824-1.758-4.825s-2.887-1.502-5.145-1.502
				h-10.993V528.148z"/>
		</g>
		<g>
			<path fill="#404041" d="M456.237,553.139h-8.628v-4.602h-0.191c-1.15,1.876-2.643,3.26-4.475,4.154s-3.707,1.343-5.624,1.343
				c-2.429,0-4.421-0.331-5.976-0.991c-1.557-0.66-2.78-1.576-3.676-2.748c-0.895-1.171-1.523-2.599-1.885-4.282
				c-0.363-1.683-0.544-3.547-0.544-5.592v-20.325h9.076v18.663c0,2.728,0.437,4.761,1.31,6.104
				c0.873,1.342,2.375,2.013,4.506,2.013c2.471,0,4.261-0.734,5.369-2.204c1.107-1.471,1.662-3.888,1.662-7.255v-17.32h9.075
				V553.139z"/>
		</g>
		<g>
			<path fill="#404041" d="M489.023,553.139h-8.628v-4.602h-0.191c-1.15,1.876-2.643,3.26-4.474,4.154
				c-1.832,0.895-3.707,1.343-5.625,1.343c-2.428,0-4.421-0.331-5.976-0.991c-1.556-0.66-2.78-1.576-3.675-2.748
				c-0.895-1.171-1.523-2.599-1.886-4.282c-0.362-1.683-0.544-3.547-0.544-5.592v-20.325h9.076v18.663
				c0,2.728,0.437,4.761,1.311,6.104c0.873,1.342,2.375,2.013,4.506,2.013c2.471,0,4.26-0.734,5.369-2.204
				c1.107-1.471,1.661-3.888,1.661-7.255v-17.32h9.075V553.139z"/>
		</g>
		<g>
			<path fill="#404041" d="M504.234,520.096h6.647v6.072h-6.647v16.361c0,1.534,0.256,2.557,0.768,3.068
				c0.51,0.511,1.533,0.767,3.067,0.767c1.022,0,1.959-0.085,2.813-0.256v7.095c-0.767,0.128-1.62,0.213-2.558,0.256
				c-0.938,0.042-1.854,0.063-2.748,0.063c-1.406,0-2.738-0.096-3.994-0.288c-1.258-0.191-2.364-0.574-3.323-1.15
				c-0.958-0.575-1.716-1.374-2.269-2.396c-0.555-1.022-0.831-2.364-0.831-4.026v-19.493h-5.497v-6.072h5.497v-9.906h9.075V520.096z
				"/>
		</g>
		<g>
			<path fill="#404041" d="M520.66,542.401c0,0.981,0.201,1.822,0.607,2.525c0.404,0.702,0.926,1.277,1.565,1.726
				c0.639,0.447,1.373,0.777,2.205,0.99c0.83,0.213,1.693,0.319,2.588,0.319c0.639,0,1.312-0.073,2.013-0.224
				c0.703-0.148,1.343-0.383,1.918-0.703c0.576-0.319,1.055-0.744,1.438-1.278c0.384-0.532,0.576-1.203,0.576-2.013
				c0-0.682-0.234-1.268-0.703-1.758c-0.469-0.489-1.142-0.927-2.013-1.31c-0.874-0.385-1.95-0.735-3.229-1.055
				c-1.278-0.32-2.727-0.649-4.346-0.991c-1.321-0.297-2.61-0.648-3.867-1.055c-1.257-0.404-2.375-0.937-3.355-1.598
				c-0.98-0.66-1.769-1.491-2.364-2.492c-0.598-1.001-0.895-2.227-0.895-3.676c0-2.087,0.415-3.823,1.246-5.209
				c0.831-1.384,1.927-2.471,3.291-3.26c1.362-0.787,2.897-1.342,4.602-1.661s3.451-0.479,5.241-0.479s3.525,0.171,5.21,0.512
				c1.682,0.342,3.185,0.916,4.505,1.726c1.321,0.81,2.418,1.886,3.291,3.228s1.396,3.035,1.566,5.08h-8.629
				c-0.128-1.746-0.788-2.928-1.98-3.547c-1.193-0.617-2.6-0.926-4.219-0.926c-0.512,0-1.065,0.031-1.661,0.096
				c-0.598,0.063-1.141,0.203-1.63,0.415c-0.49,0.214-0.906,0.522-1.246,0.927c-0.342,0.405-0.512,0.949-0.512,1.63
				c0,0.81,0.298,1.47,0.895,1.981c0.597,0.511,1.375,0.927,2.333,1.246c0.959,0.319,2.055,0.607,3.292,0.863
				c1.234,0.255,2.492,0.533,3.771,0.83c1.319,0.299,2.61,0.661,3.866,1.088c1.257,0.426,2.375,0.989,3.355,1.692
				c0.98,0.704,1.768,1.577,2.365,2.621c0.596,1.044,0.895,2.333,0.895,3.866c0,2.174-0.437,3.995-1.311,5.465
				c-0.873,1.47-2.012,2.652-3.419,3.547c-1.406,0.895-3.015,1.534-4.825,1.918c-1.812,0.383-3.653,0.575-5.528,0.575
				c-1.918,0-3.793-0.192-5.625-0.575c-1.832-0.384-3.462-1.033-4.889-1.95c-1.428-0.915-2.601-2.119-3.515-3.61
				c-0.917-1.491-1.418-3.323-1.503-5.497H520.66z"/>
		</g>
		<g>
			<path fill="#404041" d="M555.492,507.505h10.033v37.198h22.242v8.436h-32.275V507.505z"/>
		</g>
		<g>
			<path fill="#404041" d="M599.143,520.096h6.648v6.072h-6.648v16.361c0,1.534,0.257,2.557,0.768,3.068
				c0.512,0.511,1.533,0.767,3.067,0.767c1.022,0,1.96-0.085,2.813-0.256v7.095c-0.768,0.128-1.621,0.213-2.558,0.256
				c-0.938,0.042-1.854,0.063-2.748,0.063c-1.406,0-2.737-0.096-3.994-0.288c-1.258-0.191-2.365-0.574-3.324-1.15
				c-0.958-0.575-1.716-1.374-2.269-2.396c-0.555-1.022-0.83-2.364-0.83-4.026v-19.493h-5.497v-6.072h5.497v-9.906h9.074V520.096z"
				/>
		</g>
		<g>
			<path fill="#404041" d="M630.524,548.921h-0.129c-1.064,1.789-2.471,3.09-4.218,3.898c-1.748,0.809-3.686,1.215-5.816,1.215
				c-2.515,0-4.696-0.491-6.551-1.471c-1.854-0.979-3.388-2.289-4.602-3.931c-1.214-1.64-2.131-3.524-2.749-5.656
				c-0.617-2.13-0.926-4.346-0.926-6.646c0-2.215,0.309-4.355,0.926-6.424c0.618-2.065,1.535-3.888,2.749-5.465
				c1.214-1.575,2.737-2.844,4.57-3.803c1.831-0.958,3.963-1.438,6.391-1.438c1.959,0,3.824,0.416,5.593,1.246
				c1.767,0.831,3.164,2.057,4.186,3.676h0.128v-16.618h9.076v45.634h-8.628V548.921z M630.013,532.623
				c-0.256-1.278-0.693-2.396-1.31-3.355c-0.619-0.959-1.429-1.736-2.43-2.333s-2.227-0.896-3.675-0.896
				c-1.492,0-2.748,0.299-3.771,0.896c-1.023,0.597-1.844,1.386-2.461,2.364c-0.618,0.981-1.065,2.1-1.342,3.355
				c-0.277,1.258-0.416,2.568-0.416,3.932c0,1.278,0.148,2.557,0.447,3.835c0.299,1.277,0.777,2.418,1.438,3.419
				c0.659,1.001,1.491,1.812,2.492,2.429c1.001,0.618,2.206,0.927,3.611,0.927c1.491,0,2.737-0.298,3.739-0.895
				c1.001-0.597,1.8-1.396,2.396-2.396s1.022-2.142,1.278-3.42s0.383-2.599,0.383-3.963
				C630.396,535.201,630.269,533.9,630.013,532.623z"/>
		</g>
		<g>
			<path fill="#404041" d="M543.54,543.297h10.033v9.842H543.54V543.297z"/>
		</g>
	</g>
</g>
</svg>
