<?xml version="1.0" encoding="utf-8"?>
<!-- Generator: Adobe Illustrator 16.0.0, SVG Export Plug-In . SVG Version: 6.00 Build 0)  -->
<!DOCTYPE svg PUBLIC "-//W3C//DTD SVG 1.1//EN" "http://www.w3.org/Graphics/SVG/1.1/DTD/svg11.dtd">
<svg version="1.1" id="Layer_1" xmlns="http://www.w3.org/2000/svg" xmlns:xlink="http://www.w3.org/1999/xlink" x="0px" y="0px"
	 width="512px" height="256px" viewBox="0 0 512 256" enable-background="new 0 0 512 256" xml:space="preserve">
<pattern  y="-128" width="64.5" height="65" patternUnits="userSpaceOnUse" id="ax" viewBox="0 -65 64.5 65" overflow="visible">
	<g>
		<polygon fill="none" points="0,0 64.5,0 64.5,-65 0,-65 		"/>
		<path fill="none" d="M0,0h64.5v-65H0V0z"/>
		<path fill="none" d="M0,0h64.5v-65H0V0z"/>
		<path fill="none" d="M0,0h64.5v-65H0V0z"/>
		<path fill="none" d="M0,0h64.5v-65H0V0z"/>
		<path fill="#404041" d="M0,0h64.5v-65H0V0z"/>
	</g>
</pattern>
<pattern  id="SVGID_1_" xlink:href="#ax" patternTransform="matrix(0.75 0 0 0.3751 1405 8351.5918)">
</pattern>
<path fill="url(#SVGID_1_)" d="M216,138v40h80v-40.031l-0.001-0.078C296.115,120.795,285,105.549,269,100.07V89h-0.14
	c-1.126-6-6.603-10.914-13.013-10.937C249.437,78.086,243.96,83,242.835,89H243v11.171C227,105.761,215.927,121,216.051,138H216z"/>
</svg>
