<svg xmlns="http://www.w3.org/2000/svg" width="512" height="512" viewBox="0 0 512 512"><style>.a{fill:#AAC446;}.b{fill:#F0A836;}</style><path d="M156 146.4c0 0 84.2 51.1 79.2 214.1 0 0 32.8-114 135.3-168.5" style="fill:none;stroke-width:20;stroke:#683100"/><path d="M321.6 212.9l6.2-4.7c-7-12.7-10.7-23.6-11-32.7 -0.2-3.9-0.1-6.9 0.4-8.8 0.5-1.9 1.7-3.5 3.5-4.7 1.8-1.2 3.4-2.1 4.7-2.7 1.3-0.6 2.9-1.2 4.6-1.8 1.8-0.5 3.4-0.6 5.1-0.3 1.6 0.4 2.8 1.1 3.5 2.3 0.7 1.2 1.9 5 3.5 11.3 1.6 6.4 3.4 11 5.3 13.9 3 4.5 6.1 5.7 9.4 3.5 2-1.3 3.1-3.6 3.4-6.9 0.3-3.3 0.1-7-0.4-11.1 -0.5-4.1-0.8-8.5-0.8-12.9 0-4.5 1-8.9 3.1-13.5 2.1-4.5 5.6-8.3 10.3-11.5 6.6-4.4 13.9-5 22-2 8.1 3 16 9 23.7 18 2.1-1.4 4.2-2.7 6.4-3.9 2.2-1.2 4.2-1.7 6-1.4 1.8 0.3 3.6 1.7 5.3 4.3l5 7.5c1.7 2.6 2.4 4.8 1.9 6.6 -0.6 2.4-3.6 5.4-9.3 9.1 5.7 10.1 9.1 18.7 10.4 25.8 1.3 7.1 0.2 11.8-3.2 14.1 -3.4 2.3-6.8 3.4-10.2 3.3 -3.4-0.1-5.6-0.9-6.7-2.5 -0.4-0.6-1.1-3-2.2-7.2 -1.1-4.2-2.5-7.7-4.3-10.5 -3.6-5.4-7.3-6.7-11.3-4.1 -1.9 1.3-2.8 3.7-2.7 7.4 0.1 3.7 0.6 7.9 1.6 12.5 1 4.7 1.7 9.4 2.3 14.3 0.6 4.9 0.1 9.8-1.5 14.5 -1.6 4.8-4.5 8.6-8.7 11.4 -8.1 5.4-16.9 6-26.2 2 -9.4-4.1-18.4-11.2-27.2-21.3 -4.1 2.5-7 4.2-8.7 5.2 -3.9 2.3-7.4 1.2-10.4-3.4l-5-7.5c-1.7-2.6-2.4-4.8-1.9-6.6C318 216.4 319.3 214.7 321.6 212.9z" class="a"/><path d="M175.7 75c1.9 0 4.1 1.6 6.5 4.6 2.5 3 3.5 5.5 3 7.5 -0.5 1.9-1.8 3.8-4.1 5.6l-19 15.4c3.3 2.9 5.5 5 6.7 6.5 3.9 4.8 5.7 10 5.5 15.5 11.1-3.5 21.1-8.8 30-15.9 8.8-7.1 14.6-17.8 17.1-31.9 0.4-1.6 1.2-2.9 2.5-4 1.3-1.1 3.3-1.2 5.8-0.5 3.6 0.8 7.4 3.7 11.4 8.7 4 5 5.2 10.9 3.4 17.8 -3.6 13.1-13 25.9-28.5 38.3 -5.9 4.8-14.7 9-26.3 12.8 -11.6 3.8-21.6 9.1-30 15.8 -5.2 4.2-10.4 10.8-15.6 19.9 -5.2 9.1-8.9 14.5-11 16.2 -2.2 1.7-4.9 2-8.2 0.9 -3.3-1.2-6.1-3.2-8.6-6.2 -2.4-3-3.8-6.3-4-9.8 -0.3-3.5 1.1-6.7 4.1-9.4 7.3-6.7 7.7-14 1.3-22 -2.1-2.7-5.4-5.7-9.8-9.1l-13.3 10.7c-2.3 1.8-4.3 2.7-6.1 2.6 -1.8-0.1-4-1.6-6.6-4.5 -2.5-3-3.5-5.5-3-7.5 0.5-1.9 1.8-3.8 4.1-5.6l8.8-7.1c-8.1-5.4-13.4-9.6-15.8-12.6 -18.2-22.5-10.5-47.3 23-74.3 16.8-13.6 33.4-22.3 49.8-26.3 4.3-1.1 7.8-1.3 10.5-0.8 2.6 0.6 5.6 2.9 8.9 6.9 3.3 4.1 5 7.6 5.1 10.6 0.1 3-0.5 5.2-1.7 6.6 -1.2 1.4-2.7 2.1-4.4 2 -5.5-0.1-11.3 0.9-17.5 3.2 -6.2 2.3-11.1 4.8-14.6 7.7 -3.5 2.9-5.6 6.3-6.2 10.3 -0.6 4 0.6 7.9 3.6 11.5 2.9 3.6 7.4 7.5 13.3 11.7l23.6-19C171.8 75.9 173.9 75 175.7 75z" class="a"/><path d="M269.7 197.1c0 0-49.9 54.2-12.4 170.2 0 0-29.8-95.6-114.8-113.5" style="fill:none;stroke-width:10;stroke:#683100"/><rect x="128.5" y="310" width="232" height="48" class="b"/><polygon points="316.5 486 172.5 486 148.5 358 340.5 358 " class="b"/><polygon points="316.5 486 172.5 486 148.5 358 340.5 358 " opacity="0.1"/><path d="M138 219.2c0.3-0.7 0.9-0.9 1.5-0.5 0.5 0.2 0.8 0.6 1.2 1.3l11.8 19.1 2.2-4.6c0.4-0.8 0.8-1.3 1.4-1.6 0.5-0.2 1.3-0.1 2.4 0.4 1.1 0.5 1.7 1.1 1.8 1.7 0.1 0.6 0 1.3-0.4 2.1l-2.6 5.3c1 0.5 1.7 0.8 2.2 1.1l2.7-5.5c0.4-0.8 0.8-1.3 1.4-1.6 0.5-0.2 1.3-0.1 2.4 0.4s1.7 1.1 1.8 1.7c0.1 0.6 0 1.3-0.4 2.1l-2.7 5.5 1 0.6c0.7 0.4 1.3 1.1 1.6 2 0.3 0.9 0.3 1.9-0.2 3 -0.8 2-1.9 4.4-3.3 7.2 -1.4 2.8-2.7 5.3-3.9 7.5 -0.6 1-1.3 1.7-2.3 2 -0.9 0.3-1.8 0.3-2.6 0l-1.1-0.5 -2.5 5.1c-0.4 0.8-0.8 1.3-1.4 1.5 -0.5 0.2-1.3 0.1-2.4-0.4 -1.1-0.5-1.7-1.1-1.8-1.7 -0.1-0.6 0-1.3 0.4-2.1l2.4-4.9 -2.2-1.1 -2.5 5c-0.4 0.8-0.8 1.3-1.4 1.5 -0.5 0.2-1.3 0.1-2.4-0.4 -1.1-0.5-1.7-1.1-1.8-1.7 -0.1-0.6 0-1.3 0.4-2.1l1.6-3.3 -19.2 1.6c-1 0.1-1.8 0.1-2.4-0.2 -1.7-0.8-2.2-2.1-1.4-3.8l8.6-17.8c0.5-1 1-1.7 1.6-2 0.6-0.3 1.5-0.6 2.8-0.9l8.3 0.2c1-0.2 1.6-0.5 1.8-0.8s0.1-1-0.3-1.8l-5.7-9.3c-0.4-0.9-0.4-1.9 0-2.8L138 219.2z" class="a"/><path d="M293.3 181.9c0.2 0.5 0 1.3-0.5 2.4 -0.6 1-1.2 1.6-1.8 1.7 -0.6 0.1-1.3-0.1-2.1-0.5l-9.5-5.2c-0.2 0.2-0.4 0.6-0.6 1 -0.3 0.5-0.4 0.8-0.5 1.1l9.6 5.3c0.8 0.4 1.3 0.9 1.5 1.4 0.2 0.5 0 1.3-0.5 2.4 -0.6 1-1.2 1.6-1.8 1.7 -0.6 0.1-1.3-0.1-2.1-0.5l-8-4.4c0.1 3.1 1.4 5.4 4 6.8 0.7 0.4 1.9 0.9 3.5 1.5 2 0.7 3.1 1.1 3.4 1.3 1.8 1 1.9 2.9 0.4 5.9 -1.2 2.2-2.8 3.1-4.7 2.7 -3.1-0.7-7.4-2.5-12.9-5.5 -11.4-6.2-16-14-13.8-23.4l-1.8-1c-0.8-0.4-1.3-0.9-1.5-1.4 -0.2-0.5 0-1.3 0.5-2.4 0.6-1 1.2-1.6 1.8-1.7 0.6-0.1 1.3 0.1 2.1 0.5l1 0.5 1.2-2.1 -1.1-0.6c-0.8-0.4-1.3-0.9-1.5-1.4s0-1.3 0.5-2.4c0.6-1 1.2-1.6 1.8-1.7 0.6-0.1 1.3 0.1 2.1 0.5l1.7 0.9c3.4-3.6 7.4-5.4 12-5.4s9.6 1.4 15.1 4.4c5.5 3 9.4 5.6 11.6 7.8 1.4 1.4 1.5 3.2 0.3 5.4 -1.6 2.9-3.3 3.9-5.1 2.9 -0.3-0.2-1.2-0.8-2.8-2 -1.5-1.2-2.7-2-3.3-2.3 -2.5-1.4-5.1-1.3-7.8 0.2l8.1 4.4C292.6 180.9 293.1 181.4 293.3 181.9z" class="a"/></svg>