<?xml version="1.0" encoding="utf-8"?>
<!-- Generator: Adobe Illustrator 16.0.0, SVG Export Plug-In . SVG Version: 6.00 Build 0)  -->
<!DOCTYPE svg PUBLIC "-//W3C//DTD SVG 1.1//EN" "http://www.w3.org/Graphics/SVG/1.1/DTD/svg11.dtd">
<svg version="1.1" id="Layer_1" xmlns="http://www.w3.org/2000/svg" xmlns:xlink="http://www.w3.org/1999/xlink" x="0px" y="0px"
	 width="512px" height="512px" viewBox="0 0 512 512" enable-background="new 0 0 512 512" xml:space="preserve">
<g>
	<path fill="none" stroke="#683100" stroke-width="15" stroke-linecap="round" stroke-miterlimit="10" d="M167.214,146.444
		c0,0,84.215,51.054,79.215,214.054c0,0,32.786-113.96,135.285-168.48"/>
	<path fill="#a8c924" d="M332.859,212.886l6.233-4.685c-7.01-12.662-10.669-23.555-10.979-32.682c-0.246-3.944-0.1-6.874,0.44-8.786
		c0.536-1.914,1.72-3.471,3.534-4.672c1.819-1.204,3.389-2.119,4.719-2.746c1.324-0.63,2.865-1.214,4.627-1.754
		c1.758-0.541,3.439-0.629,5.053-0.264c1.607,0.365,2.78,1.148,3.512,2.345c0.729,1.198,1.888,4.971,3.479,11.324
		c1.588,6.353,3.356,11.001,5.306,13.945c2.975,4.499,6.108,5.665,9.4,3.488c1.987-1.316,3.112-3.617,3.369-6.896
		c0.257-3.281,0.134-6.995-0.369-11.142c-0.504-4.146-0.771-8.451-0.795-12.914c-0.029-4.462,1.014-8.95,3.134-13.46
		c2.115-4.513,5.558-8.343,10.317-11.493c6.577-4.352,13.921-5.01,22.029-1.973c8.104,3.038,15.999,9.045,23.685,18.026
		c2.079-1.375,4.21-2.664,6.403-3.864c2.191-1.202,4.194-1.653,6.009-1.359c1.81,0.295,3.577,1.739,5.294,4.336l4.982,7.531
		c1.718,2.599,2.355,4.788,1.92,6.57c-0.56,2.358-3.648,5.399-9.273,9.121c5.663,10.069,9.138,18.659,10.424,25.773
		c1.281,7.114,0.217,11.804-3.202,14.066c-3.421,2.262-6.828,3.363-10.225,3.308c-3.397-0.056-5.64-0.905-6.729-2.548
		c-0.401-0.607-1.127-3.019-2.177-7.241c-1.053-4.222-2.49-7.718-4.323-10.487c-3.551-5.369-7.316-6.733-11.298-4.1
		c-1.904,1.261-2.822,3.732-2.747,7.417c0.073,3.685,0.591,7.854,1.552,12.506c0.961,4.653,1.729,9.434,2.303,14.345
		c0.573,4.91,0.073,9.751-1.497,14.524c-1.571,4.774-4.479,8.564-8.721,11.368c-8.138,5.383-16.885,6.036-26.238,1.959
		c-9.355-4.08-18.436-11.17-27.234-21.279c-4.097,2.461-6.996,4.193-8.696,5.196c-3.925,2.344-7.404,1.225-10.438-3.363
		l-4.981-7.531c-1.72-2.598-2.356-4.787-1.92-6.57C329.174,216.443,330.549,214.661,332.859,212.886z"/>
	<path fill="#a8c924" d="M186.964,75.03c1.884,0.024,4.058,1.557,6.517,4.601c2.458,3.047,3.451,5.534,2.977,7.456
		c-0.475,1.929-1.842,3.801-4.104,5.626l-19.014,15.353c3.285,2.866,5.526,5.034,6.717,6.508c3.889,4.816,5.714,9.996,5.482,15.538
		c11.149-3.479,21.146-8.792,29.988-15.933c8.846-7.141,14.56-17.757,17.136-31.854c0.351-1.578,1.187-2.905,2.515-3.976
		c1.327-1.072,3.255-1.247,5.781-0.529c3.594,0.834,7.395,3.73,11.399,8.692c4.008,4.962,5.15,10.899,3.424,17.81
		c-3.551,13.094-13.042,25.871-28.469,38.325c-5.896,4.761-14.66,9.036-26.29,12.827c-11.631,3.792-21.622,9.058-29.976,15.802
		c-5.209,4.206-10.404,10.836-15.592,19.893c-5.188,9.058-8.86,14.459-11.022,16.204c-2.161,1.745-4.89,2.038-8.176,0.88
		c-3.29-1.157-6.145-3.234-8.564-6.233c-2.419-2.997-3.757-6.259-4.01-9.791c-0.253-3.528,1.114-6.66,4.102-9.397
		c7.27-6.681,7.688-14,1.264-21.961c-2.144-2.653-5.412-5.693-9.806-9.128l-13.267,10.711c-2.262,1.827-4.306,2.709-6.145,2.647
		c-1.836-0.06-4.032-1.573-6.587-4.542c-2.459-3.045-3.451-5.529-2.978-7.458c0.473-1.923,1.838-3.798,4.102-5.625l8.844-7.14
		c-8.133-5.447-13.389-9.646-15.768-12.594c-18.168-22.502-10.5-47.282,23.011-74.339c16.805-13.566,33.41-22.349,49.825-26.348
		c4.333-1.065,7.82-1.324,10.456-0.774c2.635,0.552,5.602,2.867,8.893,6.943c3.294,4.08,4.98,7.629,5.063,10.644
		c0.084,3.02-0.489,5.228-1.714,6.621c-1.229,1.399-2.69,2.05-4.386,1.958c-5.463-0.132-11.303,0.929-17.518,3.185
		c-6.213,2.259-11.088,4.813-14.625,7.67c-3.539,2.855-5.59,6.301-6.151,10.324c-0.564,4.028,0.623,7.859,3.556,11.494
		c2.938,3.637,7.373,7.523,13.309,11.657l23.585-19.042C183.009,75.91,185.079,75.011,186.964,75.03z"/>
	<path fill="none" stroke="#683100" stroke-width="10" stroke-linecap="round" stroke-miterlimit="10" d="M280.931,197.142
		c0,0-49.888,54.167-12.433,170.213c0,0-29.831-95.646-114.784-113.515"/>
	<rect x="139.714" y="309.998" fill="#F0A836" width="231.999" height="48"/>
	<polygon fill="#F0A836" points="327.713,485.998 183.714,485.998 159.714,357.998 351.713,357.998 	"/>
	<polygon opacity="0.1" enable-background="new    " points="327.713,485.998 183.714,485.998 159.714,357.998 351.713,357.998 	"/>
	<path fill="#a8c924" d="M149.237,219.249c0.337-0.692,0.854-0.869,1.544-0.531c0.45,0.22,0.841,0.646,1.175,1.28l11.81,19.126
		l2.229-4.566c0.389-0.795,0.845-1.313,1.366-1.551c0.523-0.235,1.321-0.094,2.395,0.43c1.072,0.523,1.668,1.082,1.784,1.674
		c0.118,0.594-0.018,1.287-0.405,2.084l-2.608,5.346c0.97,0.473,1.688,0.845,2.155,1.115l2.685-5.502
		c0.388-0.795,0.844-1.313,1.366-1.551c0.523-0.235,1.321-0.094,2.394,0.43c1.073,0.524,1.668,1.082,1.785,1.674
		c0.118,0.595-0.018,1.288-0.405,2.084l-2.685,5.501l1.013,0.558c0.744,0.407,1.284,1.078,1.62,2.013
		c0.337,0.936,0.286,1.938-0.15,3.011c-0.824,2.039-1.911,4.443-3.263,7.211c-1.351,2.771-2.66,5.278-3.93,7.528
		c-0.575,1.005-1.335,1.662-2.28,1.973c-0.942,0.311-1.805,0.298-2.583-0.04l-1.063-0.453l-2.481,5.086
		c-0.389,0.796-0.839,1.306-1.354,1.523c-0.516,0.221-1.316,0.087-2.406-0.402c-1.072-0.522-1.667-1.081-1.785-1.675
		c-0.118-0.593,0.019-1.286,0.405-2.083l2.406-4.931l-2.182-1.063l-2.456,5.034c-0.389,0.797-0.839,1.305-1.354,1.523
		c-0.515,0.222-1.316,0.088-2.406-0.401c-1.072-0.522-1.667-1.081-1.785-1.675s0.018-1.287,0.406-2.084l1.621-3.321l-19.226,1.606
		c-1.05,0.131-1.833,0.07-2.353-0.184c-1.729-0.844-2.182-2.113-1.354-3.809l8.557-17.801c0.489-1.004,1.012-1.681,1.569-2.031
		c0.556-0.349,1.487-0.633,2.794-0.854l8.344,0.152c1.031-0.182,1.636-0.455,1.813-0.818c0.178-0.363,0.081-0.957-0.289-1.779
		l-5.722-9.346c-0.438-0.942-0.439-1.863,0-2.763L149.237,219.249z"/>
	<path fill="#a8c924" d="M304.494,181.889c0.213,0.534,0.035,1.324-0.536,2.372c-0.57,1.048-1.156,1.617-1.754,1.708
		c-0.599,0.09-1.285-0.077-2.062-0.5l-9.533-5.198c-0.163,0.218-0.373,0.564-0.631,1.037c-0.259,0.474-0.437,0.837-0.53,1.092
		l9.634,5.253c0.776,0.423,1.272,0.902,1.486,1.435c0.213,0.533,0.034,1.324-0.536,2.371c-0.572,1.048-1.157,1.617-1.754,1.708
		c-0.599,0.091-1.285-0.076-2.063-0.5l-8.012-4.368c0.096,3.122,1.428,5.382,3.996,6.784c0.676,0.368,1.856,0.858,3.54,1.47
		c1.991,0.691,3.141,1.12,3.444,1.285c1.824,0.995,1.944,2.947,0.358,5.854c-1.197,2.198-2.755,3.081-4.669,2.65
		c-3.094-0.679-7.396-2.52-12.904-5.524c-11.427-6.23-16.024-14.042-13.794-23.439l-1.774-0.967
		c-0.778-0.424-1.266-0.898-1.462-1.422c-0.197-0.523-0.026-1.319,0.512-2.385c0.57-1.047,1.155-1.617,1.754-1.708
		c0.598-0.091,1.285,0.076,2.063,0.5l0.962,0.525l1.162-2.13l-1.064-0.58c-0.777-0.425-1.266-0.898-1.462-1.422
		s-0.025-1.319,0.512-2.386c0.57-1.047,1.154-1.616,1.755-1.708c0.597-0.09,1.283,0.076,2.063,0.5l1.724,0.94
		c3.435-3.565,7.437-5.374,12.004-5.427c4.566-0.053,9.598,1.418,15.091,4.414c5.492,2.995,9.36,5.609,11.607,7.842
		c1.397,1.377,1.498,3.164,0.301,5.36c-1.586,2.908-3.291,3.863-5.114,2.868c-0.306-0.166-1.229-0.845-2.771-2.037
		c-1.544-1.192-2.652-1.973-3.328-2.341c-2.502-1.364-5.089-1.283-7.762,0.241l8.063,4.396
		C303.785,180.877,304.281,181.356,304.494,181.889z"/>
</g>
</svg>
