<svg xmlns="http://www.w3.org/2000/svg" xmlns:xlink="http://www.w3.org/1999/xlink" viewBox="0 0 1024 1024"><pattern y="1024" width="129" height="130" patternUnits="userSpaceOnUse" id="l" viewBox="0 -130 129 130" overflow="visible"><path fill="none" d="M0-130h129V0H0z"/><path fill="none" d="M0-130h129V0H0z"/><path fill="none" d="M0-130h129V0H0z"/><path fill="none" d="M0-130h129V0H0z"/><path fill="#404041" d="M0-130h129V0H0z"/></pattern><pattern y="1024" width="129" height="130" patternUnits="userSpaceOnUse" id="bg" viewBox="0 -130 129 130" overflow="visible"><path fill="none" d="M0-130h129V0H0z"/><path fill="none" d="M0-130h129V0H0z"/><path fill="none" d="M0-130h129V0H0z"/><path fill="none" d="M0-130h129V0H0z"/><path fill="#404041" d="M0-130h129V0H0z"/></pattern><pattern y="1024" width="129" height="130" patternUnits="userSpaceOnUse" id="bi" viewBox="0 -130 129 130" overflow="visible"><path fill="none" d="M0-130h129V0H0z"/><path fill="none" d="M0-130h129V0H0z"/><path fill="none" d="M0-130h129V0H0z"/><path fill="none" d="M0-130h129V0H0z"/><path fill="#404041" d="M0-130h129V0H0z"/></pattern><pattern y="1024" width="129" height="130" patternUnits="userSpaceOnUse" id="bk" viewBox="0 -130 129 130" overflow="visible"><path fill="none" d="M0-130h129V0H0z"/><path fill="none" d="M0-130h129V0H0z"/><path fill="none" d="M0-130h129V0H0z"/><path fill="none" d="M0-130h129V0H0z"/><path fill="#404041" d="M0-130h129V0H0z"/></pattern><pattern y="1024" width="129" height="130" patternUnits="userSpaceOnUse" id="bo" viewBox="0 -130 129 130" overflow="visible"><path fill="none" d="M0-130h129V0H0z"/><path fill="none" d="M0-130h129V0H0z"/><path fill="none" d="M0-130h129V0H0z"/><path fill="none" d="M0-130h129V0H0z"/><path fill="#404041" d="M0-130h129V0H0z"/></pattern><pattern y="1024" width="129" height="130" patternUnits="userSpaceOnUse" id="bq" viewBox="0 -130 129 130" overflow="visible"><path fill="none" d="M0-130h129V0H0z"/><path fill="none" d="M0-130h129V0H0z"/><path fill="none" d="M0-130h129V0H0z"/><path fill="none" d="M0-130h129V0H0z"/><path fill="#404041" d="M0-130h129V0H0z"/></pattern><pattern y="1024" width="129" height="130" patternUnits="userSpaceOnUse" id="o" viewBox="0 -130 129 130" overflow="visible"><path fill="none" d="M0-130h129V0H0z"/><path fill="none" d="M0-130h129V0H0z"/><path fill="none" d="M0-130h129V0H0z"/><path fill="none" d="M0-130h129V0H0z"/><path fill="#404041" d="M0-130h129V0H0z"/></pattern><pattern y="1024" width="129" height="130" patternUnits="userSpaceOnUse" id="bu" viewBox="0 -130 129 130" overflow="visible"><path fill="none" d="M0-130h129V0H0z"/><path fill="none" d="M0-130h129V0H0z"/><path fill="none" d="M0-130h129V0H0z"/><path fill="none" d="M0-130h129V0H0z"/><path fill="#404041" d="M0-130h129V0H0z"/></pattern><pattern y="1024" width="129" height="130" patternUnits="userSpaceOnUse" id="bw" viewBox="0 -130 129 130" overflow="visible"><path fill="none" d="M0-130h129V0H0z"/><path fill="none" d="M0-130h129V0H0z"/><path fill="none" d="M0-130h129V0H0z"/><path fill="none" d="M0-130h129V0H0z"/><path fill="#404041" d="M0-130h129V0H0z"/></pattern><pattern y="1024" width="129" height="130" patternUnits="userSpaceOnUse" id="bA" viewBox="0 -130 129 130" overflow="visible"><path fill="none" d="M0-130h129V0H0z"/><path fill="none" d="M0-130h129V0H0z"/><path fill="none" d="M0-130h129V0H0z"/><path fill="none" d="M0-130h129V0H0z"/><path fill="#404041" d="M0-130h129V0H0z"/></pattern><pattern y="1024" width="129" height="130" patternUnits="userSpaceOnUse" id="bC" viewBox="0 -130 129 130" overflow="visible"><path fill="none" d="M0-130h129V0H0z"/><path fill="none" d="M0-130h129V0H0z"/><path fill="none" d="M0-130h129V0H0z"/><path fill="none" d="M0-130h129V0H0z"/><path fill="#404041" d="M0-130h129V0H0z"/></pattern><pattern y="1024" width="129" height="130" patternUnits="userSpaceOnUse" id="bG" viewBox="0 -130 129 130" overflow="visible"><path fill="none" d="M0-130h129V0H0z"/><path fill="none" d="M0-130h129V0H0z"/><path fill="none" d="M0-130h129V0H0z"/><path fill="none" d="M0-130h129V0H0z"/><path fill="#404041" d="M0-130h129V0H0z"/></pattern><pattern y="1024" width="129" height="130" patternUnits="userSpaceOnUse" id="r" viewBox="0 -130 129 130" overflow="visible"><path fill="none" d="M0-130h129V0H0z"/><path fill="none" d="M0-130h129V0H0z"/><path fill="none" d="M0-130h129V0H0z"/><path fill="none" d="M0-130h129V0H0z"/><path fill="#404041" d="M0-130h129V0H0z"/></pattern><pattern y="1024" width="129" height="130" patternUnits="userSpaceOnUse" id="bI" viewBox="0 -130 129 130" overflow="visible"><path fill="none" d="M0-130h129V0H0z"/><path fill="none" d="M0-130h129V0H0z"/><path fill="none" d="M0-130h129V0H0z"/><path fill="none" d="M0-130h129V0H0z"/><path fill="#404041" d="M0-130h129V0H0z"/></pattern><pattern y="1024" width="129" height="130" patternUnits="userSpaceOnUse" id="bM" viewBox="0 -130 129 130" overflow="visible"><path fill="none" d="M0-130h129V0H0z"/><path fill="none" d="M0-130h129V0H0z"/><path fill="none" d="M0-130h129V0H0z"/><path fill="none" d="M0-130h129V0H0z"/><path fill="#404041" d="M0-130h129V0H0z"/></pattern><pattern y="1024" width="129" height="130" patternUnits="userSpaceOnUse" id="bO" viewBox="0 -130 129 130" overflow="visible"><path fill="none" d="M0-130h129V0H0z"/><path fill="none" d="M0-130h129V0H0z"/><path fill="none" d="M0-130h129V0H0z"/><path fill="none" d="M0-130h129V0H0z"/><path fill="#404041" d="M0-130h129V0H0z"/></pattern><pattern y="1024" width="129" height="130" patternUnits="userSpaceOnUse" id="bS" viewBox="0 -130 129 130" overflow="visible"><path fill="none" d="M0-130h129V0H0z"/><path fill="none" d="M0-130h129V0H0z"/><path fill="none" d="M0-130h129V0H0z"/><path fill="none" d="M0-130h129V0H0z"/><path fill="#404041" d="M0-130h129V0H0z"/></pattern><pattern y="1024" width="129" height="130" patternUnits="userSpaceOnUse" id="bU" viewBox="0 -130 129 130" overflow="visible"><path fill="none" d="M0-130h129V0H0z"/><path fill="none" d="M0-130h129V0H0z"/><path fill="none" d="M0-130h129V0H0z"/><path fill="none" d="M0-130h129V0H0z"/><path fill="#404041" d="M0-130h129V0H0z"/></pattern><pattern y="1024" width="129" height="130" patternUnits="userSpaceOnUse" id="bY" viewBox="0 -130 129 130" overflow="visible"><path fill="none" d="M0-130h129V0H0z"/><path fill="none" d="M0-130h129V0H0z"/><path fill="none" d="M0-130h129V0H0z"/><path fill="none" d="M0-130h129V0H0z"/><path fill="#404041" d="M0-130h129V0H0z"/></pattern><pattern y="1024" width="129" height="130" patternUnits="userSpaceOnUse" id="ca" viewBox="0 -130 129 130" overflow="visible"><path fill="none" d="M0-130h129V0H0z"/><path fill="none" d="M0-130h129V0H0z"/><path fill="none" d="M0-130h129V0H0z"/><path fill="none" d="M0-130h129V0H0z"/><path fill="#404041" d="M0-130h129V0H0z"/></pattern><pattern y="1024" width="129" height="130" patternUnits="userSpaceOnUse" id="cc" viewBox="0 -130 129 130" overflow="visible"><path fill="none" d="M0-130h129V0H0z"/><path fill="none" d="M0-130h129V0H0z"/><path fill="none" d="M0-130h129V0H0z"/><path fill="none" d="M0-130h129V0H0z"/><path fill="#404041" d="M0-130h129V0H0z"/></pattern><pattern y="1024" width="129" height="130" patternUnits="userSpaceOnUse" id="cg" viewBox="0 -130 129 130" overflow="visible"><path fill="none" d="M0-130h129V0H0z"/><path fill="none" d="M0-130h129V0H0z"/><path fill="none" d="M0-130h129V0H0z"/><path fill="none" d="M0-130h129V0H0z"/><path fill="#404041" d="M0-130h129V0H0z"/></pattern><pattern y="1024" width="129" height="130" patternUnits="userSpaceOnUse" id="ci" viewBox="0 -130 129 130" overflow="visible"><path fill="none" d="M0-130h129V0H0z"/><path fill="none" d="M0-130h129V0H0z"/><path fill="none" d="M0-130h129V0H0z"/><path fill="none" d="M0-130h129V0H0z"/><path fill="#404041" d="M0-130h129V0H0z"/></pattern><pattern y="1024" width="129" height="130" patternUnits="userSpaceOnUse" id="cm" viewBox="0 -130 129 130" overflow="visible"><path fill="none" d="M0-130h129V0H0z"/><path fill="none" d="M0-130h129V0H0z"/><path fill="none" d="M0-130h129V0H0z"/><path fill="none" d="M0-130h129V0H0z"/><path fill="#404041" d="M0-130h129V0H0z"/></pattern><pattern y="1024" width="129" height="130" patternUnits="userSpaceOnUse" id="co" viewBox="0 -130 129 130" overflow="visible"><path fill="none" d="M0-130h129V0H0z"/><path fill="none" d="M0-130h129V0H0z"/><path fill="none" d="M0-130h129V0H0z"/><path fill="none" d="M0-130h129V0H0z"/><path fill="#404041" d="M0-130h129V0H0z"/></pattern><pattern y="1024" width="129" height="130" patternUnits="userSpaceOnUse" id="u" viewBox="0 -130 129 130" overflow="visible"><path fill="none" d="M0-130h129V0H0z"/><path fill="none" d="M0-130h129V0H0z"/><path fill="none" d="M0-130h129V0H0z"/><path fill="none" d="M0-130h129V0H0z"/><path fill="#404041" d="M0-130h129V0H0z"/></pattern><pattern y="1024" width="129" height="130" patternUnits="userSpaceOnUse" id="cs" viewBox="0 -130 129 130" overflow="visible"><path fill="none" d="M0-130h129V0H0z"/><path fill="none" d="M0-130h129V0H0z"/><path fill="none" d="M0-130h129V0H0z"/><path fill="none" d="M0-130h129V0H0z"/><path fill="#404041" d="M0-130h129V0H0z"/></pattern><pattern y="1024" width="129" height="130" patternUnits="userSpaceOnUse" id="cu" viewBox="0 -130 129 130" overflow="visible"><path fill="none" d="M0-130h129V0H0z"/><path fill="none" d="M0-130h129V0H0z"/><path fill="none" d="M0-130h129V0H0z"/><path fill="none" d="M0-130h129V0H0z"/><path fill="#404041" d="M0-130h129V0H0z"/></pattern><pattern y="1024" width="129" height="130" patternUnits="userSpaceOnUse" id="cy" viewBox="0 -130 129 130" overflow="visible"><path fill="none" d="M0-130h129V0H0z"/><path fill="none" d="M0-130h129V0H0z"/><path fill="none" d="M0-130h129V0H0z"/><path fill="none" d="M0-130h129V0H0z"/><path fill="#404041" d="M0-130h129V0H0z"/></pattern><pattern y="1024" width="129" height="130" patternUnits="userSpaceOnUse" id="cA" viewBox="0 -130 129 130" overflow="visible"><path fill="none" d="M0-130h129V0H0z"/><path fill="none" d="M0-130h129V0H0z"/><path fill="none" d="M0-130h129V0H0z"/><path fill="none" d="M0-130h129V0H0z"/><path fill="#404041" d="M0-130h129V0H0z"/></pattern><pattern y="1024" width="129" height="130" patternUnits="userSpaceOnUse" id="cE" viewBox="0 -130 129 130" overflow="visible"><path fill="none" d="M0-130h129V0H0z"/><path fill="none" d="M0-130h129V0H0z"/><path fill="none" d="M0-130h129V0H0z"/><path fill="none" d="M0-130h129V0H0z"/><path fill="#404041" d="M0-130h129V0H0z"/></pattern><pattern y="1024" width="129" height="130" patternUnits="userSpaceOnUse" id="cG" viewBox="0 -130 129 130" overflow="visible"><path fill="none" d="M0-130h129V0H0z"/><path fill="none" d="M0-130h129V0H0z"/><path fill="none" d="M0-130h129V0H0z"/><path fill="none" d="M0-130h129V0H0z"/><path fill="#404041" d="M0-130h129V0H0z"/></pattern><pattern y="1024" width="129" height="130" patternUnits="userSpaceOnUse" id="x" viewBox="0 -130 129 130" overflow="visible"><path fill="none" d="M0-130h129V0H0z"/><path fill="none" d="M0-130h129V0H0z"/><path fill="none" d="M0-130h129V0H0z"/><path fill="none" d="M0-130h129V0H0z"/><path fill="#404041" d="M0-130h129V0H0z"/></pattern><pattern y="1024" width="129" height="130" patternUnits="userSpaceOnUse" id="cK" viewBox="0 -130 129 130" overflow="visible"><path fill="none" d="M0-130h129V0H0z"/><path fill="none" d="M0-130h129V0H0z"/><path fill="none" d="M0-130h129V0H0z"/><path fill="none" d="M0-130h129V0H0z"/><path fill="#404041" d="M0-130h129V0H0z"/></pattern><pattern y="1024" width="129" height="130" patternUnits="userSpaceOnUse" id="cM" viewBox="0 -130 129 130" overflow="visible"><path fill="none" d="M0-130h129V0H0z"/><path fill="none" d="M0-130h129V0H0z"/><path fill="none" d="M0-130h129V0H0z"/><path fill="none" d="M0-130h129V0H0z"/><path fill="#404041" d="M0-130h129V0H0z"/></pattern><pattern y="1024" width="129" height="130" patternUnits="userSpaceOnUse" id="cQ" viewBox="0 -130 129 130" overflow="visible"><path fill="none" d="M0-130h129V0H0z"/><path fill="none" d="M0-130h129V0H0z"/><path fill="none" d="M0-130h129V0H0z"/><path fill="none" d="M0-130h129V0H0z"/><path fill="#404041" d="M0-130h129V0H0z"/></pattern><pattern y="1024" width="129" height="130" patternUnits="userSpaceOnUse" id="cS" viewBox="0 -130 129 130" overflow="visible"><path fill="none" d="M0-130h129V0H0z"/><path fill="none" d="M0-130h129V0H0z"/><path fill="none" d="M0-130h129V0H0z"/><path fill="none" d="M0-130h129V0H0z"/><path fill="#404041" d="M0-130h129V0H0z"/></pattern><pattern y="1024" width="129" height="130" patternUnits="userSpaceOnUse" id="cU" viewBox="0 -130 129 130" overflow="visible"><path fill="none" d="M0-130h129V0H0z"/><path fill="none" d="M0-130h129V0H0z"/><path fill="none" d="M0-130h129V0H0z"/><path fill="none" d="M0-130h129V0H0z"/><path fill="#404041" d="M0-130h129V0H0z"/></pattern><pattern y="1024" width="129" height="130" patternUnits="userSpaceOnUse" id="cW" viewBox="0 -130 129 130" overflow="visible"><path fill="none" d="M0-130h129V0H0z"/><path fill="none" d="M0-130h129V0H0z"/><path fill="none" d="M0-130h129V0H0z"/><path fill="none" d="M0-130h129V0H0z"/><path fill="#404041" d="M0-130h129V0H0z"/></pattern><pattern y="1024" width="129" height="130" patternUnits="userSpaceOnUse" id="cY" viewBox="0 -130 129 130" overflow="visible"><path fill="none" d="M0-130h129V0H0z"/><path fill="none" d="M0-130h129V0H0z"/><path fill="none" d="M0-130h129V0H0z"/><path fill="none" d="M0-130h129V0H0z"/><path fill="#AAC446" d="M0-130h129V0H0z"/></pattern><pattern y="1024" width="129" height="130" patternUnits="userSpaceOnUse" id="da" viewBox="0 -130 129 130" overflow="visible"><path fill="none" d="M0-130h129V0H0z"/><path fill="none" d="M0-130h129V0H0z"/><path fill="none" d="M0-130h129V0H0z"/><path fill="none" d="M0-130h129V0H0z"/><path fill="#404041" d="M0-130h129V0H0z"/></pattern><pattern y="1024" width="129" height="130" patternUnits="userSpaceOnUse" id="dc" viewBox="0 -130 129 130" overflow="visible"><path fill="none" d="M0-130h129V0H0z"/><path fill="none" d="M0-130h129V0H0z"/><path fill="none" d="M0-130h129V0H0z"/><path fill="none" d="M0-130h129V0H0z"/><path fill="#A4CDC6" d="M0-130h129V0H0z"/></pattern><pattern y="1024" width="129" height="130" patternUnits="userSpaceOnUse" id="de" viewBox="0 -130 129 130" overflow="visible"><path fill="none" d="M0-130h129V0H0z"/><path fill="none" d="M0-130h129V0H0z"/><path fill="none" d="M0-130h129V0H0z"/><path fill="none" d="M0-130h129V0H0z"/><path fill="#AAC446" d="M0-130h129V0H0z"/></pattern><pattern y="1024" width="129" height="130" patternUnits="userSpaceOnUse" id="dg" viewBox="0 -130 129 130" overflow="visible"><path fill="none" d="M0-130h129V0H0z"/><path fill="none" d="M0-130h129V0H0z"/><path fill="none" d="M0-130h129V0H0z"/><path fill="none" d="M0-130h129V0H0z"/><path fill="#AAC446" d="M0-130h129V0H0z"/></pattern><pattern y="1024" width="129" height="130" patternUnits="userSpaceOnUse" id="di" viewBox="0 -130 129 130" overflow="visible"><path fill="none" d="M0-130h129V0H0z"/><path fill="none" d="M0-130h129V0H0z"/><path fill="none" d="M0-130h129V0H0z"/><path fill="none" d="M0-130h129V0H0z"/><path fill="#AAC446" d="M0-130h129V0H0z"/></pattern><pattern y="1024" width="129" height="130" patternUnits="userSpaceOnUse" id="dk" viewBox="0 -130 129 130" overflow="visible"><path fill="none" d="M0-130h129V0H0z"/><path fill="none" d="M0-130h129V0H0z"/><path fill="none" d="M0-130h129V0H0z"/><path fill="none" d="M0-130h129V0H0z"/><path fill="#AAC446" d="M0-130h129V0H0z"/></pattern><pattern y="1024" width="129" height="130" patternUnits="userSpaceOnUse" id="dm" viewBox="0 -130 129 130" overflow="visible"><path fill="none" d="M0-130h129V0H0z"/><path fill="none" d="M0-130h129V0H0z"/><path fill="none" d="M0-130h129V0H0z"/><path fill="none" d="M0-130h129V0H0z"/><path fill="#AAC446" d="M0-130h129V0H0z"/></pattern><pattern y="1024" width="129" height="130" patternUnits="userSpaceOnUse" id="do" viewBox="0 -130 129 130" overflow="visible"><path fill="none" d="M0-130h129V0H0z"/><path fill="none" d="M0-130h129V0H0z"/><path fill="none" d="M0-130h129V0H0z"/><path fill="none" d="M0-130h129V0H0z"/><path fill="#404041" d="M0-130h129V0H0z"/></pattern><pattern y="1024" width="129" height="130" patternUnits="userSpaceOnUse" id="dq" viewBox="0 -130 129 130" overflow="visible"><path fill="none" d="M0-130h129V0H0z"/><path fill="none" d="M0-130h129V0H0z"/><path fill="none" d="M0-130h129V0H0z"/><path fill="none" d="M0-130h129V0H0z"/><path fill="#404041" d="M0-130h129V0H0z"/></pattern><pattern y="1024" width="129" height="130" patternUnits="userSpaceOnUse" id="ds" viewBox="0 -130 129 130" overflow="visible"><path fill="none" d="M0-130h129V0H0z"/><path fill="none" d="M0-130h129V0H0z"/><path fill="none" d="M0-130h129V0H0z"/><path fill="none" d="M0-130h129V0H0z"/><path fill="#404041" d="M0-130h129V0H0z"/></pattern><pattern y="1024" width="129" height="130" patternUnits="userSpaceOnUse" id="du" viewBox="0 -130 129 130" overflow="visible"><path fill="none" d="M0-130h129V0H0z"/><path fill="none" d="M0-130h129V0H0z"/><path fill="none" d="M0-130h129V0H0z"/><path fill="none" d="M0-130h129V0H0z"/><path fill="#CC138A" d="M0-130h129V0H0z"/></pattern><pattern y="1024" width="129" height="130" patternUnits="userSpaceOnUse" id="dw" viewBox="0 -130 129 130" overflow="visible"><path fill="none" d="M0-130h129V0H0z"/><path fill="none" d="M0-130h129V0H0z"/><path fill="none" d="M0-130h129V0H0z"/><path fill="none" d="M0-130h129V0H0z"/><path fill="#CC138A" d="M0-130h129V0H0z"/></pattern><pattern y="1024" width="129" height="130" patternUnits="userSpaceOnUse" id="dy" viewBox="0 -130 129 130" overflow="visible"><path fill="none" d="M0-130h129V0H0z"/><path fill="none" d="M0-130h129V0H0z"/><path fill="none" d="M0-130h129V0H0z"/><path fill="none" d="M0-130h129V0H0z"/><path fill="#AAC446" d="M0-130h129V0H0z"/></pattern><pattern y="1024" width="129" height="130" patternUnits="userSpaceOnUse" id="dA" viewBox="0 -130 129 130" overflow="visible"><path fill="none" d="M0-130h129V0H0z"/><path fill="none" d="M0-130h129V0H0z"/><path fill="none" d="M0-130h129V0H0z"/><path fill="none" d="M0-130h129V0H0z"/><path fill="#F0A836" d="M0-130h129V0H0z"/></pattern><pattern y="1024" width="129" height="130" patternUnits="userSpaceOnUse" id="dC" viewBox="0 -130 129 130" overflow="visible"><path fill="none" d="M0-130h129V0H0z"/><path fill="none" d="M0-130h129V0H0z"/><path fill="none" d="M0-130h129V0H0z"/><path fill="none" d="M0-130h129V0H0z"/><path fill="#F0A836" d="M0-130h129V0H0z"/></pattern><pattern y="1024" width="129" height="130" patternUnits="userSpaceOnUse" id="dE" viewBox="0 -130 129 130" overflow="visible"><path fill="none" d="M0-130h129V0H0z"/><path fill="none" d="M0-130h129V0H0z"/><path fill="none" d="M0-130h129V0H0z"/><path fill="none" d="M0-130h129V0H0z"/><path fill="#404041" d="M0-130h129V0H0z"/></pattern><pattern y="1024" width="129" height="130" patternUnits="userSpaceOnUse" id="dG" viewBox="0 -130 129 130" overflow="visible"><path fill="none" d="M0-130h129V0H0z"/><path fill="none" d="M0-130h129V0H0z"/><path fill="none" d="M0-130h129V0H0z"/><path fill="none" d="M0-130h129V0H0z"/><path fill="#404041" d="M0-130h129V0H0z"/></pattern><pattern y="1024" width="129" height="130" patternUnits="userSpaceOnUse" id="dI" viewBox="0 -130 129 130" overflow="visible"><path fill="none" d="M0-130h129V0H0z"/><path fill="none" d="M0-130h129V0H0z"/><path fill="none" d="M0-130h129V0H0z"/><path fill="none" d="M0-130h129V0H0z"/><path fill="#404041" d="M0-130h129V0H0z"/></pattern><pattern y="1024" width="129" height="130" patternUnits="userSpaceOnUse" id="dK" viewBox="0 -130 129 130" overflow="visible"><path fill="none" d="M0-130h129V0H0z"/><path fill="none" d="M0-130h129V0H0z"/><path fill="none" d="M0-130h129V0H0z"/><path fill="none" d="M0-130h129V0H0z"/><path fill="#404041" d="M0-130h129V0H0z"/></pattern><pattern y="1024" width="129" height="130" patternUnits="userSpaceOnUse" id="dM" viewBox="0 -130 129 130" overflow="visible"><path fill="none" d="M0-130h129V0H0z"/><path fill="none" d="M0-130h129V0H0z"/><path fill="none" d="M0-130h129V0H0z"/><path fill="none" d="M0-130h129V0H0z"/><path fill="#404041" d="M0-130h129V0H0z"/></pattern><pattern y="1024" width="129" height="130" patternUnits="userSpaceOnUse" id="dO" viewBox="0 -130 129 130" overflow="visible"><path fill="none" d="M0-130h129V0H0z"/><path fill="none" d="M0-130h129V0H0z"/><path fill="none" d="M0-130h129V0H0z"/><path fill="none" d="M0-130h129V0H0z"/><path fill="#404041" d="M0-130h129V0H0z"/></pattern><pattern y="1024" width="129" height="130" patternUnits="userSpaceOnUse" id="dQ" viewBox="0 -130 129 130" overflow="visible"><path fill="none" d="M0-130h129V0H0z"/><path fill="none" d="M0-130h129V0H0z"/><path fill="none" d="M0-130h129V0H0z"/><path fill="none" d="M0-130h129V0H0z"/><path fill="#A4CDC6" d="M0-130h129V0H0z"/></pattern><pattern y="1024" width="129" height="130" patternUnits="userSpaceOnUse" id="dS" viewBox="0 -130 129 130" overflow="visible"><path fill="none" d="M0-130h129V0H0z"/><path fill="none" d="M0-130h129V0H0z"/><path fill="none" d="M0-130h129V0H0z"/><path fill="none" d="M0-130h129V0H0z"/><path fill="#AAC446" d="M0-130h129V0H0z"/></pattern><pattern y="1024" width="129" height="130" patternUnits="userSpaceOnUse" id="dU" viewBox="0 -130 129 130" overflow="visible"><path fill="none" d="M0-130h129V0H0z"/><path fill="none" d="M0-130h129V0H0z"/><path fill="none" d="M0-130h129V0H0z"/><path fill="none" d="M0-130h129V0H0z"/><path fill="#AAC446" d="M0-130h129V0H0z"/></pattern><pattern y="1024" width="129" height="130" patternUnits="userSpaceOnUse" id="dW" viewBox="0 -130 129 130" overflow="visible"><path fill="none" d="M0-130h129V0H0z"/><path fill="none" d="M0-130h129V0H0z"/><path fill="none" d="M0-130h129V0H0z"/><path fill="none" d="M0-130h129V0H0z"/><path fill="#AAC446" d="M0-130h129V0H0z"/></pattern><pattern y="1024" width="129" height="130" patternUnits="userSpaceOnUse" id="dY" viewBox="0 -130 129 130" overflow="visible"><path fill="none" d="M0-130h129V0H0z"/><path fill="none" d="M0-130h129V0H0z"/><path fill="none" d="M0-130h129V0H0z"/><path fill="none" d="M0-130h129V0H0z"/><path fill="#AAC446" d="M0-130h129V0H0z"/></pattern><pattern y="1024" width="129" height="130" patternUnits="userSpaceOnUse" id="ea" viewBox="0 -130 129 130" overflow="visible"><path fill="none" d="M0-130h129V0H0z"/><path fill="none" d="M0-130h129V0H0z"/><path fill="none" d="M0-130h129V0H0z"/><path fill="none" d="M0-130h129V0H0z"/><path fill="#AAC446" d="M0-130h129V0H0z"/></pattern><pattern y="1024" width="129" height="130" patternUnits="userSpaceOnUse" id="ec" viewBox="0 -130 129 130" overflow="visible"><path fill="none" d="M0-130h129V0H0z"/><path fill="none" d="M0-130h129V0H0z"/><path fill="none" d="M0-130h129V0H0z"/><path fill="none" d="M0-130h129V0H0z"/><path fill="#CC138A" d="M0-130h129V0H0z"/></pattern><pattern y="1024" width="129" height="130" patternUnits="userSpaceOnUse" id="ee" viewBox="0 -130 129 130" overflow="visible"><path fill="none" d="M0-130h129V0H0z"/><path fill="none" d="M0-130h129V0H0z"/><path fill="none" d="M0-130h129V0H0z"/><path fill="none" d="M0-130h129V0H0z"/><path fill="#CC138A" d="M0-130h129V0H0z"/></pattern><pattern y="1024" width="129" height="130" patternUnits="userSpaceOnUse" id="eg" viewBox="0 -130 129 130" overflow="visible"><path fill="none" d="M0-130h129V0H0z"/><path fill="none" d="M0-130h129V0H0z"/><path fill="none" d="M0-130h129V0H0z"/><path fill="none" d="M0-130h129V0H0z"/><path fill="#CC138A" d="M0-130h129V0H0z"/></pattern><pattern y="1024" width="129" height="130" patternUnits="userSpaceOnUse" id="ei" viewBox="0 -130 129 130" overflow="visible"><path fill="none" d="M0-130h129V0H0z"/><path fill="none" d="M0-130h129V0H0z"/><path fill="none" d="M0-130h129V0H0z"/><path fill="none" d="M0-130h129V0H0z"/><path fill="#CC138A" d="M0-130h129V0H0z"/></pattern><pattern y="1024" width="129" height="130" patternUnits="userSpaceOnUse" id="ek" viewBox="0 -130 129 130" overflow="visible"><path fill="none" d="M0-130h129V0H0z"/><path fill="none" d="M0-130h129V0H0z"/><path fill="none" d="M0-130h129V0H0z"/><path fill="none" d="M0-130h129V0H0z"/><path fill="#CC138A" d="M0-130h129V0H0z"/></pattern><pattern y="1024" width="129" height="130" patternUnits="userSpaceOnUse" id="em" viewBox="0 -130 129 130" overflow="visible"><path fill="none" d="M0-130h129V0H0z"/><path fill="none" d="M0-130h129V0H0z"/><path fill="none" d="M0-130h129V0H0z"/><path fill="none" d="M0-130h129V0H0z"/><path fill="#CC138A" d="M0-130h129V0H0z"/></pattern><pattern y="1024" width="129" height="130" patternUnits="userSpaceOnUse" id="eo" viewBox="0 -130 129 130" overflow="visible"><path fill="none" d="M0-130h129V0H0z"/><path fill="none" d="M0-130h129V0H0z"/><path fill="none" d="M0-130h129V0H0z"/><path fill="none" d="M0-130h129V0H0z"/><path fill="#CC138A" d="M0-130h129V0H0z"/></pattern><pattern y="1024" width="129" height="130" patternUnits="userSpaceOnUse" id="eq" viewBox="0 -130 129 130" overflow="visible"><path fill="none" d="M0-130h129V0H0z"/><path fill="none" d="M0-130h129V0H0z"/><path fill="none" d="M0-130h129V0H0z"/><path fill="none" d="M0-130h129V0H0z"/><path fill="#CC138A" d="M0-130h129V0H0z"/></pattern><pattern y="1024" width="129" height="130" patternUnits="userSpaceOnUse" id="es" viewBox="0 -130 129 130" overflow="visible"><path fill="none" d="M0-130h129V0H0z"/><path fill="none" d="M0-130h129V0H0z"/><path fill="none" d="M0-130h129V0H0z"/><path fill="none" d="M0-130h129V0H0z"/><path fill="#CC138A" d="M0-130h129V0H0z"/></pattern><pattern y="1024" width="129" height="130" patternUnits="userSpaceOnUse" id="eu" viewBox="0 -130 129 130" overflow="visible"><path fill="none" d="M0-130h129V0H0z"/><path fill="none" d="M0-130h129V0H0z"/><path fill="none" d="M0-130h129V0H0z"/><path fill="none" d="M0-130h129V0H0z"/><path fill="#CC138A" d="M0-130h129V0H0z"/></pattern><pattern y="1024" width="129" height="130" patternUnits="userSpaceOnUse" id="ew" viewBox="0 -130 129 130" overflow="visible"><path fill="none" d="M0-130h129V0H0z"/><path fill="none" d="M0-130h129V0H0z"/><path fill="none" d="M0-130h129V0H0z"/><path fill="none" d="M0-130h129V0H0z"/><path fill="#CC138A" d="M0-130h129V0H0z"/></pattern><pattern y="1024" width="129" height="130" patternUnits="userSpaceOnUse" id="ey" viewBox="0 -130 129 130" overflow="visible"><path fill="none" d="M0-130h129V0H0z"/><path fill="none" d="M0-130h129V0H0z"/><path fill="none" d="M0-130h129V0H0z"/><path fill="none" d="M0-130h129V0H0z"/><path fill="#CC138A" d="M0-130h129V0H0z"/></pattern><pattern y="1024" width="129" height="130" patternUnits="userSpaceOnUse" id="eA" viewBox="0 -130 129 130" overflow="visible"><path fill="none" d="M0-130h129V0H0z"/><path fill="none" d="M0-130h129V0H0z"/><path fill="none" d="M0-130h129V0H0z"/><path fill="none" d="M0-130h129V0H0z"/><path fill="#CC138A" d="M0-130h129V0H0z"/></pattern><pattern y="1024" width="129" height="130" patternUnits="userSpaceOnUse" id="eC" viewBox="0 -130 129 130" overflow="visible"><path fill="none" d="M0-130h129V0H0z"/><path fill="none" d="M0-130h129V0H0z"/><path fill="none" d="M0-130h129V0H0z"/><path fill="none" d="M0-130h129V0H0z"/><path fill="#CC138A" d="M0-130h129V0H0z"/></pattern><pattern y="1024" width="129" height="130" patternUnits="userSpaceOnUse" id="eE" viewBox="0 -130 129 130" overflow="visible"><path fill="none" d="M0-130h129V0H0z"/><path fill="none" d="M0-130h129V0H0z"/><path fill="none" d="M0-130h129V0H0z"/><path fill="none" d="M0-130h129V0H0z"/><path fill="#CC138A" d="M0-130h129V0H0z"/></pattern><pattern y="1024" width="129" height="130" patternUnits="userSpaceOnUse" id="eG" viewBox="0 -130 129 130" overflow="visible"><path fill="none" d="M0-130h129V0H0z"/><path fill="none" d="M0-130h129V0H0z"/><path fill="none" d="M0-130h129V0H0z"/><path fill="none" d="M0-130h129V0H0z"/><path fill="#CC138A" d="M0-130h129V0H0z"/></pattern><pattern y="1024" width="129" height="130" patternUnits="userSpaceOnUse" id="eI" viewBox="0 -130 129 130" overflow="visible"><path fill="none" d="M0-130h129V0H0z"/><path fill="none" d="M0-130h129V0H0z"/><path fill="none" d="M0-130h129V0H0z"/><path fill="none" d="M0-130h129V0H0z"/><path fill="#CC138A" d="M0-130h129V0H0z"/></pattern><pattern y="1024" width="129" height="130" patternUnits="userSpaceOnUse" id="eK" viewBox="0 -130 129 130" overflow="visible"><path fill="none" d="M0-130h129V0H0z"/><path fill="none" d="M0-130h129V0H0z"/><path fill="none" d="M0-130h129V0H0z"/><path fill="none" d="M0-130h129V0H0z"/><path fill="#CC138A" d="M0-130h129V0H0z"/></pattern><pattern y="1024" width="129" height="130" patternUnits="userSpaceOnUse" id="a" viewBox="0 -130 129 130" overflow="visible"><path fill="none" d="M0-130h129V0H0z"/><path fill="none" d="M0-130h129V0H0z"/><path fill="none" d="M0-130h129V0H0z"/><path fill="none" d="M0-130h129V0H0z"/><path fill="#CC138A" d="M0-130h129V0H0z"/></pattern><pattern y="1024" width="129" height="130" patternUnits="userSpaceOnUse" id="A" viewBox="0 -130 129 130" overflow="visible"><path fill="none" d="M0-130h129V0H0z"/><path fill="none" d="M0-130h129V0H0z"/><path fill="none" d="M0-130h129V0H0z"/><path fill="none" d="M0-130h129V0H0z"/><path fill="#A4CDC6" d="M0-130h129V0H0z"/></pattern><pattern y="1024" width="129" height="130" patternUnits="userSpaceOnUse" id="c" viewBox="0 -130 129 130" overflow="visible"><path fill="none" d="M0-130h129V0H0z"/><path fill="none" d="M0-130h129V0H0z"/><path fill="none" d="M0-130h129V0H0z"/><path fill="none" d="M0-130h129V0H0z"/><path fill="#F0A836" d="M0-130h129V0H0z"/></pattern><pattern y="1024" width="129" height="130" patternUnits="userSpaceOnUse" id="C" viewBox="0 -130 129 130" overflow="visible"><path fill="none" d="M0-130h129V0H0z"/><path fill="none" d="M0-130h129V0H0z"/><path fill="none" d="M0-130h129V0H0z"/><path fill="none" d="M0-130h129V0H0z"/><path fill="#F0A836" d="M0-130h129V0H0z"/></pattern><pattern y="1024" width="129" height="130" patternUnits="userSpaceOnUse" id="E" viewBox="0 -130 129 130" overflow="visible"><path fill="none" d="M0-130h129V0H0z"/><path fill="none" d="M0-130h129V0H0z"/><path fill="none" d="M0-130h129V0H0z"/><path fill="none" d="M0-130h129V0H0z"/><path fill="#CC138A" d="M0-130h129V0H0z"/></pattern><pattern y="1024" width="129" height="130" patternUnits="userSpaceOnUse" id="G" viewBox="0 -130 129 130" overflow="visible"><path fill="none" d="M0-130h129V0H0z"/><path fill="none" d="M0-130h129V0H0z"/><path fill="none" d="M0-130h129V0H0z"/><path fill="none" d="M0-130h129V0H0z"/><path fill="#AAC446" d="M0-130h129V0H0z"/></pattern><pattern y="1024" width="129" height="130" patternUnits="userSpaceOnUse" id="I" viewBox="0 -130 129 130" overflow="visible"><path fill="none" d="M0-130h129V0H0z"/><path fill="none" d="M0-130h129V0H0z"/><path fill="none" d="M0-130h129V0H0z"/><path fill="none" d="M0-130h129V0H0z"/><path fill="#A4CDC6" d="M0-130h129V0H0z"/></pattern><pattern y="1024" width="129" height="130" patternUnits="userSpaceOnUse" id="K" viewBox="0 -130 129 130" overflow="visible"><path fill="none" d="M0-130h129V0H0z"/><path fill="none" d="M0-130h129V0H0z"/><path fill="none" d="M0-130h129V0H0z"/><path fill="none" d="M0-130h129V0H0z"/><path fill="#AAC446" d="M0-130h129V0H0z"/></pattern><pattern y="1024" width="129" height="130" patternUnits="userSpaceOnUse" id="M" viewBox="0 -130 129 130" overflow="visible"><path fill="none" d="M0-130h129V0H0z"/><path fill="none" d="M0-130h129V0H0z"/><path fill="none" d="M0-130h129V0H0z"/><path fill="none" d="M0-130h129V0H0z"/><path fill="#AAC446" d="M0-130h129V0H0z"/></pattern><pattern y="1024" width="129" height="130" patternUnits="userSpaceOnUse" id="O" viewBox="0 -130 129 130" overflow="visible"><path fill="none" d="M0-130h129V0H0z"/><path fill="none" d="M0-130h129V0H0z"/><path fill="none" d="M0-130h129V0H0z"/><path fill="none" d="M0-130h129V0H0z"/><path fill="#AAC446" d="M0-130h129V0H0z"/></pattern><pattern y="1024" width="129" height="130" patternUnits="userSpaceOnUse" id="Q" viewBox="0 -130 129 130" overflow="visible"><path fill="none" d="M0-130h129V0H0z"/><path fill="none" d="M0-130h129V0H0z"/><path fill="none" d="M0-130h129V0H0z"/><path fill="none" d="M0-130h129V0H0z"/><path fill="#AAC446" d="M0-130h129V0H0z"/></pattern><pattern y="1024" width="129" height="130" patternUnits="userSpaceOnUse" id="S" viewBox="0 -130 129 130" overflow="visible"><path fill="none" d="M0-130h129V0H0z"/><path fill="none" d="M0-130h129V0H0z"/><path fill="none" d="M0-130h129V0H0z"/><path fill="none" d="M0-130h129V0H0z"/><path fill="#AAC446" d="M0-130h129V0H0z"/></pattern><pattern y="1024" width="129" height="130" patternUnits="userSpaceOnUse" id="U" viewBox="0 -130 129 130" overflow="visible"><path fill="none" d="M0-130h129V0H0z"/><path fill="none" d="M0-130h129V0H0z"/><path fill="none" d="M0-130h129V0H0z"/><path fill="none" d="M0-130h129V0H0z"/><path fill="#A4CDC6" d="M0-130h129V0H0z"/></pattern><pattern y="1024" width="129" height="130" patternUnits="userSpaceOnUse" id="e" viewBox="0 -130 129 130" overflow="visible"><path fill="none" d="M0-130h129V0H0z"/><path fill="none" d="M0-130h129V0H0z"/><path fill="none" d="M0-130h129V0H0z"/><path fill="none" d="M0-130h129V0H0z"/><path fill="#AAC446" d="M0-130h129V0H0z"/></pattern><pattern y="1024" width="129" height="130" patternUnits="userSpaceOnUse" id="W" viewBox="0 -130 129 130" overflow="visible"><path fill="none" d="M0-130h129V0H0z"/><path fill="none" d="M0-130h129V0H0z"/><path fill="none" d="M0-130h129V0H0z"/><path fill="none" d="M0-130h129V0H0z"/><path fill="#404041" d="M0-130h129V0H0z"/></pattern><pattern y="1024" width="129" height="130" patternUnits="userSpaceOnUse" id="Y" viewBox="0 -130 129 130" overflow="visible"><path fill="none" d="M0-130h129V0H0z"/><path fill="none" d="M0-130h129V0H0z"/><path fill="none" d="M0-130h129V0H0z"/><path fill="none" d="M0-130h129V0H0z"/><path fill="#404041" d="M0-130h129V0H0z"/></pattern><pattern y="1024" width="129" height="130" patternUnits="userSpaceOnUse" id="aa" viewBox="0 -130 129 130" overflow="visible"><path fill="none" d="M0-130h129V0H0z"/><path fill="none" d="M0-130h129V0H0z"/><path fill="none" d="M0-130h129V0H0z"/><path fill="none" d="M0-130h129V0H0z"/><path fill="#404041" d="M0-130h129V0H0z"/></pattern><pattern y="1024" width="129" height="130" patternUnits="userSpaceOnUse" id="ac" viewBox="0 -130 129 130" overflow="visible"><path fill="none" d="M0-130h129V0H0z"/><path fill="none" d="M0-130h129V0H0z"/><path fill="none" d="M0-130h129V0H0z"/><path fill="none" d="M0-130h129V0H0z"/><path fill="#A4CDC6" d="M0-130h129V0H0z"/></pattern><pattern y="1024" width="129" height="130" patternUnits="userSpaceOnUse" id="ae" viewBox="0 -130 129 130" overflow="visible"><path fill="none" d="M0-130h129V0H0z"/><path fill="none" d="M0-130h129V0H0z"/><path fill="none" d="M0-130h129V0H0z"/><path fill="none" d="M0-130h129V0H0z"/><path fill="#404041" d="M0-130h129V0H0z"/></pattern><pattern y="1024" width="129" height="130" patternUnits="userSpaceOnUse" id="ag" viewBox="0 -130 129 130" overflow="visible"><path fill="none" d="M0-130h129V0H0z"/><path fill="none" d="M0-130h129V0H0z"/><path fill="none" d="M0-130h129V0H0z"/><path fill="none" d="M0-130h129V0H0z"/><path fill="#404041" d="M0-130h129V0H0z"/></pattern><pattern y="1024" width="129" height="130" patternUnits="userSpaceOnUse" id="ai" viewBox="0 -130 129 130" overflow="visible"><path fill="none" d="M0-130h129V0H0z"/><path fill="none" d="M0-130h129V0H0z"/><path fill="none" d="M0-130h129V0H0z"/><path fill="none" d="M0-130h129V0H0z"/><path fill="#404041" d="M0-130h129V0H0z"/></pattern><pattern y="1024" width="129" height="130" patternUnits="userSpaceOnUse" id="ak" viewBox="0 -130 129 130" overflow="visible"><path fill="none" d="M0-130h129V0H0z"/><path fill="none" d="M0-130h129V0H0z"/><path fill="none" d="M0-130h129V0H0z"/><path fill="none" d="M0-130h129V0H0z"/><path fill="#A4CDC6" d="M0-130h129V0H0z"/></pattern><pattern y="1024" width="129" height="130" patternUnits="userSpaceOnUse" id="g" viewBox="0 -130 129 130" overflow="visible"><path fill="none" d="M0-130h129V0H0z"/><path fill="none" d="M0-130h129V0H0z"/><path fill="none" d="M0-130h129V0H0z"/><path fill="none" d="M0-130h129V0H0z"/><path fill="#404041" d="M0-130h129V0H0z"/></pattern><pattern y="1024" width="129" height="130" patternUnits="userSpaceOnUse" id="am" viewBox="0 -130 129 130" overflow="visible"><path fill="none" d="M0-130h129V0H0z"/><path fill="none" d="M0-130h129V0H0z"/><path fill="none" d="M0-130h129V0H0z"/><path fill="none" d="M0-130h129V0H0z"/><path fill="#404041" d="M0-130h129V0H0z"/></pattern><pattern y="1024" width="129" height="130" patternUnits="userSpaceOnUse" id="ao" viewBox="0 -130 129 130" overflow="visible"><path fill="none" d="M0-130h129V0H0z"/><path fill="none" d="M0-130h129V0H0z"/><path fill="none" d="M0-130h129V0H0z"/><path fill="none" d="M0-130h129V0H0z"/><path fill="#404041" d="M0-130h129V0H0z"/></pattern><pattern y="1024" width="129" height="130" patternUnits="userSpaceOnUse" id="aq" viewBox="0 -130 129 130" overflow="visible"><path fill="none" d="M0-130h129V0H0z"/><path fill="none" d="M0-130h129V0H0z"/><path fill="none" d="M0-130h129V0H0z"/><path fill="none" d="M0-130h129V0H0z"/><path fill="#404041" d="M0-130h129V0H0z"/></pattern><pattern y="1024" width="129" height="130" patternUnits="userSpaceOnUse" id="as" viewBox="0 -130 129 130" overflow="visible"><path fill="none" d="M0-130h129V0H0z"/><path fill="none" d="M0-130h129V0H0z"/><path fill="none" d="M0-130h129V0H0z"/><path fill="none" d="M0-130h129V0H0z"/><path fill="#404041" d="M0-130h129V0H0z"/></pattern><pattern y="1024" width="129" height="130" patternUnits="userSpaceOnUse" id="au" viewBox="0 -130 129 130" overflow="visible"><path fill="none" d="M0-130h129V0H0z"/><path fill="none" d="M0-130h129V0H0z"/><path fill="none" d="M0-130h129V0H0z"/><path fill="none" d="M0-130h129V0H0z"/><path fill="#404041" d="M0-130h129V0H0z"/></pattern><pattern y="1024" width="129" height="130" patternUnits="userSpaceOnUse" id="aw" viewBox="0 -130 129 130" overflow="visible"><path fill="none" d="M0-130h129V0H0z"/><path fill="none" d="M0-130h129V0H0z"/><path fill="none" d="M0-130h129V0H0z"/><path fill="none" d="M0-130h129V0H0z"/><path fill="#404041" d="M0-130h129V0H0z"/></pattern><pattern y="1024" width="129" height="130" patternUnits="userSpaceOnUse" id="ay" viewBox="0 -130 129 130" overflow="visible"><path fill="none" d="M0-130h129V0H0z"/><path fill="none" d="M0-130h129V0H0z"/><path fill="none" d="M0-130h129V0H0z"/><path fill="none" d="M0-130h129V0H0z"/><path fill="#404041" d="M0-130h129V0H0z"/></pattern><pattern y="1024" width="129" height="130" patternUnits="userSpaceOnUse" id="i" viewBox="0 -130 129 130" overflow="visible"><path fill="none" d="M0-130h129V0H0z"/><path fill="none" d="M0-130h129V0H0z"/><path fill="none" d="M0-130h129V0H0z"/><path fill="none" d="M0-130h129V0H0z"/><path fill="#404041" d="M0-130h129V0H0z"/></pattern><pattern y="1024" width="129" height="130" patternUnits="userSpaceOnUse" id="aC" viewBox="0 -130 129 130" overflow="visible"><path fill="none" d="M0-130h129V0H0z"/><path fill="none" d="M0-130h129V0H0z"/><path fill="none" d="M0-130h129V0H0z"/><path fill="none" d="M0-130h129V0H0z"/><path fill="#404041" d="M0-130h129V0H0z"/></pattern><pattern y="1024" width="129" height="130" patternUnits="userSpaceOnUse" id="aE" viewBox="0 -130 129 130" overflow="visible"><path fill="none" d="M0-130h129V0H0z"/><path fill="none" d="M0-130h129V0H0z"/><path fill="none" d="M0-130h129V0H0z"/><path fill="none" d="M0-130h129V0H0z"/><path fill="#404041" d="M0-130h129V0H0z"/></pattern><pattern y="1024" width="129" height="130" patternUnits="userSpaceOnUse" id="aI" viewBox="0 -130 129 130" overflow="visible"><path fill="none" d="M0-130h129V0H0z"/><path fill="none" d="M0-130h129V0H0z"/><path fill="none" d="M0-130h129V0H0z"/><path fill="none" d="M0-130h129V0H0z"/><path fill="#404041" d="M0-130h129V0H0z"/></pattern><pattern y="1024" width="129" height="130" patternUnits="userSpaceOnUse" id="aK" viewBox="0 -130 129 130" overflow="visible"><path fill="none" d="M0-130h129V0H0z"/><path fill="none" d="M0-130h129V0H0z"/><path fill="none" d="M0-130h129V0H0z"/><path fill="none" d="M0-130h129V0H0z"/><path fill="#404041" d="M0-130h129V0H0z"/></pattern><pattern y="1024" width="129" height="130" patternUnits="userSpaceOnUse" id="aO" viewBox="0 -130 129 130" overflow="visible"><path fill="none" d="M0-130h129V0H0z"/><path fill="none" d="M0-130h129V0H0z"/><path fill="none" d="M0-130h129V0H0z"/><path fill="none" d="M0-130h129V0H0z"/><path fill="#404041" d="M0-130h129V0H0z"/></pattern><pattern y="1024" width="129" height="130" patternUnits="userSpaceOnUse" id="aQ" viewBox="0 -130 129 130" overflow="visible"><path fill="none" d="M0-130h129V0H0z"/><path fill="none" d="M0-130h129V0H0z"/><path fill="none" d="M0-130h129V0H0z"/><path fill="none" d="M0-130h129V0H0z"/><path fill="#404041" d="M0-130h129V0H0z"/></pattern><pattern y="1024" width="129" height="130" patternUnits="userSpaceOnUse" id="aU" viewBox="0 -130 129 130" overflow="visible"><path fill="none" d="M0-130h129V0H0z"/><path fill="none" d="M0-130h129V0H0z"/><path fill="none" d="M0-130h129V0H0z"/><path fill="none" d="M0-130h129V0H0z"/><path fill="#404041" d="M0-130h129V0H0z"/></pattern><pattern y="1024" width="129" height="130" patternUnits="userSpaceOnUse" id="aW" viewBox="0 -130 129 130" overflow="visible"><path fill="none" d="M0-130h129V0H0z"/><path fill="none" d="M0-130h129V0H0z"/><path fill="none" d="M0-130h129V0H0z"/><path fill="none" d="M0-130h129V0H0z"/><path fill="#404041" d="M0-130h129V0H0z"/></pattern><pattern y="1024" width="129" height="130" patternUnits="userSpaceOnUse" id="ba" viewBox="0 -130 129 130" overflow="visible"><path fill="none" d="M0-130h129V0H0z"/><path fill="none" d="M0-130h129V0H0z"/><path fill="none" d="M0-130h129V0H0z"/><path fill="none" d="M0-130h129V0H0z"/><path fill="#404041" d="M0-130h129V0H0z"/></pattern><pattern y="1024" width="129" height="130" patternUnits="userSpaceOnUse" id="bc" viewBox="0 -130 129 130" overflow="visible"><path fill="none" d="M0-130h129V0H0z"/><path fill="none" d="M0-130h129V0H0z"/><path fill="none" d="M0-130h129V0H0z"/><path fill="none" d="M0-130h129V0H0z"/><path fill="#404041" d="M0-130h129V0H0z"/></pattern><pattern id="V" xlink:href="#U" patternTransform="matrix(1.5 0 0 -1.5 6778.5 -51127.1)"/><path fill="url(#V)" d="M369.6 215.3c-24 0-43.6-19.7-43.6-43.7v-62.8h87.3v62.8c0 24-19.7 43.7-43.7 43.7"/><pattern id="X" xlink:href="#W" patternTransform="matrix(1.5 0 0 -1.5 6778.5 -51127.1)"/><path fill="url(#X)" d="M317.3 110.5H339v21.9c0 2.6 1.7 4.3 4.4 4.3h8.7l-7.9 10.5a4.7 4.7 0 0 0 1 6.1c1.7 1.3 4.7.9 6-.9l13.1-17.4c.9-1.3 1.3-3 .4-4.4-.8-1.3-2.1-2.6-3.9-2.6h-13v-17.5h43.6v35H374L382 135c1.3-1.8.8-4.8-1-6.1-1.7-1.3-4.7-.9-6 .8l-13.1 17.5c-.9 1.3-1.3 3-.4 4.4.8 1.3 2.1 2.6 3.9 2.6h30.5c2.6 0 4.4-1.8 4.4-4.4v-39.3c2.6 0 4.3-1.7 4.3-4.3 0-2.6-1.7-4.4-4.3-4.4h-83c-2.5 0-4.3-1.7-4.3-4.3 0-2.7 1.8-4.4 4.4-4.4H422c2.6 0 4.4 1.7 4.4 4.3 0 2.7-1.8 4.4-4.4 4.4h-4.4c-4.3 0-4.3 4-4.3 7v62.8a43.8 43.8 0 0 1-87.3 0v-48c0-2.6-1.7-4.3-4.4-4.3-2.6 0-4.3 1.7-4.3 4.3v48a52.5 52.5 0 0 0 52.3 52.4 52.5 52.5 0 0 0 52.4-52.4v-61c7.4 0 13-5.7 13-13.1.1-7.5-5.6-13.1-13-13.1H317.3c-7.4 0-13.1 5.6-13.1 13 0 7.5 5.7 13.1 13 13.1z"/><pattern id="Z" xlink:href="#Y" patternTransform="matrix(1.5 0 0 -1.5 6778.5 -51127.1)"/><path fill="url(#Z)" d="M395.8 75.6c2.6 0 4.4-1.7 4.4-4.3v-35c0-2.6-1.8-4.3-4.4-4.3-2.6 0-4.3 1.7-4.3 4.4v34.9c0 2.6 1.7 4.3 4.3 4.3z"/><pattern id="ab" xlink:href="#aa" patternTransform="matrix(1.5 0 0 -1.5 6778.5 -51127.1)"/><path fill="url(#ab)" d="M343.5 75.6c2.6 0 4.3-1.7 4.3-4.3v-35c0-2.6-1.7-4.3-4.3-4.3-2.7 0-4.4 1.7-4.4 4.4v34.9c0 2.6 1.7 4.3 4.4 4.3z"/><pattern id="ad" xlink:href="#ac" patternTransform="matrix(1.5 0 0 -1.5 6778.5 -51127.1)"/><path fill="url(#ad)" d="M513.6 216.8c-24 0-43.6-19.7-43.6-43.7v-62.8h87.3v62.8c0 24-19.7 43.7-43.7 43.7"/><pattern id="af" xlink:href="#ae" patternTransform="matrix(1.5 0 0 -1.5 6778.5 -51127.1)"/><path fill="url(#af)" d="M461.3 112H483V134c0 2.6 1.7 4.3 4.4 4.3h8.7l-7.9 10.5a4.7 4.7 0 0 0 1 6.1c1.7 1.3 4.7.9 6-.9l13.1-17.4c.9-1.3 1.3-3 .4-4.4-.8-1.3-2.1-2.6-3.9-2.6h-13V112h43.6v35H518l7.9-10.5c1.3-1.8.8-4.8-1-6.1-1.7-1.3-4.7-.9-6 .8l-13.1 17.5c-.9 1.3-1.3 3-.4 4.4.8 1.3 2.1 2.6 3.9 2.6h30.5c2.6 0 4.4-1.8 4.4-4.4V112c2.6 0 4.3-1.7 4.3-4.3s-1.7-4.4-4.3-4.4h-83c-2.5 0-4.3-1.7-4.3-4.3 0-2.7 1.8-4.4 4.4-4.4H566c2.6 0 4.4 1.7 4.4 4.3 0 2.7-1.8 4.4-4.4 4.4h-4.4c-4.3 0-4.3 4-4.3 7v62.8a43.8 43.8 0 0 1-87.3 0v-48c0-2.6-1.7-4.3-4.4-4.3-2.6 0-4.3 1.7-4.3 4.3v48a52.5 52.5 0 0 0 52.3 52.4A52.5 52.5 0 0 0 566 173v-61c7.4 0 13.1-5.7 13.1-13.1 0-7.5-5.7-13.1-13-13.1H461.2c-7.4 0-13.1 5.6-13.1 13 0 7.5 5.7 13.1 13 13.1z"/><pattern id="ah" xlink:href="#ag" patternTransform="matrix(1.5 0 0 -1.5 6778.5 -51127.1)"/><path fill="url(#ah)" d="M539.8 77.1c2.6 0 4.4-1.7 4.4-4.3v-35c0-2.6-1.8-4.3-4.4-4.3-2.6 0-4.3 1.7-4.3 4.4v34.9c0 2.6 1.7 4.3 4.3 4.3z"/><pattern id="aj" xlink:href="#ai" patternTransform="matrix(1.5 0 0 -1.5 6778.5 -51127.1)"/><path fill="url(#aj)" d="M487.5 77.1c2.6 0 4.3-1.7 4.3-4.3v-35c0-2.6-1.7-4.3-4.3-4.3-2.7 0-4.4 1.7-4.4 4.4v34.9c0 2.6 1.7 4.3 4.4 4.3z"/><g><pattern id="al" xlink:href="#ak" patternTransform="matrix(1.5 0 0 -1.5 6778.5 -51127.1)"/><path fill="url(#al)" d="M657.6 218.3c-24 0-43.6-19.7-43.6-43.7v-62.8h87.3v62.8c0 24-19.7 43.7-43.7 43.7"/><pattern id="an" xlink:href="#am" patternTransform="matrix(1.5 0 0 -1.5 6778.5 -51127.1)"/><path fill="url(#an)" d="M605.3 113.5H627v21.9c0 2.6 1.7 4.3 4.4 4.3h8.7l-7.9 10.5a4.7 4.7 0 0 0 1 6.1c1.7 1.3 4.7.9 6-.9l13.1-17.4c.9-1.3 1.3-3 .4-4.4-.8-1.3-2.1-2.6-3.9-2.6h-13v-17.5h43.6v35H662L670 138c1.3-1.8.8-4.8-1-6.1-1.7-1.3-4.7-.9-6 .8l-13.1 17.5c-.9 1.3-1.3 3-.4 4.4.8 1.3 2.1 2.6 3.9 2.6h30.5c2.6 0 4.4-1.8 4.4-4.4v-39.3c2.6 0 4.3-1.7 4.3-4.3 0-2.6-1.7-4.4-4.3-4.4h-83c-2.5 0-4.3-1.7-4.3-4.3 0-2.7 1.8-4.4 4.4-4.4H710c2.6 0 4.4 1.7 4.4 4.3 0 2.7-1.8 4.4-4.4 4.4h-4.4c-4.3 0-4.3 4-4.3 7v62.8a43.8 43.8 0 0 1-87.3 0v-48c0-2.6-1.7-4.3-4.4-4.3-2.6 0-4.3 1.7-4.3 4.3v48a52.5 52.5 0 0 0 52.3 52.4 52.5 52.5 0 0 0 52.4-52.4v-61c7.4 0 13.1-5.7 13.1-13.1 0-7.5-5.7-13.1-13-13.1H605.2c-7.4 0-13.1 5.6-13.1 13 0 7.5 5.7 13.1 13 13.1z"/><g><pattern id="ap" xlink:href="#ao" patternTransform="matrix(1.5 0 0 -1.5 6778.5 -51127.1)"/><path fill="url(#ap)" d="M683.8 78.6c2.6 0 4.4-1.7 4.4-4.3v-35c0-2.6-1.8-4.3-4.4-4.3-2.6 0-4.3 1.8-4.3 4.4v34.9c0 2.6 1.7 4.3 4.3 4.3z"/></g><g><pattern id="ar" xlink:href="#aq" patternTransform="matrix(1.5 0 0 -1.5 6778.5 -51127.1)"/><path fill="url(#ar)" d="M631.5 78.6c2.6 0 4.3-1.7 4.3-4.3v-35c0-2.6-1.7-4.3-4.3-4.3-2.7 0-4.4 1.7-4.4 4.4v34.9c0 2.6 1.7 4.3 4.4 4.3z"/></g></g><pattern id="at" xlink:href="#as" patternTransform="matrix(1.5 0 0 -.7501 6778.5 -26082)"/><path fill="none" stroke="url(#at)" stroke-width="9" stroke-linecap="round" stroke-linejoin="round" stroke-miterlimit="10" d="M128 512h768v480H128z"/><pattern id="av" xlink:href="#au" patternTransform="matrix(1.5 0 0 -.7501 6778.5 -25990.4)"/><path fill="none" stroke="url(#av)" stroke-width="9" stroke-linecap="round" stroke-linejoin="round" stroke-miterlimit="10" d="M128 32h768v480H128z"/><g><pattern id="ax" xlink:href="#aw" patternTransform="matrix(1.5 0 0 -.7501 6778.5 -25986)"/><path fill="url(#ax)" d="M433 992h158a78.3 78.3 0 0 0-53.2-74.7v-21.9h-.4a26.2 26.2 0 0 0-25.7-21.6 26.2 26.2 0 0 0-25.7 21.6h-.4v22.1a78.3 78.3 0 0 0-52.5 74.5z"/><pattern id="az" xlink:href="#ay" patternTransform="matrix(1.5 0 0 -.7501 6778.5 -25986)"/><path fill="url(#az)" d="M522.1 927.3a3.3 3.3 0 0 1-6-2.5l3.4-12.9a3.3 3.3 0 1 1 6.4 1.7l-3.4 12.9-.4.8zm7-25.7a3.3 3.3 0 0 1-6.2-2.6l3.5-12.8a3.3 3.3 0 1 1 6.4 1.7l-3.4 12.9-.4.8zm6.8-25.8a3.3 3.3 0 0 1-6-2.5l3.4-12.9a3.3 3.3 0 1 1 6.4 1.8l-3.4 12.8-.4.8zm7-25.7a3.3 3.3 0 0 1-6.2-2.5l3.5-12.9a3.3 3.3 0 1 1 6.4 1.7l-3.4 12.9-.4.8zm6.8-25.7a3.3 3.3 0 0 1-6-2.5l2.8-10.8a3.3 3.3 0 1 1 6.4 1.8l-2.9 10.7c0 .3-.1.5-.3.8z"/><defs><path id="aA" d="M522.1 927.3a3.3 3.3 0 0 1-6-2.5l3.4-12.9a3.3 3.3 0 1 1 6.4 1.7l-3.4 12.9-.4.8zm7-25.7a3.3 3.3 0 0 1-6.2-2.6l3.5-12.8a3.3 3.3 0 1 1 6.4 1.7l-3.4 12.9-.4.8zm6.8-25.8a3.3 3.3 0 0 1-6-2.5l3.4-12.9a3.3 3.3 0 1 1 6.4 1.8l-3.4 12.8-.4.8zm7-25.7a3.3 3.3 0 0 1-6.2-2.5l3.5-12.9a3.3 3.3 0 1 1 6.4 1.7l-3.4 12.9-.4.8zm6.8-25.7a3.3 3.3 0 0 1-6-2.5l2.8-10.8a3.3 3.3 0 1 1 6.4 1.8l-2.9 10.7c0 .3-.1.5-.3.8z"/></defs><clipPath id="aB"><use xlink:href="#aA" overflow="visible"/></clipPath><g clip-path="url(#aB)"><pattern id="aD" xlink:href="#aC" patternTransform="matrix(1.5 0 0 -.7501 6778.5 -25986)"/><path fill="url(#aD)" d="M485.1 904.3l71.6-124 125 72.1-71.6 124z"/><pattern id="aF" xlink:href="#aE" patternTransform="matrix(1.5 0 0 -.7501 6778.5 -25986)"/><path fill="url(#aF)" d="M681.6 852.4l-71.5 124-125-72.1 71.6-124z"/></g><defs><path id="aG" d="M522.1 927.3a3.3 3.3 0 0 1-6-2.5l3.4-12.9a3.3 3.3 0 1 1 6.4 1.7l-3.4 12.9-.4.8zm7-25.7a3.3 3.3 0 0 1-6.2-2.6l3.5-12.8a3.3 3.3 0 1 1 6.4 1.7l-3.4 12.9-.4.8zm6.8-25.8a3.3 3.3 0 0 1-6-2.5l3.4-12.9a3.3 3.3 0 1 1 6.4 1.8l-3.4 12.8-.4.8zm7-25.7a3.3 3.3 0 0 1-6.2-2.5l3.5-12.9a3.3 3.3 0 1 1 6.4 1.7l-3.4 12.9-.4.8zm6.8-25.7a3.3 3.3 0 0 1-6-2.5l2.8-10.8a3.3 3.3 0 1 1 6.4 1.8l-2.9 10.7c0 .3-.1.5-.3.8z"/></defs><clipPath id="aH"><use xlink:href="#aG" overflow="visible"/></clipPath><g clip-path="url(#aH)"><pattern id="aJ" xlink:href="#aI" patternTransform="matrix(1.5 0 0 -.7501 6778.5 -25986)"/><path fill="url(#aJ)" d="M413.5 1028.3l71.6-124 125 72.1-71.6 124z"/><pattern id="aL" xlink:href="#aK" patternTransform="matrix(1.5 0 0 -.7501 6778.5 -25986)"/><path fill="url(#aL)" d="M610 976.4l-71.5 124-125-72.1 71.6-124z"/></g><g><defs><path id="aM" d="M522.1 927.3a3.3 3.3 0 0 1-6-2.5l3.4-12.9a3.3 3.3 0 1 1 6.4 1.7l-3.4 12.9-.4.8zm7-25.7a3.3 3.3 0 0 1-6.2-2.6l3.5-12.8a3.3 3.3 0 1 1 6.4 1.7l-3.4 12.9-.4.8zm6.8-25.8a3.3 3.3 0 0 1-6-2.5l3.4-12.9a3.3 3.3 0 1 1 6.4 1.8l-3.4 12.8-.4.8zm7-25.7a3.3 3.3 0 0 1-6.2-2.5l3.5-12.9a3.3 3.3 0 1 1 6.4 1.7l-3.4 12.9-.4.8zm6.8-25.7a3.3 3.3 0 0 1-6-2.5l2.8-10.8a3.3 3.3 0 1 1 6.4 1.8l-2.9 10.7c0 .3-.1.5-.3.8z"/></defs><clipPath id="aN"><use xlink:href="#aM" overflow="visible"/></clipPath><g clip-path="url(#aN)"><pattern id="aP" xlink:href="#aO" patternTransform="matrix(1.5 0 0 -.7501 6778.5 -25986)"/><path fill="url(#aP)" d="M485.1 904.3l71.6-124 125 72.1-71.6 124z"/><pattern id="aR" xlink:href="#aQ" patternTransform="matrix(1.5 0 0 -.7501 6778.5 -25986)"/><path fill="url(#aR)" d="M681.6 852.4l-71.5 124-125-72.1 71.6-124z"/></g></g><g><defs><path id="aS" d="M522.1 927.3a3.3 3.3 0 0 1-6-2.5l3.4-12.9a3.3 3.3 0 1 1 6.4 1.7l-3.4 12.9-.4.8zm7-25.7a3.3 3.3 0 0 1-6.2-2.6l3.5-12.8a3.3 3.3 0 1 1 6.4 1.7l-3.4 12.9-.4.8zm6.8-25.8a3.3 3.3 0 0 1-6-2.5l3.4-12.9a3.3 3.3 0 1 1 6.4 1.8l-3.4 12.8-.4.8zm7-25.7a3.3 3.3 0 0 1-6.2-2.5l3.5-12.9a3.3 3.3 0 1 1 6.4 1.7l-3.4 12.9-.4.8zm6.8-25.7a3.3 3.3 0 0 1-6-2.5l2.8-10.8a3.3 3.3 0 1 1 6.4 1.8l-2.9 10.7c0 .3-.1.5-.3.8z"/></defs><clipPath id="aT"><use xlink:href="#aS" overflow="visible"/></clipPath><g clip-path="url(#aT)"><pattern id="aV" xlink:href="#aU" patternTransform="matrix(1.5 0 0 -.7501 6778.5 -25986)"/><path fill="url(#aV)" d="M485.1 904.3l71.6-124 125 72.1-71.6 124z"/><pattern id="aX" xlink:href="#aW" patternTransform="matrix(1.5 0 0 -.7501 6778.5 -25986)"/><path fill="url(#aX)" d="M681.6 852.4l-71.5 124-125-72.1 71.6-124z"/></g></g><g><defs><path id="aY" d="M522.1 927.3a3.3 3.3 0 0 1-6-2.5l3.4-12.9a3.3 3.3 0 1 1 6.4 1.7l-3.4 12.9-.4.8zm7-25.7a3.3 3.3 0 0 1-6.2-2.6l3.5-12.8a3.3 3.3 0 1 1 6.4 1.7l-3.4 12.9-.4.8zm6.8-25.8a3.3 3.3 0 0 1-6-2.5l3.4-12.9a3.3 3.3 0 1 1 6.4 1.8l-3.4 12.8-.4.8zm7-25.7a3.3 3.3 0 0 1-6.2-2.5l3.5-12.9a3.3 3.3 0 1 1 6.4 1.7l-3.4 12.9-.4.8zm6.8-25.7a3.3 3.3 0 0 1-6-2.5l2.8-10.8a3.3 3.3 0 1 1 6.4 1.8l-2.9 10.7c0 .3-.1.5-.3.8z"/></defs><clipPath id="aZ"><use xlink:href="#aY" overflow="visible"/></clipPath><g clip-path="url(#aZ)"><pattern id="bb" xlink:href="#ba" patternTransform="matrix(1.5 0 0 -.7501 6778.5 -25986)"/><path fill="url(#bb)" d="M485.1 904.3l71.6-124 125 72.1-71.6 124z"/><pattern id="bd" xlink:href="#bc" patternTransform="matrix(1.5 0 0 -.7501 6778.5 -25986)"/><path fill="url(#bd)" d="M681.6 852.4l-71.5 124-125-72.1 71.6-124z"/></g></g><g><defs><path id="be" d="M522.1 927.3a3.3 3.3 0 0 1-6-2.5l3.4-12.9a3.3 3.3 0 1 1 6.4 1.7l-3.4 12.9-.4.8zm7-25.7a3.3 3.3 0 0 1-6.2-2.6l3.5-12.8a3.3 3.3 0 1 1 6.4 1.7l-3.4 12.9-.4.8zm6.8-25.8a3.3 3.3 0 0 1-6-2.5l3.4-12.9a3.3 3.3 0 1 1 6.4 1.8l-3.4 12.8-.4.8zm7-25.7a3.3 3.3 0 0 1-6.2-2.5l3.5-12.9a3.3 3.3 0 1 1 6.4 1.7l-3.4 12.9-.4.8zm6.8-25.7a3.3 3.3 0 0 1-6-2.5l2.8-10.8a3.3 3.3 0 1 1 6.4 1.8l-2.9 10.7c0 .3-.1.5-.3.8z"/></defs><clipPath id="bf"><use xlink:href="#be" overflow="visible"/></clipPath><g clip-path="url(#bf)"><pattern id="bh" xlink:href="#bg" patternTransform="matrix(1.5 0 0 -.7501 6778.5 -25986)"/><path fill="url(#bh)" d="M485.1 904.3l71.6-124 125 72.1-71.6 124z"/><pattern id="bj" xlink:href="#bi" patternTransform="matrix(1.5 0 0 -.7501 6778.5 -25986)"/><path fill="url(#bj)" d="M681.6 852.4l-71.5 124-125-72.1 71.6-124z"/></g></g><g><pattern id="bl" xlink:href="#bk" patternTransform="matrix(1.5 0 0 -.7501 6778.5 -25986)"/><path fill="url(#bl)" d="M515.2 922.6a3.3 3.3 0 0 1-6.2-1.6v-13.3a3.3 3.3 0 1 1 6.6 0V921c0 .6-.1 1.1-.4 1.6zm0-26.6a3.3 3.3 0 0 1-6.2-1.7V881a3.3 3.3 0 0 1 6.6 0v13.3c0 .6-.1 1.2-.4 1.7zm0-26.6a3.3 3.3 0 0 1-6.2-1.7v-13.3a3.3 3.3 0 1 1 6.6 0v13.3c0 .6-.1 1.2-.4 1.7zm0-26.7a3.3 3.3 0 0 1-6.2-1.6v-13.4a3.3 3.3 0 1 1 6.6 0v13.4c0 .6-.1 1.1-.4 1.6zm0-26.6a3.3 3.3 0 0 1-6.2-1.7v-11a3.3 3.3 0 1 1 6.6 0v11c0 .6-.1 1.2-.4 1.7z"/><defs><path id="bm" d="M515.2 922.6a3.3 3.3 0 0 1-6.2-1.6v-13.3a3.3 3.3 0 1 1 6.6 0V921c0 .6-.1 1.1-.4 1.6zm0-26.6a3.3 3.3 0 0 1-6.2-1.7V881a3.3 3.3 0 0 1 6.6 0v13.3c0 .6-.1 1.2-.4 1.7zm0-26.6a3.3 3.3 0 0 1-6.2-1.7v-13.3a3.3 3.3 0 1 1 6.6 0v13.3c0 .6-.1 1.2-.4 1.7zm0-26.7a3.3 3.3 0 0 1-6.2-1.6v-13.4a3.3 3.3 0 1 1 6.6 0v13.4c0 .6-.1 1.1-.4 1.6zm0-26.6a3.3 3.3 0 0 1-6.2-1.7v-11a3.3 3.3 0 1 1 6.6 0v11c0 .6-.1 1.2-.4 1.7z"/></defs><clipPath id="bn"><use xlink:href="#bm" overflow="visible"/></clipPath><g clip-path="url(#bn)"><pattern id="bp" xlink:href="#bo" patternTransform="matrix(1.5 0 0 -.7501 6778.5 -25986)"/><path fill="url(#bp)" d="M485.1 904.3l71.6-124 125 72.1-71.6 124z"/><pattern id="br" xlink:href="#bq" patternTransform="matrix(1.5 0 0 -.7501 6778.5 -25986)"/><path fill="url(#br)" d="M681.6 852.4l-71.5 124-125-72.1 71.6-124z"/></g><defs><path id="bs" d="M515.2 922.6a3.3 3.3 0 0 1-6.2-1.6v-13.3a3.3 3.3 0 1 1 6.6 0V921c0 .6-.1 1.1-.4 1.6zm0-26.6a3.3 3.3 0 0 1-6.2-1.7V881a3.3 3.3 0 0 1 6.6 0v13.3c0 .6-.1 1.2-.4 1.7zm0-26.6a3.3 3.3 0 0 1-6.2-1.7v-13.3a3.3 3.3 0 1 1 6.6 0v13.3c0 .6-.1 1.2-.4 1.7zm0-26.7a3.3 3.3 0 0 1-6.2-1.6v-13.4a3.3 3.3 0 1 1 6.6 0v13.4c0 .6-.1 1.1-.4 1.6zm0-26.6a3.3 3.3 0 0 1-6.2-1.7v-11a3.3 3.3 0 1 1 6.6 0v11c0 .6-.1 1.2-.4 1.7z"/></defs><clipPath id="bt"><use xlink:href="#bs" overflow="visible"/></clipPath><g clip-path="url(#bt)"><pattern id="bv" xlink:href="#bu" patternTransform="matrix(1.5 0 0 -.7501 6778.5 -25986)"/><path fill="url(#bv)" d="M413.5 1028.3l71.6-124 125 72.1-71.6 124z"/><pattern id="bx" xlink:href="#bw" patternTransform="matrix(1.5 0 0 -.7501 6778.5 -25986)"/><path fill="url(#bx)" d="M610 976.4l-71.5 124-125-72.1 71.6-124z"/></g><g><defs><path id="by" d="M515.2 922.6a3.3 3.3 0 0 1-6.2-1.6v-13.3a3.3 3.3 0 1 1 6.6 0V921c0 .6-.1 1.1-.4 1.6zm0-26.6a3.3 3.3 0 0 1-6.2-1.7V881a3.3 3.3 0 0 1 6.6 0v13.3c0 .6-.1 1.2-.4 1.7zm0-26.6a3.3 3.3 0 0 1-6.2-1.7v-13.3a3.3 3.3 0 1 1 6.6 0v13.3c0 .6-.1 1.2-.4 1.7zm0-26.7a3.3 3.3 0 0 1-6.2-1.6v-13.4a3.3 3.3 0 1 1 6.6 0v13.4c0 .6-.1 1.1-.4 1.6zm0-26.6a3.3 3.3 0 0 1-6.2-1.7v-11a3.3 3.3 0 1 1 6.6 0v11c0 .6-.1 1.2-.4 1.7z"/></defs><clipPath id="bz"><use xlink:href="#by" overflow="visible"/></clipPath><g clip-path="url(#bz)"><pattern id="bB" xlink:href="#bA" patternTransform="matrix(1.5 0 0 -.7501 6778.5 -25986)"/><path fill="url(#bB)" d="M485.1 904.3l71.6-124 125 72.1-71.6 124z"/><pattern id="bD" xlink:href="#bC" patternTransform="matrix(1.5 0 0 -.7501 6778.5 -25986)"/><path fill="url(#bD)" d="M681.6 852.4l-71.5 124-125-72.1 71.6-124z"/></g></g><g><defs><path id="bE" d="M515.2 922.6a3.3 3.3 0 0 1-6.2-1.6v-13.3a3.3 3.3 0 1 1 6.6 0V921c0 .6-.1 1.1-.4 1.6zm0-26.6a3.3 3.3 0 0 1-6.2-1.7V881a3.3 3.3 0 0 1 6.6 0v13.3c0 .6-.1 1.2-.4 1.7zm0-26.6a3.3 3.3 0 0 1-6.2-1.7v-13.3a3.3 3.3 0 1 1 6.6 0v13.3c0 .6-.1 1.2-.4 1.7zm0-26.7a3.3 3.3 0 0 1-6.2-1.6v-13.4a3.3 3.3 0 1 1 6.6 0v13.4c0 .6-.1 1.1-.4 1.6zm0-26.6a3.3 3.3 0 0 1-6.2-1.7v-11a3.3 3.3 0 1 1 6.6 0v11c0 .6-.1 1.2-.4 1.7z"/></defs><clipPath id="bF"><use xlink:href="#bE" overflow="visible"/></clipPath><g clip-path="url(#bF)"><pattern id="bH" xlink:href="#bG" patternTransform="matrix(1.5 0 0 -.7501 6778.5 -25986)"/><path fill="url(#bH)" d="M360.2 832.2l71.5-124 125 72.1-71.6 124z"/><pattern id="bJ" xlink:href="#bI" patternTransform="matrix(1.5 0 0 -.7501 6778.5 -25986)"/><path fill="url(#bJ)" d="M556.7 780.3l-71.6 124-125-72.1 71.6-124z"/></g></g><g><defs><path id="bK" d="M515.2 922.6a3.3 3.3 0 0 1-6.2-1.6v-13.3a3.3 3.3 0 1 1 6.6 0V921c0 .6-.1 1.1-.4 1.6zm0-26.6a3.3 3.3 0 0 1-6.2-1.7V881a3.3 3.3 0 0 1 6.6 0v13.3c0 .6-.1 1.2-.4 1.7zm0-26.6a3.3 3.3 0 0 1-6.2-1.7v-13.3a3.3 3.3 0 1 1 6.6 0v13.3c0 .6-.1 1.2-.4 1.7zm0-26.7a3.3 3.3 0 0 1-6.2-1.6v-13.4a3.3 3.3 0 1 1 6.6 0v13.4c0 .6-.1 1.1-.4 1.6zm0-26.6a3.3 3.3 0 0 1-6.2-1.7v-11a3.3 3.3 0 1 1 6.6 0v11c0 .6-.1 1.2-.4 1.7z"/></defs><clipPath id="bL"><use xlink:href="#bK" overflow="visible"/></clipPath><g clip-path="url(#bL)"><pattern id="bN" xlink:href="#bM" patternTransform="matrix(1.5 0 0 -.7501 6778.5 -25986)"/><path fill="url(#bN)" d="M485.1 904.3l71.6-124 125 72.1-71.6 124z"/><pattern id="bP" xlink:href="#bO" patternTransform="matrix(1.5 0 0 -.7501 6778.5 -25986)"/><path fill="url(#bP)" d="M681.6 852.4l-71.5 124-125-72.1 71.6-124z"/></g></g><g><defs><path id="bQ" d="M515.2 922.6a3.3 3.3 0 0 1-6.2-1.6v-13.3a3.3 3.3 0 1 1 6.6 0V921c0 .6-.1 1.1-.4 1.6zm0-26.6a3.3 3.3 0 0 1-6.2-1.7V881a3.3 3.3 0 0 1 6.6 0v13.3c0 .6-.1 1.2-.4 1.7zm0-26.6a3.3 3.3 0 0 1-6.2-1.7v-13.3a3.3 3.3 0 1 1 6.6 0v13.3c0 .6-.1 1.2-.4 1.7zm0-26.7a3.3 3.3 0 0 1-6.2-1.6v-13.4a3.3 3.3 0 1 1 6.6 0v13.4c0 .6-.1 1.1-.4 1.6zm0-26.6a3.3 3.3 0 0 1-6.2-1.7v-11a3.3 3.3 0 1 1 6.6 0v11c0 .6-.1 1.2-.4 1.7z"/></defs><clipPath id="bR"><use xlink:href="#bQ" overflow="visible"/></clipPath><g clip-path="url(#bR)"><pattern id="bT" xlink:href="#bS" patternTransform="matrix(1.5 0 0 -.7501 6778.5 -25986)"/><path fill="url(#bT)" d="M360.2 832.2l71.5-124 125 72.1-71.6 124z"/><pattern id="bV" xlink:href="#bU" patternTransform="matrix(1.5 0 0 -.7501 6778.5 -25986)"/><path fill="url(#bV)" d="M556.7 780.3l-71.6 124-125-72.1 71.6-124z"/></g></g><g><defs><path id="bW" d="M515.2 922.6a3.3 3.3 0 0 1-6.2-1.6v-13.3a3.3 3.3 0 1 1 6.6 0V921c0 .6-.1 1.1-.4 1.6zm0-26.6a3.3 3.3 0 0 1-6.2-1.7V881a3.3 3.3 0 0 1 6.6 0v13.3c0 .6-.1 1.2-.4 1.7zm0-26.6a3.3 3.3 0 0 1-6.2-1.7v-13.3a3.3 3.3 0 1 1 6.6 0v13.3c0 .6-.1 1.2-.4 1.7zm0-26.7a3.3 3.3 0 0 1-6.2-1.6v-13.4a3.3 3.3 0 1 1 6.6 0v13.4c0 .6-.1 1.1-.4 1.6zm0-26.6a3.3 3.3 0 0 1-6.2-1.7v-11a3.3 3.3 0 1 1 6.6 0v11c0 .6-.1 1.2-.4 1.7z"/></defs><clipPath id="bX"><use xlink:href="#bW" overflow="visible"/></clipPath><g clip-path="url(#bX)"><pattern id="bZ" xlink:href="#bY" patternTransform="matrix(1.5 0 0 -.7501 6778.5 -25986)"/><path fill="url(#bZ)" d="M360.2 832.2l71.5-124 125 72.1-71.6 124z"/><pattern id="cb" xlink:href="#ca" patternTransform="matrix(1.5 0 0 -.7501 6778.5 -25986)"/><path fill="url(#cb)" d="M556.7 780.3l-71.6 124-125-72.1 71.6-124z"/></g></g></g><g><pattern id="cd" xlink:href="#cc" patternTransform="matrix(1.5 0 0 -.7501 6778.5 -25986)"/><path fill="url(#cd)" d="M508.2 927.3c-.4.7-1.1 1.3-2 1.5-1.8.5-3.6-.5-4.1-2.3l-3.5-12.9a3.3 3.3 0 1 1 6.5-1.7l3.4 12.9c.3.9.1 1.8-.3 2.5zm-6.9-25.7c-.4.7-1.1 1.3-2 1.5-1.8.5-3.6-.6-4.1-2.3l-3.4-12.9a3.3 3.3 0 1 1 6.4-1.7l3.4 12.8c.3 1 .1 1.8-.3 2.6zm-6.9-25.8c-.4.8-1.1 1.3-2 1.6-1.8.5-3.6-.6-4-2.4l-3.5-12.8a3.3 3.3 0 0 1 6.4-1.8l3.4 12.9c.3.9.1 1.8-.3 2.5zm-6.9-25.7c-.4.7-1.1 1.3-2 1.6-1.8.4-3.6-.6-4-2.4l-3.5-12.9a3.3 3.3 0 1 1 6.4-1.7l3.4 12.9c.3.9.1 1.8-.3 2.5zm-6.9-25.7a3.3 3.3 0 0 1-6-.8l-3-10.7a3.3 3.3 0 1 1 6.5-1.8l2.8 10.8c.3.8.1 1.7-.3 2.5z"/><defs><path id="ce" d="M508.2 927.3c-.4.7-1.1 1.3-2 1.5-1.8.5-3.6-.5-4.1-2.3l-3.5-12.9a3.3 3.3 0 1 1 6.5-1.7l3.4 12.9c.3.9.1 1.8-.3 2.5zm-6.9-25.7c-.4.7-1.1 1.3-2 1.5-1.8.5-3.6-.6-4.1-2.3l-3.4-12.9a3.3 3.3 0 1 1 6.4-1.7l3.4 12.8c.3 1 .1 1.8-.3 2.6zm-6.9-25.8c-.4.8-1.1 1.3-2 1.6-1.8.5-3.6-.6-4-2.4l-3.5-12.8a3.3 3.3 0 0 1 6.4-1.8l3.4 12.9c.3.9.1 1.8-.3 2.5zm-6.9-25.7c-.4.7-1.1 1.3-2 1.6-1.8.4-3.6-.6-4-2.4l-3.5-12.9a3.3 3.3 0 1 1 6.4-1.7l3.4 12.9c.3.9.1 1.8-.3 2.5zm-6.9-25.7a3.3 3.3 0 0 1-6-.8l-3-10.7a3.3 3.3 0 1 1 6.5-1.8l2.8 10.8c.3.8.1 1.7-.3 2.5z"/></defs><clipPath id="cf"><use xlink:href="#ce" overflow="visible"/></clipPath><g clip-path="url(#cf)"><pattern id="ch" xlink:href="#cg" patternTransform="matrix(1.5 0 0 -.7501 6778.5 -25986)"/><path fill="url(#ch)" d="M485.1 904.3l71.6-124 125 72.1-71.6 124z"/><pattern id="cj" xlink:href="#ci" patternTransform="matrix(1.5 0 0 -.7501 6778.5 -25986)"/><path fill="url(#cj)" d="M681.6 852.4l-71.5 124-125-72.1 71.6-124z"/></g><defs><path id="ck" d="M508.2 927.3c-.4.7-1.1 1.3-2 1.5-1.8.5-3.6-.5-4.1-2.3l-3.5-12.9a3.3 3.3 0 1 1 6.5-1.7l3.4 12.9c.3.9.1 1.8-.3 2.5zm-6.9-25.7c-.4.7-1.1 1.3-2 1.5-1.8.5-3.6-.6-4.1-2.3l-3.4-12.9a3.3 3.3 0 1 1 6.4-1.7l3.4 12.8c.3 1 .1 1.8-.3 2.6zm-6.9-25.8c-.4.8-1.1 1.3-2 1.6-1.8.5-3.6-.6-4-2.4l-3.5-12.8a3.3 3.3 0 0 1 6.4-1.8l3.4 12.9c.3.9.1 1.8-.3 2.5zm-6.9-25.7c-.4.7-1.1 1.3-2 1.6-1.8.4-3.6-.6-4-2.4l-3.5-12.9a3.3 3.3 0 1 1 6.4-1.7l3.4 12.9c.3.9.1 1.8-.3 2.5zm-6.9-25.7a3.3 3.3 0 0 1-6-.8l-3-10.7a3.3 3.3 0 1 1 6.5-1.8l2.8 10.8c.3.8.1 1.7-.3 2.5z"/></defs><clipPath id="cl"><use xlink:href="#ck" overflow="visible"/></clipPath><g clip-path="url(#cl)"><pattern id="cn" xlink:href="#cm" patternTransform="matrix(1.5 0 0 -.7501 6778.5 -25986)"/><path fill="url(#cn)" d="M413.5 1028.3l71.6-124 125 72.1-71.6 124z"/><pattern id="cp" xlink:href="#co" patternTransform="matrix(1.5 0 0 -.7501 6778.5 -25986)"/><path fill="url(#cp)" d="M610 976.4l-71.5 124-125-72.1 71.6-124z"/></g><g><defs><path id="cq" d="M508.2 927.3c-.4.7-1.1 1.3-2 1.5-1.8.5-3.6-.5-4.1-2.3l-3.5-12.9a3.3 3.3 0 1 1 6.5-1.7l3.4 12.9c.3.9.1 1.8-.3 2.5zm-6.9-25.7c-.4.7-1.1 1.3-2 1.5-1.8.5-3.6-.6-4.1-2.3l-3.4-12.9a3.3 3.3 0 1 1 6.4-1.7l3.4 12.8c.3 1 .1 1.8-.3 2.6zm-6.9-25.8c-.4.8-1.1 1.3-2 1.6-1.8.5-3.6-.6-4-2.4l-3.5-12.8a3.3 3.3 0 0 1 6.4-1.8l3.4 12.9c.3.9.1 1.8-.3 2.5zm-6.9-25.7c-.4.7-1.1 1.3-2 1.6-1.8.4-3.6-.6-4-2.4l-3.5-12.9a3.3 3.3 0 1 1 6.4-1.7l3.4 12.9c.3.9.1 1.8-.3 2.5zm-6.9-25.7a3.3 3.3 0 0 1-6-.8l-3-10.7a3.3 3.3 0 1 1 6.5-1.8l2.8 10.8c.3.8.1 1.7-.3 2.5z"/></defs><clipPath id="cr"><use xlink:href="#cq" overflow="visible"/></clipPath><g clip-path="url(#cr)"><pattern id="ct" xlink:href="#cs" patternTransform="matrix(1.5 0 0 -.7501 6778.5 -25986)"/><path fill="url(#ct)" d="M360.2 832.2l71.5-124 125 72.1-71.6 124z"/><pattern id="cv" xlink:href="#cu" patternTransform="matrix(1.5 0 0 -.7501 6778.5 -25986)"/><path fill="url(#cv)" d="M556.7 780.3l-71.6 124-125-72.1 71.6-124z"/></g></g><g><defs><path id="cw" d="M508.2 927.3c-.4.7-1.1 1.3-2 1.5-1.8.5-3.6-.5-4.1-2.3l-3.5-12.9a3.3 3.3 0 1 1 6.5-1.7l3.4 12.9c.3.9.1 1.8-.3 2.5zm-6.9-25.7c-.4.7-1.1 1.3-2 1.5-1.8.5-3.6-.6-4.1-2.3l-3.4-12.9a3.3 3.3 0 1 1 6.4-1.7l3.4 12.8c.3 1 .1 1.8-.3 2.6zm-6.9-25.8c-.4.8-1.1 1.3-2 1.6-1.8.5-3.6-.6-4-2.4l-3.5-12.8a3.3 3.3 0 0 1 6.4-1.8l3.4 12.9c.3.9.1 1.8-.3 2.5zm-6.9-25.7c-.4.7-1.1 1.3-2 1.6-1.8.4-3.6-.6-4-2.4l-3.5-12.9a3.3 3.3 0 1 1 6.4-1.7l3.4 12.9c.3.9.1 1.8-.3 2.5zm-6.9-25.7a3.3 3.3 0 0 1-6-.8l-3-10.7a3.3 3.3 0 1 1 6.5-1.8l2.8 10.8c.3.8.1 1.7-.3 2.5z"/></defs><clipPath id="cx"><use xlink:href="#cw" overflow="visible"/></clipPath><g clip-path="url(#cx)"><pattern id="cz" xlink:href="#cy" patternTransform="matrix(1.5 0 0 -.7501 6778.5 -25986)"/><path fill="url(#cz)" d="M485.1 904.3l71.6-124 125 72.1-71.6 124z"/><pattern id="cB" xlink:href="#cA" patternTransform="matrix(1.5 0 0 -.7501 6778.5 -25986)"/><path fill="url(#cB)" d="M681.6 852.4l-71.5 124-125-72.1 71.6-124z"/></g></g><g><defs><path id="cC" d="M508.2 927.3c-.4.7-1.1 1.3-2 1.5-1.8.5-3.6-.5-4.1-2.3l-3.5-12.9a3.3 3.3 0 1 1 6.5-1.7l3.4 12.9c.3.9.1 1.8-.3 2.5zm-6.9-25.7c-.4.7-1.1 1.3-2 1.5-1.8.5-3.6-.6-4.1-2.3l-3.4-12.9a3.3 3.3 0 1 1 6.4-1.7l3.4 12.8c.3 1 .1 1.8-.3 2.6zm-6.9-25.8c-.4.8-1.1 1.3-2 1.6-1.8.5-3.6-.6-4-2.4l-3.5-12.8a3.3 3.3 0 0 1 6.4-1.8l3.4 12.9c.3.9.1 1.8-.3 2.5zm-6.9-25.7c-.4.7-1.1 1.3-2 1.6-1.8.4-3.6-.6-4-2.4l-3.5-12.9a3.3 3.3 0 1 1 6.4-1.7l3.4 12.9c.3.9.1 1.8-.3 2.5zm-6.9-25.7a3.3 3.3 0 0 1-6-.8l-3-10.7a3.3 3.3 0 1 1 6.5-1.8l2.8 10.8c.3.8.1 1.7-.3 2.5z"/></defs><clipPath id="cD"><use xlink:href="#cC" overflow="visible"/></clipPath><g clip-path="url(#cD)"><pattern id="cF" xlink:href="#cE" patternTransform="matrix(1.5 0 0 -.7501 6778.5 -25986)"/><path fill="url(#cF)" d="M360.2 832.2l71.5-124 125 72.1-71.6 124z"/><pattern id="cH" xlink:href="#cG" patternTransform="matrix(1.5 0 0 -.7501 6778.5 -25986)"/><path fill="url(#cH)" d="M556.7 780.3l-71.6 124-125-72.1 71.6-124z"/></g></g><g><defs><path id="cI" d="M508.2 927.3c-.4.7-1.1 1.3-2 1.5-1.8.5-3.6-.5-4.1-2.3l-3.5-12.9a3.3 3.3 0 1 1 6.5-1.7l3.4 12.9c.3.9.1 1.8-.3 2.5zm-6.9-25.7c-.4.7-1.1 1.3-2 1.5-1.8.5-3.6-.6-4.1-2.3l-3.4-12.9a3.3 3.3 0 1 1 6.4-1.7l3.4 12.8c.3 1 .1 1.8-.3 2.6zm-6.9-25.8c-.4.8-1.1 1.3-2 1.6-1.8.5-3.6-.6-4-2.4l-3.5-12.8a3.3 3.3 0 0 1 6.4-1.8l3.4 12.9c.3.9.1 1.8-.3 2.5zm-6.9-25.7c-.4.7-1.1 1.3-2 1.6-1.8.4-3.6-.6-4-2.4l-3.5-12.9a3.3 3.3 0 1 1 6.4-1.7l3.4 12.9c.3.9.1 1.8-.3 2.5zm-6.9-25.7a3.3 3.3 0 0 1-6-.8l-3-10.7a3.3 3.3 0 1 1 6.5-1.8l2.8 10.8c.3.8.1 1.7-.3 2.5z"/></defs><clipPath id="cJ"><use xlink:href="#cI" overflow="visible"/></clipPath><g clip-path="url(#cJ)"><pattern id="cL" xlink:href="#cK" patternTransform="matrix(1.5 0 0 -.7501 6778.5 -25986)"/><path fill="url(#cL)" d="M360.2 832.2l71.5-124 125 72.1-71.6 124z"/><pattern id="cN" xlink:href="#cM" patternTransform="matrix(1.5 0 0 -.7501 6778.5 -25986)"/><path fill="url(#cN)" d="M556.7 780.3l-71.6 124-125-72.1 71.6-124z"/></g></g><g><defs><path id="cO" d="M508.2 927.3c-.4.7-1.1 1.3-2 1.5-1.8.5-3.6-.5-4.1-2.3l-3.5-12.9a3.3 3.3 0 1 1 6.5-1.7l3.4 12.9c.3.9.1 1.8-.3 2.5zm-6.9-25.7c-.4.7-1.1 1.3-2 1.5-1.8.5-3.6-.6-4.1-2.3l-3.4-12.9a3.3 3.3 0 1 1 6.4-1.7l3.4 12.8c.3 1 .1 1.8-.3 2.6zm-6.9-25.8c-.4.8-1.1 1.3-2 1.6-1.8.5-3.6-.6-4-2.4l-3.5-12.8a3.3 3.3 0 0 1 6.4-1.8l3.4 12.9c.3.9.1 1.8-.3 2.5zm-6.9-25.7c-.4.7-1.1 1.3-2 1.6-1.8.4-3.6-.6-4-2.4l-3.5-12.9a3.3 3.3 0 1 1 6.4-1.7l3.4 12.9c.3.9.1 1.8-.3 2.5zm-6.9-25.7a3.3 3.3 0 0 1-6-.8l-3-10.7a3.3 3.3 0 1 1 6.5-1.8l2.8 10.8c.3.8.1 1.7-.3 2.5z"/></defs><clipPath id="cP"><use xlink:href="#cO" overflow="visible"/></clipPath><g clip-path="url(#cP)"><pattern id="cR" xlink:href="#cQ" patternTransform="matrix(1.5 0 0 -.7501 6778.5 -25986)"/><path fill="url(#cR)" d="M360.2 832.2l71.5-124 125 72.1-71.6 124z"/><pattern id="cT" xlink:href="#cS" patternTransform="matrix(1.5 0 0 -.7501 6778.5 -25986)"/><path fill="url(#cT)" d="M556.7 780.3l-71.6 124-125-72.1 71.6-124z"/></g></g></g></g><pattern id="cV" xlink:href="#cU" patternTransform="matrix(1.5 0 0 -.7501 6778.5 -26082)"/><path opacity=".9" fill="url(#cV)" d="M128 512h768v480H128z"/><pattern id="cX" xlink:href="#cW" patternTransform="matrix(1.5 0 0 -.7501 6778.5 -25990.4)"/><path opacity=".9" fill="url(#cX)" d="M128 32h768v480H128z"/><pattern id="cZ" xlink:href="#cY" patternTransform="matrix(.6155 0 0 -.6155 -20421.3 -21523.5)"/><path fill="url(#cZ)" d="M512 464a48 48 0 1 0 0 96 48 48 0 0 0 0-96z"/><pattern id="db" xlink:href="#da" patternTransform="matrix(1.5 0 0 -.7501 6778.5 -26082)"/><path fill="url(#db)" d="M512 476a36 36 0 1 0 0 72 36 36 0 0 0 0-72z"/><g fill="#FFF"><path d="M314.4 237.7h19.7c2.4 0 5 .3 7.5.9 2.6.5 5 1.5 7.2 2.8a16 16 0 0 1 5.3 5.6c1.4 2.3 2.1 5.3 2.1 8.8 0 3.1-.6 5.8-1.7 8a15.7 15.7 0 0 1-4.5 5.6 19.6 19.6 0 0 1-6.6 3.3c-2.5.7-5.1 1-7.8 1h-14.8v32.6h-6.4v-68.6zm6.4 30.2h14.5c1.8 0 3.6-.2 5.3-.6 1.8-.4 3.3-1 4.7-2 1.3-1 2.4-2.2 3.3-3.7.8-1.6 1.2-3.5 1.2-5.8a11.3 11.3 0 0 0-4.7-9.4c-1.4-1-3-1.7-4.8-2.2-1.8-.4-3.6-.6-5.4-.6h-14.1v24.3zM370 237.7h6.3v62.8h32v5.8h-38.4v-68.6zM439.3 237.7h6.6l28.8 68.6h-7.1L460 288h-36.3l-7.7 18.2h-6.7l30-68.6zm3 7l-16 37.6h31.5l-15.5-37.6zM484.6 237.7h8.2l41.7 60h.2v-60h6.4v68.6H533l-41.7-60h-.2v60h-6.4v-68.6zM575 243.6h-23.3v-5.9h53.2v5.9h-23.4v62.7H575v-62.7zM613.4 237.7h12.2v68.6h-12.2v-68.6zM637 272.3c0-5.5.8-10.5 2.6-15a33 33 0 0 1 19-18.8A40 40 0 0 1 673 236c5.4 0 10.3.7 14.7 2.4a32.2 32.2 0 0 1 19 18.6c1.9 4.5 2.8 9.4 2.8 14.9a38 38 0 0 1-2.7 14.6 33.5 33.5 0 0 1-19 18.7 40.7 40.7 0 0 1-29.3.2 33.2 33.2 0 0 1-19-18.5 38 38 0 0 1-2.7-14.6zm12.7-.8c0 3.7.6 7 1.7 10.2a22.3 22.3 0 0 0 21.8 15.3c3.6 0 6.8-.7 9.7-2a22.1 22.1 0 0 0 12.2-13.3 29.5 29.5 0 0 0 0-19.8c-1.1-3-2.7-5.5-4.8-7.8a22 22 0 0 0-7.4-5.2 24 24 0 0 0-9.7-1.9c-3.5 0-6.7.7-9.6 2a22 22 0 0 0-12.2 13c-1.1 2.9-1.7 6.1-1.7 9.5z"/></g><g><g fill="#404041"><path d="M423.8 731.6H441a8.9 8.9 0 0 1 6.8 2.6c.8.7 1.4 1.7 1.8 2.7a9 9 0 0 1 .7 3.4c0 1.8-.4 3.5-1.2 4.8-.8 1.4-2 2.4-3.8 3.1v.1a5.4 5.4 0 0 1 3.5 2.8c.3.7.6 1.5.7 2.2a18.7 18.7 0 0 1 .5 4.2 32 32 0 0 0 .5 4c.1.7.4 1.3.7 1.7h-7l-.4-1.7a31.8 31.8 0 0 1-.5-4c0-.6 0-1.3-.2-1.9a6.3 6.3 0 0 0-1.5-3.6c-.7-.8-2-1.2-3.7-1.2h-7v12.4h-7v-31.6zm7 14.3h7.6c1.6 0 2.8-.4 3.6-1.1.8-.7 1.2-1.9 1.2-3.5 0-1.5-.4-2.6-1.2-3.3-.8-.7-2-1-3.6-1h-7.6v8.9zM473.3 763.2h-6V760a7.5 7.5 0 0 1-3.2 2.9c-1.2.6-2.5 1-3.9 1-1.7 0-3-.3-4.1-.8-1.1-.4-2-1-2.6-1.9-.6-.8-1-1.8-1.3-3-.2-1.1-.3-2.4-.3-3.8v-14.1h6.2v13c0 1.8.3 3.2 1 4.1.6 1 1.6 1.4 3 1.4 1.8 0 3-.5 3.8-1.5.8-1 1.2-2.7 1.2-5v-12h6.2v22.9zM496 763.2h-6V760a7.5 7.5 0 0 1-3.1 2.9c-1.3.6-2.6 1-4 1-1.6 0-3-.3-4-.8-1.2-.4-2-1-2.6-1.9-.7-.8-1-1.8-1.3-3-.3-1.1-.4-2.4-.4-3.8v-14.1h6.3v13c0 1.8.3 3.2.9 4.1.6 1 1.6 1.4 3.1 1.4 1.7 0 3-.5 3.7-1.5.8-1 1.2-2.7 1.2-5v-12h6.3v22.9zM506.6 740.3h4.6v4.2h-4.6v11.3c0 1.1.2 1.8.5 2.2.4.3 1.1.5 2.2.5.7 0 1.3 0 2-.2v5l-1.8.1a44.4 44.4 0 0 1-4.7-.1c-.9-.2-1.7-.4-2.3-.8-.7-.4-1.2-1-1.6-1.7-.4-.7-.6-1.6-.6-2.8v-13.5h-3.8v-4.2h3.8v-6.9h6.3v6.9zM518 755.7a3.5 3.5 0 0 0 1.5 3l1.5.7a7.2 7.2 0 0 0 3.2 0c.5 0 1-.2 1.4-.4a3 3 0 0 0 1-1c.2-.3.4-.8.4-1.3s-.2-.9-.5-1.2-.8-.7-1.4-1l-2.3-.7a86 86 0 0 0-5.7-1.4c-.8-.3-1.6-.6-2.3-1.1a4.9 4.9 0 0 1-2.3-4.3 6.3 6.3 0 0 1 3.1-5.9c1-.5 2.1-.9 3.3-1.1a19.6 19.6 0 0 1 7.2 0c1.2.3 2.2.7 3.2 1.2.9.6 1.6 1.3 2.2 2.2.6 1 1 2.2 1.1 3.6h-6c0-1.2-.5-2-1.3-2.5-.9-.4-1.8-.6-3-.6h-1.1a4 4 0 0 0-1.1.3l-1 .7c-.1.2-.3.6-.3 1.1 0 .6.2 1 .7 1.4l1.6.8a110.4 110.4 0 0 1 7.6 2c.8.3 1.6.6 2.3 1.1.7.5 1.2 1.1 1.6 1.9a7.3 7.3 0 0 1-.3 6.5c-.6 1-1.4 1.8-2.3 2.4-1 .6-2.1 1-3.4 1.3a18.5 18.5 0 0 1-7.7 0 10 10 0 0 1-3.4-1.3c-1-.7-1.8-1.5-2.4-2.5-.7-1-1-2.3-1-3.9h5.9zM533.9 756.4h7v6.8h-7v-6.8zM542.2 731.6h7v25.7h15.3v5.9h-22.3v-31.6zM572.4 740.3h4.6v4.2h-4.6v11.3c0 1.1.2 1.8.5 2.2.4.3 1.1.5 2.2.5.7 0 1.3 0 2-.2v5l-1.8.1a44.4 44.4 0 0 1-4.7-.1c-.9-.2-1.7-.4-2.3-.8-.7-.4-1.2-1-1.6-1.7-.4-.7-.6-1.6-.6-2.8v-13.5h-3.8v-4.2h3.8v-6.9h6.3v6.9z"/><path d="M594.2 760.3h-.1a6.6 6.6 0 0 1-3 2.7c-1.2.5-2.5.8-4 .8-1.7 0-3.2-.3-4.5-1a9.3 9.3 0 0 1-3.2-2.7c-.8-1.2-1.5-2.5-2-4a16.5 16.5 0 0 1 0-9c.5-1.4 1.2-2.7 2-3.8a9.4 9.4 0 0 1 7.6-3.6 9 9 0 0 1 3.9.8c1.2.6 2.2 1.5 2.9 2.6v-11.5h6.4v31.6h-6v-3zm-.4-11.3c-.2-1-.5-1.7-.9-2.4a5 5 0 0 0-1.7-1.6c-.7-.4-1.5-.6-2.5-.6s-2 .2-2.6.6-1.3 1-1.7 1.7c-.5.6-.8 1.4-1 2.3a12.6 12.6 0 0 0 0 5.4l1 2.3c.5.7 1 1.3 1.8 1.7.7.5 1.5.7 2.5.7a5 5 0 0 0 2.6-.7c.7-.4 1.2-1 1.6-1.6l1-2.4a14 14 0 0 0 0-5.4z"/></g><g fill="#FFF"><path d="M423.8 731.6H441a8.9 8.9 0 0 1 6.8 2.6c.8.7 1.4 1.7 1.8 2.7a9 9 0 0 1 .7 3.4c0 1.8-.4 3.5-1.2 4.8-.8 1.4-2 2.4-3.8 3.1v.1a5.4 5.4 0 0 1 3.5 2.8c.3.7.6 1.5.7 2.2a18.7 18.7 0 0 1 .5 4.2 32 32 0 0 0 .5 4c.1.7.4 1.3.7 1.7h-7l-.4-1.7a31.8 31.8 0 0 1-.5-4c0-.6 0-1.3-.2-1.9a6.3 6.3 0 0 0-1.5-3.6c-.7-.8-2-1.2-3.7-1.2h-7v12.4h-7v-31.6zm7 14.3h7.6c1.6 0 2.8-.4 3.6-1.1.8-.7 1.2-1.9 1.2-3.5 0-1.5-.4-2.6-1.2-3.3-.8-.7-2-1-3.6-1h-7.6v8.9zM473.3 763.2h-6V760a7.5 7.5 0 0 1-3.2 2.9c-1.2.6-2.5 1-3.9 1-1.7 0-3-.3-4.1-.8-1.1-.4-2-1-2.6-1.9-.6-.8-1-1.8-1.3-3-.2-1.1-.3-2.4-.3-3.8v-14.1h6.2v13c0 1.8.3 3.2 1 4.1.6 1 1.6 1.4 3 1.4 1.8 0 3-.5 3.8-1.5.8-1 1.2-2.7 1.2-5v-12h6.2v22.9zM496 763.2h-6V760a7.5 7.5 0 0 1-3.1 2.9c-1.3.6-2.6 1-4 1-1.6 0-3-.3-4-.8-1.2-.4-2-1-2.6-1.9-.7-.8-1-1.8-1.3-3-.3-1.1-.4-2.4-.4-3.8v-14.1h6.3v13c0 1.8.3 3.2.9 4.1.6 1 1.6 1.4 3.1 1.4 1.7 0 3-.5 3.7-1.5.8-1 1.2-2.7 1.2-5v-12h6.3v22.9zM506.6 740.3h4.6v4.2h-4.6v11.3c0 1.1.2 1.8.5 2.2.4.3 1.1.5 2.2.5.7 0 1.3 0 2-.2v5l-1.8.1a44.4 44.4 0 0 1-4.7-.1c-.9-.2-1.7-.4-2.3-.8-.7-.4-1.2-1-1.6-1.7-.4-.7-.6-1.6-.6-2.8v-13.5h-3.8v-4.2h3.8v-6.9h6.3v6.9zM518 755.7a3.5 3.5 0 0 0 1.5 3l1.5.7a7.2 7.2 0 0 0 3.2 0c.5 0 1-.2 1.4-.4a3 3 0 0 0 1-1c.2-.3.4-.8.4-1.3s-.2-.9-.5-1.2-.8-.7-1.4-1l-2.3-.7a86 86 0 0 0-5.7-1.4c-.8-.3-1.6-.6-2.3-1.1a4.9 4.9 0 0 1-2.3-4.3 6.3 6.3 0 0 1 3.1-5.9c1-.5 2.1-.9 3.3-1.1a19.6 19.6 0 0 1 7.2 0c1.2.3 2.2.7 3.2 1.2.9.6 1.6 1.3 2.2 2.2.6 1 1 2.2 1.1 3.6h-6c0-1.2-.5-2-1.3-2.5-.9-.4-1.8-.6-3-.6h-1.1a4 4 0 0 0-1.1.3l-1 .7c-.1.2-.3.6-.3 1.1 0 .6.2 1 .7 1.4l1.6.8a110.4 110.4 0 0 1 7.6 2c.8.3 1.6.6 2.3 1.1.7.5 1.2 1.1 1.6 1.9a7.3 7.3 0 0 1-.3 6.5c-.6 1-1.4 1.8-2.3 2.4-1 .6-2.1 1-3.4 1.3a18.5 18.5 0 0 1-7.7 0 10 10 0 0 1-3.4-1.3c-1-.7-1.8-1.5-2.4-2.5-.7-1-1-2.3-1-3.9h5.9zM533.9 756.4h7v6.8h-7v-6.8zM542.2 731.6h7v25.7h15.3v5.9h-22.3v-31.6zM572.4 740.3h4.6v4.2h-4.6v11.3c0 1.1.2 1.8.5 2.2.4.3 1.1.5 2.2.5.7 0 1.3 0 2-.2v5l-1.8.1a44.4 44.4 0 0 1-4.7-.1c-.9-.2-1.7-.4-2.3-.8-.7-.4-1.2-1-1.6-1.7-.4-.7-.6-1.6-.6-2.8v-13.5h-3.8v-4.2h3.8v-6.9h6.3v6.9z"/><path d="M594.2 760.3h-.1a6.6 6.6 0 0 1-3 2.7c-1.2.5-2.5.8-4 .8-1.7 0-3.2-.3-4.5-1a9.3 9.3 0 0 1-3.2-2.7c-.8-1.2-1.5-2.5-2-4a16.5 16.5 0 0 1 0-9c.5-1.4 1.2-2.7 2-3.8a9.4 9.4 0 0 1 7.6-3.6 9 9 0 0 1 3.9.8c1.2.6 2.2 1.5 2.9 2.6v-11.5h6.4v31.6h-6v-3zm-.4-11.3c-.2-1-.5-1.7-.9-2.4a5 5 0 0 0-1.7-1.6c-.7-.4-1.5-.6-2.5-.6s-2 .2-2.6.6-1.3 1-1.7 1.7c-.5.6-.8 1.4-1 2.3a12.6 12.6 0 0 0 0 5.4l1 2.3c.5.7 1 1.3 1.8 1.7.7.5 1.5.7 2.5.7a5 5 0 0 0 2.6-.7c.7-.4 1.2-1 1.6-1.6l1-2.4a14 14 0 0 0 0-5.4z"/></g><g fill="#FFF"><path d="M530.5 767.5h3v3h-3zM527.1 774.5h3v3h-3zM523.6 774.5h3v3h-3zM541 771h3v3h-3zM527.1 771h3v3h-3zM523.6 778h3v3h-3zM537.5 771h3v3h-3zM541 767.5h3v3h-3zM537.5 767.5h3v3h-3zM534 767.5h3v3h-3zM534 764.7h3v2.4h-3zM534 771h3v3h-3zM537.5 764.7h3v2.4h-3zM526.4 738.5c1.4.3 2.6.8 3.6 1.4 1.1.7 2 1.6 2.8 2.7a9 9 0 0 1 1.3 4.2 1.5 1.5 0 0 1-1.5 1.7h-4.3l.8.2c1 .4 2 .8 2.8 1.4.8.6 1.5 1.4 2 2.3.4.7.7 1.5.8 2.5h6v-23.3c0-.9.6-1.5 1.4-1.5h7c.8 0 1.5.6 1.5 1.5v22.8l.4-.2c4.2-1.8 8-5 11.2-8.2-.7 0-1.4-.7-1.4-1.5v-4.2c0-.9.7-1.5 1.5-1.5h2.3v-2.1c-1.7-.1-3.8-.2-6.1-.1 2-5.6 3-10.2 3-10.2s-5.1 1.1-11 4c.2-6.2-.6-11.2-.6-11.2s-5.2 3.3-10 8.7c-2.4-6.6-5.8-11.9-5.8-11.9s-7.4 10.8-8 22.5h.3zM509.6 778h3v3h-3zM520.1 785h3v3h-3zM520.1 778h3v3h-3zM509.6 781.4h3v3h-3zM516.6 778h3v3h-3zM520.1 781.5h3v3h-3zM513.1 778h3v3h-3zM509.7 784.9h3v3h-3zM527.1 767.5h3v3h-3zM558.5 774.5h3v3h-3zM562 781.5h3v3h-3zM541 774.5h3v3h-3zM551.5 767.5h3v3h-3zM551.5 771h3v3h-3zM565.5 781.5h3v3h-3zM569 781.5h3v3h-3zM569 784.9h3v3h-3zM562 774.5h3v3h-3zM551.5 781.5h3v3h-3zM562 778h3v3h-3zM555 774.5h3v3h-3zM548 785h3v3h-3zM548 781.5h3v3h-3zM548 767.5h3v3h-3zM544.5 774.5h3v3h-3zM544.5 767.5h3v3h-3zM551.5 784.9h3v3h-3zM551.5 774.5h3v3h-3zM548 778h3v3h-3zM551.5 778h3v3h-3zM548 774.5h3v3h-3z"/></g></g></svg>
