<?xml version="1.0" encoding="utf-8"?>
<!-- Generator: Adobe Illustrator 22.1.0, SVG Export Plug-In . SVG Version: 6.00 Build 0)  -->
<svg version="1.1" id="Layer_1" xmlns="http://www.w3.org/2000/svg" xmlns:xlink="http://www.w3.org/1999/xlink" x="0px" y="0px"
	 viewBox="0 0 120 48" style="enable-background:new 0 0 120 48;" xml:space="preserve">
<style type="text/css">
	.st0{fill:#CC138A;}
	.st1{fill:#F0A836;}
	.st2{fill:#A4CDC6;}
	.st3{fill:#AAC446;}
	.st4{fill:#404041;}
	.st5{fill:none;stroke:#FFFFFF;stroke-width:0.7836;}
</style>
<g>
	<path class="st0" d="M73.7,24.9c0,0,0.6-6.1,8-9.3c7.4-3.2,16.6-1.4,16.6-1.4l-0.1,0c0,0,0,0,0,0l0.1,0c0,0-5.7,8.4-12.4,11.3
		c-2.3,1-4.4,1.4-6.1,1.4c-4,0-4.1,0-4.1,0L73.7,24.9z"/>
	<path class="st1" d="M92.9,6.9c0,0-1.9,9.9-6.8,15.3c-3.6,3.9-7.2,4.6-9.4,4.6c-1.3,0-2,0-2,0l-0.1-0.3c0,0-1.9-5.8,3.6-11.7
		C83.8,8.9,92.9,6.9,92.9,6.9"/>
	<path class="st2" d="M85.3,2.1c0,0-7.9,5-11.1,12.5c-3.2,7.5,0.6,12.3,0.6,12.3s6-0.2,9.3-8C86.9,12.1,85.3,2.1,85.3,2.1z"/>
	<path class="st3" d="M74.8,0c0,0-5.4,7.7-5.4,15.8c0,8.1,5.3,11.1,5.3,11.1s5.4-2.5,5.4-11C80.2,8.6,74.8,0,74.8,0z"/>
	<g>
		<g>
			<path class="st4" d="M1.2,10.4h11.4c0.9,0,1.8,0.2,2.6,0.5c0.8,0.3,1.4,0.7,1.9,1.3c0.5,0.5,1,1.2,1.2,1.9
				c0.3,0.7,0.4,1.5,0.4,2.2c0,1.2-0.3,2.3-0.8,3.2c-0.5,0.9-1.4,1.6-2.6,2.1v0.1c0.6,0.2,1,0.4,1.4,0.7c0.4,0.3,0.7,0.7,0.9,1.2
				c0.2,0.5,0.4,0.9,0.5,1.5c0.1,0.5,0.2,1,0.2,1.6c0,0.3,0,0.7,0.1,1.2c0,0.5,0.1,0.9,0.1,1.4c0,0.5,0.1,0.9,0.2,1.3
				c0.1,0.4,0.3,0.8,0.5,1.1h-4.6c-0.1-0.3-0.2-0.7-0.3-1.1c-0.1-0.4-0.1-0.8-0.2-1.3c0-0.4-0.1-0.9-0.1-1.4c0-0.5-0.1-0.9-0.1-1.3
				c-0.2-1.1-0.5-1.9-1-2.4c-0.5-0.5-1.3-0.8-2.5-0.8H5.9v8.2H1.2V10.4z M5.9,19.9H11c1,0,1.8-0.2,2.4-0.7c0.5-0.5,0.8-1.2,0.8-2.3
				c0-1-0.3-1.8-0.8-2.2C12.8,14.2,12,14,11,14H5.9V19.9z"/>
			<path class="st4" d="M34.2,31.5h-4v-2.1h-0.1c-0.5,0.9-1.2,1.5-2.1,1.9c-0.8,0.4-1.7,0.6-2.6,0.6c-1.1,0-2-0.2-2.8-0.5
				c-0.7-0.3-1.3-0.7-1.7-1.3c-0.4-0.5-0.7-1.2-0.9-2c-0.2-0.8-0.3-1.6-0.3-2.6v-9.4h4.2v8.6c0,1.3,0.2,2.2,0.6,2.8
				c0.4,0.6,1.1,0.9,2.1,0.9c1.1,0,2-0.3,2.5-1c0.5-0.7,0.8-1.8,0.8-3.4v-8h4.2V31.5z"/>
			<path class="st4" d="M49.4,31.5h-4v-2.1h-0.1c-0.5,0.9-1.2,1.5-2.1,1.9c-0.8,0.4-1.7,0.6-2.6,0.6c-1.1,0-2-0.2-2.8-0.5
				c-0.7-0.3-1.3-0.7-1.7-1.3c-0.4-0.5-0.7-1.2-0.9-2c-0.2-0.8-0.3-1.6-0.3-2.6v-9.4h4.2v8.6c0,1.3,0.2,2.2,0.6,2.8
				c0.4,0.6,1.1,0.9,2.1,0.9c1.1,0,2-0.3,2.5-1c0.5-0.7,0.8-1.8,0.8-3.4v-8h4.2V31.5z"/>
			<path class="st4" d="M56.4,16.2h3.1V19h-3.1v7.6c0,0.7,0.1,1.2,0.4,1.4c0.2,0.2,0.7,0.4,1.4,0.4c0.5,0,0.9,0,1.3-0.1v3.3
				c-0.4,0.1-0.7,0.1-1.2,0.1c-0.4,0-0.9,0-1.3,0c-0.6,0-1.3,0-1.8-0.1c-0.6-0.1-1.1-0.3-1.5-0.5c-0.4-0.3-0.8-0.6-1-1.1
				c-0.3-0.5-0.4-1.1-0.4-1.9v-9h-2.5v-2.8h2.5v-4.6h4.2V16.2z"/>
			<path class="st4" d="M64,26.5c0,0.5,0.1,0.8,0.3,1.2c0.2,0.3,0.4,0.6,0.7,0.8c0.3,0.2,0.6,0.4,1,0.5c0.4,0.1,0.8,0.1,1.2,0.1
				c0.3,0,0.6,0,0.9-0.1c0.3-0.1,0.6-0.2,0.9-0.3c0.3-0.1,0.5-0.3,0.7-0.6c0.2-0.2,0.3-0.6,0.3-0.9c0-0.3-0.1-0.6-0.3-0.8
				c-0.2-0.2-0.5-0.4-0.9-0.6c-0.4-0.2-0.9-0.3-1.5-0.5c-0.6-0.1-1.3-0.3-2-0.5c-0.6-0.1-1.2-0.3-1.8-0.5c-0.6-0.2-1.1-0.4-1.6-0.7
				c-0.5-0.3-0.8-0.7-1.1-1.2c-0.3-0.5-0.4-1-0.4-1.7c0-1,0.2-1.8,0.6-2.4c0.4-0.6,0.9-1.1,1.5-1.5c0.6-0.4,1.3-0.6,2.1-0.8
				c0.8-0.1,1.6-0.2,2.4-0.2c0.8,0,1.6,0.1,2.4,0.2c0.8,0.2,1.5,0.4,2.1,0.8c0.6,0.4,1.1,0.9,1.5,1.5c0.4,0.6,0.6,1.4,0.7,2.3h-4
				c-0.1-0.8-0.4-1.4-0.9-1.6c-0.6-0.3-1.2-0.4-1.9-0.4c-0.2,0-0.5,0-0.8,0c-0.3,0-0.5,0.1-0.8,0.2c-0.2,0.1-0.4,0.2-0.6,0.4
				c-0.2,0.2-0.2,0.4-0.2,0.8c0,0.4,0.1,0.7,0.4,0.9c0.3,0.2,0.6,0.4,1.1,0.6c0.4,0.1,0.9,0.3,1.5,0.4c0.6,0.1,1.2,0.2,1.7,0.4
				c0.6,0.1,1.2,0.3,1.8,0.5c0.6,0.2,1.1,0.5,1.6,0.8c0.5,0.3,0.8,0.7,1.1,1.2c0.3,0.5,0.4,1.1,0.4,1.8c0,1-0.2,1.8-0.6,2.5
				c-0.4,0.7-0.9,1.2-1.6,1.6c-0.7,0.4-1.4,0.7-2.2,0.9c-0.8,0.2-1.7,0.3-2.6,0.3c-0.9,0-1.8-0.1-2.6-0.3c-0.8-0.2-1.6-0.5-2.3-0.9
				c-0.7-0.4-1.2-1-1.6-1.7c-0.4-0.7-0.7-1.5-0.7-2.5H64z"/>
			<path class="st4" d="M80.1,10.4h4.6v17.2H95v3.9H80.1V10.4z"/>
			<path class="st4" d="M100.3,16.2h3.1V19h-3.1v7.6c0,0.7,0.1,1.2,0.4,1.4c0.2,0.2,0.7,0.4,1.4,0.4c0.5,0,0.9,0,1.3-0.1v3.3
				c-0.4,0.1-0.7,0.1-1.2,0.1c-0.4,0-0.9,0-1.3,0c-0.6,0-1.3,0-1.8-0.1c-0.6-0.1-1.1-0.3-1.5-0.5c-0.4-0.3-0.8-0.6-1-1.1
				c-0.3-0.5-0.4-1.1-0.4-1.9v-9h-2.5v-2.8h2.5v-4.6h4.2V16.2z"/>
			<path class="st4" d="M114.8,29.5L114.8,29.5c-0.6,0.8-1.2,1.4-2,1.8c-0.8,0.4-1.7,0.6-2.7,0.6c-1.2,0-2.2-0.2-3-0.7
				c-0.9-0.5-1.6-1.1-2.1-1.8c-0.6-0.8-1-1.6-1.3-2.6c-0.3-1-0.4-2-0.4-3.1c0-1,0.1-2,0.4-3c0.3-1,0.7-1.8,1.3-2.5
				c0.6-0.7,1.3-1.3,2.1-1.8c0.8-0.4,1.8-0.7,3-0.7c0.9,0,1.8,0.2,2.6,0.6c0.8,0.4,1.5,1,1.9,1.7h0.1v-7.7h4.2v21.1h-4V29.5z
				 M114.5,22c-0.1-0.6-0.3-1.1-0.6-1.6c-0.3-0.4-0.7-0.8-1.1-1.1c-0.5-0.3-1-0.4-1.7-0.4c-0.7,0-1.3,0.1-1.7,0.4
				c-0.5,0.3-0.9,0.6-1.1,1.1c-0.3,0.5-0.5,1-0.6,1.6c-0.1,0.6-0.2,1.2-0.2,1.8c0,0.6,0.1,1.2,0.2,1.8c0.1,0.6,0.4,1.1,0.7,1.6
				c0.3,0.5,0.7,0.8,1.2,1.1c0.5,0.3,1,0.4,1.7,0.4c0.7,0,1.3-0.1,1.7-0.4c0.5-0.3,0.8-0.6,1.1-1.1c0.3-0.5,0.5-1,0.6-1.6
				c0.1-0.6,0.2-1.2,0.2-1.8C114.7,23.2,114.7,22.6,114.5,22z"/>
		</g>
		<g>
			<path class="st5" d="M1.2,10.4h11.4c0.9,0,1.8,0.2,2.6,0.5c0.8,0.3,1.4,0.7,1.9,1.3c0.5,0.5,1,1.2,1.2,1.9
				c0.3,0.7,0.4,1.5,0.4,2.2c0,1.2-0.3,2.3-0.8,3.2c-0.5,0.9-1.4,1.6-2.6,2.1v0.1c0.6,0.2,1,0.4,1.4,0.7c0.4,0.3,0.7,0.7,0.9,1.2
				c0.2,0.5,0.4,0.9,0.5,1.5c0.1,0.5,0.2,1,0.2,1.6c0,0.3,0,0.7,0.1,1.2c0,0.5,0.1,0.9,0.1,1.4c0,0.5,0.1,0.9,0.2,1.3
				c0.1,0.4,0.3,0.8,0.5,1.1h-4.6c-0.1-0.3-0.2-0.7-0.3-1.1c-0.1-0.4-0.1-0.8-0.2-1.3c0-0.4-0.1-0.9-0.1-1.4c0-0.5-0.1-0.9-0.1-1.3
				c-0.2-1.1-0.5-1.9-1-2.4c-0.5-0.5-1.3-0.8-2.5-0.8H5.9v8.2H1.2V10.4z M5.9,19.9H11c1,0,1.8-0.2,2.4-0.7c0.5-0.5,0.8-1.2,0.8-2.3
				c0-1-0.3-1.8-0.8-2.2C12.8,14.2,12,14,11,14H5.9V19.9z"/>
			<path class="st5" d="M34.2,31.5h-4v-2.1h-0.1c-0.5,0.9-1.2,1.5-2.1,1.9c-0.8,0.4-1.7,0.6-2.6,0.6c-1.1,0-2-0.2-2.8-0.5
				c-0.7-0.3-1.3-0.7-1.7-1.3c-0.4-0.5-0.7-1.2-0.9-2c-0.2-0.8-0.3-1.6-0.3-2.6v-9.4h4.2v8.6c0,1.3,0.2,2.2,0.6,2.8
				c0.4,0.6,1.1,0.9,2.1,0.9c1.1,0,2-0.3,2.5-1c0.5-0.7,0.8-1.8,0.8-3.4v-8h4.2V31.5z"/>
			<path class="st5" d="M49.4,31.5h-4v-2.1h-0.1c-0.5,0.9-1.2,1.5-2.1,1.9c-0.8,0.4-1.7,0.6-2.6,0.6c-1.1,0-2-0.2-2.8-0.5
				c-0.7-0.3-1.3-0.7-1.7-1.3c-0.4-0.5-0.7-1.2-0.9-2c-0.2-0.8-0.3-1.6-0.3-2.6v-9.4h4.2v8.6c0,1.3,0.2,2.2,0.6,2.8
				c0.4,0.6,1.1,0.9,2.1,0.9c1.1,0,2-0.3,2.5-1c0.5-0.7,0.8-1.8,0.8-3.4v-8h4.2V31.5z"/>
			<path class="st5" d="M56.4,16.2h3.1V19h-3.1v7.6c0,0.7,0.1,1.2,0.4,1.4c0.2,0.2,0.7,0.4,1.4,0.4c0.5,0,0.9,0,1.3-0.1v3.3
				c-0.4,0.1-0.7,0.1-1.2,0.1c-0.4,0-0.9,0-1.3,0c-0.6,0-1.3,0-1.8-0.1c-0.6-0.1-1.1-0.3-1.5-0.5c-0.4-0.3-0.8-0.6-1-1.1
				c-0.3-0.5-0.4-1.1-0.4-1.9v-9h-2.5v-2.8h2.5v-4.6h4.2V16.2z"/>
			<path class="st5" d="M64,26.5c0,0.5,0.1,0.8,0.3,1.2c0.2,0.3,0.4,0.6,0.7,0.8c0.3,0.2,0.6,0.4,1,0.5c0.4,0.1,0.8,0.1,1.2,0.1
				c0.3,0,0.6,0,0.9-0.1c0.3-0.1,0.6-0.2,0.9-0.3c0.3-0.1,0.5-0.3,0.7-0.6c0.2-0.2,0.3-0.6,0.3-0.9c0-0.3-0.1-0.6-0.3-0.8
				c-0.2-0.2-0.5-0.4-0.9-0.6c-0.4-0.2-0.9-0.3-1.5-0.5c-0.6-0.1-1.3-0.3-2-0.5c-0.6-0.1-1.2-0.3-1.8-0.5c-0.6-0.2-1.1-0.4-1.6-0.7
				c-0.5-0.3-0.8-0.7-1.1-1.2c-0.3-0.5-0.4-1-0.4-1.7c0-1,0.2-1.8,0.6-2.4c0.4-0.6,0.9-1.1,1.5-1.5c0.6-0.4,1.3-0.6,2.1-0.8
				c0.8-0.1,1.6-0.2,2.4-0.2c0.8,0,1.6,0.1,2.4,0.2c0.8,0.2,1.5,0.4,2.1,0.8c0.6,0.4,1.1,0.9,1.5,1.5c0.4,0.6,0.6,1.4,0.7,2.3h-4
				c-0.1-0.8-0.4-1.4-0.9-1.6c-0.6-0.3-1.2-0.4-1.9-0.4c-0.2,0-0.5,0-0.8,0c-0.3,0-0.5,0.1-0.8,0.2c-0.2,0.1-0.4,0.2-0.6,0.4
				c-0.2,0.2-0.2,0.4-0.2,0.8c0,0.4,0.1,0.7,0.4,0.9c0.3,0.2,0.6,0.4,1.1,0.6c0.4,0.1,0.9,0.3,1.5,0.4c0.6,0.1,1.2,0.2,1.7,0.4
				c0.6,0.1,1.2,0.3,1.8,0.5c0.6,0.2,1.1,0.5,1.6,0.8c0.5,0.3,0.8,0.7,1.1,1.2c0.3,0.5,0.4,1.1,0.4,1.8c0,1-0.2,1.8-0.6,2.5
				c-0.4,0.7-0.9,1.2-1.6,1.6c-0.7,0.4-1.4,0.7-2.2,0.9c-0.8,0.2-1.7,0.3-2.6,0.3c-0.9,0-1.8-0.1-2.6-0.3c-0.8-0.2-1.6-0.5-2.3-0.9
				c-0.7-0.4-1.2-1-1.6-1.7c-0.4-0.7-0.7-1.5-0.7-2.5H64z"/>
			<path class="st5" d="M80.1,10.4h4.6v17.2H95v3.9H80.1V10.4z"/>
			<path class="st5" d="M100.3,16.2h3.1V19h-3.1v7.6c0,0.7,0.1,1.2,0.4,1.4c0.2,0.2,0.7,0.4,1.4,0.4c0.5,0,0.9,0,1.3-0.1v3.3
				c-0.4,0.1-0.7,0.1-1.2,0.1c-0.4,0-0.9,0-1.3,0c-0.6,0-1.3,0-1.8-0.1c-0.6-0.1-1.1-0.3-1.5-0.5c-0.4-0.3-0.8-0.6-1-1.1
				c-0.3-0.5-0.4-1.1-0.4-1.9v-9h-2.5v-2.8h2.5v-4.6h4.2V16.2z"/>
			<path class="st5" d="M114.8,29.5L114.8,29.5c-0.6,0.8-1.2,1.4-2,1.8c-0.8,0.4-1.7,0.6-2.7,0.6c-1.2,0-2.2-0.2-3-0.7
				c-0.9-0.5-1.6-1.1-2.1-1.8c-0.6-0.8-1-1.6-1.3-2.6c-0.3-1-0.4-2-0.4-3.1c0-1,0.1-2,0.4-3c0.3-1,0.7-1.8,1.3-2.5
				c0.6-0.7,1.3-1.3,2.1-1.8c0.8-0.4,1.8-0.7,3-0.7c0.9,0,1.8,0.2,2.6,0.6c0.8,0.4,1.5,1,1.9,1.7h0.1v-7.7h4.2v21.1h-4V29.5z
				 M114.5,22c-0.1-0.6-0.3-1.1-0.6-1.6c-0.3-0.4-0.7-0.8-1.1-1.1c-0.5-0.3-1-0.4-1.7-0.4c-0.7,0-1.3,0.1-1.7,0.4
				c-0.5,0.3-0.9,0.6-1.1,1.1c-0.3,0.5-0.5,1-0.6,1.6c-0.1,0.6-0.2,1.2-0.2,1.8c0,0.6,0.1,1.2,0.2,1.8c0.1,0.6,0.4,1.1,0.7,1.6
				c0.3,0.5,0.7,0.8,1.2,1.1c0.5,0.3,1,0.4,1.7,0.4c0.7,0,1.3-0.1,1.7-0.4c0.5-0.3,0.8-0.6,1.1-1.1c0.3-0.5,0.5-1,0.6-1.6
				c0.1-0.6,0.2-1.2,0.2-1.8C114.7,23.2,114.7,22.6,114.5,22z"/>
		</g>
		<g>
			<path class="st4" d="M1.2,10.4h11.4c0.9,0,1.8,0.2,2.6,0.5c0.8,0.3,1.4,0.7,1.9,1.3c0.5,0.5,1,1.2,1.2,1.9
				c0.3,0.7,0.4,1.5,0.4,2.2c0,1.2-0.3,2.3-0.8,3.2c-0.5,0.9-1.4,1.6-2.6,2.1v0.1c0.6,0.2,1,0.4,1.4,0.7c0.4,0.3,0.7,0.7,0.9,1.2
				c0.2,0.5,0.4,0.9,0.5,1.5c0.1,0.5,0.2,1,0.2,1.6c0,0.3,0,0.7,0.1,1.2c0,0.5,0.1,0.9,0.1,1.4c0,0.5,0.1,0.9,0.2,1.3
				c0.1,0.4,0.3,0.8,0.5,1.1h-4.6c-0.1-0.3-0.2-0.7-0.3-1.1c-0.1-0.4-0.1-0.8-0.2-1.3c0-0.4-0.1-0.9-0.1-1.4c0-0.5-0.1-0.9-0.1-1.3
				c-0.2-1.1-0.5-1.9-1-2.4c-0.5-0.5-1.3-0.8-2.5-0.8H5.9v8.2H1.2V10.4z M5.9,19.9H11c1,0,1.8-0.2,2.4-0.7c0.5-0.5,0.8-1.2,0.8-2.3
				c0-1-0.3-1.8-0.8-2.2C12.8,14.2,12,14,11,14H5.9V19.9z"/>
			<path class="st4" d="M34.2,31.5h-4v-2.1h-0.1c-0.5,0.9-1.2,1.5-2.1,1.9c-0.8,0.4-1.7,0.6-2.6,0.6c-1.1,0-2-0.2-2.8-0.5
				c-0.7-0.3-1.3-0.7-1.7-1.3c-0.4-0.5-0.7-1.2-0.9-2c-0.2-0.8-0.3-1.6-0.3-2.6v-9.4h4.2v8.6c0,1.3,0.2,2.2,0.6,2.8
				c0.4,0.6,1.1,0.9,2.1,0.9c1.1,0,2-0.3,2.5-1c0.5-0.7,0.8-1.8,0.8-3.4v-8h4.2V31.5z"/>
			<path class="st4" d="M49.4,31.5h-4v-2.1h-0.1c-0.5,0.9-1.2,1.5-2.1,1.9c-0.8,0.4-1.7,0.6-2.6,0.6c-1.1,0-2-0.2-2.8-0.5
				c-0.7-0.3-1.3-0.7-1.7-1.3c-0.4-0.5-0.7-1.2-0.9-2c-0.2-0.8-0.3-1.6-0.3-2.6v-9.4h4.2v8.6c0,1.3,0.2,2.2,0.6,2.8
				c0.4,0.6,1.1,0.9,2.1,0.9c1.1,0,2-0.3,2.5-1c0.5-0.7,0.8-1.8,0.8-3.4v-8h4.2V31.5z"/>
			<path class="st4" d="M56.4,16.2h3.1V19h-3.1v7.6c0,0.7,0.1,1.2,0.4,1.4c0.2,0.2,0.7,0.4,1.4,0.4c0.5,0,0.9,0,1.3-0.1v3.3
				c-0.4,0.1-0.7,0.1-1.2,0.1c-0.4,0-0.9,0-1.3,0c-0.6,0-1.3,0-1.8-0.1c-0.6-0.1-1.1-0.3-1.5-0.5c-0.4-0.3-0.8-0.6-1-1.1
				c-0.3-0.5-0.4-1.1-0.4-1.9v-9h-2.5v-2.8h2.5v-4.6h4.2V16.2z"/>
			<path class="st4" d="M64,26.5c0,0.5,0.1,0.8,0.3,1.2c0.2,0.3,0.4,0.6,0.7,0.8c0.3,0.2,0.6,0.4,1,0.5c0.4,0.1,0.8,0.1,1.2,0.1
				c0.3,0,0.6,0,0.9-0.1c0.3-0.1,0.6-0.2,0.9-0.3c0.3-0.1,0.5-0.3,0.7-0.6c0.2-0.2,0.3-0.6,0.3-0.9c0-0.3-0.1-0.6-0.3-0.8
				c-0.2-0.2-0.5-0.4-0.9-0.6c-0.4-0.2-0.9-0.3-1.5-0.5c-0.6-0.1-1.3-0.3-2-0.5c-0.6-0.1-1.2-0.3-1.8-0.5c-0.6-0.2-1.1-0.4-1.6-0.7
				c-0.5-0.3-0.8-0.7-1.1-1.2c-0.3-0.5-0.4-1-0.4-1.7c0-1,0.2-1.8,0.6-2.4c0.4-0.6,0.9-1.1,1.5-1.5c0.6-0.4,1.3-0.6,2.1-0.8
				c0.8-0.1,1.6-0.2,2.4-0.2c0.8,0,1.6,0.1,2.4,0.2c0.8,0.2,1.5,0.4,2.1,0.8c0.6,0.4,1.1,0.9,1.5,1.5c0.4,0.6,0.6,1.4,0.7,2.3h-4
				c-0.1-0.8-0.4-1.4-0.9-1.6c-0.6-0.3-1.2-0.4-1.9-0.4c-0.2,0-0.5,0-0.8,0c-0.3,0-0.5,0.1-0.8,0.2c-0.2,0.1-0.4,0.2-0.6,0.4
				c-0.2,0.2-0.2,0.4-0.2,0.8c0,0.4,0.1,0.7,0.4,0.9c0.3,0.2,0.6,0.4,1.1,0.6c0.4,0.1,0.9,0.3,1.5,0.4c0.6,0.1,1.2,0.2,1.7,0.4
				c0.6,0.1,1.2,0.3,1.8,0.5c0.6,0.2,1.1,0.5,1.6,0.8c0.5,0.3,0.8,0.7,1.1,1.2c0.3,0.5,0.4,1.1,0.4,1.8c0,1-0.2,1.8-0.6,2.5
				c-0.4,0.7-0.9,1.2-1.6,1.6c-0.7,0.4-1.4,0.7-2.2,0.9c-0.8,0.2-1.7,0.3-2.6,0.3c-0.9,0-1.8-0.1-2.6-0.3c-0.8-0.2-1.6-0.5-2.3-0.9
				c-0.7-0.4-1.2-1-1.6-1.7c-0.4-0.7-0.7-1.5-0.7-2.5H64z"/>
			<path class="st4" d="M80.1,10.4h4.6v17.2H95v3.9H80.1V10.4z"/>
			<path class="st4" d="M100.3,16.2h3.1V19h-3.1v7.6c0,0.7,0.1,1.2,0.4,1.4c0.2,0.2,0.7,0.4,1.4,0.4c0.5,0,0.9,0,1.3-0.1v3.3
				c-0.4,0.1-0.7,0.1-1.2,0.1c-0.4,0-0.9,0-1.3,0c-0.6,0-1.3,0-1.8-0.1c-0.6-0.1-1.1-0.3-1.5-0.5c-0.4-0.3-0.8-0.6-1-1.1
				c-0.3-0.5-0.4-1.1-0.4-1.9v-9h-2.5v-2.8h2.5v-4.6h4.2V16.2z"/>
			<path class="st4" d="M114.8,29.5L114.8,29.5c-0.6,0.8-1.2,1.4-2,1.8c-0.8,0.4-1.7,0.6-2.7,0.6c-1.2,0-2.2-0.2-3-0.7
				c-0.9-0.5-1.6-1.1-2.1-1.8c-0.6-0.8-1-1.6-1.3-2.6c-0.3-1-0.4-2-0.4-3.1c0-1,0.1-2,0.4-3c0.3-1,0.7-1.8,1.3-2.5
				c0.6-0.7,1.3-1.3,2.1-1.8c0.8-0.4,1.8-0.7,3-0.7c0.9,0,1.8,0.2,2.6,0.6c0.8,0.4,1.5,1,1.9,1.7h0.1v-7.7h4.2v21.1h-4V29.5z
				 M114.5,22c-0.1-0.6-0.3-1.1-0.6-1.6c-0.3-0.4-0.7-0.8-1.1-1.1c-0.5-0.3-1-0.4-1.7-0.4c-0.7,0-1.3,0.1-1.7,0.4
				c-0.5,0.3-0.9,0.6-1.1,1.1c-0.3,0.5-0.5,1-0.6,1.6c-0.1,0.6-0.2,1.2-0.2,1.8c0,0.6,0.1,1.2,0.2,1.8c0.1,0.6,0.4,1.1,0.7,1.6
				c0.3,0.5,0.7,0.8,1.2,1.1c0.5,0.3,1,0.4,1.7,0.4c0.7,0,1.3-0.1,1.7-0.4c0.5-0.3,0.8-0.6,1.1-1.1c0.3-0.5,0.5-1,0.6-1.6
				c0.1-0.6,0.2-1.2,0.2-1.8C114.7,23.2,114.7,22.6,114.5,22z"/>
		</g>
	</g>
	<rect x="77" y="36.7" class="st2" width="2" height="2"/>
	<rect x="65.4" y="41.3" class="st3" width="2" height="2"/>
	<rect x="70" y="39" class="st3" width="2" height="2"/>
	<rect x="79.3" y="39" class="st2" width="2" height="2"/>
	<rect x="67.7" y="39" class="st3" width="2" height="2"/>
	<rect x="81.7" y="39" class="st2" width="2" height="2"/>
	<rect x="84" y="39" class="st2" width="2" height="2"/>
	<rect x="84" y="41.3" class="st2" width="2" height="2"/>
	<rect x="70" y="34.3" class="st3" width="2" height="2"/>
	<rect x="67.7" y="41.3" class="st3" width="2" height="2"/>
	<rect x="74.7" y="36.7" class="st2" width="2" height="2"/>
	<rect x="70" y="36.7" class="st3" width="2" height="2"/>
	<rect x="79.3" y="36.7" class="st2" width="2" height="2"/>
	<rect x="74.7" y="34.3" class="st2" width="2" height="2"/>
	<rect x="84" y="34.3" class="st1" width="2" height="2"/>
	<rect x="86.3" y="41.3" class="st1" width="2" height="2"/>
	<rect x="86.3" y="43.6" class="st1" width="2" height="2"/>
	<rect x="93.3" y="43.6" class="st0" width="2" height="2"/>
	<rect x="86.3" y="46" class="st1" width="2" height="2"/>
	<rect x="86.3" y="36.7" class="st1" width="2" height="2"/>
	<rect x="86.3" y="39" class="st1" width="2" height="2"/>
	<rect x="86.3" y="34.3" class="st1" width="2" height="2"/>
	<rect x="93.3" y="41.3" class="st0" width="2" height="2"/>
	<rect x="95.6" y="43.6" class="st0" width="2" height="2"/>
	<rect x="63.1" y="41.3" class="st3" width="2" height="2"/>
	<rect x="72.4" y="34.3" class="st3" width="2" height="2"/>
	<rect x="98" y="43.6" class="st0" width="2" height="2"/>
	<rect x="98" y="46" class="st0" width="2" height="2"/>
	<rect x="93.3" y="39" class="st0" width="2" height="2"/>
	<rect x="88.7" y="39" class="st0" width="2" height="2"/>
	<rect x="91" y="39" class="st0" width="2" height="2"/>
	<rect x="81.7" y="34.3" class="st1" width="2" height="2"/>
	<rect x="79.3" y="34.3" class="st1" width="2" height="2"/>
	<rect x="77" y="34.3" class="st1" width="2" height="2"/>
	<rect x="77" y="32" class="st1" width="2" height="2"/>
	<rect x="74.7" y="32" class="st2" width="2" height="2"/>
	<rect x="84" y="43.6" class="st2" width="2" height="2"/>
	<rect x="84" y="46" class="st2" width="2" height="2"/>
	<rect x="58.4" y="41.3" class="st3" width="2" height="2"/>
	<rect x="65.4" y="46" class="st3" width="2" height="2"/>
	<rect x="65.4" y="43.6" class="st3" width="2" height="2"/>
	<rect x="58.4" y="46" class="st3" width="2" height="2"/>
	<rect x="58.4" y="43.6" class="st3" width="2" height="2"/>
	<rect x="60.8" y="41.3" class="st3" width="2" height="2"/>
</g>
</svg>
