<?xml version="1.0" encoding="utf-8"?>
<!-- Generator: Adobe Illustrator 16.0.0, SVG Export Plug-In . SVG Version: 6.00 Build 0)  -->
<!DOCTYPE svg PUBLIC "-//W3C//DTD SVG 1.1//EN" "http://www.w3.org/Graphics/SVG/1.1/DTD/svg11.dtd">
<svg version="1.1" id="Layer_1" xmlns="http://www.w3.org/2000/svg" xmlns:xlink="http://www.w3.org/1999/xlink" x="0px" y="0px"
	 width="128px" height="128px" viewBox="0 0 128 128" enable-background="new 0 0 128 128" xml:space="preserve">
<pattern  width="129" height="130" patternUnits="userSpaceOnUse" id="New_Pattern_Swatch_3" viewBox="0 -130 129 130" overflow="visible">
	<g>
		<polygon fill="none" points="0,0 129,0 129,-130 0,-130 		"/>
		<polygon fill="#A4CDC6" points="129,0 0,0 0,-130 129,-130 		"/>
	</g>
</pattern>
<g>
	<g>
		<path fill="url(#New_Pattern_Swatch_3)" d="M108.699,69.101c2.201-2.52,3.301-5.5,3.301-8.94c0-3.119-1.141-5.818-3.418-8.101
			c-2.279-2.28-4.979-3.421-8.099-3.421H83.865c0.159-0.56,0.318-1.039,0.479-1.439c0.158-0.399,0.381-0.841,0.659-1.32
			c0.28-0.48,0.48-0.84,0.599-1.079c0.721-1.359,1.271-2.481,1.652-3.36c0.38-0.881,0.758-2.08,1.139-3.601
			c0.381-1.519,0.57-3.039,0.57-4.56c0-0.96-0.012-1.74-0.031-2.34s-0.12-1.5-0.299-2.7c-0.18-1.199-0.422-2.2-0.721-2.999
			c-0.301-0.8-0.781-1.701-1.439-2.7c-0.661-1.001-1.459-1.811-2.401-2.431c-0.94-0.619-2.14-1.14-3.599-1.56
			c-1.463-0.42-3.111-0.63-4.953-0.63c-1.04,0-1.938,0.381-2.699,1.141c-0.801,0.8-1.481,1.8-2.041,2.999
			c-0.56,1.2-0.949,2.24-1.17,3.12c-0.221,0.881-0.471,2.101-0.749,3.66c-0.362,1.681-0.63,2.891-0.812,3.63
			c-0.18,0.74-0.53,1.71-1.051,2.91c-0.52,1.2-1.139,2.16-1.859,2.88c-1.32,1.319-3.339,3.72-6.061,7.199
			c-1.96,2.561-3.98,4.98-6.061,7.26c-2.08,2.281-3.599,3.46-4.56,3.541c-0.999,0.08-1.858,0.489-2.579,1.229
			c-0.72,0.74-1.08,1.61-1.08,2.61v38.46c0,1.04,0.379,1.93,1.14,2.669c0.761,0.741,1.659,1.131,2.7,1.171
			c1.4,0.04,4.56,0.919,9.48,2.642c3.078,1.037,5.488,1.829,7.229,2.368s4.172,1.119,7.289,1.74c3.12,0.62,6,0.931,8.64,0.931h1.02
			h4.56h2.161c5.32-0.08,9.259-1.641,11.819-4.68c2.319-2.761,3.299-6.381,2.94-10.859c1.56-1.481,2.642-3.36,3.24-5.641
			c0.679-2.438,0.679-4.778,0-7.019c1.839-2.439,2.7-5.181,2.578-8.22C109.601,72.381,109.301,70.861,108.699,69.101z"/>
		<path fill="url(#New_Pattern_Swatch_3)" d="M37.12,56.32H19.841c-1.042,0-1.94,0.38-2.701,1.141C16.379,58.221,16,59.12,16,60.16
			v38.401c0,1.038,0.379,1.939,1.14,2.7c0.761,0.759,1.661,1.139,2.701,1.139H37.12c1.04,0,1.939-0.38,2.7-1.139
			c0.76-0.761,1.139-1.662,1.139-2.7V60.16c0-1.04-0.379-1.939-1.139-2.699C39.06,56.7,38.16,56.32,37.12,56.32z M30.219,93.61
			c-0.76,0.739-1.659,1.11-2.699,1.11c-1.08,0-1.989-0.371-2.729-1.11c-0.74-0.739-1.111-1.649-1.111-2.729
			c0-1.039,0.369-1.94,1.111-2.7c0.739-0.759,1.648-1.14,2.729-1.14c1.04,0,1.939,0.381,2.699,1.14c0.761,0.76,1.142,1.66,1.142,2.7
			C31.36,91.961,30.98,92.871,30.219,93.61z"/>
	</g>
</g>
</svg>
