<?xml version="1.0" encoding="utf-8"?>
<!-- Generator: Adobe Illustrator 16.0.0, SVG Export Plug-In . SVG Version: 6.00 Build 0)  -->
<!DOCTYPE svg PUBLIC "-//W3C//DTD SVG 1.1//EN" "http://www.w3.org/Graphics/SVG/1.1/DTD/svg11.dtd">
<svg version="1.1" id="Layer_1" xmlns="http://www.w3.org/2000/svg" xmlns:xlink="http://www.w3.org/1999/xlink" x="0px" y="0px"
	 width="128px" height="128px" viewBox="0 0 128 128" enable-background="new 0 0 128 128" xml:space="preserve">
<pattern  width="129" height="130" patternUnits="userSpaceOnUse" id="New_Pattern_Swatch_2" viewBox="0 -130 129 130" overflow="visible">
	<g>
		<polygon fill="none" points="0,0 129,0 129,-130 0,-130 		"/>
		<polygon fill="#F0A836" points="129,0 0,0 0,-130 129,-130 		"/>
	</g>
</pattern>
<pattern  width="129" height="130" patternUnits="userSpaceOnUse" id="New_Pattern_Swatch_3" viewBox="0 -130 129 130" overflow="visible">
	<g>
		<polygon fill="none" points="0,0 129,0 129,-130 0,-130 		"/>
		<polygon fill="#A4CDC6" points="129,0 0,0 0,-130 129,-130 		"/>
	</g>
</pattern>
<pattern  width="129" height="130" patternUnits="userSpaceOnUse" id="New_Pattern_Swatch_4" viewBox="0 -130 129 130" overflow="visible">
	<g>
		<polygon fill="none" points="0,0 129,0 129,-130 0,-130 		"/>
		<polygon fill="#a8c924" points="129,0 0,0 0,-130 129,-130 		"/>
	</g>
</pattern>
<pattern  width="129" height="130" patternUnits="userSpaceOnUse" id="New_Pattern_Swatch_5" viewBox="0 -130 129 130" overflow="visible">
	<g>
		<polygon fill="none" points="0,0 129,0 129,-130 0,-130 		"/>
		<polygon fill="#404041" points="129,0 0,0 0,-130 129,-130 		"/>
	</g>
</pattern>
<g>
	<path fill="url(#New_Pattern_Swatch_5)" d="M120.58,84.584c0.003-0.013,0.003-0.024,0.006-0.037
		c1.292-4.827,1.99-9.895,1.99-15.123c0-5.207-0.698-10.251-1.979-15.06c-0.007-0.035-0.007-0.069-0.017-0.104
		c-0.01-0.036-0.027-0.067-0.039-0.102c-1.327-4.909-3.264-9.569-5.748-13.88c-0.022-0.047-0.037-0.097-0.064-0.143
		c-0.041-0.072-0.094-0.132-0.142-0.197c-2.184-3.729-4.763-7.199-7.688-10.345l6.191-6.191c0.848-0.848,0.848-2.219,0-3.068
		c-0.85-0.848-2.221-0.848-3.068,0l-6.201,6.201c-3.105-2.883-6.52-5.434-10.193-7.597c-0.104-0.09-0.216-0.173-0.34-0.245
		c-0.127-0.074-0.259-0.132-0.394-0.178c-4.237-2.413-8.796-4.323-13.605-5.625c-0.044-0.014-0.083-0.036-0.128-0.048
		c-0.065-0.018-0.3-0.021-0.366-0.032C75.363,11.905,72,11.294,68,11.025V7h5.762c1.797,0,3.256-1.703,3.256-3.5
		c0-1.795-1.459-3.5-3.256-3.5H54.236c-1.795,0-3.254,1.705-3.254,3.5c0,1.797,1.457,3.5,3.254,3.5H60v4.025
		c-4,0.269-7.362,0.879-10.792,1.786c-0.066,0.012-0.219,0.015-0.285,0.033c-0.045,0.012-0.126,0.034-0.169,0.048
		c-4.807,1.301-9.386,3.21-13.621,5.621c-0.137,0.046-0.282,0.106-0.411,0.181c-0.127,0.073-0.248,0.157-0.354,0.25
		c-3.67,2.161-7.083,4.71-10.186,7.591l-6.203-6.201c-0.848-0.848-2.219-0.848-3.068,0c-0.848,0.85-0.849,2.221-0.001,3.068
		l6.191,6.191c-2.925,3.145-5.504,6.614-7.687,10.342c-0.049,0.066-0.102,0.127-0.144,0.2c-0.026,0.045-0.041,0.094-0.063,0.141
		c-2.485,4.311-4.422,8.973-5.749,13.882C7.447,54.193,7.43,54.225,7.42,54.26c-0.01,0.035-0.01,0.069-0.017,0.104
		c-1.281,4.809-1.979,9.853-1.979,15.06c0,5.229,0.698,10.296,1.99,15.123c0.003,0.013,0.003,0.024,0.006,0.037
		c0.006,0.021,0.016,0.04,0.021,0.061c1.315,4.882,3.25,9.509,5.71,13.802c0.037,0.09,0.07,0.181,0.12,0.267
		c0.037,0.063,0.089,0.11,0.131,0.169c2.494,4.268,5.504,8.196,8.957,11.69c0.067,0.093,0.137,0.186,0.221,0.27
		c0.082,0.082,0.174,0.149,0.265,0.216c3.482,3.442,7.396,6.444,11.646,8.935c0.071,0.055,0.14,0.112,0.22,0.158
		c0.063,0.036,0.13,0.051,0.193,0.08c4.317,2.481,8.974,4.433,13.889,5.756c0.016,0.005,0.03,0.013,0.047,0.018
		c0.01,0.003,0.02,0.002,0.029,0.004C53.699,127.301,58.769,128,64,128s10.301-0.699,15.131-1.992
		c0.01-0.002,0.02-0.001,0.029-0.004c0.017-0.005,0.031-0.013,0.047-0.018c4.909-1.321,9.56-3.27,13.872-5.746
		c0.069-0.031,0.142-0.048,0.208-0.086c0.088-0.051,0.163-0.112,0.24-0.173c4.243-2.487,8.15-5.486,11.627-8.923
		c0.092-0.066,0.183-0.135,0.266-0.217c0.084-0.084,0.153-0.177,0.221-0.27c3.452-3.494,6.462-7.422,8.956-11.688
		c0.042-0.059,0.095-0.106,0.132-0.171c0.05-0.086,0.083-0.177,0.12-0.267c2.46-4.293,4.395-8.92,5.71-13.802
		C120.564,84.623,120.574,84.605,120.58,84.584z M62,15.241v4.284c0,1.199,0.801,2.17,2,2.17s2-0.971,2-2.17v-4.284
		c4,0.132,6.684,0.57,9.842,1.282l-1.066,4.141c-0.309,1.156,0.4,2.348,1.557,2.658c0.188,0.05,0.388,0.074,0.575,0.074
		c0.955,0,1.84-0.641,2.098-1.609l1.115-4.155c3.163,0.987,6.199,2.267,9.087,3.79l-2.138,3.705c-0.6,1.039-0.241,2.365,0.796,2.964
		c0.34,0.196,0.713,0.29,1.082,0.29c0.75,0,1.479-0.391,1.881-1.084l2.133-3.696c2.78,1.764,5.394,3.768,7.802,5.992l-3.013,3.013
		c-0.848,0.848-0.848,2.219,0,3.068c0.424,0.422,0.979,0.635,1.535,0.635c0.555,0,1.109-0.213,1.533-0.635l3.013-3.012
		c2.225,2.409,4.229,5.021,5.992,7.802l-3.694,2.132c-1.039,0.598-1.395,1.925-0.793,2.964c0.402,0.696,1.129,1.084,1.881,1.084
		c0.367,0,0.742-0.094,1.082-0.291l3.702-2.137c1.521,2.887,2.802,5.92,3.788,9.083l-4.154,1.113
		c-1.156,0.312-1.846,1.501-1.533,2.658c0.26,0.97,1.135,1.607,2.094,1.607c0.186,0,0.375-0.023,0.564-0.074l4.139-1.236
		c0.712,3.159,1.15,6.632,1.283,9.632h-4.283c-1.199,0-2.17,1.301-2.17,2.5s0.971,2.5,2.17,2.5h4.283
		c-0.133,3-0.571,6.396-1.283,9.556l-4.139-1.21c-1.152-0.313-2.348,0.324-2.658,1.482c-0.311,1.156,0.377,2.32,1.533,2.633
		l4.154,1.1c-0.986,3.164-2.267,6.191-3.789,9.078l-3.703-2.142c-1.037-0.602-2.365-0.247-2.963,0.792
		c-0.6,1.039-0.244,2.364,0.793,2.964l3.695,2.132c-1.763,2.78-3.767,5.393-5.99,7.801l-3.014-3.014
		c-0.848-0.848-2.219-0.848-3.068,0c-0.848,0.85-0.848,2.221,0,3.068l3.014,3.014c-2.408,2.226-5.021,4.229-7.803,5.993
		l-2.133-3.694c-0.602-1.041-1.932-1.396-2.963-0.793c-1.041,0.598-1.396,1.926-0.795,2.963l2.138,3.703
		c-2.888,1.522-5.922,2.803-9.085,3.789l-1.113-4.154c-0.309-1.156-1.498-1.848-2.656-1.533c-1.156,0.311-1.844,1.498-1.535,2.658
		l1.023,4.139c-3.158,0.712-5.842,1.15-9.842,1.283v-4.285c0-1.199-0.801-2.17-2-2.17s-2,0.971-2,2.17v4.285
		c-4-0.133-6.684-0.571-9.843-1.283l1.065-4.139c0.309-1.16-0.398-2.35-1.555-2.658c-1.156-0.313-2.358,0.377-2.669,1.533
		l-1.119,4.154c-3.163-0.987-6.199-2.267-9.086-3.789l2.137-3.705c0.598-1.037,0.242-2.363-0.795-2.965
		c-1.037-0.6-2.364-0.246-2.964,0.795l-2.134,3.696c-2.781-1.764-5.394-3.768-7.803-5.992l3.015-3.015
		c0.848-0.848,0.848-2.219,0-3.068c-0.85-0.848-2.221-0.846-3.068,0l-3.015,3.015c-2.224-2.409-4.228-5.021-5.991-7.802l3.695-2.133
		c1.037-0.6,1.395-1.926,0.793-2.965c-0.6-1.039-1.93-1.396-2.963-0.793l-3.703,2.138c-1.522-2.887-2.802-5.92-3.789-9.083
		l4.156-1.113c1.156-0.313,1.842-1.502,1.533-2.658c-0.309-1.158-1.498-1.85-2.658-1.533L11.1,81.556
		C10.388,78.396,9.949,75,9.816,72h4.285c1.199,0,2.17-1.301,2.17-2.5s-0.971-2.5-2.17-2.5H9.816c0.133-3,0.571-6.473,1.283-9.632
		l4.141,1.173c0.189,0.05,0.377,0.105,0.564,0.105c0.957,0,1.834-0.622,2.094-1.591c0.313-1.156-0.377-2.338-1.533-2.65l-4.156-1.11
		c0.987-3.163,2.267-6.194,3.789-9.081l3.703,2.139c0.34,0.197,0.713,0.292,1.082,0.292c0.752,0,1.48-0.388,1.881-1.084
		c0.6-1.039,0.244-2.366-0.793-2.964l-3.695-2.133c1.765-2.781,3.768-5.394,5.993-7.803l3.013,3.013
		c0.424,0.422,0.979,0.635,1.533,0.635c0.557,0,1.111-0.213,1.535-0.635c0.848-0.849,0.848-2.22,0-3.068l-3.014-3.013
		c2.409-2.225,5.021-4.228,7.803-5.992l2.133,3.696c0.404,0.693,1.131,1.084,1.881,1.084c0.369,0,0.742-0.093,1.082-0.29
		c1.039-0.599,1.396-1.927,0.795-2.964l-2.138-3.705c2.886-1.522,5.919-2.802,9.082-3.789l1.112,4.154
		c0.26,0.968,1.135,1.609,2.094,1.609c0.188,0,0.375-0.024,0.564-0.074c1.156-0.311,1.844-1.5,1.533-2.658l-1.023-4.14
		C55.314,15.812,58,15.373,62,15.241z"/>
	<path fill="url(#New_Pattern_Swatch_3)" d="M40.135,45.56L40.135,45.56l28.082,20.313c2.764,2.008,3.078,6.012,0.662,8.43l0,0
		c-2.416,2.418-6.42,2.102-8.43-0.66L40.135,45.56z"/>
	<polygon fill="url(#New_Pattern_Swatch_2)" points="22.987,19.502 14.503,27.988 6.017,19.502 14.503,11.017 	"/>
	<polygon fill="url(#New_Pattern_Swatch_4)" points="113.498,27.987 105.012,19.503 113.498,11.017 121.982,19.503 	"/>
</g>
</svg>
