<?xml version="1.0" encoding="utf-8"?>
<!-- Generator: Adobe Illustrator 16.0.0, SVG Export Plug-In . SVG Version: 6.00 Build 0)  -->
<!DOCTYPE svg PUBLIC "-//W3C//DTD SVG 1.1//EN" "http://www.w3.org/Graphics/SVG/1.1/DTD/svg11.dtd">
<svg version="1.1" id="_x34_" xmlns="http://www.w3.org/2000/svg" xmlns:xlink="http://www.w3.org/1999/xlink" x="0px" y="0px"
	 width="1024px" height="1024px" viewBox="0 0 1024 1024" enable-background="new 0 0 1024 1024" xml:space="preserve">
<pattern  width="129" height="130" patternUnits="userSpaceOnUse" id="New_Pattern_Swatch_2" viewBox="0 -130 129 130" overflow="visible">
	<g>
		<polygon fill="none" points="0,0 129,0 129,-130 0,-130 		"/>
		<polygon fill="#F0A836" points="129,0 0,0 0,-130 129,-130 		"/>
	</g>
</pattern>
<pattern  width="129" height="130" patternUnits="userSpaceOnUse" id="New_Pattern_Swatch_3" viewBox="0 -130 129 130" overflow="visible">
	<g>
		<polygon fill="none" points="0,0 129,0 129,-130 0,-130 		"/>
		<polygon fill="#A4CDC6" points="129,0 0,0 0,-130 129,-130 		"/>
	</g>
</pattern>
<pattern  width="129" height="130" patternUnits="userSpaceOnUse" id="New_Pattern_Swatch_4" viewBox="0 -130 129 130" overflow="visible">
	<g>
		<polygon fill="none" points="0,0 129,0 129,-130 0,-130 		"/>
		<polygon fill="#a8c924" points="129,0 0,0 0,-130 129,-130 		"/>
	</g>
</pattern>
<pattern  width="129" height="130" patternUnits="userSpaceOnUse" id="New_Pattern_Swatch_5" viewBox="0 -130 129 130" overflow="visible">
	<g>
		<polygon fill="none" points="0,0 129,0 129,-130 0,-130 		"/>
		<polygon fill="#404041" points="129,0 0,0 0,-130 129,-130 		"/>
	</g>
</pattern>
<polygon fill="none" stroke="url(#New_Pattern_Swatch_4)" stroke-width="6" stroke-miterlimit="10" points="257.096,681 
	513.096,237.593 769.095,681 "/>
<rect x="480" y="181" fill="#FFFFFF" width="68" height="103"/>
<g>
	<g>
		<g>
			<g>
				<path fill="url(#New_Pattern_Swatch_3)" d="M417.096,325.062c-15.996,0.001-29.091-13.089-29.091-29.095v-41.884h58.184v41.889
					C446.185,311.972,433.094,325.06,417.096,325.062"/>
				<path fill="url(#New_Pattern_Swatch_5)" d="M382.185,255.246h14.547l-0.002,14.546c0.002,1.743,1.168,2.905,2.91,2.905
					l5.819,0.002l-5.229,6.98c-0.88,1.164-0.591,3.197,0.576,4.072c1.163,0.874,3.2,0.579,4.071-0.584l8.729-11.633
					c0.582-0.872,0.871-2.037,0.293-2.906c-0.585-0.878-1.457-1.746-2.616-1.75l-8.733-0.002v-11.633l29.09,0.002l-0.001,23.27
					h-11.633l5.24-6.981c0.867-1.163,0.579-3.198-0.584-4.069c-1.168-0.875-3.205-0.585-4.074,0.577l-8.73,11.638
					c-0.579,0.871-0.87,2.031-0.286,2.909c0.584,0.872,1.452,1.741,2.616,1.743l20.363,0.004c1.747-0.002,2.912-1.168,2.906-2.911
					l0.002-26.184c1.746,0.001,2.908-1.159,2.908-2.905s-1.161-2.91-2.908-2.911l-55.269,0.001c-1.748,0-2.914-1.163-2.91-2.906
					c0.001-1.75,1.162-2.91,2.905-2.914h69.816c1.748,0.004,2.912,1.168,2.914,2.912c-0.002,1.748-1.166,2.908-2.912,2.908h-2.91
					c-2.906,0-2.908,2.619-2.91,4.657l0.006,41.889c-0.004,16-13.095,29.088-29.093,29.09
					c-15.996,0.001-29.091-13.089-29.091-29.095l0.003-31.994c-0.002-1.75-1.162-2.91-2.911-2.91c-1.746,0-2.913,1.16-2.911,2.908
					l-0.002,32.001c0.002,19.202,15.712,34.909,34.91,34.909c19.202,0,34.915-15.713,34.911-34.909c0,0-0.002-30.839-0.002-40.729
					c4.951,0.004,8.727-3.777,8.729-8.723c0.002-4.949-3.783-8.732-8.723-8.732l-69.822,0.002c-4.949-0.002-8.728,3.782-8.728,8.73
					C373.464,251.461,377.238,255.246,382.185,255.246z"/>
			</g>
		</g>
		<g>
			<g>
				<path fill="url(#New_Pattern_Swatch_5)" d="M434.552,231.973c1.746,0,2.906-1.162,2.911-2.908l0.001-23.276
					c-0.002-1.745-1.166-2.905-2.915-2.907c-1.743-0.001-2.908,1.166-2.91,2.908l0.002,23.273
					C431.638,230.809,432.806,231.973,434.552,231.973z"/>
			</g>
		</g>
		<g>
			<g>
				<path fill="url(#New_Pattern_Swatch_5)" d="M399.64,231.973c1.744,0,2.91-1.164,2.908-2.91l0.001-23.271
					c0-1.746-1.16-2.906-2.906-2.908c-1.748,0-2.911,1.164-2.909,2.906v23.273C396.732,230.807,397.896,231.969,399.64,231.973z"/>
			</g>
		</g>
	</g>
	<g>
		<g>
			<g>
				<path fill="url(#New_Pattern_Swatch_3)" d="M513.097,326.062c-15.997,0.001-29.092-13.089-29.092-29.095v-41.884h58.184v41.889
					C542.185,312.972,529.093,326.06,513.097,326.062"/>
				<path fill="url(#New_Pattern_Swatch_5)" d="M478.185,256.246h14.547l-0.002,14.546c0.002,1.743,1.168,2.905,2.91,2.905
					l5.82,0.002l-5.23,6.98c-0.879,1.164-0.59,3.197,0.576,4.072c1.163,0.874,3.201,0.579,4.072-0.584l8.728-11.633
					c0.583-0.872,0.872-2.037,0.293-2.906c-0.585-0.878-1.456-1.746-2.616-1.75l-8.732-0.002l-0.001-11.633l29.089,0.002v23.27
					h-11.633l5.24-6.981c0.867-1.163,0.578-3.198-0.584-4.069c-1.168-0.875-3.205-0.585-4.074,0.577l-8.73,11.638
					c-0.578,0.871-0.869,2.031-0.285,2.909c0.583,0.872,1.451,1.741,2.615,1.743l20.363,0.004c1.746-0.002,2.912-1.168,2.906-2.911
					l0.002-26.184c1.746,0.001,2.908-1.159,2.908-2.905s-1.162-2.91-2.908-2.911l-55.269,0.001c-1.748,0-2.913-1.163-2.909-2.906
					c0-1.75,1.161-2.91,2.904-2.914h69.816c1.748,0.004,2.912,1.168,2.914,2.912c-0.002,1.748-1.166,2.908-2.912,2.908h-2.91
					c-2.906,0-2.908,2.619-2.91,4.657l0.006,41.889c-0.004,16-13.096,29.088-29.092,29.09
					c-15.997,0.001-29.092-13.089-29.092-29.095l0.004-31.994c-0.003-1.75-1.163-2.91-2.912-2.91c-1.746,0-2.913,1.16-2.91,2.908
					l-0.002,32.001c0.002,19.202,15.711,34.909,34.909,34.909c19.202,0,34.915-15.713,34.911-34.909c0,0-0.002-30.839-0.002-40.729
					c4.951,0.004,8.727-3.777,8.729-8.723c0.002-4.949-3.783-8.732-8.723-8.732l-69.822,0.002c-4.949-0.002-8.727,3.782-8.728,8.73
					C469.464,252.461,473.239,256.246,478.185,256.246z"/>
			</g>
		</g>
		<g>
			<g>
				<path fill="url(#New_Pattern_Swatch_5)" d="M530.552,232.973c1.746,0,2.906-1.162,2.91-2.908l0.002-23.276
					c-0.002-1.745-1.166-2.905-2.916-2.907c-1.742-0.001-2.908,1.166-2.91,2.908l0.002,23.273
					C527.638,231.809,528.806,232.973,530.552,232.973z"/>
			</g>
		</g>
		<g>
			<g>
				<path fill="url(#New_Pattern_Swatch_5)" d="M495.64,232.973c1.744,0,2.91-1.164,2.908-2.91l0.002-23.271
					c-0.001-1.746-1.161-2.906-2.906-2.908c-1.748,0-2.912,1.164-2.91,2.906v23.273C492.732,231.807,493.897,232.969,495.64,232.973
					z"/>
			</g>
		</g>
	</g>
	<g>
		<g>
			<g>
				<path fill="url(#New_Pattern_Swatch_3)" d="M609.097,327.062c-15.998,0.001-29.092-13.089-29.092-29.095v-41.884h58.184v41.889
					C638.185,313.972,625.093,327.06,609.097,327.062"/>
				<path fill="url(#New_Pattern_Swatch_5)" d="M574.185,257.246h14.547l-0.002,14.546c0.002,1.743,1.168,2.905,2.91,2.905
					l5.82,0.002l-5.23,6.98c-0.879,1.164-0.59,3.197,0.576,4.072c1.162,0.874,3.201,0.579,4.072-0.584l8.727-11.633
					c0.584-0.872,0.873-2.037,0.293-2.906c-0.584-0.878-1.455-1.746-2.615-1.75l-8.732-0.002l-0.002-11.633l29.09,0.002v23.27
					h-11.633l5.24-6.981c0.867-1.163,0.578-3.198-0.584-4.069c-1.168-0.875-3.205-0.585-4.074,0.577l-8.73,11.638
					c-0.578,0.871-0.869,2.031-0.285,2.909c0.582,0.872,1.451,1.741,2.615,1.743l20.363,0.004c1.746-0.002,2.912-1.168,2.906-2.911
					l0.002-26.184c1.746,0.001,2.908-1.159,2.908-2.905s-1.162-2.91-2.908-2.911l-55.27,0.001c-1.748,0-2.912-1.163-2.908-2.906
					c0-1.75,1.16-2.91,2.904-2.914h69.816c1.748,0.004,2.912,1.168,2.914,2.912c-0.002,1.748-1.166,2.908-2.912,2.908h-2.91
					c-2.906,0-2.908,2.619-2.91,4.657l0.006,41.889c-0.004,16-13.096,29.088-29.092,29.09
					c-15.998,0.001-29.092-13.089-29.092-29.095l0.004-31.994c-0.004-1.75-1.164-2.91-2.912-2.91c-1.746,0-2.914,1.16-2.91,2.908
					l-0.002,32.001c0.002,19.202,15.711,34.909,34.908,34.909c19.203,0,34.916-15.713,34.912-34.909c0,0-0.002-30.839-0.002-40.729
					c4.951,0.004,8.727-3.777,8.729-8.723c0.002-4.949-3.783-8.732-8.723-8.732l-69.822,0.002c-4.949-0.002-8.727,3.782-8.729,8.73
					C565.464,253.461,569.239,257.246,574.185,257.246z"/>
			</g>
		</g>
		<g>
			<g>
				<path fill="url(#New_Pattern_Swatch_5)" d="M626.552,233.973c1.746,0,2.906-1.162,2.91-2.908l0.002-23.276
					c-0.002-1.745-1.166-2.905-2.916-2.907c-1.742-0.001-2.908,1.166-2.91,2.908l0.002,23.273
					C623.638,232.809,624.806,233.973,626.552,233.973z"/>
			</g>
		</g>
		<g>
			<g>
				<path fill="url(#New_Pattern_Swatch_5)" d="M591.64,233.973c1.744,0,2.91-1.164,2.908-2.91l0.002-23.271
					c-0.002-1.746-1.162-2.906-2.906-2.908c-1.748,0-2.912,1.164-2.91,2.906v23.273C588.731,232.807,589.897,233.969,591.64,233.973
					z"/>
			</g>
		</g>
	</g>
</g>
<g>
	<path fill="url(#New_Pattern_Swatch_2)" d="M678.137,579.385l-40.301,69.809c-3.884,6.727-1.571,15.37,5.162,19.254l141.857,81.9
		c6.728,3.891,15.371,1.572,19.258-5.16l40.301-69.803c3.885-6.729,1.568-15.373-5.156-19.256l-141.861-81.904
		C690.664,570.34,682.023,572.658,678.137,579.385z M643.379,652.391l40.301-69.805c2.125-3.678,6.839-4.939,10.512-2.818
		l4.422,2.555l-47.998,83.135l-4.418-2.55C642.523,660.786,641.259,656.068,643.379,652.391z M838.869,672.184l-40.298,69.805
		c-2.122,3.676-6.839,4.941-10.517,2.818l-21.047-12.149l48-83.136l21.047,12.147C839.729,663.793,840.994,668.51,838.869,672.184z"
		/>
	<path fill="url(#New_Pattern_Swatch_2)" d="M793.776,692.686c-3.526,6.115-1.427,13.955,4.687,17.486
		c6.115,3.531,13.955,1.428,17.484-4.686c3.533-6.109,1.43-13.953-4.684-17.484C805.152,684.475,797.309,686.575,793.776,692.686z
		 M810.406,702.285c-1.768,3.059-5.685,4.109-8.744,2.343c-3.057-1.761-4.107-5.683-2.341-8.74c1.764-3.055,5.688-4.106,8.741-2.345
		C811.122,695.309,812.172,699.229,810.406,702.285z"/>
	<path fill="url(#New_Pattern_Swatch_2)" d="M665.443,633.377l6.4-11.088c0.887-1.534,0.363-3.488-1.17-4.37
		c-1.533-0.886-3.49-0.364-4.371,1.171l-6.402,11.084c-0.886,1.527-0.361,3.486,1.174,4.371
		C662.605,635.43,664.561,634.904,665.443,633.377z"/>
	<path fill="url(#New_Pattern_Swatch_2)" d="M676.643,613.975l1.602-2.771c0.883-1.534,0.361-3.487-1.172-4.369
		c-1.533-0.888-3.489-0.364-4.369,1.169l-1.604,2.77c-0.884,1.535-0.359,3.49,1.175,4.373
		C673.804,616.032,675.758,615.51,676.643,613.975z"/>
	<path fill="url(#New_Pattern_Swatch_5)" stroke="#000000" stroke-miterlimit="10" d="M713.229,547.85
		c-1.713,0.457-2.719,2.211-2.264,3.92c0.457,1.709,2.211,2.721,3.92,2.264c16.332-4.377,33.175,5.352,37.553,21.682
		c0.459,1.709,2.212,2.723,3.922,2.264c0.852-0.232,1.533-0.781,1.945-1.492c0.41-0.709,0.543-1.576,0.316-2.426
		C753.337,554.318,732.97,542.563,713.229,547.85z"/>
	<path fill="url(#New_Pattern_Swatch_5)" stroke="#000000" stroke-miterlimit="10" d="M712.795,563.16
		c-1.706,0.459-2.717,2.209-2.261,3.92c0.458,1.711,2.21,2.723,3.919,2.262c5.407-1.451,11.064-0.698,15.925,2.108
		c4.86,2.805,8.335,7.329,9.784,12.735c0.457,1.711,2.207,2.721,3.921,2.262c0.85-0.225,1.533-0.777,1.942-1.488
		c0.408-0.711,0.549-1.576,0.319-2.43c-1.887-7.059-6.429-12.961-12.769-16.621S719.856,561.266,712.795,563.16z"/>
	<path fill="url(#New_Pattern_Swatch_5)" stroke="#000000" stroke-miterlimit="10" d="M634.252,693.691
		c-0.459-1.709-2.211-2.719-3.92-2.264c-1.707,0.459-2.718,2.211-2.26,3.918c5.286,19.742,25.651,31.5,45.391,26.207
		c0.853-0.229,1.532-0.778,1.943-1.486c0.41-0.713,0.547-1.576,0.322-2.428c-0.461-1.711-2.213-2.721-3.918-2.268
		C655.479,719.752,638.627,710.029,634.252,693.691z"/>
	<path fill="url(#New_Pattern_Swatch_5)" stroke="#000000" stroke-miterlimit="10" d="M642.616,682.959
		c-1.713,0.459-2.722,2.207-2.265,3.92c1.887,7.057,6.424,12.961,12.762,16.621c6.343,3.662,13.722,4.639,20.78,2.746
		c0.854-0.229,1.536-0.779,1.948-1.492c0.408-0.707,0.547-1.57,0.316-2.424c-0.457-1.712-2.209-2.723-3.919-2.266
		c-5.403,1.445-11.065,0.7-15.922-2.109c-4.862-2.801-8.338-7.325-9.782-12.735C646.073,683.517,644.319,682.506,642.616,682.959z"
		/>
	
		<rect x="684.81" y="596.691" transform="matrix(-0.5 0.866 -0.866 -0.5 1668.6211 351.6209)" fill="#FFFFFF" width="95.997" height="121.597"/>
</g>
<line fill="none" stroke="url(#New_Pattern_Swatch_4)" stroke-width="6" stroke-linecap="round" stroke-miterlimit="10" stroke-dasharray="12,12" x1="257.229" y1="678.722" x2="349.028" y2="625.722"/>
<line fill="none" stroke="url(#New_Pattern_Swatch_4)" stroke-width="6" stroke-linecap="round" stroke-miterlimit="10" stroke-dasharray="12,12" x1="256.738" y1="686.26" x2="359.126" y2="658.824"/>
<line fill="none" stroke="url(#New_Pattern_Swatch_4)" stroke-width="6" stroke-linecap="round" stroke-miterlimit="10" stroke-dasharray="12,12" x1="250.456" y1="675.379" x2="325.408" y2="600.425"/>
<path fill="url(#New_Pattern_Swatch_5)" d="M166.115,648.908l71.122,123.188c27.46-15.854,40.061-46.238,34.336-75.098l17.074-9.857
	l-0.175-0.304c8.58-7.159,11.116-19.747,5.311-29.798c-5.802-10.053-17.972-14.148-28.461-10.299l-0.175-0.303l-17.215,9.938
	C225.811,637.277,193.413,633.145,166.115,648.908z"/>
<g>
	<path fill="url(#New_Pattern_Swatch_3)" d="M512.001,590c-43.082,0.003-78.002-34.917-78.001-78.001
		c0-43.077,34.92-78.004,78-77.999c43.077-0.005,78.002,34.922,78,77.999C590.002,555.083,555.078,590.002,512.001,590z"/>
	<circle fill="url(#New_Pattern_Swatch_4)" cx="544" cy="500" r="32"/>
	<circle fill="url(#New_Pattern_Swatch_4)" cx="480" cy="500" r="24"/>
	<circle fill="url(#New_Pattern_Swatch_4)" cx="480" cy="544" r="16"/>
	<circle fill="url(#New_Pattern_Swatch_4)" cx="512" cy="464" r="12"/>
	<circle fill="url(#New_Pattern_Swatch_4)" cx="540" cy="532" r="16"/>
</g>
</svg>
