<?xml version="1.0" encoding="utf-8"?>
<!-- Generator: Adobe Illustrator 16.0.0, SVG Export Plug-In . SVG Version: 6.00 Build 0)  -->
<!DOCTYPE svg PUBLIC "-//W3C//DTD SVG 1.1//EN" "http://www.w3.org/Graphics/SVG/1.1/DTD/svg11.dtd">
<svg version="1.1" id="_x37_" xmlns="http://www.w3.org/2000/svg" xmlns:xlink="http://www.w3.org/1999/xlink" x="0px" y="0px"
	 width="1024px" height="1024px" viewBox="0 0 1024 1024" enable-background="new 0 0 1024 1024" xml:space="preserve">
<pattern  x="448.5" y="576.5" width="129" height="130" patternUnits="userSpaceOnUse" id="New_Pattern_Swatch_1" viewBox="0 -130 129 130" overflow="visible">
	<g>
		<polygon fill="none" points="0,0 129,0 129,-130 0,-130 		"/>
		<g>
			<polygon fill="none" points="0,-130 129,-130 129,0 0,0 			"/>
			<polygon fill="#CC138A" points="129,-130 0,-130 0,0 129,0 			"/>
		</g>
	</g>
</pattern>
<pattern  x="448.5" y="576.5" width="129" height="130" patternUnits="userSpaceOnUse" id="New_Pattern_Swatch_2" viewBox="0 -130 129 130" overflow="visible">
	<g>
		<polygon fill="none" points="0,0 129,0 129,-130 0,-130 		"/>
		<g>
			<polygon fill="none" points="0,-130 129,-130 129,0 0,0 			"/>
			<polygon fill="#F0A836" points="129,-130 0,-130 0,0 129,0 			"/>
		</g>
	</g>
</pattern>
<pattern  x="448.5" y="576.5" width="129" height="130" patternUnits="userSpaceOnUse" id="New_Pattern_Swatch_3" viewBox="0 -130 129 130" overflow="visible">
	<g>
		<polygon fill="none" points="0,0 129,0 129,-130 0,-130 		"/>
		<g>
			<polygon fill="none" points="0,-130 129,-130 129,0 0,0 			"/>
			<polygon fill="#A4CDC6" points="129,-130 0,-130 0,0 129,0 			"/>
		</g>
	</g>
</pattern>
<pattern  x="448.5" y="576.5" width="129" height="130" patternUnits="userSpaceOnUse" id="New_Pattern_Swatch_4" viewBox="0 -130 129 130" overflow="visible">
	<g>
		<polygon fill="none" points="0,0 129,0 129,-130 0,-130 		"/>
		<g>
			<polygon fill="none" points="0,-130 129,-130 129,0 0,0 			"/>
			<polygon fill="#a8c924" points="129,-130 0,-130 0,0 129,0 			"/>
		</g>
	</g>
</pattern>
<circle fill="none" stroke="#FFFFFF" stroke-miterlimit="10" cx="512" cy="512" r="384"/>
<circle fill="none" stroke="#FFFFFF" stroke-miterlimit="10" cx="512" cy="512" r="256"/>
<circle fill="none" stroke="#FFFFFF" stroke-miterlimit="10" cx="512" cy="512" r="128"/>
<pattern  id="SVGID_1_" xlink:href="#New_Pattern_Swatch_3" patternTransform="matrix(1 0 0 -1 -319.5 -15613.5195)">
</pattern>
<path fill="url(#SVGID_1_)" d="M828.781,285.727c-24.994,24.997-65.515,24.997-90.51,0.001
	c-24.992-24.991-24.995-65.516,0.002-90.507c24.991-24.996,65.517-24.995,90.508-0.002
	C853.778,220.212,853.774,260.734,828.781,285.727z"/>
<pattern  id="SVGID_2_" xlink:href="#New_Pattern_Swatch_2" patternTransform="matrix(1 0 0 -1 -319.5 -15613.5195)">
</pattern>
<circle fill="url(#SVGID_2_)" cx="330.979" cy="693.021" r="48"/>
<pattern  id="SVGID_3_" xlink:href="#New_Pattern_Swatch_1" patternTransform="matrix(1 0 0 -1 -319.5 -15613.5195)">
</pattern>
<path fill="url(#SVGID_3_)" d="M639.997,544.003c-17.672-0.001-31.997-14.327-32-32c0-17.673,14.328-31.999,32-32.001
	c17.675,0.003,32,14.328,32.003,32.002C671.997,529.676,657.676,544.002,639.997,544.003z"/>
<path fill="none" stroke="#FFFFFF" stroke-width="4" stroke-miterlimit="10" d="M376.233,376.235
	C576.181,176.289,799.056,74.983,874.036,149.962c74.979,74.979-26.325,297.854-226.273,497.803
	c-199.948,199.949-422.82,301.253-497.804,226.272C74.981,799.058,176.282,576.188,376.233,376.235z"/>
<pattern  id="SVGID_4_" xlink:href="#New_Pattern_Swatch_4" patternTransform="matrix(1 0 0 -1 -319.5 -15613.5195)">
</pattern>
<path fill="url(#SVGID_4_)" d="M376.236,424.233c-26.512,0.001-48.001-21.487-48.001-48c0-26.508,21.489-48,48-47.998
	c26.509-0.003,48,21.49,48,47.998C424.237,402.746,402.744,424.233,376.236,424.233z"/>
<pattern  id="SVGID_5_" xlink:href="#New_Pattern_Swatch_3" patternTransform="matrix(1 0 0 -1 -319.5 -15613.5195)">
</pattern>
<path fill="url(#SVGID_5_)" d="M512,590c-43.081,0.003-78.002-34.917-78.001-78.001c0-43.077,34.921-78.004,78-77.999
	c43.077-0.005,78.003,34.922,78.001,77.999C590.002,555.083,555.077,590.002,512,590z"/>
<pattern  id="SVGID_6_" xlink:href="#New_Pattern_Swatch_4" patternTransform="matrix(1 0 0 -1 -319.5 -15613.5195)">
</pattern>
<circle fill="url(#SVGID_6_)" cx="544" cy="500" r="32"/>
<pattern  id="SVGID_7_" xlink:href="#New_Pattern_Swatch_4" patternTransform="matrix(1 0 0 -1 -319.5 -15613.5195)">
</pattern>
<circle fill="url(#SVGID_7_)" cx="480" cy="500" r="24"/>
<pattern  id="SVGID_8_" xlink:href="#New_Pattern_Swatch_4" patternTransform="matrix(1 0 0 -1 -319.5 -15613.5195)">
</pattern>
<circle fill="url(#SVGID_8_)" cx="480" cy="544" r="16"/>
<pattern  id="SVGID_9_" xlink:href="#New_Pattern_Swatch_4" patternTransform="matrix(1 0 0 -1 -319.5 -15613.5195)">
</pattern>
<circle fill="url(#SVGID_9_)" cx="512" cy="464" r="12"/>
<pattern  id="SVGID_10_" xlink:href="#New_Pattern_Swatch_4" patternTransform="matrix(1 0 0 -1 -319.5 -15613.5195)">
</pattern>
<circle fill="url(#SVGID_10_)" cx="540" cy="532" r="16"/>
<g>
	<path fill="#FFFFFF" d="M632.436,226.275h3.779l10.043,25.701h-3.779l-2.809-7.739h-10.869l-2.881,7.739h-3.527L632.436,226.275z
		 M629.881,241.357h8.711l-4.285-11.986h-0.07L629.881,241.357z"/>
	<path fill="#FFFFFF" d="M662.35,246.073c-0.828,4.14-3.742,6.335-7.955,6.335c-5.939,0-8.746-4.14-8.926-9.791
		c0-5.615,3.672-9.683,8.746-9.683c6.588,0,8.604,6.155,8.424,10.655h-13.933c-0.106,3.239,1.729,6.119,5.798,6.119
		c2.555,0,4.282-1.188,4.821-3.636h3.024V246.073z M659.398,240.89c-0.18-2.916-2.303-5.255-5.363-5.255
		c-3.168,0-5.146,2.375-5.327,5.255H659.398z"/>
	<path fill="#FFFFFF" d="M663.9,233.366h2.879v3.924h0.072c1.477-3.024,3.527-4.463,6.84-4.355v3.239
		c-4.932,0-6.731,2.772-6.731,7.523v8.279h-3.06V233.366z"/>
	<path fill="#FFFFFF" d="M682.223,232.935c5.904,0,9.035,4.283,9.035,9.755c0,5.435-3.131,9.719-9.035,9.719
		c-5.902,0-9.035-4.284-9.035-9.719C673.188,237.218,676.32,232.935,682.223,232.935z M682.223,249.708
		c3.203,0,5.795-2.52,5.795-7.019c0-4.5-2.592-7.055-5.795-7.055s-5.795,2.556-5.795,7.055S679.02,249.708,682.223,249.708z"/>
	<path fill="#FFFFFF" d="M693.563,226.275h16.883v2.879h-13.463v8.171h11.807v2.88h-11.807v11.771h-3.42V226.275z"/>
	<path fill="#FFFFFF" d="M728.409,251.904c-0.541,0.324-1.297,0.504-2.196,0.504c-1.584,0-2.593-0.864-2.593-2.88
		c-1.69,2.016-3.959,2.88-6.551,2.88c-3.383,0-6.154-1.476-6.154-5.22c0-4.211,3.132-5.147,6.3-5.723
		c3.348-0.684,6.264-0.396,6.264-2.736c0-2.699-2.232-3.095-4.141-3.095c-2.593,0-4.498,0.792-4.644,3.527h-3.061
		c0.18-4.607,3.709-6.227,7.883-6.227c3.348,0,6.983,0.756,6.983,5.111v9.575c0,1.44,0,2.088,0.972,2.088
		c0.289,0,0.612-0.072,0.938-0.18V251.904z M723.441,242.365c-2.375,1.764-9.287,0.036-9.287,4.607c0,2.016,1.729,2.736,3.601,2.736
		c4.03,0,5.688-2.484,5.688-4.211L723.441,242.365L723.441,242.365z"/>
	<path fill="#FFFFFF" d="M729.346,233.366h2.881v3.924h0.072c1.475-3.024,3.526-4.463,6.838-4.355v3.239
		c-4.933,0-6.73,2.772-6.73,7.523v8.279h-3.061V233.366L729.346,233.366z"/>
	<path fill="#FFFFFF" d="M739.643,233.366h2.879v2.736h0.072c1.404-2.124,3.383-3.167,6.012-3.167c2.303,0,4.355,0.864,5.111,3.167
		c1.26-2.016,3.42-3.167,5.83-3.167c3.709,0,6.19,1.548,6.19,5.399v13.642h-3.059v-12.203c0-2.304-0.613-4.139-3.601-4.139
		s-4.858,1.872-4.858,4.751v11.59h-3.062v-12.203c0-2.412-0.756-4.139-3.489-4.139c-3.601,0-4.97,3.312-4.97,4.751v11.59h-3.059
		v-18.608H739.643z"/>
	<path fill="#FFFFFF" d="M770.422,246.109c0.106,2.735,2.52,3.6,5.004,3.6c1.908,0,4.5-0.432,4.5-2.772
		c0-4.787-12.168-1.548-12.168-8.711c0-3.743,3.672-5.291,6.946-5.291c4.177,0,7.345,1.296,7.632,5.831h-3.06
		c-0.18-2.375-2.34-3.131-4.32-3.131c-1.836,0-3.959,0.504-3.959,2.375c0,2.16,3.24,2.592,6.084,3.24
		c3.06,0.684,6.082,1.728,6.082,5.291c0,4.464-4.139,5.868-7.918,5.868c-4.176,0-7.703-1.692-7.883-6.299L770.422,246.109
		L770.422,246.109z"/>
</g>
<g>
	<path fill="#FFFFFF" d="M334.505,678.823h16.882v2.88h-13.462v8.17h11.807v2.881h-11.807v11.771h-3.42V678.823L334.505,678.823z"/>
	<path fill="#FFFFFF" d="M369.351,704.452c-0.54,0.323-1.296,0.504-2.196,0.504c-1.584,0-2.592-0.864-2.592-2.88
		c-1.691,2.016-3.959,2.88-6.551,2.88c-3.384,0-6.155-1.476-6.155-5.22c0-4.211,3.132-5.146,6.299-5.724
		c3.349-0.685,6.265-0.396,6.265-2.735c0-2.699-2.231-3.097-4.141-3.097c-2.592,0-4.499,0.792-4.644,3.527h-3.061
		c0.181-4.607,3.708-6.227,7.884-6.227c3.348,0,6.982,0.756,6.982,5.11v9.574c0,1.44,0,2.088,0.972,2.088
		c0.288,0,0.612-0.072,0.938-0.18V704.452L369.351,704.452z M364.383,694.913c-2.376,1.764-9.287,0.036-9.287,4.606
		c0,2.017,1.729,2.735,3.6,2.735c4.031,0,5.688-2.482,5.688-4.211L364.383,694.913L364.383,694.913z"/>
	<path fill="#FFFFFF" d="M370.288,685.914h2.881v3.924h0.071c1.477-3.022,3.527-4.463,6.839-4.354v3.238
		c-4.932,0-6.73,2.772-6.73,7.523v8.278h-3.061V685.914z"/>
	<path fill="#FFFFFF" d="M380.584,685.914h2.88v2.736h0.07c1.404-2.124,3.385-3.168,6.013-3.168c2.304,0,4.354,0.862,5.11,3.168
		c1.261-2.017,3.42-3.168,5.831-3.168c3.708,0,6.191,1.548,6.191,5.398v13.643h-3.061v-12.202c0-2.305-0.611-4.141-3.6-4.141
		s-4.859,1.872-4.859,4.752v11.591h-3.06v-12.202c0-2.411-0.756-4.141-3.491-4.141c-3.6,0-4.968,3.313-4.968,4.752v11.591h-3.06
		v-18.609H380.584z"/>
	<path fill="#FFFFFF" d="M409.601,678.823h3.06v9.609h0.071c1.008-2.051,3.348-2.95,5.939-2.95c5.724,0,8.566,4.534,8.566,9.791
		c0,5.291-2.808,9.683-8.495,9.683c-1.872,0-4.68-0.72-6.012-2.916h-0.071v2.483h-3.06L409.601,678.823L409.601,678.823z
		 M418.24,688.182c-4.14,0-5.688,3.564-5.688,7.021c0,3.635,1.655,7.055,5.867,7.055c4.176,0,5.578-3.563,5.578-7.199
		C423.998,691.565,422.198,688.182,418.24,688.182z"/>
	<path fill="#FFFFFF" d="M437.067,685.482c5.903,0,9.034,4.282,9.034,9.755c0,5.435-3.131,9.719-9.034,9.719
		s-9.035-4.284-9.035-9.719C428.031,689.766,431.163,685.482,437.067,685.482z M437.067,702.256c3.203,0,5.795-2.52,5.795-7.019
		s-2.592-7.057-5.795-7.057c-3.204,0-5.796,2.558-5.796,7.057S433.863,702.256,437.067,702.256z"/>
	<path fill="#FFFFFF" d="M452.151,685.914h3.708v2.699h-3.708v11.555c0,1.44,0.396,1.656,2.304,1.656h1.404v2.699h-2.34
		c-3.168,0-4.428-0.647-4.428-4.066v-11.844h-3.167v-2.699h3.167v-5.579h3.06V685.914L452.151,685.914z"/>
</g>
<g>
	<path fill="#FFFFFF" d="M643.527,497.804h11.267c5.147,0,7.883,2.809,7.883,7.596s-2.734,7.631-7.883,7.595h-7.847v10.511h-3.42
		V497.804z M646.947,510.115h6.695c3.887,0.036,5.615-1.656,5.615-4.716c0-3.061-1.729-4.716-5.615-4.716h-6.695V510.115z"/>
	<path fill="#FFFFFF" d="M664.73,497.804h3.059v25.701h-3.059V497.804z"/>
	<path fill="#FFFFFF" d="M687.229,523.434c-0.539,0.323-1.295,0.505-2.195,0.505c-1.584,0-2.592-0.865-2.592-2.882
		c-1.69,2.017-3.959,2.882-6.551,2.882c-3.385,0-6.156-1.478-6.156-5.222c0-4.211,3.133-5.146,6.299-5.723
		c3.349-0.685,6.265-0.396,6.265-2.736c0-2.699-2.23-3.095-4.14-3.095c-2.592,0-4.5,0.792-4.645,3.527h-3.06
		c0.181-4.607,3.707-6.228,7.884-6.228c3.348,0,6.981,0.756,6.981,5.111v9.575c0,1.439,0,2.088,0.974,2.088
		c0.286,0,0.61-0.072,0.936-0.182V523.434L687.229,523.434z M682.262,513.895c-2.377,1.765-9.287,0.035-9.287,4.607
		c0,2.016,1.729,2.735,3.6,2.735c4.031,0,5.688-2.483,5.688-4.212L682.262,513.895L682.262,513.895z"/>
	<path fill="#FFFFFF" d="M688.273,504.895h2.881v2.952h0.07c1.297-2.304,3.348-3.383,6.049-3.383c4.896,0,6.406,2.809,6.406,6.803
		v12.238h-3.06v-12.599c0-2.305-1.44-3.743-3.778-3.743c-3.709,0-5.509,2.483-5.509,5.831v10.511h-3.061L688.273,504.895
		L688.273,504.895z"/>
	<path fill="#FFFFFF" d="M710.736,504.895h3.709v2.7h-3.709v11.556c0,1.439,0.396,1.654,2.306,1.654h1.403v2.7h-2.34
		c-3.168,0-4.428-0.646-4.428-4.066v-11.844h-3.168v-2.699h3.168v-5.579h3.059V504.895z"/>
	<path fill="#FFFFFF" d="M716.532,497.804h16.881v2.879h-13.461v8.171h11.808v2.881h-11.808v11.771h-3.42V497.804z"/>
	<path fill="#FFFFFF" d="M734.784,504.895h2.879v3.925h0.072c1.478-3.024,3.527-4.463,6.84-4.355v3.239
		c-4.932,0-6.731,2.771-6.731,7.523v8.278h-3.06V504.895L734.784,504.895z"/>
	<path fill="#FFFFFF" d="M748.32,501.548h-3.061v-3.744h3.061V501.548z M745.26,504.895h3.061v18.61h-3.061V504.895z"/>
	<path fill="#FFFFFF" d="M767.146,517.602c-0.828,4.141-3.744,6.336-7.955,6.336c-5.938,0-8.748-4.141-8.928-9.791
		c0-5.615,3.672-9.683,8.748-9.683c6.586,0,8.602,6.155,8.422,10.655h-13.93c-0.107,3.239,1.729,6.119,5.795,6.119
		c2.557,0,4.282-1.188,4.823-3.637H767.146z M764.195,512.418c-0.182-2.916-2.305-5.255-5.365-5.255
		c-3.166,0-5.146,2.375-5.325,5.255H764.195z"/>
	<path fill="#FFFFFF" d="M768.803,504.895h2.881v2.952h0.07c1.297-2.304,3.348-3.383,6.049-3.383c4.895,0,6.406,2.809,6.406,6.803
		v12.238h-3.06v-12.599c0-2.305-1.44-3.743-3.779-3.743c-3.709,0-5.508,2.483-5.508,5.831v10.511h-3.061L768.803,504.895
		L768.803,504.895z"/>
	<path fill="#FFFFFF" d="M803.65,523.505h-3.061v-2.52h-0.072c-1.008,2.052-3.348,2.952-5.939,2.952
		c-5.723,0-8.565-4.536-8.565-9.791c0-5.257,2.809-9.684,8.496-9.684c1.871,0,4.678,0.72,6.01,2.916h0.072v-9.575h3.061
		L803.65,523.505L803.65,523.505z M795.012,521.237c4.139,0,5.688-3.563,5.688-7.02c0-3.636-1.655-7.056-5.869-7.056
		c-4.174,0-5.577,3.563-5.577,7.198C789.252,517.854,791.051,521.237,795.012,521.237z"/>
	<path fill="#FFFFFF" d="M808.439,517.638c0.107,2.735,2.521,3.601,5.002,3.601c1.908,0,4.5-0.434,4.5-2.772
		c0-4.787-12.166-1.547-12.166-8.71c0-3.743,3.672-5.291,6.947-5.291c4.176,0,7.342,1.296,7.631,5.831h-3.061
		c-0.181-2.375-2.341-3.131-4.318-3.131c-1.836,0-3.961,0.504-3.961,2.375c0,2.16,3.24,2.592,6.084,3.24
		c3.061,0.684,6.084,1.728,6.084,5.291c0,4.464-4.142,5.868-7.92,5.868c-4.176,0-7.703-1.692-7.883-6.301L808.439,517.638
		L808.439,517.638z"/>
</g>
<g>
	<path fill="#FFFFFF" d="M263.619,357.295h18.48c6.146,0,10.033,4.272,10.033,9.457c0,4.033-1.585,7.057-5.425,8.593v0.096
		c3.695,1.008,4.752,4.512,4.992,8.017c0.145,2.16,0.048,6.241,1.439,8.113h-7.537c-0.863-2.16-0.814-5.473-1.2-8.208
		c-0.526-3.601-1.92-5.185-5.712-5.185h-7.537v13.393h-7.535L263.619,357.295L263.619,357.295z M271.155,372.801h8.258
		c3.407,0,5.185-1.44,5.185-4.896c0-3.313-1.776-4.752-5.185-4.752h-8.258V372.801z"/>
	<path fill="#FFFFFF" d="M318.436,391.57h-6.48v-3.457h-0.144c-1.729,2.833-4.705,4.128-7.585,4.128
		c-7.249,0-9.073-4.08-9.073-10.225V366.75h6.817v14.018c0,4.08,1.15,6.096,4.368,6.096c3.695,0,5.279-2.064,5.279-7.104v-13.009
		h6.816L318.436,391.57L318.436,391.57z"/>
	<path fill="#FFFFFF" d="M344.498,391.57h-6.479v-3.457h-0.145c-1.729,2.833-4.704,4.128-7.585,4.128
		c-7.249,0-9.072-4.08-9.072-10.225V366.75h6.816v14.018c0,4.08,1.151,6.096,4.368,6.096c3.696,0,5.28-2.064,5.28-7.104v-13.009
		h6.815L344.498,391.57L344.498,391.57z"/>
	<path fill="#FFFFFF" d="M355.922,366.752h4.991v4.561h-4.991v12.289c0,2.304,0.574,2.88,2.88,2.88c0.768,0,1.487-0.048,2.111-0.192
		v5.328c-1.151,0.192-2.641,0.24-3.983,0.24c-4.226,0-7.825-0.912-7.825-5.905v-14.641h-4.128v-4.561h4.128v-7.44h6.817V366.752
		L355.922,366.752z"/>
	<path fill="#FFFFFF" d="M367.058,383.505c0,2.929,2.592,4.177,5.231,4.177c1.921,0,4.465-0.768,4.465-3.168
		c0-2.064-2.881-2.832-7.729-3.84c-3.984-0.912-7.873-2.208-7.873-6.625c0-6.336,5.474-7.969,10.802-7.969
		c5.376,0,10.416,1.824,10.944,7.921h-6.479c-0.192-2.641-2.208-3.36-4.656-3.36c-1.536,0-3.792,0.24-3.792,2.304
		c0,2.448,3.888,2.784,7.729,3.696c3.984,0.912,7.872,2.352,7.872,6.96c0,6.529-5.712,8.641-11.329,8.641
		c-5.76,0-11.425-2.16-11.664-8.737H367.058z"/>
</g>
</svg>
