<?xml version="1.0" encoding="utf-8"?>
<!-- Generator: Adobe Illustrator 22.1.0, SVG Export Plug-In . SVG Version: 6.00 Build 0)  -->
<svg version="1.1" id="Layer_1" xmlns="http://www.w3.org/2000/svg" xmlns:xlink="http://www.w3.org/1999/xlink" x="0px" y="0px"
	 viewBox="0 0 1536 384" style="enable-background:new 0 0 1536 384;" xml:space="preserve">
<style type="text/css">
	.st0{fill:#FFFFFF;}
	.st1{fill:#404041;}
	.st2{fill:#5D5D5D;}
	.st3{fill:#424242;}
	.st4{fill:#606060;}
	.st5{fill:#B2B2B2;}
	.st6{fill:#989898;}
</style>
<g>
	<g>
		<g>
			<g>
				<path class="st0" d="M112.6,214.3c-28.4,0-51.6-23.1-51.6-51.6s23.1-51.6,51.6-51.6c2.5,0,4.9,0.2,7.3,0.5
					c3.2-11.6,11-21.3,21.8-26.8c6-3,12.6-4.6,19.3-4.6c5.2,0,10.2,0.9,15,2.7c8.8-20.4,29-33.9,51.4-33.9c6.5,0,12.9,1.1,19.1,3.4
					c14,5.1,25.3,15.4,31.6,28.9c5.8,12.3,6.8,26.1,3.1,39c23.7,2.8,42.1,23.3,41.7,47.5c-0.4,25.6-21.5,46.4-47.1,46.4H112.6z"/>
			</g>
			<g>
				<path class="st1" d="M227.5,52c6,0,12.1,1,18.1,3.2c27.5,10,41.7,40.3,31.7,67.8c24.1,0.8,43.1,20.7,42.7,44.8
					c-0.4,24.1-20,43.4-44.1,43.5H112.6c-26.8,0-48.6-21.7-48.6-48.6c0-26.8,21.7-48.6,48.6-48.6c3.2,0,6.5,0.3,9.6,1
					c2.4-11.9,10.1-22.1,20.9-27.6c5.6-2.9,11.8-4.3,18-4.3c5.7,0,11.4,1.2,16.7,3.7C185.5,65.4,205.9,52,227.5,52 M227.5,46l0,6
					L227.5,46c-22.7,0-43.3,13.1-53,33.2c-4.3-1.3-8.8-2-13.4-2c-7.1,0-14.3,1.7-20.7,4.9c-10.8,5.5-18.9,14.9-22.6,26.2
					c-1.7-0.2-3.5-0.2-5.2-0.2c-30.1,0-54.6,24.5-54.6,54.6s24.5,54.6,54.6,54.6h163.4c13.2,0,25.7-5.2,35.1-14.4
					c9.4-9.3,14.7-21.7,14.9-34.9c0.2-13.2-4.7-25.8-13.9-35.4c-7.4-7.7-16.8-12.8-27.1-14.7c2.9-12.7,1.5-25.9-4.1-37.8
					c-6.7-14.3-18.5-25.1-33.3-30.5C241.1,47.2,234.4,46,227.5,46L227.5,46z"/>
			</g>
		</g>
		<g>
			<g>
				<path class="st2" d="M220.9,117.1L220.9,117.1c-0.9-5.4-13.5-9.7-28.9-9.7s-28,4.3-28.9,9.7l0,0H163v0.6v13.9v0.6v0.6v13.3v0.6
					v0.6v14.5h0.1c0.9,5.4,13.5,9.7,28.9,9.7s28-4.3,28.9-9.7h0.1v-14.5v-0.6v-0.6v-13.3v-0.6v-0.6v-13.9L220.9,117.1L220.9,117.1z"
					/>
			</g>
			<g>
				<g>
					<path class="st3" d="M192,157c-16,0-29-4.6-29-10.3v15.1h0.1c0.9,5.4,13.5,9.7,28.9,9.7s28-4.3,28.9-9.7h0.1v-15.1
						C221,152.4,208,157,192,157z"/>
				</g>
				<g>
					<path class="st3" d="M163,146.1v0.6C163,146.5,163,146.3,163,146.1L163,146.1z"/>
				</g>
				<g>
					<path class="st3" d="M220.9,146.1c0,0.2,0.1,0.4,0.1,0.6L220.9,146.1L220.9,146.1z"/>
				</g>
			</g>
			<g>
				<g>
					<path class="st4" d="M192,142.5c-16,0-29-4.6-29-10.3v15.1h0.1c0.9,5.4,13.5,9.7,28.9,9.7s28-4.3,28.9-9.7h0.1v-15.1
						C221,137.9,208,142.5,192,142.5z"/>
				</g>
				<g>
					<path class="st4" d="M163,131.6v0.6C163,132,163,131.8,163,131.6L163,131.6z"/>
				</g>
				<g>
					<path class="st4" d="M220.9,131.6c0,0.2,0.1,0.4,0.1,0.6L220.9,131.6L220.9,131.6z"/>
				</g>
			</g>
			<g>
				<ellipse class="st5" cx="192" cy="117.7" rx="29" ry="10.3"/>
			</g>
			<g>
				<g>
					<path class="st6" d="M192,128c-16,0-29-4.6-29-10.3v15.1h0.1c0.9,5.4,13.5,9.7,28.9,9.7s28-4.3,28.9-9.7h0.1v-15.1
						C221,123.4,208,128,192,128z"/>
				</g>
				<g>
					<path class="st6" d="M163,117.1v0.6C163,117.5,163,117.3,163,117.1L163,117.1z"/>
				</g>
				<g>
					<path class="st6" d="M220.9,117.1c0,0.2,0.1,0.4,0.1,0.6L220.9,117.1L220.9,117.1z"/>
				</g>
			</g>
		</g>
		<g>
			<path class="st1" d="M162.4,183c0.6,0.3,1.2,0.7,1.6,1.2c0.4,0.4,0.7,0.9,0.9,1.5c0.2,0.5,0.3,1.1,0.3,1.8c0,0.8-0.2,1.6-0.6,2.4
				s-1.1,1.4-2.1,1.7c0.8,0.3,1.4,0.8,1.7,1.4s0.5,1.5,0.5,2.7v1.2c0,0.8,0,1.3,0.1,1.6c0.1,0.4,0.3,0.8,0.7,1v0.4h-4
				c-0.1-0.4-0.2-0.7-0.2-0.9c-0.1-0.5-0.1-1-0.2-1.5l0-1.6c0-1.1-0.2-1.8-0.6-2.2s-1.1-0.6-2.1-0.6h-3.5v6.8h-3.5v-17.3h8.3
				C160.8,182.5,161.7,182.7,162.4,183z M154.9,185.5v4.6h3.9c0.8,0,1.4-0.1,1.7-0.3c0.7-0.3,1-1,1-1.9c0-1-0.3-1.8-1-2.1
				c-0.4-0.2-0.9-0.3-1.7-0.3H154.9z"/>
			<path class="st1" d="M175.5,187.3c0.9,0.4,1.6,1,2.2,1.9c0.5,0.8,0.9,1.6,1,2.6c0.1,0.6,0.1,1.4,0.1,2.5h-9.3
				c0.1,1.3,0.5,2.2,1.3,2.7c0.5,0.3,1.1,0.5,1.8,0.5c0.8,0,1.4-0.2,1.9-0.6c0.3-0.2,0.5-0.5,0.7-0.9h3.4c-0.1,0.8-0.5,1.5-1.2,2.3
				c-1.1,1.2-2.7,1.9-4.8,1.9c-1.7,0-3.2-0.5-4.5-1.6c-1.3-1-1.9-2.8-1.9-5.1c0-2.2,0.6-3.9,1.8-5.1c1.2-1.2,2.7-1.8,4.6-1.8
				C173.6,186.7,174.6,186.9,175.5,187.3z M170.5,190.2c-0.5,0.5-0.8,1.1-0.9,2h5.8c-0.1-0.9-0.4-1.6-0.9-2c-0.5-0.5-1.2-0.7-2-0.7
				C171.6,189.4,170.9,189.7,170.5,190.2z"/>
			<path class="st1" d="M186.9,191.6c-0.1-0.5-0.2-0.9-0.5-1.3c-0.4-0.5-1-0.8-1.8-0.8c-1.1,0-1.9,0.6-2.3,1.7
				c-0.2,0.6-0.3,1.4-0.3,2.4c0,0.9,0.1,1.7,0.3,2.3c0.4,1.1,1.2,1.6,2.3,1.6c0.8,0,1.3-0.2,1.7-0.6s0.5-1,0.6-1.6h3.4
				c-0.1,1-0.4,2-1.1,2.9c-1,1.5-2.6,2.2-4.7,2.2s-3.6-0.6-4.5-1.8s-1.5-2.8-1.5-4.7c0-2.2,0.5-3.9,1.6-5.1s2.5-1.8,4.4-1.8
				c1.6,0,2.9,0.4,3.9,1.1s1.6,2,1.8,3.8H186.9z"/>
			<path class="st1" d="M194.9,185.5h-3.4v-3.1h3.4V185.5z M191.5,187h3.4v12.8h-3.4V187z"/>
			<path class="st1" d="M207.7,188.4c1,1.1,1.6,2.7,1.6,4.9c0,2.2-0.5,4-1.5,5.1c-1,1.2-2.3,1.8-3.9,1.8c-1,0-1.9-0.3-2.5-0.8
				c-0.4-0.3-0.7-0.7-1.1-1.2v6.7h-3.3V187h3.2v1.9c0.4-0.6,0.7-1,1.2-1.3c0.7-0.6,1.6-0.9,2.7-0.9
				C205.3,186.7,206.6,187.3,207.7,188.4z M205.1,190.8c-0.5-0.8-1.2-1.1-2.2-1.1c-1.2,0-2.1,0.6-2.5,1.7c-0.2,0.6-0.4,1.4-0.4,2.3
				c0,1.5,0.4,2.5,1.2,3.1c0.5,0.4,1,0.5,1.7,0.5c0.9,0,1.7-0.4,2.1-1.1s0.7-1.7,0.7-2.9C205.8,192.4,205.5,191.5,205.1,190.8z"/>
			<path class="st1" d="M218.7,187.3c0.9,0.4,1.6,1,2.2,1.9c0.5,0.8,0.9,1.6,1,2.6c0.1,0.6,0.1,1.4,0.1,2.5h-9.3
				c0.1,1.3,0.5,2.2,1.3,2.7c0.5,0.3,1.1,0.5,1.8,0.5c0.8,0,1.4-0.2,1.9-0.6c0.3-0.2,0.5-0.5,0.7-0.9h3.4c-0.1,0.8-0.5,1.5-1.2,2.3
				c-1.1,1.2-2.7,1.9-4.8,1.9c-1.7,0-3.2-0.5-4.5-1.6c-1.3-1-1.9-2.8-1.9-5.1c0-2.2,0.6-3.9,1.8-5.1c1.2-1.2,2.7-1.8,4.6-1.8
				C216.8,186.7,217.8,186.9,218.7,187.3z M213.7,190.2c-0.5,0.5-0.8,1.1-0.9,2h5.8c-0.1-0.9-0.4-1.6-0.9-2c-0.5-0.5-1.2-0.7-2-0.7
				C214.8,189.4,214.2,189.7,213.7,190.2z"/>
			<path class="st1" d="M225.1,195.7c0.1,0.6,0.2,1,0.5,1.3c0.4,0.4,1.2,0.7,2.3,0.7c0.7,0,1.2-0.1,1.6-0.3c0.4-0.2,0.6-0.5,0.6-0.9
				c0-0.4-0.2-0.7-0.5-0.9s-1.5-0.5-3.5-1c-1.5-0.4-2.5-0.8-3.1-1.3c-0.6-0.5-0.9-1.3-0.9-2.3c0-1.2,0.5-2.2,1.4-3s2.2-1.3,3.9-1.3
				c1.6,0,2.9,0.3,3.9,1s1.6,1.7,1.7,3.3h-3.3c0-0.4-0.2-0.8-0.4-1c-0.4-0.5-1-0.7-1.9-0.7c-0.7,0-1.2,0.1-1.6,0.3
				c-0.3,0.2-0.5,0.5-0.5,0.8c0,0.4,0.2,0.7,0.5,0.8c0.3,0.2,1.5,0.5,3.5,0.9c1.3,0.3,2.3,0.8,3,1.4c0.7,0.6,1,1.4,1,2.4
				c0,1.3-0.5,2.3-1.4,3.1s-2.4,1.2-4.4,1.2c-2,0-3.5-0.4-4.5-1.3s-1.4-1.9-1.4-3.2H225.1z"/>
		</g>
	</g>
	<g>
		<g>
			<g>
				<path class="st1" d="M593.3,33.9h-95.1c-9.1,0-16.4,7.4-16.4,16.5v193.1c0,9.1,7.3,16.4,16.4,16.4h95.1
					c9.1,0,16.4-7.4,16.4-16.4V50.3C609.7,41.2,602.4,33.9,593.3,33.9z M522.3,43.9h46.9c1.2,0,2.1,1.8,2.1,4s-1,4-2.1,4h-46.9
					c-1.2,0-2.1-1.8-2.1-4C520.1,45.6,521.1,43.9,522.3,43.9z M545.7,243.6c-5.8,0-10.5-4.7-10.5-10.5c0-5.8,4.7-10.5,10.5-10.5
					c5.8,0,10.5,4.7,10.5,10.5C556.2,238.9,551.5,243.6,545.7,243.6z M597.4,207.6H494.1v-146h103.3
					C597.4,61.6,597.4,207.6,597.4,207.6z"/>
			</g>
		</g>
		<g>
			<path class="st1" d="M533.6,139.2c-1,0.8-2.5,1.3-4.3,1.3h-3.6v6.2h-3.6v-17.3h7.4c1.7,0,3.1,0.4,4.1,1.3s1.5,2.3,1.5,4.1
				C535.1,136.9,534.6,138.3,533.6,139.2z M530.9,132.9c-0.5-0.4-1.1-0.6-1.9-0.6h-3.3v5.1h3.3c0.8,0,1.5-0.2,1.9-0.6s0.7-1.1,0.7-2
				S531.3,133.3,530.9,132.9z"/>
			<path class="st1" d="M539.2,129.4l2.3,9.9l0.5,2.8l0.5-2.7l2-9.9h3.8l2.1,9.9l0.5,2.8l0.5-2.6l2.3-10h3.7l-4.9,17.3H549
				l-2.1-10.1l-0.6-3.3l-0.6,3.3l-2.1,10.1h-3.4l-4.9-17.3H539.2z"/>
			<path class="st1" d="M561.9,129.4h4.1l6.1,17.3h-3.9l-1.1-3.6h-6.4l-1.2,3.6h-3.8L561.9,129.4z M561.7,140.1h4.4l-2.2-6.8
				L561.7,140.1z"/>
		</g>
	</g>
	<g>
		<g>
			<g>
				<rect x="920.5" y="37.6" class="st0" width="103" height="53"/>
			</g>
			<g>
				<path class="st1" d="M1022,39.1v50H922v-50H1022 M1025,36.1h-3H922h-3v3v50v3h3h100h3v-3v-50V36.1L1025,36.1z"/>
			</g>
		</g>
		<g>
			<path class="st1" d="M951.5,55.4h3.6v14.2h8.6v3.1h-12.2V55.4z"/>
			<path class="st1" d="M977.7,58.4h-9.1v3.7h8.4v3h-8.4v4.4h9.6v3.1H965V55.4h12.7V58.4z"/>
			<path class="st1" d="M989.9,55.7c1.2,0.4,2.2,1.1,2.9,2.2c0.6,0.9,1,1.8,1.2,2.8c0.2,1,0.3,2,0.3,2.9c0,2.3-0.5,4.2-1.4,5.8
				c-1.3,2.1-3.2,3.2-5.8,3.2h-7.4V55.4h7.4C988.2,55.4,989.1,55.5,989.9,55.7z M983.2,58.4v11.3h3.3c1.7,0,2.9-0.8,3.6-2.5
				c0.4-0.9,0.6-2,0.6-3.3c0-1.8-0.3-3.1-0.8-4c-0.6-0.9-1.6-1.4-3.3-1.4H983.2z"/>
		</g>
	</g>
	<g>
		<g>
			<g>
				<rect x="1170.5" y="37.6" class="st0" width="103" height="53"/>
			</g>
			<g>
				<path class="st1" d="M1272,39.1v50h-100v-50H1272 M1275,36.1h-3h-100h-3v3v50v3h3h100h3v-3v-50V36.1L1275,36.1z"/>
			</g>
		</g>
		<g>
			<path class="st1" d="M1193.3,65.2c-1,0.8-2.5,1.3-4.3,1.3h-3.6v6.2h-3.6V55.4h7.4c1.7,0,3.1,0.4,4.1,1.3s1.5,2.3,1.5,4.1
				C1194.8,62.9,1194.3,64.3,1193.3,65.2z M1190.6,58.9c-0.5-0.4-1.1-0.6-1.9-0.6h-3.3v5.1h3.3c0.8,0,1.5-0.2,1.9-0.6s0.7-1.1,0.7-2
				S1191,59.3,1190.6,58.9z"/>
			<path class="st1" d="M1199.7,72.6h-3.3V55.4h3.3V72.6z"/>
			<path class="st1" d="M1206.8,64.9c0.6-0.1,1.1-0.2,1.3-0.3c0.5-0.2,0.7-0.5,0.7-0.9c0-0.5-0.2-0.9-0.6-1.1s-0.9-0.3-1.6-0.3
				c-0.8,0-1.4,0.2-1.7,0.6c-0.2,0.3-0.4,0.7-0.5,1.2h-3.2c0.1-1.1,0.4-2,0.9-2.8c0.9-1.1,2.4-1.7,4.6-1.7c1.4,0,2.7,0.3,3.7,0.8
				c1.1,0.6,1.6,1.6,1.6,3.1v5.9c0,0.4,0,0.9,0,1.5c0,0.4,0.1,0.7,0.2,0.9s0.3,0.3,0.5,0.4v0.5h-3.6c-0.1-0.3-0.2-0.5-0.2-0.7
				s-0.1-0.5-0.1-0.8c-0.5,0.5-1,0.9-1.6,1.3c-0.7,0.4-1.5,0.6-2.5,0.6c-1.2,0-2.1-0.3-2.9-1c-0.8-0.7-1.1-1.6-1.1-2.8
				c0-1.6,0.6-2.7,1.8-3.4c0.7-0.4,1.7-0.7,3-0.8L1206.8,64.9z M1208.8,66.4c-0.2,0.1-0.4,0.2-0.6,0.3c-0.2,0.1-0.5,0.2-0.9,0.2
				l-0.8,0.1c-0.7,0.1-1.2,0.3-1.5,0.5c-0.5,0.3-0.8,0.8-0.8,1.4c0,0.6,0.2,1,0.5,1.2s0.7,0.4,1.2,0.4c0.7,0,1.4-0.2,2-0.6
				c0.6-0.4,0.9-1.2,1-2.3V66.4z"/>
			<path class="st1" d="M1224.2,60.6c0.8,0.7,1.3,1.8,1.3,3.4v8.6h-3.4v-7.8c0-0.7-0.1-1.2-0.3-1.5c-0.3-0.7-0.9-1-1.9-1
				c-1.1,0-1.9,0.5-2.3,1.4c-0.2,0.5-0.3,1.2-0.3,1.9v6.9h-3.3V59.9h3.2v1.9c0.4-0.7,0.8-1.1,1.2-1.4c0.7-0.5,1.6-0.8,2.6-0.8
				C1222.3,59.6,1223.3,59.9,1224.2,60.6z"/>
			<path class="st1" d="M1226,62.4V60h1.8v-3.6h3.3V60h2.1v2.4h-2.1v6.8c0,0.5,0.1,0.8,0.2,1s0.5,0.2,1.2,0.2c0.1,0,0.2,0,0.3,0
				s0.2,0,0.3,0v2.5l-1.6,0.1c-1.6,0.1-2.7-0.2-3.2-0.8c-0.4-0.4-0.6-1-0.6-1.8v-7.9H1226z"/>
			<path class="st1" d="M1239.9,55.4h3.6v14.2h8.6v3.1h-12.2V55.4z"/>
			<path class="st1" d="M1256.5,58.3h-3.4v-3.1h3.4V58.3z M1253.1,59.9h3.4v12.8h-3.4V59.9z"/>
			<path class="st1" d="M1257.2,62.4V60h1.8v-3.6h3.3V60h2.1v2.4h-2.1v6.8c0,0.5,0.1,0.8,0.2,1s0.5,0.2,1.2,0.2c0.1,0,0.2,0,0.3,0
				s0.2,0,0.3,0v2.5l-1.6,0.1c-1.6,0.1-2.7-0.2-3.2-0.8c-0.4-0.4-0.6-1-0.6-1.8v-7.9H1257.2z"/>
		</g>
	</g>
	<g>
		<g>
			<g>
				<rect x="1170.5" y="102.6" class="st0" width="303" height="53"/>
			</g>
			<g>
				<path class="st1" d="M1472,104.1v50h-300v-50H1472 M1475,101.1h-3h-300h-3v3v50v3h3h300h3v-3v-50V101.1L1475,101.1z"/>
			</g>
		</g>
		<g>
			<path class="st1" d="M1192.1,130.2c-1,0.8-2.5,1.3-4.3,1.3h-3.6v6.2h-3.6v-17.3h7.4c1.7,0,3.1,0.4,4.1,1.3s1.5,2.3,1.5,4.1
				C1193.6,127.9,1193.1,129.3,1192.1,130.2z M1189.3,123.9c-0.5-0.4-1.1-0.6-1.9-0.6h-3.3v5.1h3.3c0.8,0,1.5-0.2,1.9-0.6
				s0.7-1.1,0.7-2S1189.8,124.3,1189.3,123.9z"/>
			<path class="st1" d="M1198.4,137.6h-3.3v-17.3h3.3V137.6z"/>
			<path class="st1" d="M1205.6,129.9c0.6-0.1,1.1-0.2,1.3-0.3c0.5-0.2,0.7-0.5,0.7-0.9c0-0.5-0.2-0.9-0.6-1.1
				c-0.4-0.2-0.9-0.3-1.6-0.3c-0.8,0-1.4,0.2-1.7,0.6c-0.2,0.3-0.4,0.7-0.5,1.2h-3.2c0.1-1.1,0.4-2,0.9-2.8c0.9-1.1,2.4-1.7,4.6-1.7
				c1.4,0,2.7,0.3,3.7,0.8s1.6,1.6,1.6,3.1v5.9c0,0.4,0,0.9,0,1.5c0,0.4,0.1,0.7,0.2,0.9s0.3,0.3,0.5,0.4v0.5h-3.6
				c-0.1-0.3-0.2-0.5-0.2-0.7s-0.1-0.5-0.1-0.8c-0.5,0.5-1,0.9-1.6,1.3c-0.7,0.4-1.5,0.6-2.5,0.6c-1.2,0-2.1-0.3-2.9-1
				c-0.8-0.7-1.1-1.6-1.1-2.8c0-1.6,0.6-2.7,1.8-3.4c0.7-0.4,1.7-0.7,3-0.8L1205.6,129.9z M1207.6,131.4c-0.2,0.1-0.4,0.2-0.6,0.3
				s-0.5,0.2-0.9,0.2l-0.8,0.1c-0.7,0.1-1.2,0.3-1.5,0.5c-0.5,0.3-0.8,0.8-0.8,1.4c0,0.6,0.2,1,0.5,1.2s0.7,0.4,1.2,0.4
				c0.7,0,1.4-0.2,2-0.6c0.6-0.4,0.9-1.2,1-2.3V131.4z"/>
			<path class="st1" d="M1222.9,125.6c0.8,0.7,1.3,1.8,1.3,3.4v8.6h-3.4v-7.8c0-0.7-0.1-1.2-0.3-1.5c-0.3-0.7-0.9-1-1.9-1
				c-1.1,0-1.9,0.5-2.3,1.4c-0.2,0.5-0.3,1.2-0.3,1.9v6.9h-3.3v-12.8h3.2v1.9c0.4-0.7,0.8-1.1,1.2-1.4c0.7-0.5,1.6-0.8,2.6-0.8
				C1221,124.6,1222.1,124.9,1222.9,125.6z"/>
			<path class="st1" d="M1224.8,127.4V125h1.8v-3.6h3.3v3.6h2.1v2.4h-2.1v6.8c0,0.5,0.1,0.8,0.2,1s0.5,0.2,1.2,0.2
				c0.1,0,0.2,0,0.3,0s0.2,0,0.3,0v2.5l-1.6,0.1c-1.6,0.1-2.7-0.2-3.2-0.8c-0.4-0.4-0.6-1-0.6-1.8v-7.9H1224.8z"/>
			<path class="st1" d="M1237,127.4V125h1.8v-3.6h3.3v3.6h2.1v2.4h-2.1v6.8c0,0.5,0.1,0.8,0.2,1s0.5,0.2,1.2,0.2c0.1,0,0.2,0,0.3,0
				s0.2,0,0.3,0v2.5l-1.6,0.1c-1.6,0.1-2.7-0.2-3.2-0.8c-0.4-0.4-0.6-1-0.6-1.8v-7.9H1237z"/>
			<path class="st1" d="M1253.5,125.1c0.9,0.4,1.6,1,2.2,1.9c0.5,0.8,0.9,1.6,1,2.6c0.1,0.6,0.1,1.4,0.1,2.5h-9.3
				c0.1,1.3,0.5,2.2,1.3,2.7c0.5,0.3,1.1,0.5,1.8,0.5c0.8,0,1.4-0.2,1.9-0.6c0.3-0.2,0.5-0.5,0.7-0.9h3.4c-0.1,0.8-0.5,1.5-1.2,2.3
				c-1.1,1.2-2.7,1.9-4.8,1.9c-1.7,0-3.2-0.5-4.5-1.6c-1.3-1-1.9-2.8-1.9-5.1c0-2.2,0.6-3.9,1.8-5.1s2.7-1.8,4.6-1.8
				C1251.6,124.5,1252.6,124.7,1253.5,125.1z M1248.5,128c-0.5,0.5-0.8,1.1-0.9,2h5.8c-0.1-0.9-0.4-1.6-0.9-2s-1.2-0.7-2-0.7
				C1249.6,127.3,1249,127.5,1248.5,128z"/>
			<path class="st1" d="M1273.2,124.9c0.5,0.2,1,0.6,1.5,1.1c0.4,0.4,0.6,1,0.7,1.6c0.1,0.4,0.1,1.1,0.1,1.9l0,8.1h-3.4v-8.1
				c0-0.5-0.1-0.9-0.2-1.2c-0.3-0.6-0.8-0.9-1.6-0.9c-0.9,0-1.6,0.4-1.9,1.1c-0.2,0.4-0.3,0.9-0.3,1.5v7.6h-3.4V130
				c0-0.8-0.1-1.3-0.2-1.7c-0.3-0.6-0.8-0.9-1.7-0.9c-1,0-1.6,0.3-1.9,0.9c-0.2,0.4-0.3,0.9-0.3,1.6v7.7h-3.4v-12.8h3.2v1.9
				c0.4-0.7,0.8-1.1,1.2-1.4c0.6-0.5,1.5-0.8,2.5-0.8c1,0,1.8,0.2,2.4,0.6c0.5,0.4,0.9,0.9,1.1,1.5c0.4-0.8,1-1.3,1.6-1.7
				c0.7-0.4,1.5-0.5,2.3-0.5C1272.1,124.6,1272.7,124.7,1273.2,124.9z"/>
			<path class="st1" d="M1288.2,126.2c1,1.1,1.6,2.7,1.6,4.9c0,2.2-0.5,4-1.5,5.1c-1,1.2-2.3,1.8-3.9,1.8c-1,0-1.9-0.3-2.5-0.8
				c-0.4-0.3-0.7-0.7-1.1-1.2v6.7h-3.3v-17.8h3.2v1.9c0.4-0.6,0.7-1,1.2-1.3c0.7-0.6,1.6-0.9,2.7-0.9
				C1285.9,124.6,1287.1,125.1,1288.2,126.2z M1285.6,128.6c-0.5-0.8-1.2-1.1-2.2-1.1c-1.2,0-2.1,0.6-2.5,1.7
				c-0.2,0.6-0.4,1.4-0.4,2.3c0,1.5,0.4,2.5,1.2,3.1c0.5,0.4,1,0.5,1.7,0.5c0.9,0,1.7-0.4,2.1-1.1s0.7-1.7,0.7-2.9
				C1286.3,130.3,1286.1,129.4,1285.6,128.6z"/>
			<path class="st1" d="M1299.2,125.1c0.9,0.4,1.6,1,2.2,1.9c0.5,0.8,0.9,1.6,1,2.6c0.1,0.6,0.1,1.4,0.1,2.5h-9.3
				c0.1,1.3,0.5,2.2,1.3,2.7c0.5,0.3,1.1,0.5,1.8,0.5c0.8,0,1.4-0.2,1.9-0.6c0.3-0.2,0.5-0.5,0.7-0.9h3.4c-0.1,0.8-0.5,1.5-1.2,2.3
				c-1.1,1.2-2.7,1.9-4.8,1.9c-1.7,0-3.2-0.5-4.5-1.6c-1.3-1-1.9-2.8-1.9-5.1c0-2.2,0.6-3.9,1.8-5.1c1.2-1.2,2.7-1.8,4.6-1.8
				C1297.3,124.5,1298.3,124.7,1299.2,125.1z M1294.2,128c-0.5,0.5-0.8,1.1-0.9,2h5.8c-0.1-0.9-0.4-1.6-0.9-2
				c-0.5-0.5-1.2-0.7-2-0.7C1295.4,127.3,1294.7,127.5,1294.2,128z"/>
			<path class="st1" d="M1310.1,124.6c0,0,0.1,0,0.3,0v3.4c-0.2,0-0.4,0-0.6,0s-0.3,0-0.4,0c-1.3,0-2.2,0.4-2.7,1.3
				c-0.3,0.5-0.4,1.2-0.4,2.3v6.1h-3.4v-12.8h3.2v2.2c0.5-0.9,1-1.4,1.3-1.7c0.6-0.5,1.4-0.8,2.4-0.8
				C1310,124.6,1310.1,124.6,1310.1,124.6z"/>
			<path class="st1" d="M1316.2,129.9c0.6-0.1,1.1-0.2,1.3-0.3c0.5-0.2,0.7-0.5,0.7-0.9c0-0.5-0.2-0.9-0.6-1.1
				c-0.4-0.2-0.9-0.3-1.6-0.3c-0.8,0-1.4,0.2-1.7,0.6c-0.2,0.3-0.4,0.7-0.5,1.2h-3.2c0.1-1.1,0.4-2,0.9-2.8c0.9-1.1,2.4-1.7,4.6-1.7
				c1.4,0,2.7,0.3,3.7,0.8s1.6,1.6,1.6,3.1v5.9c0,0.4,0,0.9,0,1.5c0,0.4,0.1,0.7,0.2,0.9s0.3,0.3,0.5,0.4v0.5h-3.6
				c-0.1-0.3-0.2-0.5-0.2-0.7s-0.1-0.5-0.1-0.8c-0.5,0.5-1,0.9-1.6,1.3c-0.7,0.4-1.5,0.6-2.5,0.6c-1.2,0-2.1-0.3-2.9-1
				c-0.8-0.7-1.1-1.6-1.1-2.8c0-1.6,0.6-2.7,1.8-3.4c0.7-0.4,1.7-0.7,3-0.8L1316.2,129.9z M1318.3,131.4c-0.2,0.1-0.4,0.2-0.6,0.3
				s-0.5,0.2-0.9,0.2l-0.8,0.1c-0.7,0.1-1.2,0.3-1.5,0.5c-0.5,0.3-0.8,0.8-0.8,1.4c0,0.6,0.2,1,0.5,1.2s0.7,0.4,1.2,0.4
				c0.7,0,1.4-0.2,2-0.6c0.6-0.4,0.9-1.2,1-2.3V131.4z"/>
			<path class="st1" d="M1322,127.4V125h1.8v-3.6h3.3v3.6h2.1v2.4h-2.1v6.8c0,0.5,0.1,0.8,0.2,1s0.5,0.2,1.2,0.2c0.1,0,0.2,0,0.3,0
				s0.2,0,0.3,0v2.5l-1.6,0.1c-1.6,0.1-2.7-0.2-3.2-0.8c-0.4-0.4-0.6-1-0.6-1.8v-7.9H1322z"/>
			<path class="st1" d="M1333.5,124.9v7.7c0,0.7,0.1,1.3,0.3,1.6c0.3,0.6,0.9,1,1.8,1c1.1,0,1.9-0.5,2.3-1.4c0.2-0.5,0.3-1.2,0.3-2
				v-6.9h3.4v12.8h-3.2v-1.8c0,0-0.1,0.2-0.2,0.4c-0.1,0.2-0.3,0.4-0.4,0.5c-0.5,0.5-1,0.8-1.5,1s-1.1,0.3-1.7,0.3
				c-1.9,0-3.2-0.7-3.8-2c-0.4-0.8-0.5-1.9-0.5-3.3v-7.7H1333.5z"/>
			<path class="st1" d="M1350.7,124.6c0,0,0.1,0,0.3,0v3.4c-0.2,0-0.4,0-0.6,0s-0.3,0-0.4,0c-1.3,0-2.2,0.4-2.7,1.3
				c-0.3,0.5-0.4,1.2-0.4,2.3v6.1h-3.4v-12.8h3.2v2.2c0.5-0.9,1-1.4,1.3-1.7c0.6-0.5,1.4-0.8,2.4-0.8
				C1350.6,124.6,1350.6,124.6,1350.7,124.6z"/>
			<path class="st1" d="M1360.1,125.1c0.9,0.4,1.6,1,2.2,1.9c0.5,0.8,0.9,1.6,1,2.6c0.1,0.6,0.1,1.4,0.1,2.5h-9.3
				c0.1,1.3,0.5,2.2,1.3,2.7c0.5,0.3,1.1,0.5,1.8,0.5c0.8,0,1.4-0.2,1.9-0.6c0.3-0.2,0.5-0.5,0.7-0.9h3.4c-0.1,0.8-0.5,1.5-1.2,2.3
				c-1.1,1.2-2.7,1.9-4.8,1.9c-1.7,0-3.2-0.5-4.5-1.6c-1.3-1-1.9-2.8-1.9-5.1c0-2.2,0.6-3.9,1.8-5.1c1.2-1.2,2.7-1.8,4.6-1.8
				C1358.2,124.5,1359.2,124.7,1360.1,125.1z M1355.1,128c-0.5,0.5-0.8,1.1-0.9,2h5.8c-0.1-0.9-0.4-1.6-0.9-2
				c-0.5-0.5-1.2-0.7-2-0.7C1356.2,127.3,1355.5,127.5,1355.1,128z"/>
			<path class="st1" d="M1376.4,124.6c0,0,0.1,0,0.3,0v3.4c-0.2,0-0.4,0-0.6,0s-0.3,0-0.4,0c-1.3,0-2.2,0.4-2.7,1.3
				c-0.3,0.5-0.4,1.2-0.4,2.3v6.1h-3.4v-12.8h3.2v2.2c0.5-0.9,1-1.4,1.3-1.7c0.6-0.5,1.4-0.8,2.4-0.8
				C1376.3,124.6,1376.4,124.6,1376.4,124.6z"/>
			<path class="st1" d="M1385.8,125.1c0.9,0.4,1.6,1,2.2,1.9c0.5,0.8,0.9,1.6,1,2.6c0.1,0.6,0.1,1.4,0.1,2.5h-9.3
				c0.1,1.3,0.5,2.2,1.3,2.7c0.5,0.3,1.1,0.5,1.8,0.5c0.8,0,1.4-0.2,1.9-0.6c0.3-0.2,0.5-0.5,0.7-0.9h3.4c-0.1,0.8-0.5,1.5-1.2,2.3
				c-1.1,1.2-2.7,1.9-4.8,1.9c-1.7,0-3.2-0.5-4.5-1.6c-1.3-1-1.9-2.8-1.9-5.1c0-2.2,0.6-3.9,1.8-5.1c1.2-1.2,2.7-1.8,4.6-1.8
				C1383.9,124.5,1384.9,124.7,1385.8,125.1z M1380.8,128c-0.5,0.5-0.8,1.1-0.9,2h5.8c-0.1-0.9-0.4-1.6-0.9-2
				c-0.5-0.5-1.2-0.7-2-0.7C1381.9,127.3,1381.3,127.5,1380.8,128z"/>
			<path class="st1" d="M1396,124.9c0.8,0.3,1.5,1,2,1.9v-1.8h3.3V137c0,1.6-0.3,2.9-0.8,3.7c-1,1.4-2.8,2.2-5.5,2.2
				c-1.6,0-3-0.3-4-1s-1.6-1.6-1.7-2.9h3.6c0.1,0.4,0.2,0.7,0.5,0.8c0.4,0.3,1,0.5,1.8,0.5c1.2,0,2-0.4,2.4-1.2
				c0.3-0.5,0.4-1.4,0.4-2.6v-0.8c-0.3,0.5-0.7,1-1,1.2c-0.7,0.5-1.5,0.8-2.6,0.8c-1.6,0-3-0.6-3.9-1.7s-1.5-2.7-1.5-4.7
				c0-1.9,0.5-3.5,1.4-4.8s2.3-1.9,4-1.9C1394.9,124.6,1395.5,124.7,1396,124.9z M1397.1,134c0.5-0.6,0.8-1.5,0.8-2.8
				c0-1.2-0.3-2.1-0.8-2.8s-1.2-0.9-2-0.9c-1.2,0-2,0.6-2.4,1.7c-0.2,0.6-0.3,1.3-0.3,2.2c0,0.7,0.1,1.4,0.4,2
				c0.5,1.1,1.3,1.6,2.4,1.6C1395.9,134.9,1396.6,134.6,1397.1,134z"/>
			<path class="st1" d="M1406.4,124.9v7.7c0,0.7,0.1,1.3,0.3,1.6c0.3,0.6,0.9,1,1.8,1c1.1,0,1.9-0.5,2.3-1.4c0.2-0.5,0.3-1.2,0.3-2
				v-6.9h3.4v12.8h-3.2v-1.8c0,0-0.1,0.2-0.2,0.4c-0.1,0.2-0.3,0.4-0.4,0.5c-0.5,0.5-1,0.8-1.5,1c-0.5,0.2-1.1,0.3-1.7,0.3
				c-1.9,0-3.2-0.7-3.8-2c-0.4-0.8-0.5-1.9-0.5-3.3v-7.7H1406.4z"/>
			<path class="st1" d="M1420,137.6h-3.3v-17.3h3.3V137.6z"/>
			<path class="st1" d="M1427.1,129.9c0.6-0.1,1.1-0.2,1.3-0.3c0.5-0.2,0.7-0.5,0.7-0.9c0-0.5-0.2-0.9-0.6-1.1s-0.9-0.3-1.6-0.3
				c-0.8,0-1.4,0.2-1.7,0.6c-0.2,0.3-0.4,0.7-0.5,1.2h-3.2c0.1-1.1,0.4-2,0.9-2.8c0.9-1.1,2.4-1.7,4.6-1.7c1.4,0,2.7,0.3,3.7,0.8
				s1.6,1.6,1.6,3.1v5.9c0,0.4,0,0.9,0,1.5c0,0.4,0.1,0.7,0.2,0.9s0.3,0.3,0.5,0.4v0.5h-3.6c-0.1-0.3-0.2-0.5-0.2-0.7
				s-0.1-0.5-0.1-0.8c-0.5,0.5-1,0.9-1.6,1.3c-0.7,0.4-1.5,0.6-2.5,0.6c-1.2,0-2.1-0.3-2.9-1c-0.8-0.7-1.1-1.6-1.1-2.8
				c0-1.6,0.6-2.7,1.8-3.4c0.7-0.4,1.7-0.7,3-0.8L1427.1,129.9z M1429.1,131.4c-0.2,0.1-0.4,0.2-0.6,0.3s-0.5,0.2-0.9,0.2l-0.8,0.1
				c-0.7,0.1-1.2,0.3-1.5,0.5c-0.5,0.3-0.8,0.8-0.8,1.4c0,0.6,0.2,1,0.5,1.2c0.3,0.3,0.7,0.4,1.2,0.4c0.7,0,1.4-0.2,2-0.6
				s0.9-1.2,1-2.3V131.4z"/>
			<path class="st1" d="M1432.9,127.4V125h1.8v-3.6h3.3v3.6h2.1v2.4h-2.1v6.8c0,0.5,0.1,0.8,0.2,1s0.5,0.2,1.2,0.2
				c0.1,0,0.2,0,0.3,0s0.2,0,0.3,0v2.5l-1.6,0.1c-1.6,0.1-2.7-0.2-3.2-0.8c-0.4-0.4-0.6-1-0.6-1.8v-7.9H1432.9z"/>
			<path class="st1" d="M1449.3,125.1c0.9,0.4,1.6,1,2.2,1.9c0.5,0.8,0.9,1.6,1,2.6c0.1,0.6,0.1,1.4,0.1,2.5h-9.3
				c0.1,1.3,0.5,2.2,1.3,2.7c0.5,0.3,1.1,0.5,1.8,0.5c0.8,0,1.4-0.2,1.9-0.6c0.3-0.2,0.5-0.5,0.7-0.9h3.4c-0.1,0.8-0.5,1.5-1.2,2.3
				c-1.1,1.2-2.7,1.9-4.8,1.9c-1.7,0-3.2-0.5-4.5-1.6c-1.3-1-1.9-2.8-1.9-5.1c0-2.2,0.6-3.9,1.8-5.1s2.7-1.8,4.6-1.8
				C1447.4,124.5,1448.4,124.7,1449.3,125.1z M1444.3,128c-0.5,0.5-0.8,1.1-0.9,2h5.8c-0.1-0.9-0.4-1.6-0.9-2s-1.2-0.7-2-0.7
				C1445.4,127.3,1444.8,127.5,1444.3,128z"/>
			<path class="st1" d="M1459.9,125.1c0.6,0.3,1.1,0.8,1.5,1.4v-6.1h3.4v17.2h-3.2v-1.8c-0.5,0.8-1,1.3-1.6,1.7s-1.4,0.5-2.3,0.5
				c-1.5,0-2.7-0.6-3.8-1.8s-1.5-2.8-1.5-4.6c0-2.2,0.5-3.9,1.5-5.1s2.3-1.9,4-1.9C1458.6,124.6,1459.3,124.7,1459.9,125.1z
				 M1460.7,134.2c0.5-0.7,0.7-1.6,0.7-2.7c0-1.6-0.4-2.7-1.2-3.4c-0.5-0.4-1-0.6-1.7-0.6c-1,0-1.7,0.4-2.2,1.1s-0.7,1.7-0.7,2.7
				c0,1.2,0.2,2.1,0.7,2.8s1.2,1.1,2.1,1.1S1460.2,134.9,1460.7,134.2z"/>
		</g>
	</g>
	<g>
		<g>
			<g>
				<rect x="1170.5" y="166.6" class="st0" width="103" height="53"/>
			</g>
			<g>
				<path class="st1" d="M1272,168.1v50h-100v-50H1272 M1275,165.1h-3h-100h-3v3v50v3h3h100h3v-3v-50V165.1L1275,165.1z"/>
			</g>
		</g>
		<g>
			<path class="st1" d="M1190,194.2c-1,0.8-2.5,1.3-4.3,1.3h-3.6v6.2h-3.6v-17.3h7.4c1.7,0,3.1,0.4,4.1,1.3s1.5,2.3,1.5,4.1
				C1191.5,191.9,1191,193.3,1190,194.2z M1187.2,187.9c-0.5-0.4-1.1-0.6-1.9-0.6h-3.3v5.1h3.3c0.8,0,1.5-0.2,1.9-0.6s0.7-1.1,0.7-2
				S1187.7,188.3,1187.2,187.9z"/>
			<path class="st1" d="M1196.3,201.6h-3.3v-17.3h3.3V201.6z"/>
			<path class="st1" d="M1203.5,193.9c0.6-0.1,1.1-0.2,1.3-0.3c0.5-0.2,0.7-0.5,0.7-0.9c0-0.5-0.2-0.9-0.6-1.1s-0.9-0.3-1.6-0.3
				c-0.8,0-1.4,0.2-1.7,0.6c-0.2,0.3-0.4,0.7-0.5,1.2h-3.2c0.1-1.1,0.4-2,0.9-2.8c0.9-1.1,2.4-1.7,4.6-1.7c1.4,0,2.7,0.3,3.7,0.8
				c1.1,0.6,1.6,1.6,1.6,3.1v5.9c0,0.4,0,0.9,0,1.5c0,0.4,0.1,0.7,0.2,0.9s0.3,0.3,0.5,0.4v0.5h-3.6c-0.1-0.3-0.2-0.5-0.2-0.7
				s-0.1-0.5-0.1-0.8c-0.5,0.5-1,0.9-1.6,1.3c-0.7,0.4-1.5,0.6-2.5,0.6c-1.2,0-2.1-0.3-2.9-1c-0.8-0.7-1.1-1.6-1.1-2.8
				c0-1.6,0.6-2.7,1.8-3.4c0.7-0.4,1.7-0.7,3-0.8L1203.5,193.9z M1205.5,195.4c-0.2,0.1-0.4,0.2-0.6,0.3c-0.2,0.1-0.5,0.2-0.9,0.2
				l-0.8,0.1c-0.7,0.1-1.2,0.3-1.5,0.5c-0.5,0.3-0.8,0.8-0.8,1.4c0,0.6,0.2,1,0.5,1.2s0.7,0.4,1.2,0.4c0.7,0,1.4-0.2,2-0.6
				c0.6-0.4,0.9-1.2,1-2.3V195.4z"/>
			<path class="st1" d="M1220.8,189.6c0.8,0.7,1.3,1.8,1.3,3.4v8.6h-3.4v-7.8c0-0.7-0.1-1.2-0.3-1.5c-0.3-0.7-0.9-1-1.9-1
				c-1.1,0-1.9,0.5-2.3,1.4c-0.2,0.5-0.3,1.2-0.3,1.9v6.9h-3.3v-12.8h3.2v1.9c0.4-0.7,0.8-1.1,1.2-1.4c0.7-0.5,1.6-0.8,2.6-0.8
				C1218.9,188.6,1220,188.9,1220.8,189.6z"/>
			<path class="st1" d="M1222.7,191.4V189h1.8v-3.6h3.3v3.6h2.1v2.4h-2.1v6.8c0,0.5,0.1,0.8,0.2,1s0.5,0.2,1.2,0.2
				c0.1,0,0.2,0,0.3,0s0.2,0,0.3,0v2.5l-1.6,0.1c-1.6,0.1-2.7-0.2-3.2-0.8c-0.4-0.4-0.6-1-0.6-1.8v-7.9H1222.7z"/>
			<path class="st1" d="M1241.5,184.2c0.2,0,0.4,0,0.7,0.1v2.7c-0.2,0-0.5,0-0.9-0.1s-0.7,0.1-0.9,0.3s-0.3,0.4-0.3,0.7s0,0.6,0,1.1
				h2.2v2.4h-2.2v10.3h-3.3v-10.3h-1.9V189h1.8v-0.8c0-1.4,0.2-2.3,0.7-2.8c0.5-0.8,1.7-1.1,3.5-1.1
				C1241.2,184.2,1241.4,184.2,1241.5,184.2z"/>
			<path class="st1" d="M1251.4,189.1c0.9,0.4,1.6,1,2.2,1.9c0.5,0.8,0.9,1.6,1,2.6c0.1,0.6,0.1,1.4,0.1,2.5h-9.3
				c0.1,1.3,0.5,2.2,1.3,2.7c0.5,0.3,1.1,0.5,1.8,0.5c0.8,0,1.4-0.2,1.9-0.6c0.3-0.2,0.5-0.5,0.7-0.9h3.4c-0.1,0.8-0.5,1.5-1.2,2.3
				c-1.1,1.2-2.7,1.9-4.8,1.9c-1.7,0-3.2-0.5-4.5-1.6c-1.3-1-1.9-2.8-1.9-5.1c0-2.2,0.6-3.9,1.8-5.1c1.2-1.2,2.7-1.8,4.6-1.8
				C1249.5,188.5,1250.5,188.7,1251.4,189.1z M1246.4,192c-0.5,0.5-0.8,1.1-0.9,2h5.8c-0.1-0.9-0.4-1.6-0.9-2
				c-0.5-0.5-1.2-0.7-2-0.7C1247.5,191.3,1246.9,191.5,1246.4,192z"/>
			<path class="st1" d="M1262,189.1c0.6,0.3,1.1,0.8,1.5,1.4v-6.1h3.4v17.3h-3.2v-1.8c-0.5,0.8-1,1.3-1.6,1.7s-1.4,0.5-2.3,0.5
				c-1.5,0-2.7-0.6-3.8-1.8s-1.5-2.8-1.5-4.6c0-2.2,0.5-3.9,1.5-5.1s2.3-1.9,4-1.9C1260.7,188.6,1261.4,188.7,1262,189.1z
				 M1262.8,198.2c0.5-0.7,0.7-1.6,0.7-2.7c0-1.6-0.4-2.7-1.2-3.4c-0.5-0.4-1-0.6-1.7-0.6c-1,0-1.7,0.4-2.2,1.1
				c-0.5,0.7-0.7,1.7-0.7,2.7c0,1.2,0.2,2.1,0.7,2.8s1.2,1.1,2.1,1.1S1262.3,198.9,1262.8,198.2z"/>
		</g>
	</g>
	<g>
		<g>
			<g>
				<rect x="920.5" y="102.6" class="st0" width="103" height="53"/>
			</g>
			<g>
				<path class="st1" d="M1022,104.1v50H922v-50H1022 M1025,101.1h-3H922h-3v3v50v3h3h100h3v-3v-50V101.1L1025,101.1z"/>
			</g>
		</g>
		<g>
			<path class="st1" d="M939.7,137.6v-17.3h3.6v6.6h6.7v-6.6h3.6v17.3H950v-7.7h-6.7v7.7H939.7z"/>
			<path class="st1" d="M963.9,125.1c0.9,0.4,1.6,1,2.2,1.9c0.5,0.8,0.9,1.6,1,2.6c0.1,0.6,0.1,1.4,0.1,2.5h-9.3
				c0.1,1.3,0.5,2.2,1.3,2.7c0.5,0.3,1.1,0.5,1.8,0.5c0.8,0,1.4-0.2,1.9-0.6c0.3-0.2,0.5-0.5,0.7-0.9h3.4c-0.1,0.8-0.5,1.5-1.2,2.3
				c-1.1,1.2-2.7,1.9-4.8,1.9c-1.7,0-3.2-0.5-4.5-1.6c-1.3-1-1.9-2.8-1.9-5.1c0-2.2,0.6-3.9,1.8-5.1c1.2-1.2,2.7-1.8,4.6-1.8
				C962,124.5,963,124.7,963.9,125.1z M958.9,128c-0.5,0.5-0.8,1.1-0.9,2h5.8c-0.1-0.9-0.4-1.6-0.9-2c-0.5-0.5-1.2-0.7-2-0.7
				C960,127.3,959.4,127.5,958.9,128z"/>
			<path class="st1" d="M972.8,129.9c0.6-0.1,1.1-0.2,1.3-0.3c0.5-0.2,0.7-0.5,0.7-0.9c0-0.5-0.2-0.9-0.6-1.1
				c-0.4-0.2-0.9-0.3-1.6-0.3c-0.8,0-1.4,0.2-1.7,0.6c-0.2,0.3-0.4,0.7-0.5,1.2h-3.2c0.1-1.1,0.4-2,0.9-2.8c0.9-1.1,2.4-1.7,4.6-1.7
				c1.4,0,2.7,0.3,3.7,0.8s1.6,1.6,1.6,3.1v5.9c0,0.4,0,0.9,0,1.5c0,0.4,0.1,0.7,0.2,0.9s0.3,0.3,0.5,0.4v0.5h-3.6
				c-0.1-0.3-0.2-0.5-0.2-0.7s-0.1-0.5-0.1-0.8c-0.5,0.5-1,0.9-1.6,1.3c-0.7,0.4-1.5,0.6-2.5,0.6c-1.2,0-2.1-0.3-2.9-1
				c-0.8-0.7-1.1-1.6-1.1-2.8c0-1.6,0.6-2.7,1.8-3.4c0.7-0.4,1.7-0.7,3-0.8L972.8,129.9z M974.8,131.4c-0.2,0.1-0.4,0.2-0.6,0.3
				s-0.5,0.2-0.9,0.2l-0.8,0.1c-0.7,0.1-1.2,0.3-1.5,0.5c-0.5,0.3-0.8,0.8-0.8,1.4c0,0.6,0.2,1,0.5,1.2c0.3,0.3,0.7,0.4,1.2,0.4
				c0.7,0,1.4-0.2,2-0.6s0.9-1.2,1-2.3V131.4z"/>
			<path class="st1" d="M978.5,127.4V125h1.8v-3.6h3.3v3.6h2.1v2.4h-2.1v6.8c0,0.5,0.1,0.8,0.2,1s0.5,0.2,1.2,0.2c0.1,0,0.2,0,0.3,0
				s0.2,0,0.3,0v2.5l-1.6,0.1c-1.6,0.1-2.7-0.2-3.2-0.8c-0.4-0.4-0.6-1-0.6-1.8v-7.9H978.5z"/>
			<path class="st1" d="M995,125.1c0.9,0.4,1.6,1,2.2,1.9c0.5,0.8,0.9,1.6,1,2.6c0.1,0.6,0.1,1.4,0.1,2.5H989
				c0.1,1.3,0.5,2.2,1.3,2.7c0.5,0.3,1.1,0.5,1.8,0.5c0.8,0,1.4-0.2,1.9-0.6c0.3-0.2,0.5-0.5,0.7-0.9h3.4c-0.1,0.8-0.5,1.5-1.2,2.3
				c-1.1,1.2-2.7,1.9-4.8,1.9c-1.7,0-3.2-0.5-4.5-1.6c-1.3-1-1.9-2.8-1.9-5.1c0-2.2,0.6-3.9,1.8-5.1c1.2-1.2,2.7-1.8,4.6-1.8
				C993.1,124.5,994.1,124.7,995,125.1z M990,128c-0.5,0.5-0.8,1.1-0.9,2h5.8c-0.1-0.9-0.4-1.6-0.9-2c-0.5-0.5-1.2-0.7-2-0.7
				C991.1,127.3,990.4,127.5,990,128z"/>
			<path class="st1" d="M1005.9,124.6c0,0,0.1,0,0.3,0v3.4c-0.2,0-0.4,0-0.6,0s-0.3,0-0.4,0c-1.3,0-2.2,0.4-2.7,1.3
				c-0.3,0.5-0.4,1.2-0.4,2.3v6.1h-3.4v-12.8h3.2v2.2c0.5-0.9,1-1.4,1.3-1.7c0.6-0.5,1.4-0.8,2.4-0.8
				C1005.8,124.6,1005.8,124.6,1005.9,124.6z"/>
		</g>
	</g>
	<g>
		<g>
			<g>
				<rect x="920.5" y="167.6" class="st0" width="103" height="53"/>
			</g>
			<g>
				<path class="st1" d="M1022,169.1v50H922v-50H1022 M1025,166.1h-3H922h-3v3v50v3h3h100h3v-3v-50V166.1L1025,166.1z"/>
			</g>
		</g>
		<g>
			<path class="st1" d="M938.8,185.4h3.8l6.9,12v-12h3.4v17.3h-3.6l-7-12.3v12.3h-3.4V185.4z"/>
			<path class="st1" d="M965.4,201.1c-1.1,1.3-2.7,2-4.9,2s-3.8-0.7-4.9-2c-1.1-1.3-1.6-2.9-1.6-4.8c0-1.8,0.5-3.4,1.6-4.8
				c1.1-1.4,2.7-2,4.9-2s3.8,0.7,4.9,2c1.1,1.4,1.6,2.9,1.6,4.8C967,198.1,966.5,199.7,965.4,201.1z M962.7,199.2
				c0.5-0.7,0.8-1.7,0.8-3s-0.3-2.3-0.8-3s-1.3-1-2.2-1s-1.7,0.3-2.3,1s-0.8,1.7-0.8,3s0.3,2.3,0.8,3s1.3,1,2.3,1
				S962.2,199.9,962.7,199.2z"/>
			<path class="st1" d="M967.5,192.6v-2.7h10.1v2.8l-6.3,7.3h6.5v2.7H967V200l6.3-7.5H967.5z"/>
			<path class="st1" d="M978.3,192.6v-2.7h10.1v2.8l-6.3,7.3h6.5v2.7h-10.8V200l6.3-7.5H978.3z"/>
			<path class="st1" d="M993.2,202.6h-3.3v-17.3h3.3V202.6z"/>
			<path class="st1" d="M1003.6,190.1c0.9,0.4,1.6,1,2.2,1.9c0.5,0.8,0.9,1.6,1,2.6c0.1,0.6,0.1,1.4,0.1,2.5h-9.3
				c0.1,1.3,0.5,2.2,1.3,2.7c0.5,0.3,1.1,0.5,1.8,0.5c0.8,0,1.4-0.2,1.9-0.6c0.3-0.2,0.5-0.5,0.7-0.9h3.4c-0.1,0.8-0.5,1.5-1.2,2.3
				c-1.1,1.2-2.7,1.9-4.8,1.9c-1.7,0-3.2-0.5-4.5-1.6c-1.3-1-1.9-2.8-1.9-5.1c0-2.2,0.6-3.9,1.8-5.1c1.2-1.2,2.7-1.8,4.6-1.8
				C1001.7,189.5,1002.7,189.7,1003.6,190.1z M998.6,193c-0.5,0.5-0.8,1.1-0.9,2h5.8c-0.1-0.9-0.4-1.6-0.9-2c-0.5-0.5-1.2-0.7-2-0.7
				C999.8,192.3,999.1,192.5,998.6,193z"/>
		</g>
	</g>
	<g>
		<g id="surface1">
			<g>
				<path class="st1" d="M785.1,38.9c0-1.8-1.4-3.2-3.2-3.2h-19.2c-1.8,0-3.2,1.4-3.2,3.2v185.6c0,1.8,1.4,3.2,3.2,3.2h19.2
					c1.8,0,3.2-1.4,3.2-3.2c0-3.5,2.9-6.4,6.4-6.4c3.5,0,6.4,2.9,6.4,6.4c0,1.8,1.4,3.2,3.2,3.2h38.4c1.8,0,3.2-1.4,3.2-3.2V38.9
					c0-1.8-1.4-3.2-3.2-3.2h-38.4c-1.8,0-3.2,1.4-3.2,3.2c0,3.5-2.9,6.4-6.4,6.4C788,45.3,785.1,42.4,785.1,38.9z M836.3,42.1v179.2
					h-12.8v-3.2h9.6v-6.4h-9.6v-6.4h9.6v-6.4h-9.6v-6.4h9.6v-6.4h-9.6v-6.4h9.6v-6.4h-9.6v-6.4h9.6v-6.4h-9.6v-6.4h9.6v-6.4h-9.6
					v-6.4h9.6v-6.4h-9.6v-6.4h9.6v-6.4h-9.6v-6.4h9.6v-6.4h-9.6v-6.4h9.6v-6.4h-9.6v-6.4h9.6v-6.4h-9.6v-6.4h9.6v-6.4h-9.6v-6.4h9.6
					v-6.4h-9.6v-6.4h9.6v-6.4h-9.6v-3.2H836.3z M803.9,42.1h13.2v179.2h-13.2c-1.5-5.7-6.6-9.6-12.4-9.6c-5.8,0-10.9,4-12.4,9.6
					h-13.2V42.1h13.2c1.5,5.7,6.6,9.6,12.4,9.6C797.4,51.7,802.5,47.7,803.9,42.1z"/>
			</g>
		</g>
		<g>
			<path class="st1" d="M783.9,167.3v-4.1l17.3-6.1v3.9l-3.6,1.1v6.4l3.6,1.2v3.8L783.9,167.3z M794.7,167.5v-4.4l-6.8,2.2
				L794.7,167.5z"/>
			<path class="st1" d="M788.1,149.3c0,0,0-0.1,0-0.3h3.4c0,0.2,0,0.4,0,0.6s0,0.3,0,0.4c0,1.3,0.4,2.2,1.3,2.7
				c0.5,0.3,1.2,0.4,2.3,0.4h6.1v3.4h-12.8v-3.2h2.2c-0.9-0.5-1.4-1-1.7-1.3c-0.5-0.6-0.8-1.4-0.8-2.4
				C788.1,149.4,788.1,149.3,788.1,149.3z"/>
			<path class="st1" d="M788.6,141.5c0.3-0.6,0.8-1.1,1.4-1.5H784v-3.4h17.2v3.2h-1.8c0.8,0.5,1.3,1,1.7,1.6s0.5,1.4,0.5,2.3
				c0,1.5-0.6,2.7-1.8,3.8s-2.8,1.5-4.6,1.5c-2.2,0-3.9-0.5-5.1-1.5s-1.9-2.3-1.9-4C788.1,142.7,788.3,142.1,788.6,141.5z
				 M797.7,140.6c-0.7-0.5-1.6-0.7-2.7-0.7c-1.6,0-2.7,0.4-3.4,1.2c-0.4,0.5-0.6,1-0.6,1.7c0,1,0.4,1.7,1.1,2.2s1.7,0.7,2.7,0.7
				c1.2,0,2.1-0.2,2.8-0.7s1.1-1.2,1.1-2.1S798.4,141.1,797.7,140.6z"/>
			<path class="st1" d="M788.4,131.4h7.7c0.7,0,1.3-0.1,1.6-0.3c0.6-0.3,1-0.9,1-1.8c0-1.1-0.5-1.9-1.4-2.3c-0.5-0.2-1.2-0.3-2-0.3
				h-6.9v-3.4h12.8v3.2h-1.8c0,0,0.2,0.1,0.4,0.2c0.2,0.1,0.4,0.3,0.5,0.4c0.5,0.5,0.8,1,1,1.5c0.2,0.5,0.3,1.1,0.3,1.7
				c0,1.9-0.7,3.2-2,3.8c-0.8,0.4-1.9,0.5-3.3,0.5h-7.7V131.4z"/>
			<path class="st1" d="M786.9,117.9v3.4h-3.1v-3.4H786.9z M788.4,121.3v-3.4h12.8v3.4H788.4z"/>
			<path class="st1" d="M789.2,105.5c0.7-0.8,1.8-1.3,3.4-1.3h8.6v3.4h-7.8c-0.7,0-1.2,0.1-1.5,0.3c-0.7,0.3-1,0.9-1,1.9
				c0,1.1,0.5,1.9,1.4,2.3c0.5,0.2,1.2,0.3,1.9,0.3h6.9v3.3h-12.8v-3.2h1.9c-0.7-0.4-1.1-0.8-1.4-1.2c-0.5-0.7-0.8-1.6-0.8-2.6
				C788.1,107.5,788.5,106.4,789.2,105.5z"/>
			<path class="st1" d="M799.6,91.7c1.3,1.1,2,2.7,2,4.9s-0.7,3.8-2,4.9s-2.9,1.6-4.8,1.6c-1.8,0-3.4-0.5-4.8-1.6
				c-1.4-1.1-2-2.7-2-4.9s0.7-3.8,2-4.9c1.3-1.1,2.9-1.6,4.8-1.6C796.7,90.1,798.3,90.7,799.6,91.7z M797.8,94.4
				c-0.7-0.5-1.7-0.8-3-0.8s-2.3,0.3-3,0.8s-1,1.3-1,2.2s0.3,1.7,1,2.3s1.7,0.8,3,0.8s2.3-0.3,3-0.8s1-1.3,1-2.3
				S798.5,94.9,797.8,94.4z"/>
		</g>
	</g>
	<g>
		<g>
			<g>
				<rect x="908.5" y="273.6" class="st0" width="128" height="78"/>
			</g>
			<g>
				<path class="st1" d="M1035,275.1v75H910v-75H1035 M1038,272.1h-3H910h-3v3v75v3h3h125h3v-3v-75V272.1L1038,272.1z"/>
			</g>
		</g>
		<g>
			<path class="st1" d="M935.3,291.8c0.6,0.3,1.2,0.7,1.6,1.2c0.4,0.4,0.7,0.9,0.9,1.5c0.2,0.5,0.3,1.1,0.3,1.8
				c0,0.8-0.2,1.6-0.6,2.4s-1.1,1.4-2.1,1.7c0.8,0.3,1.4,0.8,1.7,1.4s0.5,1.5,0.5,2.7v1.2c0,0.8,0,1.3,0.1,1.6
				c0.1,0.4,0.3,0.8,0.7,1v0.4h-4c-0.1-0.4-0.2-0.7-0.2-0.9c-0.1-0.5-0.1-1-0.2-1.5l0-1.6c0-1.1-0.2-1.8-0.6-2.2
				c-0.4-0.4-1.1-0.6-2.1-0.6h-3.5v6.8h-3.5v-17.3h8.3C933.7,291.4,934.6,291.5,935.3,291.8z M927.8,294.4v4.6h3.9
				c0.8,0,1.3-0.1,1.7-0.3c0.7-0.3,1-1,1-1.9c0-1-0.3-1.8-1-2.1c-0.4-0.2-0.9-0.3-1.7-0.3H927.8z"/>
			<path class="st1" d="M948.4,296.1c0.9,0.4,1.6,1,2.2,1.9c0.5,0.8,0.9,1.6,1,2.6c0.1,0.6,0.1,1.4,0.1,2.5h-9.3
				c0.1,1.3,0.5,2.2,1.3,2.7c0.5,0.3,1.1,0.5,1.8,0.5c0.8,0,1.4-0.2,1.9-0.6c0.3-0.2,0.5-0.5,0.7-0.9h3.4c-0.1,0.8-0.5,1.5-1.2,2.3
				c-1.1,1.2-2.7,1.9-4.8,1.9c-1.7,0-3.2-0.5-4.5-1.6c-1.3-1-1.9-2.8-1.9-5.1c0-2.2,0.6-3.9,1.8-5.1s2.7-1.8,4.6-1.8
				C946.5,295.5,947.5,295.7,948.4,296.1z M943.4,299c-0.5,0.5-0.8,1.1-0.9,2h5.8c-0.1-0.9-0.4-1.6-0.9-2s-1.2-0.7-2-0.7
				C944.5,298.3,943.9,298.5,943.4,299z"/>
			<path class="st1" d="M954.8,304.6c0.1,0.6,0.2,1,0.5,1.3c0.4,0.4,1.2,0.7,2.3,0.7c0.7,0,1.2-0.1,1.6-0.3s0.6-0.5,0.6-0.9
				c0-0.4-0.2-0.7-0.5-0.9c-0.3-0.2-1.5-0.5-3.5-1c-1.5-0.4-2.5-0.8-3.1-1.3c-0.6-0.5-0.9-1.3-0.9-2.3c0-1.2,0.5-2.2,1.4-3
				s2.2-1.3,3.9-1.3c1.6,0,2.9,0.3,3.9,1s1.6,1.7,1.7,3.3h-3.3c0-0.4-0.2-0.8-0.4-1c-0.4-0.5-1-0.7-1.9-0.7c-0.7,0-1.2,0.1-1.6,0.3
				s-0.5,0.5-0.5,0.8c0,0.4,0.2,0.7,0.5,0.8c0.3,0.2,1.5,0.5,3.5,0.9c1.3,0.3,2.3,0.8,3,1.4c0.7,0.6,1,1.4,1,2.4
				c0,1.3-0.5,2.3-1.4,3.1s-2.4,1.2-4.4,1.2c-2,0-3.5-0.4-4.5-1.3s-1.4-1.9-1.4-3.2H954.8z"/>
			<path class="st1" d="M972.7,296.1c0.9,0.4,1.6,1,2.2,1.9c0.5,0.8,0.9,1.6,1,2.6c0.1,0.6,0.1,1.4,0.1,2.5h-9.3
				c0.1,1.3,0.5,2.2,1.3,2.7c0.5,0.3,1.1,0.5,1.8,0.5c0.8,0,1.4-0.2,1.9-0.6c0.3-0.2,0.5-0.5,0.7-0.9h3.4c-0.1,0.8-0.5,1.5-1.2,2.3
				c-1.1,1.2-2.7,1.9-4.8,1.9c-1.7,0-3.2-0.5-4.5-1.6c-1.3-1-1.9-2.8-1.9-5.1c0-2.2,0.6-3.9,1.8-5.1c1.2-1.2,2.7-1.8,4.6-1.8
				C970.8,295.5,971.8,295.7,972.7,296.1z M967.7,299c-0.5,0.5-0.8,1.1-0.9,2h5.8c-0.1-0.9-0.4-1.6-0.9-2c-0.5-0.5-1.2-0.7-2-0.7
				C968.8,298.3,968.2,298.5,967.7,299z"/>
			<path class="st1" d="M983.6,295.6c0,0,0.1,0,0.3,0v3.4c-0.2,0-0.4,0-0.6,0s-0.3,0-0.4,0c-1.3,0-2.2,0.4-2.7,1.3
				c-0.3,0.5-0.4,1.2-0.4,2.3v6.1h-3.4v-12.8h3.2v2.2c0.5-0.9,1-1.4,1.3-1.7c0.6-0.5,1.4-0.8,2.4-0.8
				C983.5,295.6,983.6,295.6,983.6,295.6z"/>
			<path class="st1" d="M992.5,295.9h3.6l-4.6,12.8H988l-4.6-12.8h3.8l2.7,9.4L992.5,295.9z"/>
			<path class="st1" d="M1007.4,307.1c-1.1,1.3-2.7,2-4.9,2s-3.8-0.7-4.9-2c-1.1-1.3-1.6-2.9-1.6-4.8c0-1.8,0.5-3.4,1.6-4.8
				s2.7-2,4.9-2s3.8,0.7,4.9,2s1.6,2.9,1.6,4.8C1009.1,304.1,1008.5,305.7,1007.4,307.1z M1004.8,305.2c0.5-0.7,0.8-1.7,0.8-3
				s-0.3-2.3-0.8-3s-1.3-1-2.2-1s-1.7,0.3-2.3,1s-0.8,1.7-0.8,3s0.3,2.3,0.8,3s1.3,1,2.3,1S1004.2,305.9,1004.8,305.2z"/>
			<path class="st1" d="M1013.7,294.3h-3.4v-3.1h3.4V294.3z M1010.3,295.9h3.4v12.8h-3.4V295.9z"/>
			<path class="st1" d="M1022.8,295.6c0,0,0.1,0,0.3,0v3.4c-0.2,0-0.4,0-0.6,0s-0.3,0-0.4,0c-1.3,0-2.2,0.4-2.7,1.3
				c-0.3,0.5-0.4,1.2-0.4,2.3v6.1h-3.4v-12.8h3.2v2.2c0.5-0.9,1-1.4,1.3-1.7c0.6-0.5,1.4-0.8,2.4-0.8
				C1022.7,295.6,1022.8,295.6,1022.8,295.6z"/>
			<path class="st1" d="M946.5,320.2h3.6v14.2h8.6v3.1h-12.2V320.2z"/>
			<path class="st1" d="M968,324.9c0.9,0.4,1.6,1,2.2,1.9c0.5,0.8,0.9,1.6,1,2.6c0.1,0.6,0.1,1.4,0.1,2.5H962
				c0.1,1.3,0.5,2.2,1.3,2.7c0.5,0.3,1.1,0.5,1.8,0.5c0.8,0,1.4-0.2,1.9-0.6c0.3-0.2,0.5-0.5,0.7-0.9h3.4c-0.1,0.8-0.5,1.5-1.2,2.3
				c-1.1,1.2-2.7,1.9-4.8,1.9c-1.7,0-3.2-0.5-4.5-1.6c-1.3-1-1.9-2.8-1.9-5.1c0-2.2,0.6-3.9,1.8-5.1c1.2-1.2,2.7-1.8,4.6-1.8
				C966.1,324.3,967.1,324.5,968,324.9z M963,327.8c-0.5,0.5-0.8,1.1-0.9,2h5.8c-0.1-0.9-0.4-1.6-0.9-2c-0.5-0.5-1.2-0.7-2-0.7
				C964.1,327.1,963.5,327.3,963,327.8z"/>
			<path class="st1" d="M979.7,324.7h3.6l-4.6,12.8h-3.5l-4.6-12.8h3.8l2.7,9.4L979.7,324.7z"/>
			<path class="st1" d="M992.3,324.9c0.9,0.4,1.6,1,2.2,1.9c0.5,0.8,0.9,1.6,1,2.6c0.1,0.6,0.1,1.4,0.1,2.5h-9.3
				c0.1,1.3,0.5,2.2,1.3,2.7c0.5,0.3,1.1,0.5,1.8,0.5c0.8,0,1.4-0.2,1.9-0.6c0.3-0.2,0.5-0.5,0.7-0.9h3.4c-0.1,0.8-0.5,1.5-1.2,2.3
				c-1.1,1.2-2.7,1.9-4.8,1.9c-1.7,0-3.2-0.5-4.5-1.6s-1.9-2.8-1.9-5.1c0-2.2,0.6-3.9,1.8-5.1c1.2-1.2,2.7-1.8,4.6-1.8
				C990.4,324.3,991.4,324.5,992.3,324.9z M987.3,327.8c-0.5,0.5-0.8,1.1-0.9,2h5.8c-0.1-0.9-0.4-1.6-0.9-2s-1.2-0.7-2-0.7
				C988.4,327.1,987.8,327.3,987.3,327.8z"/>
			<path class="st1" d="M999.5,337.4h-3.3v-17.3h3.3V337.4z"/>
		</g>
	</g>
	<g>
		<g>
			<rect x="350.9" y="136.5" class="st1" width="96.8" height="3"/>
		</g>
		<g>
			<g>
				<polygon class="st1" points="356.9,146.7 324.4,138 356.9,129.3 				"/>
			</g>
		</g>
		<g>
			<g>
				<polygon class="st1" points="441.8,146.7 474.4,138 441.8,129.3 				"/>
			</g>
		</g>
	</g>
	<g>
		<g>
			<rect x="635.9" y="136.5" class="st1" width="96.8" height="3"/>
		</g>
		<g>
			<g>
				<polygon class="st1" points="641.9,146.7 609.4,138 641.9,129.3 				"/>
			</g>
		</g>
		<g>
			<g>
				<polygon class="st1" points="726.8,146.7 759.4,138 726.8,129.3 				"/>
			</g>
		</g>
	</g>
	<g>
		<g>
			<rect x="1022.4" y="130.5" class="st1" width="123.4" height="3"/>
		</g>
		<g>
			<g>
				<polygon class="st1" points="1139.8,140.7 1172.4,132 1139.8,123.3 				"/>
			</g>
		</g>
	</g>
	<g>
		<g>
			<rect x="1022.4" y="62.5" class="st1" width="123.4" height="3"/>
		</g>
		<g>
			<g>
				<polygon class="st1" points="1139.8,72.7 1172.4,64 1139.8,55.3 				"/>
			</g>
		</g>
	</g>
	<g>
		<g>
			<rect x="843.4" y="62.5" class="st1" width="48.4" height="3"/>
		</g>
		<g>
			<g>
				<polygon class="st1" points="885.8,72.7 918.4,64 885.8,55.3 				"/>
			</g>
		</g>
	</g>
	<g>
		<g>
			<rect x="843.4" y="127.5" class="st1" width="48.4" height="3"/>
		</g>
		<g>
			<g>
				<polygon class="st1" points="885.8,137.7 918.4,129 885.8,120.3 				"/>
			</g>
		</g>
	</g>
	<g>
		<g>
			<rect x="970.4" y="249.1" class="st1" width="3" height="23.4"/>
		</g>
		<g>
			<g>
				<polygon class="st1" points="980.6,255 971.9,222.5 963.1,255 				"/>
			</g>
		</g>
	</g>
	<g>
		<g>
			
				<rect x="875.4" y="237.1" transform="matrix(0.7071 -0.7071 0.7071 0.7071 81.464 692.6714)" class="st1" width="3" height="21.8"/>
		</g>
		<g>
			<g>
				<polygon class="st1" points="867.2,250.6 850.3,221.5 879.5,238.3 				"/>
			</g>
		</g>
		<g>
			<g>
				<polygon class="st1" points="874.2,257.7 903.4,274.5 886.5,245.4 				"/>
			</g>
		</g>
	</g>
	<g>
		<g>
			<rect x="1022.4" y="193.5" class="st1" width="123.4" height="3"/>
		</g>
		<g>
			<g>
				<polygon class="st1" points="1139.8,203.7 1172.4,195 1139.8,186.3 				"/>
			</g>
		</g>
	</g>
</g>
</svg>
